<svg width="20" height="20" fill="none" xmlns="http://www.w3.org/2000/svg"><path d="M8.532 16.418a7.84 7.84 0 0 0 4.828-1.664l4.333 4.333 1.394-1.394-4.333-4.333a7.838 7.838 0 0 0 1.665-4.828c0-4.349-3.539-7.887-7.887-7.887C4.184.645.645 4.183.645 8.532c0 4.348 3.539 7.886 7.887 7.886Zm0-13.801a5.92 5.92 0 0 1 5.915 5.915 5.92 5.92 0 0 1-5.915 5.914 5.92 5.92 0 0 1-5.915-5.914 5.92 5.92 0 0 1 5.915-5.915Z" fill="#005EAB"/><path fill-rule="evenodd" clip-rule="evenodd" d="M8.532 17.063C3.827 17.063 0 13.236 0 8.532 0 3.827 3.827 0 8.532 0s8.532 3.827 8.532 8.532c0 1.702-.513 3.36-1.464 4.762l4.4 4.4L17.693 20l-4.4-4.4a8.485 8.485 0 0 1-4.761 1.463Zm4.828-2.31a7.84 7.84 0 0 1-4.828 1.665c-4.348 0-7.887-3.538-7.887-7.886C.645 4.183 4.184.645 8.532.645c4.348 0 7.887 3.538 7.887 7.887 0 1.75-.587 3.45-1.665 4.828l4.333 4.333-1.394 1.394-4.333-4.333Zm.442-6.221a5.275 5.275 0 0 0-5.27-5.27 5.275 5.275 0 0 0-5.27 5.27 5.275 5.275 0 0 0 5.27 5.269 5.275 5.275 0 0 0 5.27-5.27Zm.645 0a5.92 5.92 0 0 0-5.915-5.915 5.92 5.92 0 0 0-5.915 5.915 5.92 5.92 0 0 0 5.915 5.914 5.92 5.92 0 0 0 5.915-5.914Z" fill="#005EAB"/></svg>