<svg width="280" height="59" fill="none" xmlns="http://www.w3.org/2000/svg"><path d="M134.123 50.245c-3.887 0-7.776-1.228-10.156-2.456l-1.972 8.713c2.207 1.17 6.79 2.456 11.491 2.456 11.431 0 16.712-5.847 16.712-12.632 0-5.495-3.192-9.297-10.215-11.87-4.932-1.873-7.022-2.692-7.022-4.681 0-1.753 1.744-2.924 4.934-2.924 3.946 0 6.849 1.111 8.531 1.873l2.204-8.421c-2.61-1.168-5.92-2.047-10.619-2.047-9.866 0-15.667 5.38-15.667 12.34 0 5.847 4.35 9.531 10.966 11.87 4.412 1.52 6.153 2.632 6.153 4.562 0 1.99-1.744 3.218-5.34 3.218Z" fill="#333"/><path d="M10.505 18.897v39.42H0v-39.42h10.505Z" fill="#333"/><path d="M15.843 58.316V18.897h12.36l6.208 12.108c2.147 3.92 4.409 9.182 6.153 13.803h.173c-.58-5.205-.812-10.702-.812-16.611v-9.3H49.5v39.42H38.473l-6.616-13.102c-2.204-4.212-4.758-9.474-6.616-14.27h-.176c.233 5.323.35 11.29.35 17.663v9.708h-9.572Z" fill="#333"/><path d="M80.03 18.897H54.901v39.42h10.505V43.344h13.752v-8.538H65.406v-7.312H80.03v-8.598Z" fill="#333"/><path d="M95.122 18.897V41.24c0 5.967 2.031 9.357 6.153 9.357 4.177 0 6.208-3.1 6.208-9.357V18.897h10.505v21.757c0 12.165-6.037 18.306-17.005 18.306-10.736 0-16.363-5.906-16.363-18.598V18.897h10.502Z" fill="#333"/><path d="M178.519 42.409h-14.042v7.25h15.726v8.655h-26.229V18.897h25.417v8.598h-14.914v6.376h14.042v8.538Z" fill="#333"/><path d="M186.836 43.767c.084 1.255.112 2.658.112 4.329h.005v10.211h3.378v-8.595c0-.42.057-.836.197-1.195.309-1.015 1.183-2.09 2.478-2.09 1.603 0 2.364 1.432 2.364 3.462v8.416h3.378V49.59c0-.417.083-.865.168-1.224.366-1.044 1.238-1.939 2.421-1.939 1.661 0 2.45 1.432 2.45 3.85v8.028h3.378v-8.567c0-4.654-2.309-6.297-4.59-6.297-1.126 0-1.998.297-2.758.865-.646.416-1.212 1.013-1.689 1.82h-.057c-.592-1.612-2.001-2.687-3.801-2.687-2.309 0-3.549 1.343-4.224 2.478h-.086l-.14-2.15h-2.984Z" fill="#333"/><path fill-rule="evenodd" clip-rule="evenodd" d="M212.923 52.065c.085 2.627 2.026 3.761 4.224 3.761 1.606 0 2.758-.239 3.801-.656l.506 2.538c-1.183.508-2.815.896-4.787.896-4.45 0-7.068-2.895-7.068-7.343 0-4.03 2.31-7.82 6.702-7.82 4.45 0 5.913 3.881 5.913 7.073 0 .687-.057 1.223-.112 1.551h-9.179Zm6.025-2.567c.028-1.343-.535-3.55-2.844-3.55-2.141 0-3.041 2.059-3.181 3.55h6.025Z" fill="#333"/><path fill-rule="evenodd" clip-rule="evenodd" d="M237.641 54.211v-16.22h-3.461v7.357h-.057c-.62-1.075-1.972-1.91-3.858-1.91-3.295 0-6.167 2.894-6.139 7.759 0 4.477 2.59 7.432 5.856 7.432 1.998 0 3.658-1.015 4.476-2.627h.057l.14 2.299h3.098a80.394 80.394 0 0 1-.112-4.09Zm-3.547-5.341c.057.299.086.656.086.955h-.003v2.176c0 .388-.026.747-.111 1.075-.338 1.583-1.575 2.598-2.984 2.598-2.198 0-3.435-1.941-3.435-4.597 0-2.715 1.24-4.805 3.463-4.805 1.575 0 2.675 1.166 2.984 2.598Z" fill="#333"/><path d="M241.359 58.3V44.648h3.493V58.3h-3.493Z" fill="#333"/><path d="M241.359 41.49v-3.445h3.493v3.446h-3.493Z" fill="#333"/><path fill-rule="evenodd" clip-rule="evenodd" d="m256.055 56.691.225 1.611v.003h3.127c-.14-.895-.197-2.179-.197-3.493v-5.253c0-3.165-1.267-6.12-5.659-6.12-2.169 0-3.941.627-4.956 1.283l.675 2.387c.929-.627 2.335-1.075 3.687-1.075 2.421 0 2.786 1.583 2.786 2.538v.24c-5.067-.029-8.136 1.822-8.136 5.492 0 2.208 1.549 4.326 4.307 4.326 1.775 0 3.209-.804 4.055-1.939h.086Zm-5.013-2.775c0-2.207 2.338-2.775 4.787-2.715v2c0 .239-.026.538-.112.806a2.825 2.825 0 0 1-2.703 2c-1.1 0-1.972-.659-1.972-2.09Z" fill="#333"/><path d="M188.062 32.662h19.744L228.871.574h-19.744l-21.065 32.088Z" fill="#1C3C70"/><path d="M213.176 32.662h19.744L253.982.574H234.24l-21.064 32.088Z" fill="#005EAB"/><path d="M238.289 32.662h19.744L279.097.574h-19.743l-21.065 32.088Z" fill="#0097DD"/></svg>