<svg width="327" height="44" viewBox="0 0 327 44" fill="none" xmlns="http://www.w3.org/2000/svg">
<path d="M299.312 15.7608L302.973 8.40775V34.3649L293.422 39.4797L295.135 27.7844L295.244 27.0409L294.714 26.5085L286.535 18.2967L298.188 16.5761L298.963 16.4617L299.312 15.7608ZM100.253 15.6758L112.877 17.5962L103.657 26.8541L103.107 27.4056L103.242 28.1722L105.535 41.2191L94.1195 35.1059L93.4114 34.7267L92.7033 35.1059L81.1918 41.2705L83.1164 28.1299L83.2253 27.3865L82.695 26.8541L73.4863 17.6076L86.563 15.6767L87.3376 15.5624L87.6866 14.8615L93.4114 3.36508L99.1362 14.8615L99.4834 15.5586L100.253 15.6758ZM23.0872 3.36508L28.812 14.8615L29.1592 15.5586L29.9291 15.6758L42.5525 17.5962L33.3324 26.8541L32.7831 27.4056L32.9179 28.1722L35.2109 41.2191L23.7953 35.1059L23.0872 34.7267L22.3791 35.1059L10.8676 41.2705L12.7922 28.1299L12.9011 27.3865L12.3708 26.8541L3.16208 17.6076L16.2388 15.6767L17.0134 15.5624L17.3624 14.8615L23.0872 3.36508ZM170.577 15.6758L183.201 17.5962L173.981 26.8541L173.432 27.4056L173.566 28.1722L175.859 41.2191L164.444 35.1059L163.736 34.7267L163.027 35.1059L151.516 41.2705L153.441 28.1299L153.549 27.3865L153.019 26.8541L143.81 17.6076L156.887 15.6767L157.662 15.5624L158.011 14.8615L163.736 3.36507L169.46 14.8615L169.808 15.5586L170.577 15.6758ZM234.06 3.36732L239.785 14.8637L240.132 15.5609L240.902 15.678L253.525 17.5985L244.305 26.8563L243.756 27.4078L243.89 28.1744L246.183 41.2214L234.768 35.1082L234.06 34.7289L233.352 35.1082L221.84 41.2727L223.765 28.1322L223.874 27.3887L223.343 26.8563L214.135 17.6099L227.211 15.679L227.986 15.5646L228.335 14.8637L234.06 3.36732Z" fill="url(#paint0_linear_8946_4977)" stroke="url(#paint1_linear_8946_4977)" stroke-width="3"/>
<defs>
<linearGradient id="paint0_linear_8946_4977" x1="-31.3651" y1="47.6983" x2="-7.39783" y2="-73.771" gradientUnits="userSpaceOnUse">
<stop stop-color="#EE3124"/>
<stop offset="0.818199" stop-color="#FAAA23"/>
</linearGradient>
<linearGradient id="paint1_linear_8946_4977" x1="-31.3651" y1="47.6983" x2="-7.39783" y2="-73.771" gradientUnits="userSpaceOnUse">
<stop stop-color="#EE3124"/>
<stop offset="0.818199" stop-color="#FAAA23"/>
</linearGradient>
</defs>
</svg>
