<svg width="205" height="73" fill="none" xmlns="http://www.w3.org/2000/svg"><ellipse cx="36.595" cy="36.718" rx="35.595" ry="35.403" fill="#fff"/><path d="M43.67 38.8c-1.107-1.73-2.95-3.024-5.886-3.063-2.438-.032-4.28.797-5.572 2.175l-.196 1.854h-1.082c-.4.804-.688 1.698-.872 2.645 1.757 1 2.872 2.736 2.872 4.917a6.608 6.608 0 0 1-1.318 3.925c1.337 1.75 3.323 2.697 5.69 2.697 2.923 0 4.89-1.26 6.128-3.063-.95-1.456-1.494-3.382-1.494-5.727 0-2.416.55-4.669 1.73-6.36Zm-6.187 11.578c-1.147 0-1.908-.836-2.242-2.181-.203-.914-.23-1.874-.23-2.815 0-1.724.099-3.983.76-5.1.486-.783 1.227-1.09 1.81-1.09 1.226 0 1.861.992 2.117 2.083.256 1.09.308 2.99.308 3.78-.006 2.482-.386 5.323-2.523 5.323Z" fill="#FD0"/><path d="M49.906 35.802c-2.897-.04-4.942 1.136-6.24 2.997 1.127 1.763 1.5 3.983 1.5 5.792 0 2.168-.504 4.5-1.736 6.295 1.324 2.025 3.441 3.128 5.99 3.128 5.835 0 7.873-5.021 7.873-9.364-.006-3.572-1.455-8.776-7.387-8.848Zm-.308 14.634c-1.147 0-1.908-.836-2.242-2.181-.203-.914-.23-1.88-.23-2.815 0-1.724.099-3.983.761-5.1.485-.783 1.22-1.09 1.81-1.09 1.225 0 1.86.992 2.11 2.083.255 1.09.308 2.99.308 3.78.006 2.482-.374 5.323-2.517 5.323Z" fill="#007DC4"/><path d="M43.668 38.799c-1.18 1.691-1.73 3.944-1.73 6.36 0 2.345.544 4.271 1.494 5.727 1.232-1.796 1.737-4.133 1.737-6.295 0-1.809-.367-4.029-1.501-5.792Z" fill="#62A63B"/><path d="M30.058 42.418c-1.069-.607-2.366-.947-3.802-.947-.944 0-2.091.177-2.851.483a6.12 6.12 0 0 0-.538.281l.256-2.462h7.807c.34-.692.767-1.319 1.278-1.854l.183-1.776H19.406l-.97 9.436 4.352.535c.309-.457.715-1.116 2.137-1.116 1.81 0 2.675 1.142 2.675 2.716 0 1.371-.74 2.717-2.596 2.717-1.042 0-1.881-.484-2.19-1.47-.124-.405-.124-.835-.124-1.267l-5.198.536c.282 1.319.538 2.534 1.659 3.703 1.986 2.004 4.89 2.004 5.833 2.004 1.475 0 4.202-.124 6.11-2.083a4.98 4.98 0 0 0 .51-.594c-1.14-1.495-1.795-3.579-1.795-6.158 0-.927.085-1.828.249-2.684Z" fill="#E33126"/><path d="m32.011 39.775.197-1.855a7.851 7.851 0 0 0-1.278 1.855h1.081Z" fill="#F48132"/><path d="M30.062 42.414c-.164.855-.25 1.757-.25 2.684 0 2.58.662 4.663 1.796 6.158a6.607 6.607 0 0 0 1.318-3.925c.007-2.18-1.108-3.918-2.864-4.917Z" fill="#F48132"/><path d="M17.5 34.847v-2.939h1.763v-7.385H17.5v-3.168h9.42v3.168h-1.764v7.385h1.763v2.939H17.5Z" fill="#231F20"/><path d="M35.43 34.848v-2.939h1.37v-3.082c0-.928-.661-1.345-1.52-1.345-1.082 0-1.901.796-1.901 1.874v2.546h1.41v2.94h-7.375v-2.94h1.33v-4.434h-1.33v-2.945h5.814v2.031c.099-.078.19-.19.269-.28 1.062-1.215 2.281-1.646 3.874-1.646 2.242 0 4.064.908 4.064 3.39v3.891h1.2v2.945H35.43v-.006Z" fill="#231F20"/><path d="m54.35 28.885-3.98.437c-.045-1.097-.275-2.266-1.619-2.266-1.71 0-1.841 1.417-1.841 2.782v.026c0 1.365.13 2.782 1.841 2.782.899 0 1.692-.51 1.692-1.6h3.965l-.032.34c-.656 3.206-3.56 3.709-5.657 3.709-3.284 0-6.516-1.607-6.516-5.264v.014c0-3.657 3.232-5.264 6.516-5.264-.007.013 5.145-.32 5.63 4.304Z" fill="#231F20"/><path d="M57.442 33.228a1.678 1.678 0 0 1-3.356 0 1.678 1.678 0 0 1 3.356 0Z" fill="#231F20"/><path d="M36.712 62.144c14.1 0 25.525-11.389 25.525-25.428 0-14.047-11.432-25.429-25.525-25.429-14.1 0-25.525 11.389-25.525 25.429 0 14.046 11.426 25.428 25.525 25.428Z" stroke="#231F20" stroke-width="1.046"/><path d="m3.146 38.459-.052-1.025 6.135-1.998.046.796-1.685.536.105 1.978 1.73.373.04.796-6.319-1.456Zm3.907.163-.092-1.665-2.963.947v.02l3.055.698Z" fill="#231F20"/><path d="m3.11 34.55.157-1.28 5.053-.634v-.02l-4.745-1.828.157-1.28 6.181.757-.091.758-5.408-.66v.02l5.237 2.024-.092.758-5.571.705v.02l5.407.66-.091.757-6.195-.758Z" fill="#231F20"/><path d="m4.336 27.634 1.003-3.05.649.215-.767 2.319 1.855.607.72-2.188.65.21-.721 2.187 2.124.692.8-2.423.648.21-1.036 3.147-5.925-1.926Z" fill="#231F20"/><path d="m5.797 23.54.852-1.816c.413-.881 1.2-1.195 2.091-.783.616.287 1.167.803 1.016 1.528l.013.006c.282-.463.82-.548 1.318-.359l.983.405c.642.261.845.229 1.029.11l-.393.837c-.177.065-.617-.079-.905-.19l-.898-.359c-.8-.307-1.049.098-1.213.45l-.439.935 2.51 1.175-.327.692-5.637-2.631Zm2.884.502.321-.685c.19-.412.544-1.156-.544-1.665-.55-.262-1.075-.053-1.376.594l-.387.83 1.986.926Z" fill="#231F20"/><path d="m8.031 19.266.407-.647 5.29 3.285-.407.646-5.29-3.284Z" fill="#231F20"/><path d="M14.594 17.125c.891.77 1.474 1.789.642 2.866-1.075 1.404-2.543.582-3.789-.372-1.245-.953-2.399-2.187-1.35-3.546.773-1.005 1.665-.999 2.655-.287l-.485.633c-.57-.411-1.187-.6-1.672.026-.649.843.197 1.66 1.344 2.534 1.14.869 2.156 1.47 2.805.627.57-.738-.046-1.371-.636-1.848l.486-.633Z" fill="#231F20"/><path d="m12.938 13.05.72-.738 5.631 3.142-.564.574-1.533-.875-1.39 1.417.904 1.522-.557.574-3.212-5.616Zm2.523 2.972 1.167-1.195-2.707-1.528-.013.013 1.553 2.71Z" fill="#231F20"/><path d="m15.086 11.075.61-.516.491.574c.426.503.774.993.328 1.626l-.262-.313c.137-.307.085-.49-.138-.758l-.138-.156-.295.248-.596-.705Z" fill="#231F20"/><path d="M19.824 9.601c-.373-.536-.826-.777-1.429-.36-.53.366-.648.87-.268 1.411.996 1.437 2.818-1.084 4.116.784.82 1.182.184 2.116-.544 2.612-1.2.823-1.98.45-2.733-.633l.629-.438c.4.575.859 1.162 1.783.522.505-.346.642-.973.269-1.514-1.003-1.444-2.839 1.057-4.143-.817-.328-.47-.774-1.547.524-2.442.977-.673 1.757-.49 2.426.437l-.63.438Z" fill="#231F20"/><path d="m24.094 5.667 3.015-1.116.236.633-2.3.85.68 1.821 2.17-.803.236.633-2.17.803 1.017 2.724-.721.267-2.163-5.812Z" fill="#231F20"/><path d="m28.843 4.169 1.003-.235 3.055 5.661-.78.183-.826-1.56-1.94.45-.06 1.763-.78.183.328-6.445Zm.525 3.859L31 7.649l-1.462-2.742h-.02l-.15 3.121Z" fill="#231F20"/><path d="M35.252 4.862c-.052-.653-.321-1.084-1.055-1.025-.643.052-.997.425-.95 1.084.137 1.744 2.988.47 3.165 2.736.112 1.43-.91 1.92-1.79 1.992-1.454.111-1.94-.6-2.038-1.913l.767-.059c.053.692.157 1.437 1.278 1.345.61-.046 1.043-.516.997-1.175-.138-1.75-2.99-.51-3.166-2.782-.046-.575.111-1.724 1.684-1.848 1.187-.092 1.77.457 1.875 1.587l-.767.058Z" fill="#231F20"/><path d="m38.807 9.504-.767-.039.262-5.525-1.56-.071.033-.68 3.894.183-.033.68-1.567-.072-.262 5.524Z" fill="#231F20"/><path d="m41.784 3.574 3.16.627-.131.666-2.406-.477-.38 1.914 2.268.45-.131.667-2.268-.451-.433 2.181 2.51.496-.13.666-3.265-.646 1.206-6.093Z" fill="#231F20"/><path d="M48.053 6.873c.204-.62.125-1.123-.57-1.352-.616-.202-1.088.013-1.291.64-.55 1.659 2.576 1.587 1.861 3.742-.452 1.365-1.58 1.423-2.418 1.15-1.383-.451-1.554-1.3-1.14-2.554l.727.242c-.217.66-.413 1.384.662 1.736.583.19 1.166-.078 1.37-.705.55-1.665-2.563-1.62-1.849-3.78.177-.543.767-1.548 2.268-1.059 1.128.373 1.455 1.097 1.114 2.188l-.734-.248Z" fill="#231F20"/><path d="m49.54 12.605-.688-.34 2.477-4.95-1.402-.692.301-.607 3.494 1.73-.302.607-1.409-.698-2.471 4.95Z" fill="#231F20"/><path d="m52.04 10.785 1.81 1.123-.361.575-1.81-1.123.361-.575Z" fill="#231F20"/><path d="M57.921 12.952c.38-.53.55-1.123-.046-1.6-.832-.666-1.671.157-2.576 1.273-.904 1.117-1.527 2.116-.695 2.776.833.666 1.692-.275 2.21-.921l-.958-.77.394-.49 1.5 1.201-2.025 2.514-.452-.359.53-.66-.012-.013c-.466.314-1.121.34-1.652-.085-1.265-1.012-.511-2.403.537-3.709.984-1.22 2.255-2.337 3.593-1.26 1.396 1.117.471 2.331.275 2.586l-.623-.483Z" fill="#231F20"/><path d="m60.769 13.277 1.337 1.502c.649.732.63 1.574-.112 2.227-.51.45-1.2.744-1.809.327l-.013.013c.315.444.184.966-.19 1.345l-.76.744c-.492.484-.55.68-.512.895l-.616-.692c.013-.183.315-.536.531-.751l.688-.68c.597-.613.328-.998.066-1.286l-.688-.777-2.078 1.835-.511-.575 4.667-4.127Zm-1.606 2.443.504.568c.302.34.852.953 1.75.157.46-.405.472-.967-.006-1.496l-.61-.686-1.638 1.457Z" fill="#231F20"/><path d="M63.57 22.108c-1.311.856-2.865 1.528-3.809.092-.944-1.43.295-2.586 1.606-3.442 1.318-.855 2.865-1.528 3.809-.091.944 1.436-.295 2.586-1.606 3.441Zm-1.763-2.677c-1.207.783-2.105 1.54-1.521 2.429.583.888 1.639.366 2.845-.418 1.206-.784 2.104-1.541 1.52-2.43-.583-.887-1.638-.365-2.844.419Z" fill="#231F20"/><path d="m66.872 21.678.288.712-4.378 2.768.006.013 5.06-1.077.348.855-4.405 2.704.007.013 5.086-1.012.289.712-6.26 1.123-.348-.862 4.366-2.658-.007-.013-5.014 1.038-.347-.862 5.309-3.454Z" fill="#231F20"/><path d="m69.25 28.338.196.738-6.03 1.567-.197-.738 6.03-1.567Z" fill="#231F20"/><path d="m69.709 30.217.15.98-4.824 2.82v.02l5.139-.797.118.758-6.155.953-.164-1.038 4.68-2.736v-.02l-4.988.77-.118-.757 6.162-.953Z" fill="#231F20"/><path d="M68.563 38.695c.655-.02 1.225-.248 1.245-1.005.026-1.058-1.14-1.228-2.582-1.26-1.442-.033-2.61.078-2.635 1.142-.027 1.058 1.245 1.169 2.077 1.189l.027-1.228.629.013-.046 1.92-3.238-.072.013-.575.846.02v-.02a1.373 1.373 0 0 1-.938-1.358c.04-1.62 1.606-1.868 3.278-1.828 1.573.032 3.231.359 3.192 2.07-.04 1.782-1.567 1.789-1.888 1.795l.02-.803Z" fill="#231F20"/><path d="M36.714 72.121c19.625 0 35.54-15.848 35.54-35.406 0-19.552-15.909-35.4-35.54-35.4-19.626 0-35.534 15.848-35.534 35.4 0 19.55 15.908 35.406 35.534 35.406Z" stroke="#231F20" stroke-width="1.046"/><path d="M8.821 44.605a1.547 1.547 0 0 1-1.101 1.894 1.557 1.557 0 0 1-1.901-1.097 1.55 1.55 0 0 1 1.101-1.894 1.562 1.562 0 0 1 1.901 1.097Z" fill="#231F20"/><path d="m12.107 48.9.78 1.378c.269.47.944 1.672-.61 2.547-1.009.568-1.94.242-2.458-.68l-.465-.822L7.06 52.61l-.38-.666 5.427-3.043Zm-2.202 2.116.445.797c.276.483.84.705 1.56.3.597-.333.826-.83.453-1.489l-.426-.75-2.032 1.142Z" fill="#231F20"/><path d="m14.042 52.191 1.24 1.587c.602.77.524 1.607-.25 2.214-.537.418-1.245.666-1.829.209l-.013.013c.282.464.118.973-.282 1.326l-.806.692c-.524.45-.59.646-.57.862l-.57-.725c.02-.183.354-.516.583-.712l.734-.633c.636-.568.387-.973.15-1.28l-.635-.816-2.19 1.697-.471-.6 4.91-3.834Zm-1.756 2.338.465.594c.282.36.787 1.006 1.737.275.485-.373.531-.934.092-1.496l-.564-.718-1.73 1.345Z" fill="#231F20"/><path d="m16.617 55.32.53.555-4.522 4.271-.531-.555 4.523-4.27Z" fill="#231F20"/><path d="m17.434 56.228.603.523-2.59 4.82.014.012 4.431-3.226.603.523-5.277 3.657-.734-.64 2.95-5.669Z" fill="#231F20"/><path d="m21.349 59.355.852.575-2.11 6.073-.663-.45.59-1.66-1.645-1.11-1.344 1.15-.662-.45 4.982-4.127Zm-2.491 2.998 1.39.94 1.035-2.925-.013-.013-2.412 1.998Z" fill="#231F20"/><path d="m22.072 66.924-.681-.353 2.55-4.91-1.39-.713.315-.6 3.467 1.782-.315.601-1.396-.718-2.55 4.91Z" fill="#231F20"/><path d="m26.545 62.12 3.042 1.05-.223.64-2.32-.796-.643 1.841 2.183.758-.223.64-2.183-.758-.734 2.103 2.419.836-.223.64-3.14-1.084 2.045-5.87Z" fill="#231F20"/><path d="M36.346 68.216c-.177 1.163-.734 2.195-2.09 2.077-1.764-.157-1.85-1.835-1.712-3.39.145-1.56.577-3.186 2.288-3.03 1.272.112 1.737.87 1.658 2.09l-.8-.071c.047-.706-.124-1.32-.917-1.391-1.062-.098-1.304 1.051-1.436 2.481-.13 1.43-.098 2.6.964 2.697.93.085 1.14-.77 1.232-1.521l.813.058Z" fill="#231F20"/><path d="M41.087 66.946c.091 1.561-.099 3.24-1.81 3.337-1.717.105-2.104-1.54-2.195-3.102-.092-1.56.091-3.238 1.809-3.336 1.71-.105 2.097 1.54 2.196 3.101Zm-3.206.19c.086 1.43.295 2.586 1.357 2.52 1.062-.065 1.134-1.234 1.049-2.664-.085-1.43-.295-2.586-1.357-2.527-1.068.065-1.14 1.24-1.049 2.67Z" fill="#231F20"/><path d="m41.18 63.749 1.258-.3 2.366 4.492.02-.006.06-5.074 1.258-.3 1.455 6.033-.747.177-1.272-5.277-.02.007-.065 5.596-.748.177-2.615-4.957-.02.007 1.272 5.276-.747.176-1.455-6.027Z" fill="#231F20"/><path d="m46.766 62.17 1.455-.634c.498-.215 1.77-.77 2.484.862.465 1.058.046 1.946-.924 2.364l-.872.38 1.055 2.402-.701.307-2.497-5.681Zm1.894 2.397.839-.366c.511-.222.787-.764.459-1.515-.276-.62-.747-.901-1.442-.594l-.793.346.937 2.129Z" fill="#231F20"/><path d="m50.984 60.056.872-.548 4.74 4.362-.682.424-1.292-1.201-1.684 1.058.524 1.685-.682.424-1.796-6.204Zm1.757 3.48 1.416-.887-2.275-2.116-.013.007.872 2.997Z" fill="#231F20"/><path d="m53.297 58.553.754-.646L59 60.499l.013-.013-3.39-3.931.584-.496 4.064 4.708-.8.685-4.804-2.514-.013.014 3.29 3.813-.583.496-4.064-4.708Z" fill="#231F20"/><path d="m56.531 55.606.531-.555 4.497 4.297-.531.555-4.497-4.297Z" fill="#231F20"/><path d="m57.438 54.665 1.992-2.52.538.417-1.521 1.92 1.534 1.208 1.435-1.808.538.418-1.43 1.808 1.758 1.378 1.586-1.998.537.418-2.058 2.599-4.91-3.84Z" fill="#231F20"/><path d="M62.38 50.292c-.564-.326-1.075-.352-1.442.281-.322.555-.217 1.065.36 1.391 1.521.875 2.085-2.181 4.058-1.045 1.245.719 1.075 1.835.629 2.593-.728 1.254-1.593 1.254-2.74.587l.387-.66c.603.347 1.278.687 1.842-.286.308-.53.164-1.15-.413-1.483-1.528-.881-2.118 2.168-4.097 1.025-.498-.287-1.364-1.07-.577-2.429.597-1.025 1.377-1.195 2.38-.64l-.387.666Z" fill="#231F20"/><path d="M64.594 44.631a1.564 1.564 0 0 1 1.928-1.05 1.557 1.557 0 0 1 1.055 1.919 1.564 1.564 0 0 1-1.927 1.051 1.551 1.551 0 0 1-1.056-1.92Z" fill="#231F20"/><ellipse cx="69.595" cy="36.718" rx="35.595" ry="35.403" fill="#fff"/><path d="M76.663 38.8c-1.108-1.73-2.95-3.024-5.887-3.063-2.438-.032-4.28.797-5.571 2.175l-.197 1.854h-1.081c-.4.804-.689 1.698-.872 2.645 1.756 1 2.87 2.736 2.87 4.917a6.608 6.608 0 0 1-1.317 3.925c1.337 1.75 3.323 2.697 5.69 2.697 2.923 0 4.89-1.26 6.129-3.063-.95-1.456-1.495-3.382-1.495-5.727 0-2.416.55-4.669 1.73-6.36Zm-6.188 11.578c-1.147 0-1.908-.836-2.242-2.181-.203-.914-.23-1.874-.23-2.815 0-1.724.099-3.983.761-5.1.485-.783 1.226-1.09 1.81-1.09 1.225 0 1.86.992 2.116 2.083.256 1.09.308 2.99.308 3.78-.006 2.482-.386 5.323-2.523 5.323Z" fill="#FD0"/><path d="M82.898 35.802c-2.897-.04-4.942 1.136-6.24 2.997 1.127 1.763 1.5 3.983 1.5 5.792 0 2.168-.504 4.5-1.736 6.295 1.324 2.025 3.441 3.128 5.991 3.128 5.834 0 7.872-5.021 7.872-9.364-.006-3.572-1.455-8.776-7.387-8.848Zm-.308 14.634c-1.147 0-1.907-.836-2.242-2.181-.203-.914-.23-1.88-.23-2.815 0-1.724.1-3.983.761-5.1.485-.783 1.22-1.09 1.81-1.09 1.225 0 1.86.992 2.11 2.083.256 1.09.308 2.99.308 3.78.007 2.482-.374 5.323-2.517 5.323Z" fill="#007DC4"/><path d="M76.66 38.799c-1.18 1.691-1.73 3.944-1.73 6.36 0 2.345.544 4.271 1.494 5.727 1.232-1.796 1.737-4.133 1.737-6.295 0-1.809-.367-4.029-1.5-5.792Z" fill="#62A63B"/><path d="M63.05 42.418c-1.068-.607-2.366-.947-3.802-.947-.944 0-2.09.177-2.851.483a6.12 6.12 0 0 0-.538.281l.256-2.462h7.807A7.42 7.42 0 0 1 65.2 37.92l.184-1.776H52.398l-.97 9.436 4.353.535c.308-.457.714-1.116 2.137-1.116 1.809 0 2.674 1.142 2.674 2.716 0 1.371-.74 2.717-2.596 2.717-1.042 0-1.881-.484-2.19-1.47-.124-.405-.124-.835-.124-1.267l-5.198.536c.282 1.319.538 2.534 1.659 3.703 1.986 2.004 4.89 2.004 5.834 2.004 1.474 0 4.201-.124 6.109-2.083a4.98 4.98 0 0 0 .511-.594c-1.14-1.495-1.796-3.579-1.796-6.158 0-.927.085-1.828.25-2.684Z" fill="#E33126"/><path d="m65.003 39.775.197-1.855a7.851 7.851 0 0 0-1.278 1.855h1.081Z" fill="#F48132"/><path d="M63.054 42.414c-.164.855-.25 1.757-.25 2.684 0 2.58.663 4.663 1.797 6.158a6.607 6.607 0 0 0 1.317-3.925c.007-2.18-1.108-3.918-2.864-4.917Z" fill="#F48132"/><path d="M50.492 34.849V31.91h1.763v-7.385h-1.763v-3.168h9.42v3.168h-1.764v7.385h1.763v2.939h-9.419Z" fill="#231F20"/><path d="M68.423 34.848v-2.939h1.37v-3.082c0-.928-.662-1.345-1.52-1.345-1.082 0-1.902.796-1.902 1.874v2.546h1.41v2.94h-7.375v-2.94h1.33v-4.434h-1.33v-2.945h5.814v2.031c.099-.078.19-.19.27-.28 1.061-1.215 2.28-1.646 3.873-1.646 2.242 0 4.064.908 4.064 3.39v3.891h1.2v2.945h-7.204v-.006Z" fill="#231F20"/><path d="m87.341 28.885-3.978.437c-.046-1.097-.276-2.266-1.62-2.266-1.71 0-1.841 1.417-1.841 2.782v.026c0 1.365.13 2.782 1.842 2.782.898 0 1.69-.51 1.69-1.6H87.4l-.032.34c-.656 3.206-3.56 3.709-5.657 3.709-3.284 0-6.516-1.607-6.516-5.264v.014c0-3.657 3.232-5.264 6.516-5.264-.007.013 5.145-.32 5.63 4.304Z" fill="#231F20"/><path d="M90.434 33.228a1.678 1.678 0 0 1-3.356 0 1.678 1.678 0 0 1 3.356 0Z" fill="#231F20"/><path d="M69.704 62.144c14.1 0 25.525-11.389 25.525-25.428 0-14.047-11.432-25.429-25.525-25.429-14.1 0-25.524 11.389-25.524 25.429 0 14.046 11.425 25.428 25.524 25.428Z" stroke="#231F20" stroke-width="1.046"/><path d="m36.138 38.461-.052-1.025 6.135-1.998.046.796-1.684.536.105 1.978 1.73.373.04.796-6.32-1.456Zm3.907.163-.092-1.665-2.963.947v.02l3.055.698Z" fill="#231F20"/><path d="m36.102 34.55.157-1.28 5.054-.634v-.02l-4.746-1.828.157-1.28 6.182.757-.092.758-5.408-.66v.02l5.237 2.024-.092.758-5.571.705v.02l5.408.66-.092.757-6.194-.758Z" fill="#231F20"/><path d="m37.328 27.634 1.003-3.05.649.215-.767 2.319 1.855.607.721-2.188.649.21-.721 2.187 2.124.692.8-2.423.648.21-1.035 3.147-5.926-1.926Z" fill="#231F20"/><path d="m38.79 23.54.851-1.816c.413-.881 1.2-1.195 2.091-.783.616.287 1.167.803 1.016 1.528l.013.006c.282-.463.82-.548 1.318-.359l.983.405c.642.261.846.229 1.03.11l-.394.837c-.177.065-.616-.079-.905-.19l-.898-.359c-.8-.307-1.049.098-1.212.45l-.44.935 2.511 1.175-.328.692-5.637-2.631Zm2.883.502.321-.685c.19-.412.544-1.156-.544-1.665-.55-.262-1.075-.053-1.376.594l-.387.83 1.986.926Z" fill="#231F20"/><path d="m41.023 19.268.407-.647 5.29 3.285-.407.646-5.29-3.284Z" fill="#231F20"/><path d="M47.586 17.125c.891.77 1.475 1.789.642 2.866-1.075 1.404-2.543.582-3.788-.372-1.246-.953-2.4-2.187-1.35-3.546.773-1.005 1.664-.999 2.654-.287l-.485.633c-.57-.411-1.187-.6-1.672.026-.649.843.197 1.66 1.344 2.534 1.14.869 2.157 1.47 2.806.627.57-.738-.046-1.371-.636-1.848l.485-.633Z" fill="#231F20"/><path d="m45.93 13.05.72-.738 5.631 3.142-.563.574-1.534-.875-1.39 1.417.905 1.522-.557.574-3.212-5.616Zm2.523 2.972 1.167-1.195-2.707-1.528-.013.013 1.553 2.71Z" fill="#231F20"/><path d="m48.086 11.075.61-.516.491.574c.426.503.774.993.328 1.626l-.262-.313c.137-.307.085-.49-.138-.758l-.138-.156-.295.248-.596-.705Z" fill="#231F20"/><path d="M52.801 9.601c-.374-.536-.826-.777-1.429-.36-.53.366-.649.87-.269 1.411.997 1.437 2.819-1.084 4.117.784.82 1.182.183 2.116-.544 2.612-1.2.823-1.98.45-2.734-.633l.63-.438c.4.575.858 1.162 1.782.522.505-.346.643-.973.27-1.514-1.004-1.444-2.839 1.057-4.143-.817-.328-.47-.774-1.547.524-2.442.977-.673 1.757-.49 2.425.437l-.629.438Z" fill="#231F20"/><path d="M57.086 5.667 60.1 4.551l.236.633-2.3.85.681 1.821 2.17-.803.236.633-2.17.803 1.016 2.724-.721.267-2.163-5.812Z" fill="#231F20"/><path d="m61.828 4.167 1.003-.235 3.054 5.661-.78.183-.826-1.56-1.94.45-.059 1.763-.78.183.328-6.445Zm.524 3.86 1.632-.38-1.461-2.742h-.02l-.15 3.121Z" fill="#231F20"/><path d="M68.244 4.862c-.052-.653-.32-1.084-1.055-1.025-.642.052-.996.425-.95 1.084.137 1.744 2.989.47 3.165 2.736.112 1.43-.91 1.92-1.789 1.992-1.455.111-1.94-.6-2.039-1.913l.767-.059c.053.692.158 1.437 1.278 1.345.61-.046 1.043-.516.997-1.175-.138-1.75-2.99-.51-3.166-2.782-.046-.575.111-1.724 1.684-1.848 1.187-.092 1.77.457 1.875 1.587l-.767.058Z" fill="#231F20"/><path d="m71.8 9.504-.768-.039.262-5.525-1.56-.071.033-.68 3.894.183-.033.68-1.567-.072-.262 5.524Z" fill="#231F20"/><path d="m74.769 3.574 3.159.627-.131.666-2.406-.477-.38 1.914 2.268.45-.131.667-2.268-.451-.433 2.181 2.51.496-.13.666-3.264-.646 1.206-6.093Z" fill="#231F20"/><path d="M81.046 6.873c.203-.62.124-1.123-.57-1.352-.617-.202-1.089.013-1.292.64-.55 1.659 2.576 1.587 1.862 3.742-.453 1.365-1.58 1.423-2.42 1.15-1.382-.451-1.553-1.3-1.14-2.554l.728.242c-.216.66-.413 1.384.662 1.736.583.19 1.167-.078 1.37-.705.55-1.665-2.563-1.62-1.849-3.78.177-.543.767-1.548 2.268-1.059 1.128.373 1.456 1.097 1.115 2.188l-.734-.248Z" fill="#231F20"/><path d="m82.532 12.605-.688-.34 2.478-4.95-1.403-.692.301-.607 3.494 1.73-.302.607-1.409-.698-2.471 4.95Z" fill="#231F20"/><path d="m85.032 10.785 1.81 1.123-.361.575-1.81-1.123.361-.575Z" fill="#231F20"/><path d="M90.921 12.952c.38-.53.55-1.123-.046-1.6-.832-.666-1.671.157-2.576 1.273-.904 1.117-1.527 2.116-.695 2.776.833.666 1.692-.275 2.21-.921l-.958-.77.394-.49 1.5 1.201-2.025 2.514-.452-.359.53-.66-.012-.013c-.466.314-1.121.34-1.652-.085-1.265-1.012-.511-2.403.538-3.709.983-1.22 2.254-2.337 3.592-1.26 1.396 1.117.471 2.331.275 2.586l-.623-.483Z" fill="#231F20"/><path d="m93.76 13.277 1.338 1.502c.649.732.63 1.574-.111 2.227-.512.45-1.2.744-1.81.327l-.013.013c.315.444.184.966-.19 1.345l-.76.744c-.492.484-.55.68-.511.895l-.617-.692c.014-.183.315-.536.531-.751l.689-.68c.596-.613.327-.998.065-1.286l-.688-.777-2.078 1.835-.511-.575 4.667-4.127Zm-1.605 2.443.505.568c.301.34.852.953 1.75.157.459-.405.472-.967-.007-1.496l-.61-.686-1.638 1.457Z" fill="#231F20"/><path d="M96.57 22.108c-1.311.856-2.865 1.528-3.809.092-.944-1.43.295-2.586 1.606-3.442 1.318-.855 2.865-1.528 3.809-.091.944 1.436-.295 2.586-1.606 3.441Zm-1.763-2.677c-1.207.783-2.105 1.54-1.521 2.429.583.888 1.638.366 2.845-.418 1.206-.784 2.104-1.541 1.52-2.43-.583-.887-1.638-.365-2.844.419Z" fill="#231F20"/><path d="m99.864 21.678.289.712-4.38 2.768.007.013 5.061-1.077.347.855-4.405 2.704.007.013 5.086-1.012.289.712-6.26 1.123-.347-.862 4.365-2.658-.006-.013-5.015 1.038-.347-.862 5.31-3.454Z" fill="#231F20"/><path d="m102.249 28.338.197.738-6.03 1.567-.197-.738 6.03-1.567Z" fill="#231F20"/><path d="m102.693 30.217.151.98-4.825 2.82v.02l5.139-.797.118.758-6.155.953-.164-1.038 4.68-2.736v-.02l-4.988.77-.118-.757 6.162-.953Z" fill="#231F20"/><path d="M101.555 38.697c.655-.02 1.226-.248 1.245-1.005.027-1.058-1.14-1.228-2.582-1.26-1.442-.033-2.61.078-2.635 1.142-.026 1.058 1.245 1.169 2.078 1.189l.026-1.228.629.013-.046 1.92-3.238-.072.013-.575.846.02v-.02a1.373 1.373 0 0 1-.938-1.358c.04-1.62 1.606-1.868 3.278-1.828 1.573.032 3.231.359 3.192 2.07-.039 1.782-1.567 1.789-1.888 1.795l.02-.803Z" fill="#231F20"/><path d="M69.706 72.121c19.625 0 35.54-15.848 35.54-35.406 0-19.552-15.908-35.4-35.54-35.4-19.626 0-35.534 15.848-35.534 35.4 0 19.55 15.909 35.406 35.534 35.406Z" stroke="#231F20" stroke-width="1.046"/><path d="M41.813 44.603a1.547 1.547 0 0 1-1.101 1.894A1.557 1.557 0 0 1 38.81 45.4a1.55 1.55 0 0 1 1.101-1.894 1.562 1.562 0 0 1 1.901 1.097Z" fill="#231F20"/><path d="m45.1 48.9.78 1.378c.268.47.943 1.672-.61 2.547-1.01.568-1.94.242-2.458-.68l-.466-.822-2.294 1.286-.38-.666 5.427-3.043Zm-2.203 2.116.446.797c.275.483.839.705 1.56.3.596-.333.826-.83.452-1.489l-.426-.75-2.032 1.142Z" fill="#231F20"/><path d="m47.027 52.188 1.239 1.586c.603.77.524 1.607-.25 2.214-.537.418-1.245.666-1.828.209l-.013.013c.282.464.118.973-.282 1.326l-.806.692c-.525.45-.59.646-.57.862l-.571-.725c.02-.183.354-.516.583-.712l.734-.633c.636-.568.387-.973.151-1.28l-.636-.816-2.189 1.697-.472-.6 4.91-3.834Zm-1.757 2.337.465.595c.282.359.787 1.005 1.737.274.486-.372.532-.934.092-1.496l-.563-.718-1.73 1.345Z" fill="#231F20"/><path d="m49.609 55.32.53.555-4.522 4.271-.531-.555 4.523-4.27Z" fill="#231F20"/><path d="m50.426 56.228.603.523-2.589 4.82.013.012 4.431-3.226.603.523-5.276 3.657-.734-.64 2.95-5.669Z" fill="#231F20"/><path d="m54.341 59.355.852.575-2.11 6.073-.663-.45.59-1.66-1.645-1.11-1.344 1.15-.662-.45 4.982-4.127Zm-2.49 2.998 1.389.94 1.035-2.925-.013-.013-2.412 1.998Z" fill="#231F20"/><path d="m55.057 66.924-.682-.353 2.55-4.91-1.39-.713.315-.6 3.467 1.782-.314.601-1.397-.718-2.55 4.91Z" fill="#231F20"/><path d="m59.537 62.12 3.042 1.05-.223.64-2.32-.796-.643 1.841 2.183.758-.223.64-2.183-.758-.734 2.103 2.419.836-.223.64-3.14-1.084 2.045-5.87Z" fill="#231F20"/><path d="M69.338 68.216c-.177 1.163-.734 2.195-2.09 2.077-1.764-.157-1.85-1.835-1.712-3.39.145-1.56.577-3.186 2.288-3.03 1.272.112 1.737.87 1.659 2.09l-.8-.071c.046-.706-.125-1.32-.918-1.391-1.062-.098-1.304 1.051-1.435 2.481s-.099 2.6.963 2.697c.931.085 1.14-.77 1.233-1.521l.812.058Z" fill="#231F20"/><path d="M74.071 66.945c.092 1.56-.098 3.238-1.81 3.336-1.716.105-2.103-1.54-2.195-3.102-.092-1.56.092-3.238 1.81-3.336 1.71-.105 2.097 1.54 2.195 3.102Zm-3.205.189c.085 1.43.295 2.586 1.356 2.52 1.062-.065 1.135-1.234 1.05-2.664-.086-1.43-.296-2.586-1.358-2.527-1.068.065-1.14 1.24-1.048 2.67Z" fill="#231F20"/><path d="m74.164 63.749 1.259-.3 2.366 4.492.02-.006.059-5.074 1.258-.3 1.455 6.033-.747.177-1.272-5.277-.02.007-.065 5.596-.747.177-2.615-4.957-.02.007 1.272 5.276-.748.176-1.455-6.027Z" fill="#231F20"/><path d="m79.758 62.168 1.455-.633c.498-.216 1.77-.771 2.484.862.466 1.058.046 1.946-.924 2.363l-.872.38 1.056 2.402-.702.307-2.497-5.681Zm1.894 2.397.84-.366c.51-.222.786-.764.458-1.515-.275-.62-.747-.901-1.442-.594l-.793.346.937 2.129Z" fill="#231F20"/><path d="m83.969 60.056.872-.548 4.739 4.362-.682.424-1.291-1.201-1.685 1.058.525 1.685-.682.424-1.796-6.204Zm1.757 3.48 1.415-.887-2.274-2.116-.013.007.871 2.997Z" fill="#231F20"/><path d="m86.297 58.553.754-.646L92 60.499l.013-.013-3.39-3.931.584-.496 4.064 4.708-.8.685-4.804-2.514-.013.014 3.29 3.813-.583.496-4.064-4.708Z" fill="#231F20"/><path d="m89.523 55.606.531-.555 4.497 4.297-.53.555-4.498-4.297Z" fill="#231F20"/><path d="m90.43 54.661 1.992-2.52.538.418-1.52 1.92 1.533 1.208 1.436-1.81.537.419-1.429 1.808 1.757 1.378 1.586-1.998.537.418-2.058 2.599-4.91-3.84Z" fill="#231F20"/><path d="M95.372 50.288c-.564-.326-1.075-.352-1.442.281-.321.555-.216 1.065.36 1.391 1.521.875 2.085-2.18 4.058-1.045 1.245.719 1.075 1.835.63 2.593-.728 1.254-1.594 1.254-2.74.587l.386-.659c.603.346 1.278.686 1.842-.287.308-.53.164-1.15-.413-1.483-1.527-.881-2.117 2.168-4.097 1.026-.498-.288-1.363-1.071-.577-2.43.597-1.025 1.377-1.195 2.38-.64l-.387.666Z" fill="#231F20"/><path d="M97.594 44.631a1.564 1.564 0 0 1 1.928-1.05 1.557 1.557 0 0 1 1.055 1.919 1.565 1.565 0 0 1-1.927 1.051 1.551 1.551 0 0 1-1.056-1.92Z" fill="#231F20"/><path d="M102.688 72.405c19.71 0 35.688-15.978 35.688-35.688S122.398 1.03 102.688 1.03 67 17.007 67 36.717s15.978 35.688 35.688 35.688Z" fill="#000"/><path d="M102.685 66.46c16.425 0 29.74-13.314 29.74-29.74 0-16.424-13.315-29.74-29.74-29.74-16.425 0-29.74 13.316-29.74 29.74 0 16.425 13.315 29.74 29.74 29.74Z" fill="#fff"/><path d="m72.946 19.988 2.9.446-.248.422-.744-.1-.545.992.47.57-.222.421-1.909-2.206.298-.545Zm.223.471.867 1.016.446-.818-1.313-.198Z" fill="#fff"/><path d="m76.956 18.773-2.206-.694 1.784 1.264-.272.372-2.23-1.586.42-.595 2.231.769-1.413-1.909.422-.57 2.23 1.586-.272.372-1.785-1.264 1.388 1.834-.297.421Z" fill="#fff"/><path d="m78.742 14.61-.694.794.62.545.842-.942.298.273-1.165 1.264-2.057-1.834 1.09-1.24.298.273-.769.893.57.495.694-.793.273.273Z" fill="#fff"/><path d="m80.433 13.025-.025.025-.322.297.793.843-.347.322-1.884-2.008.769-.718c.495-.471.892-.397 1.19-.075.198.199.371.52.123.967l1.264.446-.372.347-1.19-.446Zm-.322-.198c.297-.273.396-.52.148-.769-.223-.223-.396-.173-.669.075l-.322.322.57.62.273-.248Z" fill="#fff"/><path d="m83.108 11.808.223-.198.198.247-.842.67-.199-.248.223-.199-1.313-1.635-.223.173-.198-.248.842-.669.198.248-.247.198 1.338 1.66Z" fill="#fff"/><path d="m85.264 9.507.396-.223c.323.57.149 1.066-.347 1.388-.62.421-1.214.273-1.734-.496-.546-.818-.397-1.487.223-1.908.545-.347 1.04-.273 1.387.297l-.371.298c-.298-.446-.57-.397-.818-.248-.347.223-.446.62-.025 1.289.397.595.744.694 1.115.446.298-.223.372-.496.174-.843Z" fill="#fff"/><path d="m86.849 6.508 2.205 1.933-.446.223-.57-.496-.966.57.099.744-.422.223-.42-2.925.52-.272Zm-.05.52.198 1.339.818-.447-1.016-.892Z" fill="#fff"/><path d="m88.43 5.74.396-.174.174.372.05.67-.199.024-.1-.496-.148.075-.173-.471Z" fill="#fff"/><path d="M91.41 5.417c-.149-.322-.372-.421-.67-.298-.272.1-.396.273-.297.496.1.273.372.248.694.198.422-.074.917-.148 1.14.422.198.495-.074.941-.644 1.164-.62.224-1.041.124-1.314-.396l.447-.248c.148.273.322.421.743.273.347-.124.446-.347.347-.57-.124-.298-.421-.223-.768-.174-.397.075-.868.124-1.09-.421-.2-.471.049-.892.619-1.115.545-.199.942-.05 1.214.421l-.421.248Z" fill="#fff"/><path d="m96.067 4.847-.991.223.272 1.14-.47.099-.62-2.652 1.61-.372.1.372-1.14.273.173.793.992-.223.074.347Z" fill="#fff"/><path d="M98.127 2.912 99.54 5.49l-.496.074-.347-.644-1.14.173-.149.719-.47.074.594-2.875.595-.099Zm-.248.446-.272 1.314.917-.124-.645-1.19Z" fill="#fff"/><path d="M101.694 3.458c-.049-.347-.223-.495-.545-.495-.297.024-.446.124-.446.396.025.298.272.347.595.397.421.074.917.124.941.743.025.545-.347.892-.991.917-.669.025-1.016-.198-1.115-.793l.495-.099c.05.297.174.52.62.496.372-.025.521-.199.521-.446-.025-.323-.323-.347-.67-.397-.396-.074-.867-.149-.892-.743-.025-.52.347-.843.967-.868.595-.025.917.223 1.016.793l-.496.1Z" fill="#fff"/><path d="m103.904 3.011-.818-.025.025-.396 2.106.074-.024.397-.818-.025-.099 2.354-.471-.024.099-2.355Z" fill="#fff"/><path d="m107.685 4.497-1.041-.124-.099.818 1.239.149-.049.396L106 5.513l.347-2.726 1.636.223-.05.397-1.165-.149-.099.743 1.041.124-.025.372Z" fill="#fff"/><path d="M110.522 4.35c.05-.346-.074-.545-.396-.62-.298-.073-.471 0-.521.274-.074.297.174.42.471.545.397.173.867.372.719.966-.124.52-.57.769-1.19.62-.644-.149-.942-.471-.867-1.066l.495.05c-.024.297.05.545.471.62.347.074.57-.05.62-.298.074-.322-.223-.421-.545-.57-.372-.174-.793-.372-.67-.942.1-.495.571-.719 1.165-.595.57.124.818.471.769 1.017h-.521Z" fill="#fff"/><path d="m112.776 4.498-.768-.247.124-.372 2.007.644-.124.372-.768-.248-.719 2.255-.446-.148.694-2.256Z" fill="#fff"/><path d="m114.031 6.51.124-.348.967.372-.124.347-.967-.372Z" fill="#fff"/><path d="m117.282 7.328.917.446-.619 1.29-.323-.15.149-.347a.969.969 0 0 1-.867 0c-.62-.297-.793-.917-.397-1.71.446-.941 1.115-1.115 1.785-.768.545.273.718.694.446 1.314l-.446-.199c.198-.421.049-.644-.224-.768-.347-.173-.743-.074-1.09.62-.322.644-.223 1.016.173 1.214.323.149.67.074.843-.297l.025-.025-.521-.248.149-.372Z" fill="#fff"/><path d="m119.958 9.109-.025-.025-.371-.223-.595.966-.397-.247 1.438-2.33.892.545c.595.372.62.769.372 1.14-.149.248-.422.496-.893.372l-.099 1.338-.421-.272.099-1.264Zm.124-.372c.347.223.595.248.768-.05.174-.272.05-.446-.247-.62l-.397-.247-.446.719.322.198Z" fill="#fff"/><path d="M121.788 10.003c.545-.719 1.264-.843 1.883-.372.62.471.595 1.115.075 1.81-.57.743-1.215.916-1.859.396-.644-.471-.644-1.115-.099-1.834Zm1.537 1.165c.396-.52.446-.917.074-1.215-.372-.297-.793-.173-1.215.372-.396.52-.446.967-.074 1.24.397.297.793.148 1.215-.397Z" fill="#fff"/><path d="m125.136 14.661 1.016-1.834-1.784 1.09-.446-.42 1.437-2.454.372.347-1.239 1.983 2.007-1.24.347.347-1.165 2.082 1.958-1.288.347.346-2.404 1.487-.446-.446Z" fill="#fff"/><path d="m127.322 16.592.198.223-.248.199-.694-.818.248-.199.198.224 1.611-1.339-.198-.223.248-.198.694.818-.248.198-.198-.223-1.611 1.338Z" fill="#fff"/><path d="m128.886 19.224 1.016-2.131-1.685 1.19-.248-.373 2.255-1.586.322.471-1.041 2.156 1.71-1.214.248.372-2.255 1.586-.322-.471Z" fill="#fff"/><path d="m131.531 20.929.496.892-1.24.694-.173-.297.322-.199a.878.878 0 0 1-.694-.495c-.347-.62-.149-1.19.645-1.636.917-.496 1.536-.273 1.908.396.297.546.173 1.017-.347 1.314l-.248-.396c.372-.248.397-.496.248-.769-.198-.322-.57-.495-1.264-.099-.62.347-.768.719-.545 1.09.173.323.495.447.867.248l.025-.024-.273-.496.273-.223Z" fill="#fff"/><path d="m78.573 60.928-.346-.322 1.933-1.958.743.72c.496.495.421.891.1 1.213-.249.248-.744.57-1.413-.074l-.298-.297-.719.718Zm1.215-.718c.297.297.57.322.818.074.223-.223.198-.421-.075-.719l-.322-.297-.694.694.273.248Z" fill="#fff"/><path d="m82.189 62.638-.025-.025-.347-.272-.719.892-.371-.298 1.71-2.156.817.645c.546.446.52.842.248 1.165-.173.223-.47.446-.917.247l-.272 1.339-.397-.323.273-1.214Zm.149-.347c.322.248.57.298.768.05.198-.248.099-.422-.174-.645l-.347-.272-.52.669.273.198Z" fill="#fff"/><path d="m84.224 65.142.248.173-.173.273-.893-.595.174-.273.248.174 1.164-1.735-.247-.173.173-.273.892.595-.173.272-.248-.173-1.165 1.735Z" fill="#fff"/><path d="m88.45 64.823.447.248-2.181 1.933-.52-.298.445-2.9.471.249-.421 2.403 1.76-1.635Z" fill="#fff"/><path d="m90.84 65.907-.124 2.925-.446-.198.025-.744-1.04-.446-.496.545-.447-.198 1.983-2.156.545.272Zm-.446.273-.917.991.843.372.074-1.363Z" fill="#fff"/><path d="m92.917 67.077-.769-.248.124-.372 2.008.644-.124.372-.768-.248-.72 2.256-.445-.15.694-2.254Z" fill="#fff"/><path d="m96.516 69.206-1.016-.223-.174.793 1.24.272-.075.397-1.71-.372.57-2.676 1.611.346-.074.397-1.14-.248-.149.744 1.016.223-.099.347Z" fill="#fff"/><path d="m101.302 70.025.471.074c-.1.644-.521.917-1.14.892-.744-.05-1.116-.52-1.066-1.462.074-.991.595-1.413 1.338-1.363.645.05.992.421.942 1.066h-.471c.025-.546-.223-.67-.496-.694-.396-.025-.743.223-.793 1.016-.049.694.174 1.016.595 1.04.347 0 .57-.173.62-.57Z" fill="#fff"/><path d="M103.035 69.654c-.05-.892.421-1.462 1.214-1.487.768-.025 1.19.47 1.215 1.338.049.917-.347 1.462-1.165 1.512-.818.025-1.239-.47-1.264-1.363Zm1.908-.124c-.025-.644-.248-.991-.719-.967-.47.025-.718.397-.694 1.066.025.67.273 1.016.744.992.496-.025.694-.397.669-1.091Z" fill="#fff"/><path d="m108.235 70.546-1.066-2.057.372 2.156-.446.074-.447-2.701.719-.124 1.041 2.131.297-2.354.694-.124.446 2.701-.446.075-.371-2.156-.323 2.28-.47.099Z" fill="#fff"/><path d="m111.98 69.728-.446.124-.768-2.628.991-.297c.694-.198.991.074 1.115.52.099.347.149.942-.768 1.19l-.397.124.273.967Zm-.05-1.413c.422-.124.57-.347.471-.694-.099-.297-.272-.397-.669-.273l-.421.124.272.942.347-.1Z" fill="#fff"/><path d="m114.679 65.912 1.983 2.156-.471.174-.495-.546-1.066.422.025.743-.446.174-.1-2.925.57-.198Zm-.124.496.05 1.338.867-.347-.917-.991Z" fill="#fff"/><path d="m119.337 66.703-2.008-1.264h-.024l.966 1.81-.396.223-1.289-2.43.496-.272 2.007 1.314-.991-1.859.396-.223 1.289 2.429-.446.272Z" fill="#fff"/><path d="m121.592 64.942.248-.173.173.272-.892.595-.173-.273.248-.173-1.165-1.76-.248.174-.174-.273.893-.595.173.273-.248.173 1.165 1.76Z" fill="#fff"/><path d="m123.703 62.268-.818.644.496.645.991-.769.248.323-1.363 1.065-1.71-2.156 1.289-1.016.247.297-.917.719.471.595.818-.645.248.298Z" fill="#fff"/><path d="M125.415 59.786c-.248-.223-.496-.223-.744 0-.223.199-.248.397-.074.57.198.224.446.075.694-.074.371-.223.793-.495 1.214-.074.372.396.322.892-.149 1.338-.471.446-.917.52-1.363.149l.322-.397c.248.199.471.273.793-.025.273-.247.273-.495.1-.669-.223-.223-.471-.05-.769.15-.347.222-.768.445-1.165.024-.346-.372-.272-.868.149-1.289.422-.396.843-.421 1.289-.074l-.297.371Z" fill="#fff"/><path d="M103.238 8.041h-.372l-.05 17.348h.149l.273-17.348Zm-3.47.173s-.025 0 0 0h-.174c-.05 0-.099 0-.148.025l2.032 17.225c.05 0 .099 0 .149-.025L99.768 8.214Zm-3.42.57s-.025 0 0 0h-.025c-.025 0-.05.025-.074.025h-.025c-.074.025-.124.025-.198.05l4.114 16.853c.049 0 .099-.025.148-.025l-3.94-16.902Zm-3.321.967c-.124.05-.223.074-.347.124L98.8 26.108c.05-.025.1-.025.15-.05L93.026 9.752ZM89.83 11.14l-.149.074H89.483l8.054 15.366c.05-.025.075-.05.124-.074L89.83 11.139Zm-2.974 1.76c-.025.024-.05.024-.075.05-.074.049-.148.098-.198.148l9.84 14.275c.049-.025.074-.05.123-.074l-9.69-14.4ZM84.08 14.98l-.05.05c-.074.074-.148.124-.222.198L95.282 28.24c.025-.024.075-.074.124-.099L84.08 14.98Zm-2.478 2.43c-.05.049-.075.098-.124.123v.05l-.05.05L94.39 29.155l.1-.099L81.601 17.41Zm-2.181 2.7c-.05.075-.1.15-.174.224-.024.024-.024.05-.05.074l14.251 9.889c.025-.05.05-.075.075-.124L79.42 20.11Zm-1.834 2.925c-.05.1-.124.223-.174.322l15.341 8.104c.025-.05.05-.074.075-.124l-15.242-8.302ZM76.1 26.182c0 .025-.025.05-.025.075v.025c-.025.074-.074.173-.1.247l16.21 6.171c.024-.05.024-.099.049-.123L76.1 26.182Zm-1.066 3.297c-.025.074-.025.124-.05.198-.024.05-.024.124-.049.173l16.853 4.164c0-.05.025-.1.025-.149L75.034 29.48Zm-.669 3.395v.05c-.025.099-.025.198-.05.297l17.225 2.082c0-.05 0-.1.025-.149l-17.2-2.28Zm17.1 3.693-17.348-.248v.372l17.349.024v-.148Zm.05 1.412-17.25 1.834c0 .075.026.149.026.223V40.186l17.224-2.058c.025-.074 0-.1 0-.149Zm.223 1.339-16.902 3.915c.025.1.05.224.074.323v.024l16.853-4.139c0-.024 0-.074-.025-.123Zm.397 1.288L75.827 46.53c.05.099.075.223.124.322l16.233-6.146c-.025 0-.025-.05-.05-.1Zm.545 1.24-15.465 7.88c.05.075.075.174.124.248 0 .025.025.05.025.075l15.365-8.08a.419.419 0 0 0-.05-.123Zm.694 1.19-14.4 9.665c.025.024.025.05.05.074l.149.223 14.275-9.864c-.025-.025-.05-.05-.074-.099Zm.843 1.09L81.08 55.452c.025.024.025.05.05.05.05.049.099.098.124.148l12.986-11.5c.025.05 0 .025-.025-.024Zm1.288.62-12.02 13.209.075.074c.05.025.074.074.124.1l.074.074 11.846-13.359c-.024-.025-.05-.074-.099-.099Zm1.041.817-10.36 14.548.05.05c.025.024.05.024.05.049.05.05.124.074.173.124l10.162-14.697-.075-.074Zm.868 1.165L89.136 61.97c.099.05.223.124.322.173l8.08-15.366a.419.419 0 0 0-.124-.05Zm1.214.57-6.345 16.134.223.074c.05.025.075.025.124.05l6.147-16.233c-.05 0-.1-.025-.15-.025Zm1.289.421-4.362 16.803c.025 0 .05 0 .074.025h.05c.074.025.173.05.272.075l4.139-16.853c-.074-.025-.124-.05-.173-.05Zm1.338.248-2.28 17.2c.124.025.248.025.372.05l2.057-17.225c-.05 0-.099-.025-.149-.025Zm1.561.1h-.148l-.223 17.348h.371V48.066Zm1.363-.075c-.049 0-.099 0-.148.025l1.858 17.249c.124-.025.248-.025.372-.05l-2.082-17.224Zm1.339-.248c-.05 0-.099.025-.149.025l3.941 16.902c.074-.025.123-.025.198-.05H109.582c.025 0 .05 0 .075-.024l-4.139-16.853Zm1.313-.397c-.049.025-.099.025-.124.05l5.948 16.283c.025-.025.075-.025.099-.05h.05c.074-.025.124-.05.198-.074l-6.171-16.209Zm.793-1.462c-.049.025-.074.05-.124.075l8.328 16.357h.024c.05-.025.124-.075.174-.1a.187.187 0 0 1 .099-.05l-8.501-16.282Zm1.091-.595c-.05.025-.075.05-.124.075l10.211 15.167c.024-.025.074-.05.099-.074h.025c.049-.025.099-.075.148-.1 0 0 .025 0 .025-.024L108.715 45.29Zm1.611-.074c-.025.025-.075.074-.099.1l11.35 13.11.025-.025h.025c.025-.025.074-.05.099-.1h.025l.049-.049-11.474-13.036Zm.966-.991-.099.099 12.838 11.648c.074-.1.173-.173.248-.273l-12.987-11.474Zm.843-1.066c-.025.05-.05.074-.074.124l14.151 10.037c.049-.05.074-.124.124-.173v-.05c.025-.025.049-.05.049-.074l-14.25-9.864Zm.719-1.19c-.025.05-.05.075-.075.124l15.267 8.253c.049-.099.124-.223.173-.322l-15.365-8.055Zm.545-1.239c-.025.05-.025.1-.05.124l16.159 6.345c.025-.025.025-.075.05-.1v-.024c.024-.075.049-.124.074-.198v-.025l-16.233-6.122Zm.421-1.288c0 .05-.025.099-.025.148l16.803 4.337a2.05 2.05 0 0 1 .1-.371l-16.878-4.114Zm.223-1.339c0 .05 0 .1-.025.149l17.2 2.255v-.05c.025-.099.025-.198.05-.322l-17.225-2.032Zm17.448-1.437-17.349.025v.148l17.349.199v-.373Zm-.223-3.445-17.225 2.107c0 .05 0 .099.025.148l17.249-1.883v-.075a1.231 1.231 0 0 1-.049-.297Zm-.62-3.42-16.853 4.188c0 .05.025.1.025.149l16.902-3.965c0-.025-.024-.075-.024-.1-.025-.099-.05-.198-.05-.272Zm-1.041-3.296L113.399 32.7c.025.05.025.1.049.124l16.283-5.972c-.025-.05-.025-.075-.049-.124-.025-.1-.05-.174-.075-.223Zm-1.437-3.173-15.341 8.104c.025.05.049.075.074.124l15.44-7.905c-.049-.075-.074-.174-.124-.248v-.025c-.024 0-.049-.025-.049-.05Zm-1.809-2.949-14.251 9.889c.025.05.05.074.074.124l14.375-9.716s0-.024-.025-.024c-.025-.05-.05-.075-.074-.124v-.025a.414.414 0 0 1-.099-.124Zm-2.157-2.726-12.961 11.549.099.1 13.11-11.376-.025-.025v-.025l-.024-.025-.025-.025-.025-.024-.149-.149Zm-2.453-2.454-11.475 13.012.099.099 11.648-12.863a5.746 5.746 0 0 0-.074-.074h-.025l-.173-.174Zm-2.726-2.131-9.815 14.3c.05.025.075.05.124.074l10.013-14.176a1.399 1.399 0 0 1-.322-.198Zm-2.974-1.784-8.03 15.39c.049.025.074.05.124.075l8.228-15.267-.149-.074h-.025c-.099-.1-.124-.124-.148-.124Zm-3.173-1.413-6.096 16.233c.049.025.099.025.124.05l6.319-16.16c-.024-.024-.074-.024-.099-.049a.35.35 0 0 0-.148-.05h-.025c-.025 0-.05-.024-.075-.024Zm-3.296-1.016-4.089 16.853c.05 0 .099.024.149.024l4.312-16.803a4.856 4.856 0 0 1-.372-.074Zm-3.42-.62-2.007 17.225c.049 0 .099 0 .148.024l2.231-17.2h-.099c-.075 0-.149-.024-.223-.024-.025-.025-.05-.025-.05-.025Z" fill="#000"/><path d="m128.574 57.287-.347-.273c4.634-5.824 7.088-12.838 7.088-20.273 0-4.337-.843-8.55-2.504-12.54l.422-.174a32.882 32.882 0 0 1 2.528 12.714c0 7.534-2.479 14.622-7.187 20.546Z" fill="#fff"/><path d="M76.82 57.286c-4.709-5.898-7.187-13.011-7.187-20.57 0-4.412.842-8.674 2.528-12.714l.421.173a32.452 32.452 0 0 0-2.503 12.54c0 7.436 2.454 14.45 7.088 20.274l-.347.297Z" fill="#fff"/><path d="m128.574 57.261-.347-.272c4.634-5.825 7.088-12.838 7.088-20.273 0-4.337-.843-8.55-2.504-12.54l.397-.174a32.79 32.79 0 0 1 2.528 12.714c.025 7.534-2.478 14.647-7.162 20.545Z" fill="#fff"/><path d="M76.82 57.261c-4.709-5.898-7.187-13.011-7.187-20.545 0-4.412.842-8.674 2.528-12.714l.396.173a32.453 32.453 0 0 0-2.503 12.54c0 7.436 2.454 14.45 7.088 20.274l-.322.272Z" fill="#fff"/><path d="M120.478 35.057a2.002 2.002 0 0 1-1.686-1.19l-.099-.247-.173.173c-.992.967-2.503 1.462-4.486 1.462-1.983 0-3.792-.62-4.981-1.685l-.298-.272v1.71H84.17v-3.644h1.66v-6.071h-1.66V21.45h9.715v2.974h5.725l.297 1.264.298-.223c.867-.644 1.859-.942 3.172-.942 2.503 0 3.99 1.09 4.213 3.098l.075.645.272-.57c1.091-2.355 3.842-3.173 6.072-3.197h.223c2.429 0 5.18 1.164 5.502 4.436l.05.421-4.635.52-.025-.47c-.049-1.438-.47-1.71-1.09-1.71-.967 0-1.289.52-1.289 2.18 0 1.686.322 2.206 1.289 2.206.719 0 1.14-.396 1.14-1.065v-.447h4.634l-.049.645.248-.075c.198-.074.396-.099.595-.099 1.115 0 2.007.892 2.007 2.008 0 1.04-.768 1.908-1.809 2.007h-.322Zm.124 4.164c-.818 0-1.19.595-1.19 3.94 0 3.37.396 3.941 1.19 3.941.817 0 1.189-.595 1.189-3.94 0-3.346-.372-3.941-1.189-3.941Zm-12.144 0c-.818 0-1.19.595-1.19 3.94 0 3.37.397 3.941 1.19 3.941.818 0 1.189-.595 1.189-3.94 0-3.346-.371-3.941-1.189-3.941Zm-12.144 0c-.818 0-1.19.595-1.19 3.94 0 3.37.397 3.941 1.19 3.941.818 0 1.19-.595 1.19-3.94 0-3.346-.397-3.941-1.19-3.941Zm-13.036 4.981.421.323-.124.297c-.198.396-.297 1.264 0 1.784.149.248.397.372.744.372.694 0 1.09-.322 1.264-.991.05-.199.074-.446.074-.694 0-.694-.173-1.215-.496-1.537a1.316 1.316 0 0 0-.917-.347c-.594 0-1.19.248-1.834.719l-.173.074-3.346-1.338 1.016-7.336h9.542v4.238h-6.047l-.124.892.297-.124a4.61 4.61 0 0 1 1.859-.371c1.561 0 2.776.42 3.643 1.239.248.223.471.495.67.818l.297.47.05-.545c.297-4.337 2.502-6.716 6.22-6.716 3.048 0 5.08 1.586 5.898 4.61l.174.644.173-.644c.793-3 2.826-4.61 5.899-4.61 3.048 0 5.08 1.586 5.898 4.61l.174.644.173-.644c.768-2.95 2.776-4.56 5.775-4.585h.371c3.842.099 6.072 2.924 6.072 7.757 0 4.957-2.305 7.782-6.295 7.782-3.048 0-5.08-1.611-5.898-4.635l-.174-.644-.173.645c-.818 3.048-2.85 4.634-5.923 4.634-3.049 0-5.081-1.611-5.899-4.635l-.173-.644-.174.645c-.818 3.048-2.85 4.634-5.923 4.634-2.776 0-4.808-1.438-5.725-4.065l-.173-.52-.174.52a5.878 5.878 0 0 1-.495 1.14 5.38 5.38 0 0 1-1.165 1.413c-1.19 1.016-2.652 1.512-4.337 1.512-2.454 0-5.254-1.314-5.602-4.164l-.024-.297 4.684-2.33Zm18.141-16.109c-.768 0-1.338.57-1.338 1.338v1.958h2.33v-2.453c0-.57-.347-.843-.992-.843Zm-9.194 3.271h2.627v-3.296h-1.24v-2.775H92.25v6.072h-.024Z" fill="#fff"/><path d="M96.332 35.826c-3.693 0-5.824 2.454-5.824 7.336 0 4.833 2.156 7.36 5.824 7.36 3.643 0 5.849-2.527 5.849-7.36 0-4.882-2.206-7.336-5.85-7.336Zm0 11.723c-1.338 0-1.636-1.289-1.636-4.387s.298-4.387 1.636-4.387c1.338 0 1.636 1.29 1.636 4.387 0 3.098-.273 4.387-1.636 4.387Z" fill="#F5B335"/><path d="M108.48 35.826c-3.692 0-5.824 2.454-5.824 7.336 0 4.833 2.156 7.36 5.824 7.36 3.643 0 5.849-2.527 5.849-7.36.025-4.882-2.206-7.336-5.849-7.336Zm.025 11.723c-1.338 0-1.636-1.289-1.636-4.387s.298-4.387 1.636-4.387c1.338 0 1.636 1.29 1.636 4.387 0 3.098-.298 4.387-1.636 4.387Z" fill="#285CFF"/><path d="M120.621 35.826c-3.693 0-5.824 2.454-5.824 7.336 0 4.833 2.156 7.36 5.824 7.36 3.643 0 5.849-2.527 5.849-7.36.025-4.882-2.206-7.336-5.849-7.336Zm.025 11.723c-1.339 0-1.636-1.289-1.636-4.387s.297-4.387 1.636-4.387c1.338 0 1.635 1.29 1.635 4.387 0 3.098-.297 4.387-1.635 4.387Z" fill="#0033A1"/><path d="M88.83 41.699c-.743-.694-1.833-1.115-3.345-1.115-1.512 0-2.354.669-2.726.991l.297-2.255h6.023v-3.37H80.33l-.917 6.666 2.553 1.313c.446-.371 1.264-.99 2.33-.99.47 0 .892.148 1.214.47.396.372.644.991.644 1.859 0 .297-.025.57-.074.793-.223.966-.867 1.338-1.685 1.338-1.636 0-1.512-2.057-1.14-2.776l-.025-.024-4.09 2.131c.298 2.602 2.925 3.792 5.156 3.792 1.437 0 2.85-.397 4.064-1.413.421-.372.793-.793 1.066-1.288.47-.818.694-1.735.694-2.603 0-1.413-.397-2.676-1.29-3.519Z" fill="#FF4713"/><path d="M84.64 34.56v-2.75h1.661v-6.965h-1.66v-2.974h8.847v2.974h-1.66v6.94h1.66v2.775h-8.847Z" fill="#000"/><path d="M101.589 34.559v-2.776h1.289v-2.9c0-.867-.62-1.264-1.438-1.264-1.016 0-1.784.744-1.784 1.76v2.404h1.313v2.776h-6.914v-2.776h1.239V27.62h-1.24v-2.775h5.453v1.908c.1-.074.173-.173.248-.272.991-1.14 2.131-1.562 3.643-1.562 2.107 0 3.817.867 3.817 3.197v3.668h1.115v2.776h-6.741Z" fill="#000"/><path d="m119.346 28.961-3.743.421c-.049-1.04-.247-2.131-1.511-2.131-1.611 0-1.735 1.338-1.735 2.627v.025c0 1.289.124 2.627 1.735 2.627.842 0 1.586-.471 1.586-1.512h3.717l-.025.322c-.619 3.024-3.345 3.495-5.303 3.495-3.073 0-6.122-1.512-6.122-4.957s3.024-4.957 6.122-4.957c0 0 4.833-.322 5.279 4.04Z" fill="#000"/><path d="M122.235 33.047c0 .867-.694 1.561-1.586 1.561-.868 0-1.587-.694-1.587-1.56 0-.868.694-1.587 1.587-1.587.867 0 1.586.719 1.586 1.586Z" fill="#000"/><path d="M135.688 72.405c19.71 0 35.688-15.978 35.688-35.688S155.398 1.03 135.688 1.03 100 17.007 100 36.717s15.978 35.688 35.688 35.688Z" fill="#000"/><path d="M135.685 66.46c16.425 0 29.74-13.314 29.74-29.74 0-16.424-13.315-29.74-29.74-29.74-16.425 0-29.74 13.316-29.74 29.74 0 16.425 13.315 29.74 29.74 29.74Z" fill="#fff"/><path d="m105.946 19.988 2.899.446-.247.422-.744-.1-.545.992.471.57-.223.421-1.909-2.206.298-.545Zm.223.471.867 1.016.446-.818-1.313-.198Z" fill="#fff"/><path d="m109.956 18.773-2.206-.694 1.784 1.264-.272.372-2.231-1.586.422-.595 2.23.769-1.413-1.909.422-.57 2.23 1.586-.272.372-1.785-1.264 1.388 1.834-.297.421Z" fill="#fff"/><path d="m111.742 14.61-.694.794.62.545.842-.942.298.273-1.165 1.264-2.057-1.834 1.09-1.24.298.273-.768.893.57.495.693-.793.273.273Z" fill="#fff"/><path d="m113.433 13.025-.025.025-.322.297.793.843-.347.322-1.884-2.008.769-.718c.495-.471.892-.397 1.189-.075.199.199.372.52.124.967l1.264.446-.372.347-1.189-.446Zm-.322-.198c.297-.273.396-.52.148-.769-.223-.223-.396-.173-.669.075l-.322.322.57.62.273-.248Z" fill="#fff"/><path d="m116.108 11.808.223-.198.198.247-.842.67-.199-.248.223-.199-1.313-1.635-.223.173-.198-.248.842-.669.198.248-.247.198 1.338 1.66Z" fill="#fff"/><path d="m118.264 9.507.396-.223c.322.57.149 1.066-.347 1.388-.619.421-1.214.273-1.735-.496-.545-.818-.396-1.487.224-1.908.545-.347 1.04-.273 1.387.297l-.371.298c-.298-.446-.57-.397-.818-.248-.347.223-.446.62-.025 1.289.397.595.744.694 1.115.446.298-.223.372-.496.174-.843Z" fill="#fff"/><path d="m119.849 6.508 2.205 1.933-.446.223-.57-.496-.966.57.099.744-.422.223-.421-2.925.521-.272Zm-.05.52.198 1.339.818-.447-1.016-.892Z" fill="#fff"/><path d="m121.43 5.74.396-.174.174.372.049.67-.198.024-.099-.496-.149.075-.173-.471Z" fill="#fff"/><path d="M124.41 5.417c-.149-.322-.372-.421-.669-.298-.273.1-.397.273-.298.496.099.273.372.248.694.198.422-.074.917-.148 1.14.422.199.495-.074.941-.644 1.164-.62.224-1.041.124-1.314-.396l.446-.248c.149.273.323.421.744.273.347-.124.446-.347.347-.57-.124-.298-.421-.223-.768-.174-.397.075-.868.124-1.091-.421-.198-.471.05-.892.62-1.115.545-.199.942-.05 1.214.421l-.421.248Z" fill="#fff"/><path d="m129.067 4.847-.991.223.272 1.14-.471.099-.619-2.652 1.611-.372.099.372-1.14.273.173.793.992-.223.074.347Z" fill="#fff"/><path d="m131.127 2.912 1.413 2.578-.496.074-.347-.644-1.14.173-.149.719-.47.074.594-2.875.595-.099Zm-.248.446-.272 1.314.917-.124-.645-1.19Z" fill="#fff"/><path d="M134.694 3.458c-.049-.347-.223-.495-.545-.495-.297.024-.446.124-.446.396.025.298.272.347.595.397.421.074.917.124.941.743.025.545-.347.892-.991.917-.669.025-1.016-.198-1.115-.793l.495-.099c.05.297.174.52.62.496.372-.025.521-.199.521-.446-.025-.323-.323-.347-.67-.397-.396-.074-.867-.149-.892-.743-.025-.52.347-.843.967-.868.595-.025.917.223 1.016.793l-.496.1Z" fill="#fff"/><path d="m136.904 3.011-.818-.025.025-.396 2.106.074-.024.397-.818-.025-.099 2.354-.471-.024.099-2.355Z" fill="#fff"/><path d="m140.685 4.497-1.041-.124-.099.818 1.239.149-.049.396L139 5.513l.347-2.726 1.636.223-.05.397-1.165-.149-.099.743 1.041.124-.025.372Z" fill="#fff"/><path d="M143.522 4.35c.05-.346-.074-.545-.396-.62-.298-.073-.471 0-.521.274-.074.297.174.42.471.545.397.173.867.372.719.966-.124.52-.57.769-1.19.62-.644-.149-.942-.471-.867-1.066l.495.05c-.024.297.05.545.471.62.347.074.57-.05.62-.298.074-.322-.223-.421-.545-.57-.372-.174-.793-.372-.67-.942.1-.495.571-.719 1.165-.595.57.124.818.471.769 1.017h-.521Z" fill="#fff"/><path d="m145.776 4.498-.768-.247.124-.372 2.007.644-.124.372-.768-.248-.719 2.255-.446-.148.694-2.256Z" fill="#fff"/><path d="m147.031 6.51.124-.348.967.372-.124.347-.967-.372Z" fill="#fff"/><path d="m150.282 7.328.917.446-.619 1.29-.323-.15.149-.347a.969.969 0 0 1-.867 0c-.62-.297-.793-.917-.397-1.71.446-.941 1.115-1.115 1.785-.768.545.273.718.694.446 1.314l-.446-.199c.198-.421.049-.644-.224-.768-.347-.173-.743-.074-1.09.62-.322.644-.223 1.016.173 1.214.323.149.67.074.843-.297l.025-.025-.521-.248.149-.372Z" fill="#fff"/><path d="m152.958 9.109-.025-.025-.371-.223-.595.966-.397-.247 1.438-2.33.892.545c.595.372.62.769.372 1.14-.149.248-.422.496-.893.372l-.099 1.338-.421-.272.099-1.264Zm.124-.372c.347.223.595.248.768-.05.174-.272.05-.446-.247-.62l-.397-.247-.446.719.322.198Z" fill="#fff"/><path d="M154.788 10.003c.545-.719 1.264-.843 1.883-.372.62.471.595 1.115.075 1.81-.57.743-1.215.916-1.859.396-.644-.471-.644-1.115-.099-1.834Zm1.537 1.165c.396-.52.446-.917.074-1.215-.372-.297-.793-.173-1.215.372-.396.52-.446.967-.074 1.24.397.297.793.148 1.215-.397Z" fill="#fff"/><path d="m158.136 14.661 1.016-1.834-1.784 1.09-.446-.42 1.437-2.454.372.347-1.239 1.983 2.007-1.24.347.347-1.165 2.082 1.958-1.288.347.346-2.404 1.487-.446-.446Z" fill="#fff"/><path d="m160.322 16.592.198.223-.248.199-.694-.818.248-.199.198.224 1.611-1.339-.198-.223.248-.198.694.818-.248.198-.198-.223-1.611 1.338Z" fill="#fff"/><path d="m161.886 19.224 1.016-2.131-1.685 1.19-.248-.373 2.255-1.586.322.471-1.041 2.156 1.71-1.214.248.372-2.255 1.586-.322-.471Z" fill="#fff"/><path d="m164.531 20.929.496.892-1.24.694-.173-.297.322-.199a.878.878 0 0 1-.694-.495c-.347-.62-.149-1.19.645-1.636.917-.496 1.536-.273 1.908.396.297.546.173 1.017-.347 1.314l-.248-.396c.372-.248.397-.496.248-.769-.198-.322-.57-.495-1.264-.099-.62.347-.768.719-.545 1.09.173.323.495.447.867.248l.025-.024-.273-.496.273-.223Z" fill="#fff"/><path d="m111.574 60.928-.347-.322 1.933-1.958.743.72c.496.495.421.891.099 1.213-.248.248-.743.57-1.412-.074l-.298-.297-.718.718Zm1.214-.718c.297.297.57.322.818.074.223-.223.198-.421-.075-.719l-.322-.297-.694.694.273.248Z" fill="#fff"/><path d="m115.189 62.638-.025-.025-.347-.272-.719.892-.371-.298 1.71-2.156.817.645c.546.446.521.842.248 1.165-.173.223-.471.446-.917.247l-.272 1.339-.397-.323.273-1.214Zm.148-.347c.323.248.57.298.769.05.198-.248.099-.422-.174-.645l-.347-.272-.52.669.272.198Z" fill="#fff"/><path d="m117.224 65.142.248.173-.174.273-.892-.595.174-.273.248.174 1.164-1.735-.247-.173.173-.273.892.595-.173.272-.248-.173-1.165 1.735Z" fill="#fff"/><path d="m121.451 64.823.446.248-2.181 1.933-.521-.298.446-2.9.471.249-.421 2.403 1.76-1.635Z" fill="#fff"/><path d="m123.84 65.907-.124 2.925-.446-.198.025-.744-1.041-.446-.495.545-.447-.198 1.983-2.156.545.272Zm-.446.273-.917.991.843.372.074-1.363Z" fill="#fff"/><path d="m125.917 67.077-.769-.248.124-.372 2.008.644-.124.372-.768-.248-.719 2.256-.446-.15.694-2.254Z" fill="#fff"/><path d="m129.516 69.206-1.016-.223-.174.793 1.24.272-.075.397-1.71-.372.57-2.676 1.611.346-.074.397-1.14-.248-.149.744 1.016.223-.099.347Z" fill="#fff"/><path d="m134.302 70.025.471.074c-.1.644-.521.917-1.14.892-.744-.05-1.116-.52-1.066-1.462.074-.991.595-1.413 1.338-1.363.645.05.992.421.942 1.066h-.471c.025-.546-.223-.67-.496-.694-.396-.025-.743.223-.793 1.016-.049.694.174 1.016.595 1.04.347 0 .57-.173.62-.57Z" fill="#fff"/><path d="M136.035 69.654c-.05-.892.421-1.462 1.214-1.487.768-.025 1.19.47 1.215 1.338.049.917-.347 1.462-1.165 1.512-.818.025-1.239-.47-1.264-1.363Zm1.908-.124c-.025-.644-.248-.991-.719-.967-.47.025-.718.397-.694 1.066.025.67.273 1.016.744.992.496-.025.694-.397.669-1.091Z" fill="#fff"/><path d="m141.235 70.546-1.066-2.057.372 2.156-.446.074-.447-2.701.719-.124 1.041 2.131.297-2.354.694-.124.446 2.701-.446.075-.371-2.156-.323 2.28-.47.099Z" fill="#fff"/><path d="m144.98 69.728-.446.124-.768-2.628.991-.297c.694-.198.991.074 1.115.52.099.347.149.942-.768 1.19l-.397.124.273.967Zm-.05-1.413c.422-.124.57-.347.471-.694-.099-.297-.272-.397-.669-.273l-.421.124.272.942.347-.1Z" fill="#fff"/><path d="m147.679 65.912 1.983 2.156-.471.174-.495-.546-1.066.422.025.743-.446.174-.1-2.925.57-.198Zm-.124.496.05 1.338.867-.347-.917-.991Z" fill="#fff"/><path d="m152.337 66.703-2.008-1.264h-.024l.966 1.81-.396.223-1.289-2.43.496-.272 2.007 1.314-.991-1.859.396-.223 1.289 2.429-.446.272Z" fill="#fff"/><path d="m154.592 64.942.248-.173.173.272-.892.595-.173-.273.248-.173-1.165-1.76-.248.174-.174-.273.893-.595.173.273-.248.173 1.165 1.76Z" fill="#fff"/><path d="m156.703 62.268-.818.644.496.645.991-.769.248.323-1.363 1.065-1.71-2.156 1.289-1.016.247.297-.917.719.471.595.818-.645.248.298Z" fill="#fff"/><path d="M158.415 59.786c-.248-.223-.496-.223-.744 0-.223.199-.248.397-.074.57.198.224.446.075.694-.074.371-.223.793-.495 1.214-.074.372.396.322.892-.149 1.338-.471.446-.917.52-1.363.149l.322-.397c.248.199.471.273.793-.025.273-.247.273-.495.1-.669-.223-.223-.471-.05-.769.15-.347.222-.768.445-1.165.024-.346-.372-.272-.868.149-1.289.422-.396.843-.421 1.289-.074l-.297.371Z" fill="#fff"/><path d="M136.238 8.041h-.372l-.05 17.348h.149l.273-17.348Zm-3.47.173s-.025 0 0 0h-.174c-.049 0-.099 0-.148.025l2.032 17.225c.05 0 .099 0 .149-.025l-1.859-17.225Zm-3.42.57s-.025 0 0 0h-.025c-.025 0-.049.025-.074.025h-.025c-.074.025-.124.025-.198.05l4.114 16.853c.049 0 .099-.025.148-.025l-3.94-16.902Zm-3.321.967c-.124.05-.223.074-.347.124l6.121 16.233c.05-.025.1-.025.149-.05l-5.923-16.307Zm-3.197 1.388-.149.074H122.483l8.054 15.366c.05-.025.075-.05.124-.074l-7.831-15.366Zm-2.974 1.76c-.025.024-.05.024-.075.05-.074.049-.148.098-.198.148l9.839 14.275c.05-.025.075-.05.124-.074l-9.69-14.4Zm-2.776 2.081-.049.05c-.075.074-.149.124-.224.198l11.475 13.011a.56.56 0 0 1 .124-.099L117.08 14.98Zm-2.478 2.43c-.05.049-.075.098-.124.123v.05l-.05.05 12.962 11.523.099-.099-12.887-11.648Zm-2.181 2.7c-.05.075-.099.15-.174.224-.024.024-.024.05-.049.074l14.25 9.889c.025-.05.05-.075.075-.124L112.421 20.11Zm-1.834 2.925c-.05.1-.124.223-.174.322l15.341 8.104c.025-.05.05-.074.075-.124l-15.242-8.302Zm-1.487 3.147c0 .025-.025.05-.025.075v.025c-.025.074-.074.173-.099.247l16.208 6.171c.025-.05.025-.099.05-.123L109.1 26.182Zm-1.066 3.297c-.025.074-.025.124-.049.198-.025.05-.025.124-.05.173l16.853 4.164c0-.05.025-.1.025-.149l-16.779-4.386Zm-.669 3.395v.05c-.025.099-.025.198-.05.297l17.225 2.082c0-.05 0-.1.025-.149l-17.2-2.28Zm17.101 3.693-17.349-.248v.372l17.349.024v-.148Zm.049 1.412-17.249 1.834c0 .075.025.149.025.223V40.186l17.224-2.058c.025-.074 0-.1 0-.149Zm.223 1.339-16.902 3.915c.025.1.049.224.074.323v.024l16.853-4.139c0-.024 0-.074-.025-.123Zm.397 1.288-16.308 5.924c.05.099.075.223.124.322l16.233-6.146c-.025 0-.025-.05-.049-.1Zm.545 1.24-15.465 7.88c.05.075.074.174.124.248 0 .025.025.05.025.075l15.366-8.08c0-.024-.025-.074-.05-.123Zm.694 1.19L111.975 52.7c.025.024.025.05.049.074l.149.223 14.275-9.864a.342.342 0 0 1-.074-.099Zm.843 1.09-13.136 11.326c.025.024.025.05.05.05.049.049.099.098.124.148l12.986-11.5c.025.05 0 .025-.024-.024Zm1.288.62-12.02 13.209.075.074c.049.025.074.074.124.1l.074.074 11.846-13.359c-.024-.025-.049-.074-.099-.099Zm1.041.817-10.359 14.548.049.05c.025.024.05.024.05.049.049.05.124.074.173.124l10.161-14.697-.074-.074Zm.868 1.165-8.278 15.242c.099.05.223.124.322.173l8.079-15.366a.417.417 0 0 0-.123-.05Zm1.214.57-6.345 16.134.223.074c.05.025.075.025.124.05l6.147-16.233c-.05 0-.099-.025-.149-.025Zm1.289.421-4.362 16.803c.025 0 .049 0 .074.025h.05c.074.025.173.05.272.075l4.139-16.853c-.074-.025-.124-.05-.173-.05Zm1.338.248-2.28 17.2c.124.025.248.025.372.05l2.057-17.225c-.05 0-.099-.025-.149-.025Zm1.561.1h-.148l-.223 17.348h.371V48.066Zm1.363-.075c-.049 0-.099 0-.148.025l1.858 17.249c.124-.025.248-.025.372-.05l-2.082-17.224Zm1.339-.248c-.05 0-.099.025-.149.025l3.941 16.902c.074-.025.123-.025.198-.05H142.582c.025 0 .05 0 .075-.024l-4.139-16.853Zm1.313-.397c-.049.025-.099.025-.124.05l5.948 16.283c.025-.025.075-.025.099-.05h.05c.074-.025.124-.05.198-.074l-6.171-16.209Zm.793-1.462c-.049.025-.074.05-.124.075l8.328 16.357h.024c.05-.025.124-.075.174-.1a.187.187 0 0 1 .099-.05l-8.501-16.282Zm1.091-.595c-.05.025-.075.05-.124.075l10.211 15.167c.024-.025.074-.05.099-.074h.025c.049-.025.099-.075.148-.1 0 0 .025 0 .025-.024L141.715 45.29Zm1.611-.074c-.025.025-.075.074-.099.1l11.35 13.11.025-.025h.025c.025-.025.074-.05.099-.1h.025l.049-.049-11.474-13.036Zm.966-.991-.099.099 12.838 11.648c.074-.1.173-.173.248-.273l-12.987-11.474Zm.843-1.066c-.025.05-.05.074-.074.124l14.151 10.037c.049-.05.074-.124.124-.173v-.05c.025-.025.049-.05.049-.074l-14.25-9.864Zm.719-1.19c-.025.05-.05.075-.075.124l15.267 8.253c.049-.099.124-.223.173-.322l-15.365-8.055Zm.545-1.239c-.025.05-.025.1-.05.124l16.159 6.345c.025-.025.025-.075.05-.1v-.024c.024-.075.049-.124.074-.198v-.025l-16.233-6.122Zm.421-1.288c0 .05-.025.099-.025.148l16.803 4.337a2.05 2.05 0 0 1 .1-.371l-16.878-4.114Zm.223-1.339c0 .05 0 .1-.025.149l17.2 2.255v-.05c.025-.099.025-.198.05-.322l-17.225-2.032Zm17.448-1.437-17.349.025v.148l17.349.199v-.373Zm-.223-3.445-17.225 2.107c0 .05 0 .099.025.148l17.249-1.883v-.075a1.231 1.231 0 0 1-.049-.297Zm-.62-3.42-16.853 4.188c0 .05.025.1.025.149l16.902-3.965c0-.025-.024-.075-.024-.1-.025-.099-.05-.198-.05-.272Zm-1.041-3.296L146.399 32.7c.025.05.025.1.049.124l16.283-5.972c-.025-.05-.025-.075-.049-.124-.025-.1-.05-.174-.075-.223Zm-1.437-3.173-15.341 8.104c.025.05.049.075.074.124l15.44-7.905c-.049-.075-.074-.174-.124-.248v-.025c-.024 0-.049-.025-.049-.05Zm-1.809-2.949-14.251 9.889c.025.05.05.074.074.124l14.375-9.716s0-.024-.025-.024c-.025-.05-.05-.075-.074-.124v-.025c-.05-.05-.075-.074-.099-.124Zm-2.157-2.726-12.961 11.549.099.1 13.11-11.376-.025-.025v-.025l-.024-.025-.025-.025-.025-.024-.149-.149Zm-2.453-2.454-11.475 13.012.099.099 11.648-12.863-.074-.074h-.025l-.173-.174Zm-2.726-2.131-9.815 14.3c.05.025.075.05.124.074l10.013-14.176a1.399 1.399 0 0 1-.322-.198Zm-2.974-1.784-8.03 15.39c.049.025.074.05.124.075l8.228-15.267-.149-.074h-.025c-.099-.1-.124-.124-.148-.124Zm-3.173-1.413-6.096 16.233c.049.025.099.025.124.05l6.319-16.16c-.024-.024-.074-.024-.099-.049a.35.35 0 0 0-.148-.05h-.025c-.025 0-.05-.024-.075-.024Zm-3.296-1.016-4.089 16.853c.05 0 .099.024.149.024l4.312-16.803a4.856 4.856 0 0 1-.372-.074Zm-3.42-.62-2.007 17.225c.049 0 .099 0 .148.024l2.231-17.2h-.099c-.075 0-.149-.024-.223-.024-.025-.025-.05-.025-.05-.025Z" fill="#000"/><path d="m161.574 57.287-.347-.273c4.634-5.824 7.088-12.838 7.088-20.273 0-4.337-.843-8.55-2.504-12.54l.422-.174a32.882 32.882 0 0 1 2.528 12.714c0 7.534-2.479 14.622-7.187 20.546Z" fill="#fff"/><path d="M109.82 57.286c-4.709-5.898-7.187-13.011-7.187-20.57 0-4.412.842-8.674 2.528-12.714l.421.173a32.462 32.462 0 0 0-2.503 12.54c0 7.436 2.453 14.45 7.088 20.274l-.347.297Z" fill="#fff"/><path d="m161.574 57.261-.347-.272c4.634-5.825 7.088-12.838 7.088-20.273 0-4.337-.843-8.55-2.504-12.54l.397-.174a32.79 32.79 0 0 1 2.528 12.714c.025 7.534-2.478 14.647-7.162 20.545Z" fill="#fff"/><path d="M109.82 57.261c-4.709-5.898-7.187-13.011-7.187-20.545 0-4.412.842-8.674 2.528-12.714l.396.173a32.462 32.462 0 0 0-2.503 12.54c0 7.436 2.454 14.45 7.088 20.274l-.322.272Z" fill="#fff"/><path d="M153.478 35.057a2.002 2.002 0 0 1-1.686-1.19l-.099-.247-.173.173c-.992.967-2.503 1.462-4.486 1.462-1.983 0-3.792-.62-4.981-1.685l-.298-.272v1.71H117.17v-3.644h1.66v-6.071h-1.66V21.45h9.715v2.974h5.725l.297 1.264.298-.223c.867-.644 1.859-.942 3.172-.942 2.503 0 3.99 1.09 4.213 3.098l.075.645.272-.57c1.091-2.355 3.842-3.173 6.072-3.197h.223c2.429 0 5.18 1.164 5.502 4.436l.05.421-4.635.52-.025-.47c-.049-1.438-.47-1.71-1.09-1.71-.967 0-1.289.52-1.289 2.18 0 1.686.322 2.206 1.289 2.206.719 0 1.14-.396 1.14-1.065v-.447h4.634l-.049.645.248-.075c.198-.074.396-.099.595-.099 1.115 0 2.007.892 2.007 2.008 0 1.04-.768 1.908-1.809 2.007h-.322Zm.124 4.164c-.818 0-1.19.595-1.19 3.94 0 3.37.396 3.941 1.19 3.941.817 0 1.189-.595 1.189-3.94 0-3.346-.372-3.941-1.189-3.941Zm-12.144 0c-.818 0-1.19.595-1.19 3.94 0 3.37.397 3.941 1.19 3.941.818 0 1.189-.595 1.189-3.94 0-3.346-.371-3.941-1.189-3.941Zm-12.144 0c-.818 0-1.19.595-1.19 3.94 0 3.37.397 3.941 1.19 3.941.818 0 1.189-.595 1.189-3.94 0-3.346-.396-3.941-1.189-3.941Zm-13.036 4.981.421.323-.124.297c-.198.396-.297 1.264 0 1.784.149.248.397.372.744.372.694 0 1.09-.322 1.264-.991.049-.199.074-.446.074-.694 0-.694-.173-1.215-.496-1.537a1.314 1.314 0 0 0-.917-.347c-.594 0-1.189.248-1.834.719l-.173.074-3.346-1.338 1.016-7.336h9.542v4.238h-6.047l-.124.892.297-.124a4.612 4.612 0 0 1 1.859-.371c1.561 0 2.776.42 3.643 1.239.248.223.471.495.669.818l.298.47.049-.545c.298-4.337 2.503-6.716 6.221-6.716 3.048 0 5.08 1.586 5.898 4.61l.174.644.173-.644c.793-3 2.826-4.61 5.899-4.61 3.048 0 5.08 1.586 5.898 4.61l.174.644.173-.644c.768-2.95 2.776-4.56 5.775-4.585h.371c3.842.099 6.072 2.924 6.072 7.757 0 4.957-2.305 7.782-6.295 7.782-3.048 0-5.08-1.611-5.898-4.635l-.174-.644-.173.645c-.818 3.048-2.85 4.634-5.923 4.634-3.049 0-5.081-1.611-5.899-4.635l-.173-.644-.174.645c-.818 3.048-2.85 4.634-5.923 4.634-2.776 0-4.808-1.438-5.725-4.065l-.173-.52-.174.52a5.836 5.836 0 0 1-.496 1.14c-.322.546-.693 1.017-1.164 1.413-1.19 1.016-2.652 1.512-4.337 1.512-2.454 0-5.254-1.314-5.601-4.164l-.025-.297 4.684-2.33Zm18.141-16.109c-.768 0-1.338.57-1.338 1.338v1.958h2.33v-2.453c0-.57-.347-.843-.992-.843Zm-9.194 3.271h2.627v-3.296h-1.24v-2.775h-1.363v6.072h-.024Z" fill="#fff"/><path d="M129.332 35.826c-3.693 0-5.824 2.454-5.824 7.336 0 4.833 2.156 7.36 5.824 7.36 3.643 0 5.849-2.527 5.849-7.36 0-4.882-2.206-7.336-5.849-7.336Zm0 11.723c-1.338 0-1.636-1.289-1.636-4.387s.298-4.387 1.636-4.387c1.338 0 1.636 1.29 1.636 4.387 0 3.098-.273 4.387-1.636 4.387Z" fill="#F5B335"/><path d="M141.48 35.826c-3.692 0-5.824 2.454-5.824 7.336 0 4.833 2.156 7.36 5.824 7.36 3.643 0 5.849-2.527 5.849-7.36.025-4.882-2.206-7.336-5.849-7.336Zm.025 11.723c-1.338 0-1.636-1.289-1.636-4.387s.298-4.387 1.636-4.387c1.338 0 1.636 1.29 1.636 4.387 0 3.098-.298 4.387-1.636 4.387Z" fill="#285CFF"/><path d="M153.621 35.826c-3.693 0-5.824 2.454-5.824 7.336 0 4.833 2.156 7.36 5.824 7.36 3.643 0 5.849-2.527 5.849-7.36.025-4.882-2.206-7.336-5.849-7.336Zm.025 11.723c-1.339 0-1.636-1.289-1.636-4.387s.297-4.387 1.636-4.387c1.338 0 1.635 1.29 1.635 4.387 0 3.098-.297 4.387-1.635 4.387Z" fill="#0033A1"/><path d="M121.831 41.699c-.744-.694-1.834-1.115-3.346-1.115s-2.354.669-2.726.991l.297-2.255h6.023v-3.37h-8.749l-.917 6.666 2.553 1.313c.446-.371 1.264-.99 2.33-.99.47 0 .892.148 1.214.47.396.372.644.991.644 1.859 0 .297-.024.57-.074.793-.223.966-.867 1.338-1.685 1.338-1.636 0-1.512-2.057-1.14-2.776l-.025-.024-4.089 2.131c.297 2.602 2.924 3.792 5.155 3.792 1.437 0 2.85-.397 4.064-1.413.421-.372.793-.793 1.066-1.288a5.254 5.254 0 0 0 .694-2.603c0-1.413-.397-2.676-1.289-3.519Z" fill="#FF4713"/><path d="M117.641 34.56v-2.75h1.66v-6.965h-1.66v-2.974h8.847v2.974h-1.66v6.94h1.66v2.775h-8.847Z" fill="#000"/><path d="M134.589 34.559v-2.776h1.289v-2.9c0-.867-.62-1.264-1.438-1.264-1.016 0-1.784.744-1.784 1.76v2.404h1.313v2.776h-6.914v-2.776h1.239V27.62h-1.239v-2.775h5.452v1.908c.099-.074.174-.173.248-.272.991-1.14 2.131-1.562 3.643-1.562 2.107 0 3.817.867 3.817 3.197v3.668h1.115v2.776h-6.741Z" fill="#000"/><path d="m152.346 28.961-3.743.421c-.049-1.04-.247-2.131-1.511-2.131-1.611 0-1.735 1.338-1.735 2.627v.025c0 1.289.124 2.627 1.735 2.627.842 0 1.586-.471 1.586-1.512h3.717l-.025.322c-.619 3.024-3.345 3.495-5.303 3.495-3.073 0-6.122-1.512-6.122-4.957s3.024-4.957 6.122-4.957c0 0 4.833-.322 5.279 4.04Z" fill="#000"/><path d="M155.235 33.047c0 .867-.694 1.561-1.586 1.561-.868 0-1.587-.694-1.587-1.56 0-.868.694-1.587 1.587-1.587.867 0 1.586.719 1.586 1.586Z" fill="#000"/><path d="M168.688 72.405c19.71 0 35.688-15.978 35.688-35.688S188.398 1.03 168.688 1.03 133 17.007 133 36.717s15.978 35.688 35.688 35.688Z" fill="#000"/><path d="M168.685 66.46c16.425 0 29.74-13.314 29.74-29.74 0-16.424-13.315-29.74-29.74-29.74-16.425 0-29.74 13.316-29.74 29.74 0 16.425 13.315 29.74 29.74 29.74Z" fill="#fff"/><path d="m138.946 19.988 2.899.446-.247.422-.744-.1-.545.992.471.57-.223.421-1.909-2.206.298-.545Zm.223.471.867 1.016.446-.818-1.313-.198Z" fill="#fff"/><path d="m142.956 18.773-2.206-.694 1.784 1.264-.272.372-2.231-1.586.422-.595 2.23.769-1.413-1.909.422-.57 2.23 1.586-.272.372-1.785-1.264 1.388 1.834-.297.421Z" fill="#fff"/><path d="m144.742 14.61-.694.794.62.545.842-.942.298.273-1.165 1.264-2.057-1.834 1.09-1.24.298.273-.768.893.57.495.693-.793.273.273Z" fill="#fff"/><path d="m146.433 13.025-.025.025-.322.297.793.843-.347.322-1.884-2.008.769-.718c.495-.471.892-.397 1.189-.075.199.199.372.52.124.967l1.264.446-.372.347-1.189-.446Zm-.322-.198c.297-.273.396-.52.148-.769-.223-.223-.396-.173-.669.075l-.322.322.57.62.273-.248Z" fill="#fff"/><path d="m149.108 11.808.223-.198.198.247-.842.67-.199-.248.223-.199-1.313-1.635-.223.173-.198-.248.842-.669.198.248-.247.198 1.338 1.66Z" fill="#fff"/><path d="m151.264 9.507.396-.223c.322.57.149 1.066-.347 1.388-.619.421-1.214.273-1.735-.496-.545-.818-.396-1.487.224-1.908.545-.347 1.04-.273 1.387.297l-.371.298c-.298-.446-.57-.397-.818-.248-.347.223-.446.62-.025 1.289.397.595.744.694 1.115.446.298-.223.372-.496.174-.843Z" fill="#fff"/><path d="m152.849 6.508 2.205 1.933-.446.223-.57-.496-.966.57.099.744-.422.223-.421-2.925.521-.272Zm-.05.52.198 1.339.818-.447-1.016-.892Z" fill="#fff"/><path d="m154.43 5.74.396-.174.174.372.049.67-.198.024-.099-.496-.149.075-.173-.471Z" fill="#fff"/><path d="M157.41 5.417c-.149-.322-.372-.421-.669-.298-.273.1-.397.273-.298.496.099.273.372.248.694.198.422-.074.917-.148 1.14.422.199.495-.074.941-.644 1.164-.62.224-1.041.124-1.314-.396l.446-.248c.149.273.323.421.744.273.347-.124.446-.347.347-.57-.124-.298-.421-.223-.768-.174-.397.075-.868.124-1.091-.421-.198-.471.05-.892.62-1.115.545-.199.942-.05 1.214.421l-.421.248Z" fill="#fff"/><path d="m162.067 4.847-.991.223.272 1.14-.471.099-.619-2.652 1.611-.372.099.372-1.14.273.173.793.992-.223.074.347Z" fill="#fff"/><path d="m164.127 2.912 1.413 2.578-.496.074-.347-.644-1.14.173-.149.719-.47.074.594-2.875.595-.099Zm-.248.446-.272 1.314.917-.124-.645-1.19Z" fill="#fff"/><path d="M167.694 3.458c-.049-.347-.223-.495-.545-.495-.297.024-.446.124-.446.396.025.298.272.347.595.397.421.074.917.124.941.743.025.545-.347.892-.991.917-.669.025-1.016-.198-1.115-.793l.495-.099c.05.297.174.52.62.496.372-.025.521-.199.521-.446-.025-.323-.323-.347-.67-.397-.396-.074-.867-.149-.892-.743-.025-.52.347-.843.967-.868.595-.025.917.223 1.016.793l-.496.1Z" fill="#fff"/><path d="m169.904 3.011-.818-.025.025-.396 2.106.074-.024.397-.818-.025-.099 2.354-.471-.024.099-2.355Z" fill="#fff"/><path d="m173.685 4.497-1.041-.124-.099.818 1.239.149-.049.396L172 5.513l.347-2.726 1.636.223-.05.397-1.165-.149-.099.743 1.041.124-.025.372Z" fill="#fff"/><path d="M176.522 4.35c.05-.346-.074-.545-.396-.62-.298-.073-.471 0-.521.274-.074.297.174.42.471.545.397.173.867.372.719.966-.124.52-.57.769-1.19.62-.644-.149-.942-.471-.867-1.066l.495.05c-.024.297.05.545.471.62.347.074.57-.05.62-.298.074-.322-.223-.421-.545-.57-.372-.174-.793-.372-.67-.942.1-.495.571-.719 1.165-.595.57.124.818.471.769 1.017h-.521Z" fill="#fff"/><path d="m178.776 4.498-.768-.247.124-.372 2.007.644-.124.372-.768-.248-.719 2.255-.446-.148.694-2.256Z" fill="#fff"/><path d="m180.031 6.51.124-.348.967.372-.124.347-.967-.372Z" fill="#fff"/><path d="m183.282 7.328.917.446-.619 1.29-.323-.15.149-.347a.969.969 0 0 1-.867 0c-.62-.297-.793-.917-.397-1.71.446-.941 1.115-1.115 1.785-.768.545.273.718.694.446 1.314l-.446-.199c.198-.421.049-.644-.224-.768-.347-.173-.743-.074-1.09.62-.322.644-.223 1.016.173 1.214.323.149.67.074.843-.297l.025-.025-.521-.248.149-.372Z" fill="#fff"/><path d="m185.958 9.109-.025-.025-.371-.223-.595.966-.397-.247 1.438-2.33.892.545c.595.372.62.769.372 1.14-.149.248-.422.496-.893.372l-.099 1.338-.421-.272.099-1.264Zm.124-.372c.347.223.595.248.768-.05.174-.272.05-.446-.247-.62l-.397-.247-.446.719.322.198Z" fill="#fff"/><path d="M187.788 10.003c.545-.719 1.264-.843 1.883-.372.62.471.595 1.115.075 1.81-.57.743-1.215.916-1.859.396-.644-.471-.644-1.115-.099-1.834Zm1.537 1.165c.396-.52.446-.917.074-1.215-.372-.297-.793-.173-1.215.372-.396.52-.446.967-.074 1.24.397.297.793.148 1.215-.397Z" fill="#fff"/><path d="m191.136 14.661 1.016-1.834-1.784 1.09-.446-.42 1.437-2.454.372.347-1.239 1.983 2.007-1.24.347.347-1.165 2.082 1.958-1.288.347.346-2.404 1.487-.446-.446Z" fill="#fff"/><path d="m193.322 16.592.198.223-.248.199-.694-.818.248-.199.198.224 1.611-1.339-.198-.223.248-.198.694.818-.248.198-.198-.223-1.611 1.338Z" fill="#fff"/><path d="m194.886 19.224 1.016-2.131-1.685 1.19-.248-.373 2.255-1.586.322.471-1.041 2.156 1.71-1.214.248.372-2.255 1.586-.322-.471Z" fill="#fff"/><path d="m197.531 20.929.496.892-1.24.694-.173-.297.322-.199a.878.878 0 0 1-.694-.495c-.347-.62-.149-1.19.645-1.636.917-.496 1.536-.273 1.908.396.297.546.173 1.017-.347 1.314l-.248-.396c.372-.248.397-.496.248-.769-.198-.322-.57-.495-1.264-.099-.62.347-.768.719-.545 1.09.173.323.495.447.867.248l.025-.024-.273-.496.273-.223Z" fill="#fff"/><path d="m144.574 60.928-.347-.322 1.933-1.958.743.72c.496.495.421.891.099 1.213-.248.248-.743.57-1.412-.074l-.298-.297-.718.718Zm1.214-.718c.297.297.57.322.818.074.223-.223.198-.421-.075-.719l-.322-.297-.694.694.273.248Z" fill="#fff"/><path d="m148.189 62.638-.025-.025-.347-.272-.719.892-.371-.298 1.71-2.156.817.645c.546.446.521.842.248 1.165-.173.223-.471.446-.917.247l-.272 1.339-.397-.323.273-1.214Zm.148-.347c.323.248.57.298.769.05.198-.248.099-.422-.174-.645l-.347-.272-.52.669.272.198Z" fill="#fff"/><path d="m150.224 65.142.248.173-.174.273-.892-.595.174-.273.248.174 1.164-1.735-.247-.173.173-.273.892.595-.173.272-.248-.173-1.165 1.735Z" fill="#fff"/><path d="m154.451 64.823.446.248-2.181 1.933-.521-.298.446-2.9.471.249-.421 2.403 1.76-1.635Z" fill="#fff"/><path d="m156.84 65.907-.124 2.925-.446-.198.025-.744-1.041-.446-.495.545-.447-.198 1.983-2.156.545.272Zm-.446.273-.917.991.843.372.074-1.363Z" fill="#fff"/><path d="m158.917 67.077-.769-.248.124-.372 2.008.644-.124.372-.768-.248-.719 2.256-.446-.15.694-2.254Z" fill="#fff"/><path d="m162.516 69.206-1.016-.223-.174.793 1.24.272-.075.397-1.71-.372.57-2.676 1.611.346-.074.397-1.14-.248-.149.744 1.016.223-.099.347Z" fill="#fff"/><path d="m167.302 70.025.471.074c-.1.644-.521.917-1.14.892-.744-.05-1.116-.52-1.066-1.462.074-.991.595-1.413 1.338-1.363.645.05.992.421.942 1.066h-.471c.025-.546-.223-.67-.496-.694-.396-.025-.743.223-.793 1.016-.049.694.174 1.016.595 1.04.347 0 .57-.173.62-.57Z" fill="#fff"/><path d="M169.035 69.654c-.05-.892.421-1.462 1.214-1.487.768-.025 1.19.47 1.215 1.338.049.917-.347 1.462-1.165 1.512-.818.025-1.239-.47-1.264-1.363Zm1.908-.124c-.025-.644-.248-.991-.719-.967-.47.025-.718.397-.694 1.066.025.67.273 1.016.744.992.496-.025.694-.397.669-1.091Z" fill="#fff"/><path d="m174.235 70.546-1.066-2.057.372 2.156-.446.074-.447-2.701.719-.124 1.041 2.131.297-2.354.694-.124.446 2.701-.446.075-.371-2.156-.323 2.28-.47.099Z" fill="#fff"/><path d="m177.98 69.728-.446.124-.768-2.628.991-.297c.694-.198.991.074 1.115.52.099.347.149.942-.768 1.19l-.397.124.273.967Zm-.05-1.413c.422-.124.57-.347.471-.694-.099-.297-.272-.397-.669-.273l-.421.124.272.942.347-.1Z" fill="#fff"/><path d="m180.679 65.912 1.983 2.156-.471.174-.495-.546-1.066.422.025.743-.446.174-.1-2.925.57-.198Zm-.124.496.05 1.338.867-.347-.917-.991Z" fill="#fff"/><path d="m185.337 66.703-2.008-1.264h-.024l.966 1.81-.396.223-1.289-2.43.496-.272 2.007 1.314-.991-1.859.396-.223 1.289 2.429-.446.272Z" fill="#fff"/><path d="m187.592 64.942.248-.173.173.272-.892.595-.173-.273.248-.173-1.165-1.76-.248.174-.174-.273.893-.595.173.273-.248.173 1.165 1.76Z" fill="#fff"/><path d="m189.703 62.268-.818.644.496.645.991-.769.248.323-1.363 1.065-1.71-2.156 1.289-1.016.247.297-.917.719.471.595.818-.645.248.298Z" fill="#fff"/><path d="M191.415 59.786c-.248-.223-.496-.223-.744 0-.223.199-.248.397-.074.57.198.224.446.075.694-.074.371-.223.793-.495 1.214-.074.372.396.322.892-.149 1.338-.471.446-.917.52-1.363.149l.322-.397c.248.199.471.273.793-.025.273-.247.273-.495.1-.669-.223-.223-.471-.05-.769.15-.347.222-.768.445-1.165.024-.346-.372-.272-.868.149-1.289.422-.396.843-.421 1.289-.074l-.297.371Z" fill="#fff"/><path d="M169.238 8.041h-.372l-.05 17.348h.149l.273-17.348Zm-3.47.173s-.025 0 0 0h-.174c-.049 0-.099 0-.148.025l2.032 17.225c.05 0 .099 0 .149-.025l-1.859-17.225Zm-3.42.57s-.025 0 0 0h-.025c-.025 0-.049.025-.074.025h-.025c-.074.025-.124.025-.198.05l4.114 16.853c.049 0 .099-.025.148-.025l-3.94-16.902Zm-3.321.967c-.124.05-.223.074-.347.124l6.121 16.233c.05-.025.1-.025.149-.05l-5.923-16.307Zm-3.197 1.388-.149.074H155.483l8.054 15.366c.05-.025.075-.05.124-.074l-7.831-15.366Zm-2.974 1.76c-.025.024-.05.024-.075.05-.074.049-.148.098-.198.148l9.839 14.275c.05-.025.075-.05.124-.074l-9.69-14.4Zm-2.776 2.081-.049.05c-.075.074-.149.124-.224.198l11.475 13.011a.56.56 0 0 1 .124-.099L150.08 14.98Zm-2.478 2.43c-.05.049-.075.098-.124.123v.05l-.05.05 12.962 11.523.099-.099-12.887-11.648Zm-2.181 2.7c-.05.075-.099.15-.174.224-.024.024-.024.05-.049.074l14.25 9.889c.025-.05.05-.075.075-.124L145.421 20.11Zm-1.834 2.925c-.05.1-.124.223-.174.322l15.341 8.104c.025-.05.05-.074.075-.124l-15.242-8.302Zm-1.487 3.147c0 .025-.025.05-.025.075v.025c-.025.074-.074.173-.099.247l16.208 6.171c.025-.05.025-.099.05-.123L142.1 26.182Zm-1.066 3.297c-.025.074-.025.124-.049.198-.025.05-.025.124-.05.173l16.853 4.164c0-.05.025-.1.025-.149l-16.779-4.386Zm-.669 3.395v.05c-.025.099-.025.198-.05.297l17.225 2.082c0-.05 0-.1.025-.149l-17.2-2.28Zm17.101 3.693-17.349-.248v.372l17.349.024v-.148Zm.049 1.412-17.249 1.834c0 .075.025.149.025.223V40.186l17.224-2.058c.025-.074 0-.1 0-.149Zm.223 1.339-16.902 3.915c.025.1.049.224.074.323v.024l16.853-4.139c0-.024 0-.074-.025-.123Zm.397 1.288-16.308 5.924c.05.099.075.223.124.322l16.233-6.146c-.025 0-.025-.05-.049-.1Zm.545 1.24-15.465 7.88c.05.075.074.174.124.248 0 .025.025.05.025.075l15.366-8.08a.417.417 0 0 0-.05-.123Zm.694 1.19L144.975 52.7c.025.024.025.05.049.074l.149.223 14.275-9.864a.342.342 0 0 1-.074-.099Zm.843 1.09-13.136 11.326c.025.024.025.05.05.05.049.049.099.098.124.148l12.986-11.5c.025.05 0 .025-.024-.024Zm1.288.62-12.02 13.209.075.074c.049.025.074.074.124.1l.074.074 11.846-13.359c-.024-.025-.049-.074-.099-.099Zm1.041.817-10.359 14.548.049.05c.025.024.05.024.05.049.049.05.124.074.173.124l10.161-14.697-.074-.074Zm.868 1.165-8.278 15.242c.099.05.223.124.322.173l8.079-15.366a.417.417 0 0 0-.123-.05Zm1.214.57-6.345 16.134.223.074c.05.025.075.025.124.05l6.147-16.233c-.05 0-.099-.025-.149-.025Zm1.289.421-4.362 16.803c.025 0 .049 0 .074.025h.05c.074.025.173.05.272.075l4.139-16.853c-.074-.025-.124-.05-.173-.05Zm1.338.248-2.28 17.2c.124.025.248.025.372.05l2.057-17.225c-.05 0-.099-.025-.149-.025Zm1.561.1h-.148l-.223 17.348h.371V48.066Zm1.363-.075c-.049 0-.099 0-.148.025l1.858 17.249c.124-.025.248-.025.372-.05l-2.082-17.224Zm1.339-.248c-.05 0-.099.025-.149.025l3.941 16.902c.074-.025.123-.025.198-.05H175.582c.025 0 .05 0 .075-.024l-4.139-16.853Zm1.313-.397c-.049.025-.099.025-.124.05l5.948 16.283c.025-.025.075-.025.099-.05h.05c.074-.025.124-.05.198-.074l-6.171-16.209Zm.793-1.462c-.049.025-.074.05-.124.075l8.328 16.357h.024c.05-.025.124-.075.174-.1a.187.187 0 0 1 .099-.05l-8.501-16.282Zm1.091-.595c-.05.025-.075.05-.124.075l10.211 15.167c.024-.025.074-.05.099-.074h.025c.049-.025.099-.075.148-.1 0 0 .025 0 .025-.024L174.715 45.29Zm1.611-.074c-.025.025-.075.074-.099.1l11.35 13.11.025-.025h.025c.025-.025.074-.05.099-.1h.025l.049-.049-11.474-13.036Zm.966-.991-.099.099 12.838 11.648c.074-.1.173-.173.248-.273l-12.987-11.474Zm.843-1.066c-.025.05-.05.074-.074.124l14.151 10.037c.049-.05.074-.124.124-.173v-.05c.025-.025.049-.05.049-.074l-14.25-9.864Zm.719-1.19c-.025.05-.05.075-.075.124l15.267 8.253c.049-.099.124-.223.173-.322l-15.365-8.055Zm.545-1.239c-.025.05-.025.1-.05.124l16.159 6.345c.025-.025.025-.075.05-.1v-.024c.024-.075.049-.124.074-.198v-.025l-16.233-6.122Zm.421-1.288c0 .05-.025.099-.025.148l16.803 4.337a2.05 2.05 0 0 1 .1-.371l-16.878-4.114Zm.223-1.339c0 .05 0 .1-.025.149l17.2 2.255v-.05c.025-.099.025-.198.05-.322l-17.225-2.032Zm17.448-1.437-17.349.025v.148l17.349.199v-.373Zm-.223-3.445-17.225 2.107c0 .05 0 .099.025.148l17.249-1.883v-.075a1.231 1.231 0 0 1-.049-.297Zm-.62-3.42-16.853 4.188c0 .05.025.1.025.149l16.902-3.965c0-.025-.024-.075-.024-.1-.025-.099-.05-.198-.05-.272Zm-1.041-3.296L179.399 32.7c.025.05.025.1.049.124l16.283-5.972c-.025-.05-.025-.075-.049-.124-.025-.1-.05-.174-.075-.223Zm-1.437-3.173-15.341 8.104c.025.05.049.075.074.124l15.44-7.905c-.049-.075-.074-.174-.124-.248v-.025c-.024 0-.049-.025-.049-.05Zm-1.809-2.949-14.251 9.889c.025.05.05.074.074.124l14.375-9.716s0-.024-.025-.024c-.025-.05-.05-.075-.074-.124v-.025c-.05-.05-.075-.074-.099-.124Zm-2.157-2.726-12.961 11.549.099.1 13.11-11.376-.025-.025v-.025l-.024-.025-.025-.025-.025-.024-.149-.149Zm-2.453-2.454-11.475 13.012.099.099 11.648-12.863-.074-.074h-.025l-.173-.174Zm-2.726-2.131-9.815 14.3c.05.025.075.05.124.074l10.013-14.176a1.399 1.399 0 0 1-.322-.198Zm-2.974-1.784-8.03 15.39c.049.025.074.05.124.075l8.228-15.267-.149-.074h-.025c-.099-.1-.124-.124-.148-.124Zm-3.173-1.413-6.096 16.233c.049.025.099.025.124.05l6.319-16.16c-.024-.024-.074-.024-.099-.049a.35.35 0 0 0-.148-.05h-.025c-.025 0-.05-.024-.075-.024Zm-3.296-1.016-4.089 16.853c.05 0 .099.024.149.024l4.312-16.803a4.856 4.856 0 0 1-.372-.074Zm-3.42-.62-2.007 17.225c.049 0 .099 0 .148.024l2.231-17.2h-.099c-.075 0-.149-.024-.223-.024-.025-.025-.05-.025-.05-.025Z" fill="#000"/><path d="m194.574 57.287-.347-.273c4.634-5.824 7.088-12.838 7.088-20.273 0-4.337-.843-8.55-2.504-12.54l.422-.174a32.882 32.882 0 0 1 2.528 12.714c0 7.534-2.479 14.622-7.187 20.546Z" fill="#fff"/><path d="M142.82 57.286c-4.709-5.898-7.187-13.011-7.187-20.57 0-4.412.842-8.674 2.528-12.714l.421.173a32.462 32.462 0 0 0-2.503 12.54c0 7.436 2.453 14.45 7.088 20.274l-.347.297Z" fill="#fff"/><path d="m194.574 57.261-.347-.272c4.634-5.825 7.088-12.838 7.088-20.273 0-4.337-.843-8.55-2.504-12.54l.397-.174a32.79 32.79 0 0 1 2.528 12.714c.025 7.534-2.478 14.647-7.162 20.545Z" fill="#fff"/><path d="M142.82 57.261c-4.709-5.898-7.187-13.011-7.187-20.545 0-4.412.842-8.674 2.528-12.714l.396.173a32.462 32.462 0 0 0-2.503 12.54c0 7.436 2.454 14.45 7.088 20.274l-.322.272Z" fill="#fff"/><path d="M186.478 35.057a2.002 2.002 0 0 1-1.686-1.19l-.099-.247-.173.173c-.992.967-2.503 1.462-4.486 1.462-1.983 0-3.792-.62-4.981-1.685l-.298-.272v1.71H150.17v-3.644h1.66v-6.071h-1.66V21.45h9.715v2.974h5.725l.297 1.264.298-.223c.867-.644 1.859-.942 3.172-.942 2.503 0 3.99 1.09 4.213 3.098l.075.645.272-.57c1.091-2.355 3.842-3.173 6.072-3.197h.223c2.429 0 5.18 1.164 5.502 4.436l.05.421-4.635.52-.025-.47c-.049-1.438-.47-1.71-1.09-1.71-.967 0-1.289.52-1.289 2.18 0 1.686.322 2.206 1.289 2.206.719 0 1.14-.396 1.14-1.065v-.447h4.634l-.049.645.248-.075c.198-.074.396-.099.595-.099 1.115 0 2.007.892 2.007 2.008 0 1.04-.768 1.908-1.809 2.007h-.322Zm.124 4.164c-.818 0-1.19.595-1.19 3.94 0 3.37.396 3.941 1.19 3.941.817 0 1.189-.595 1.189-3.94 0-3.346-.372-3.941-1.189-3.941Zm-12.144 0c-.818 0-1.19.595-1.19 3.94 0 3.37.397 3.941 1.19 3.941.818 0 1.189-.595 1.189-3.94 0-3.346-.371-3.941-1.189-3.941Zm-12.144 0c-.818 0-1.19.595-1.19 3.94 0 3.37.397 3.941 1.19 3.941.818 0 1.189-.595 1.189-3.94 0-3.346-.396-3.941-1.189-3.941Zm-13.036 4.981.421.323-.124.297c-.198.396-.297 1.264 0 1.784.149.248.397.372.744.372.694 0 1.09-.322 1.264-.991.049-.199.074-.446.074-.694 0-.694-.173-1.215-.496-1.537a1.314 1.314 0 0 0-.917-.347c-.594 0-1.189.248-1.834.719l-.173.074-3.346-1.338 1.016-7.336h9.542v4.238h-6.047l-.124.892.297-.124a4.612 4.612 0 0 1 1.859-.371c1.561 0 2.776.42 3.643 1.239.248.223.471.495.669.818l.298.47.049-.545c.298-4.337 2.503-6.716 6.221-6.716 3.048 0 5.08 1.586 5.898 4.61l.174.644.173-.644c.793-3 2.826-4.61 5.899-4.61 3.048 0 5.08 1.586 5.898 4.61l.174.644.173-.644c.768-2.95 2.776-4.56 5.775-4.585h.371c3.842.099 6.072 2.924 6.072 7.757 0 4.957-2.305 7.782-6.295 7.782-3.048 0-5.08-1.611-5.898-4.635l-.174-.644-.173.645c-.818 3.048-2.85 4.634-5.923 4.634-3.049 0-5.081-1.611-5.899-4.635l-.173-.644-.174.645c-.818 3.048-2.85 4.634-5.923 4.634-2.776 0-4.808-1.438-5.725-4.065l-.173-.52-.174.52a5.836 5.836 0 0 1-.496 1.14c-.322.546-.693 1.017-1.164 1.413-1.19 1.016-2.652 1.512-4.337 1.512-2.454 0-5.254-1.314-5.601-4.164l-.025-.297 4.684-2.33Zm18.141-16.109c-.768 0-1.338.57-1.338 1.338v1.958h2.33v-2.453c0-.57-.347-.843-.992-.843Zm-9.194 3.271h2.627v-3.296h-1.24v-2.775h-1.363v6.072h-.024Z" fill="#fff"/><path d="M162.332 35.826c-3.693 0-5.824 2.454-5.824 7.336 0 4.833 2.156 7.36 5.824 7.36 3.643 0 5.849-2.527 5.849-7.36 0-4.882-2.206-7.336-5.849-7.336Zm0 11.723c-1.338 0-1.636-1.289-1.636-4.387s.298-4.387 1.636-4.387c1.338 0 1.636 1.29 1.636 4.387 0 3.098-.273 4.387-1.636 4.387Z" fill="#F5B335"/><path d="M174.48 35.826c-3.692 0-5.824 2.454-5.824 7.336 0 4.833 2.156 7.36 5.824 7.36 3.643 0 5.849-2.527 5.849-7.36.025-4.882-2.206-7.336-5.849-7.336Zm.025 11.723c-1.338 0-1.636-1.289-1.636-4.387s.298-4.387 1.636-4.387c1.338 0 1.636 1.29 1.636 4.387 0 3.098-.298 4.387-1.636 4.387Z" fill="#285CFF"/><path d="M186.621 35.826c-3.693 0-5.824 2.454-5.824 7.336 0 4.833 2.156 7.36 5.824 7.36 3.643 0 5.849-2.527 5.849-7.36.025-4.882-2.206-7.336-5.849-7.336Zm.025 11.723c-1.339 0-1.636-1.289-1.636-4.387s.297-4.387 1.636-4.387c1.338 0 1.635 1.29 1.635 4.387 0 3.098-.297 4.387-1.635 4.387Z" fill="#0033A1"/><path d="M154.831 41.699c-.744-.694-1.834-1.115-3.346-1.115s-2.354.669-2.726.991l.297-2.255h6.023v-3.37h-8.749l-.917 6.666 2.553 1.313c.446-.371 1.264-.99 2.33-.99.47 0 .892.148 1.214.47.396.372.644.991.644 1.859 0 .297-.024.57-.074.793-.223.966-.867 1.338-1.685 1.338-1.636 0-1.512-2.057-1.14-2.776l-.025-.024-4.089 2.131c.297 2.602 2.924 3.792 5.155 3.792 1.437 0 2.85-.397 4.064-1.413.421-.372.793-.793 1.066-1.288a5.254 5.254 0 0 0 .694-2.603c0-1.413-.397-2.676-1.289-3.519Z" fill="#FF4713"/><path d="M150.641 34.56v-2.75h1.66v-6.965h-1.66v-2.974h8.847v2.974h-1.66v6.94h1.66v2.775h-8.847Z" fill="#000"/><path d="M167.589 34.559v-2.776h1.289v-2.9c0-.867-.62-1.264-1.438-1.264-1.016 0-1.784.744-1.784 1.76v2.404h1.313v2.776h-6.914v-2.776h1.239V27.62h-1.239v-2.775h5.452v1.908c.099-.074.174-.173.248-.272.991-1.14 2.131-1.562 3.643-1.562 2.107 0 3.817.867 3.817 3.197v3.668h1.115v2.776h-6.741Z" fill="#000"/><path d="m185.346 28.961-3.743.421c-.049-1.04-.247-2.131-1.511-2.131-1.611 0-1.735 1.338-1.735 2.627v.025c0 1.289.124 2.627 1.735 2.627.842 0 1.586-.471 1.586-1.512h3.717l-.025.322c-.619 3.024-3.345 3.495-5.303 3.495-3.073 0-6.122-1.512-6.122-4.957s3.024-4.957 6.122-4.957c0 0 4.833-.322 5.279 4.04Z" fill="#000"/><path d="M188.235 33.047c0 .867-.694 1.561-1.586 1.561-.868 0-1.587-.694-1.587-1.56 0-.868.694-1.587 1.587-1.587.867 0 1.586.719 1.586 1.586Z" fill="#000"/></svg>