<svg width="124" height="50" fill="none" xmlns="http://www.w3.org/2000/svg"><path d="M120.858 12.1983C121.465 12.201 122.057 12.3837 122.56 12.7233C123.064 13.0629 123.455 13.5441 123.685 14.1062C123.916 14.6684 123.975 15.2862 123.854 15.8818C123.734 16.4774 123.441 17.024 123.011 17.4527C122.581 17.8814 122.033 18.1729 121.438 18.2904C120.843 18.4079 120.226 18.3462 119.665 18.113C119.105 17.8799 118.626 17.4857 118.289 16.9804C117.952 16.475 117.773 15.881 117.773 15.2734C117.773 14.8684 117.853 14.4674 118.008 14.0933C118.163 13.7193 118.391 13.3797 118.677 13.094C118.964 12.8083 119.304 12.582 119.678 12.4283C120.053 12.2746 120.453 12.1964 120.858 12.1983ZM123.538 15.2734C123.541 14.742 123.386 14.2218 123.093 13.7786C122.8 13.3354 122.383 12.9893 121.893 12.784C121.404 12.5787 120.864 12.5236 120.344 12.6255C119.823 12.7275 119.344 12.982 118.968 13.3568C118.591 13.7315 118.335 14.2097 118.23 14.7307C118.126 15.2516 118.178 15.792 118.38 16.2832C118.583 16.7744 118.926 17.1943 119.367 17.4898C119.808 17.7854 120.327 17.9431 120.858 17.9431C121.566 17.9431 122.246 17.6623 122.748 17.162C123.251 16.6618 123.535 15.9827 123.538 15.2734Z" fill="black"/><path d="M122.254 16.9505H121.682C121.665 16.8112 121.665 16.6704 121.682 16.5312C121.682 15.8043 121.458 15.6086 120.844 15.6086H120.244V17.0064H119.699V13.5679H120.844C121.556 13.5679 122.24 13.7216 122.24 14.5463C122.24 15.1194 121.793 15.3151 121.403 15.371C121.639 15.4057 121.852 15.5322 121.996 15.7233C122.14 15.9143 122.202 16.1544 122.17 16.3914C122.167 16.5811 122.195 16.7702 122.254 16.9505ZM121.654 14.5743C121.654 14.1829 121.333 14.0012 120.802 14.0012H120.202V15.2312H120.802C121.347 15.2033 121.654 14.9936 121.654 14.5743Z" fill="black"/><path d="M107.959 23.981L116.796 37.7071H107.666L103.422 30.2151L98.0611 37.7071H88.8334L99.0104 23.9531L91.2066 12.2817H100.532L103.533 17.6771L107.024 12.2817H116.363L107.959 23.981Z" fill="black"/><path d="M83.7098 39.8599C84.6547 39.8599 85.5783 40.1406 86.3637 40.6665C87.1492 41.1924 87.7611 41.9398 88.122 42.8141C88.483 43.6884 88.5767 44.6503 88.3914 45.578C88.206 46.5057 87.7499 47.3574 87.0808 48.0254C86.4117 48.6934 85.5597 49.1476 84.6326 49.3304C83.7056 49.5133 82.7452 49.4166 81.873 49.0527C81.0009 48.6887 80.2562 48.0738 79.7333 47.2859C79.2103 46.4979 78.9327 45.5723 78.9354 44.6263C78.9354 43.9992 79.059 43.3782 79.2991 42.799C79.5392 42.2198 79.8911 41.6938 80.3347 41.251C80.7782 40.8082 81.3046 40.4574 81.8838 40.2187C82.463 39.98 83.0835 39.858 83.7098 39.8599Z" fill="black"/><path d="M70.448 27.5735L78.2099 37.7073H68.6052L63.761 30.1174V37.7073H56.1527V12.2819H66.1343C67.3998 12.2015 68.6686 12.3739 69.8669 12.789C71.0652 13.2041 72.1691 13.8538 73.1144 14.7001C73.8347 15.4548 74.3942 16.3483 74.759 17.3263C75.1238 18.3042 75.2862 19.3462 75.2363 20.389C75.3218 21.944 74.9013 23.4848 74.0379 24.7802C73.1746 26.0756 71.9149 27.0557 70.448 27.5735ZM68.4377 20.7664C68.4609 20.412 68.4136 20.0566 68.2985 19.7207C68.1835 19.3848 68.0031 19.0751 67.7676 18.8095C66.6162 18.0151 65.2235 17.6492 63.8308 17.7751V23.7716C67.0417 23.7296 68.4377 22.863 68.4377 20.7664Z" fill="black"/><path d="M54.086 12.2817V18.9211H48.2925V37.7071H40.7121V18.9211H34.9186V12.2817H54.086Z" fill="black"/><path d="M32.8668 12.2817V37.7071H25.2584V34.2267V15.7901V12.2817H32.8668Z" fill="black"/><path d="M29.0696 0.59668C30.0145 0.596684 30.9381 0.877403 31.7236 1.40329C32.509 1.92919 33.121 2.6766 33.4819 3.55091C33.8429 4.42522 33.9366 5.3871 33.7512 6.31478C33.5659 7.24246 33.1098 8.09421 32.4407 8.76219C31.7715 9.43017 30.9195 9.88435 29.9925 10.0672C29.0654 10.2501 28.105 10.1534 27.2328 9.78947C26.3607 9.42551 25.616 8.81063 25.093 8.02267C24.5701 7.23471 24.2924 6.3091 24.2952 5.36305C24.2989 4.09765 24.8035 2.88533 25.6985 1.99187C26.5935 1.0984 27.8058 0.596674 29.0696 0.59668V0.59668Z" fill="black"/><path d="M22.9412 15.7903L18.9207 22.2759C18.3247 21.3332 17.5001 20.5569 16.5237 20.0192C15.5473 19.4815 14.4509 19.2 13.3366 19.2008C12.5853 19.2003 11.8417 19.3515 11.1502 19.6455C10.4587 19.9395 9.8335 20.3702 9.31214 20.9118C8.79078 21.4534 8.38392 22.0947 8.11594 22.7975C7.84795 23.5002 7.72435 24.2498 7.75252 25.0015C7.72435 25.7532 7.84795 26.5028 8.11594 27.2056C8.38392 27.9083 8.79078 28.5497 9.31214 29.0912C9.8335 29.6328 10.4587 30.0635 11.1502 30.3575C11.8417 30.6515 12.5853 30.8028 13.3366 30.8023C14.4509 30.8031 15.5473 30.5215 16.5237 29.9839C17.5001 29.4462 18.3247 28.6699 18.9207 27.7272L22.9412 34.2268C21.103 36.1506 18.7316 37.4794 16.1325 38.042C13.5334 38.6047 10.8256 38.3754 8.35779 37.3838C5.88996 36.3922 3.77511 34.6836 2.28556 32.478C0.796023 30.2725 0 27.671 0 25.0085C0 22.346 0.796023 19.7445 2.28556 17.539C3.77511 15.3334 5.88996 13.6248 8.35779 12.6332C10.8256 11.6416 13.5334 11.4123 16.1325 11.975C18.7316 12.5376 21.103 13.8664 22.9412 15.7903Z" fill="black"/><path d="M87.5212 12.2817V37.7071H79.8989V34.2267V15.7901V12.2817H87.5212Z" fill="black"/></svg>