<svg width="155" height="54" fill="none" xmlns="http://www.w3.org/2000/svg"><g clip-path="url(#clip0_1203_35)"><path d="M34.8909 20.8688C39.9262 20.8688 44.1731 16.6291 44.1731 11.6023C44.1731 6.42313 40.0788 2.33568 34.8909 2.33568C29.703 2.33568 25.6341 6.60085 25.6341 11.6023C25.6341 16.7814 29.8811 20.8688 34.8909 20.8688ZM34.8909 0.152327C41.1723 0.152327 46.3601 5.17913 46.3601 11.6023C46.3601 17.8731 41.1723 23.0522 34.8909 23.0522C28.6095 23.0522 23.4217 17.8984 23.4217 11.6023C23.4217 5.30607 28.6095 0.152327 34.8909 0.152327ZM133.638 11.78C136.003 12.8716 137.249 14.9281 136.944 17.4415C136.944 20.4118 134.427 23.4076 130.332 23.4076C126.721 23.4076 124.051 21.0465 123.263 20.2595L123.11 20.1072L124.839 18.5331L124.992 18.6855C125.628 19.1678 127.662 21.0465 130.485 21.0465C133.308 21.0465 134.884 19.1678 134.884 17.2891C134.884 15.8674 133.943 14.7757 132.519 13.9887C131.884 13.6841 128.12 11.78 127.637 11.4753C125.755 10.3836 123.695 8.96192 123.695 5.99154C123.695 2.69111 126.365 0.330042 130.307 0.330042C132.341 0.330042 134.249 1.11707 135.342 1.75176C135.825 1.90409 135.978 2.23413 135.978 2.69111C135.978 3.32581 135.495 3.78279 134.884 3.78279C134.732 3.78279 134.579 3.78279 134.401 3.63047C133.46 2.99577 132.036 2.38646 130.459 2.38646C127.789 2.38646 126.06 3.80818 126.06 5.83921C126.06 7.41326 126.848 8.35261 128.73 9.29196C129.213 9.57123 133.002 11.4499 133.638 11.78ZM11.4692 2.36107C6.43396 2.36107 2.21247 6.42313 2.36505 11.4499C2.36505 16.6291 6.61198 20.7165 11.6473 20.7165C14.3175 20.7165 16.6825 19.6248 18.4118 17.7461L19.9885 19.3202C17.776 21.6812 14.8007 23.0776 11.4947 23.0776C5.18786 23.0776 0 17.8984 0 11.6023C0 5.17913 5.18786 0.152327 11.4692 0.152327C14.4701 0.152327 17.2929 1.24401 19.3273 3.30042L19.4799 3.45275C19.6325 3.60508 19.7851 3.93512 19.7851 4.23977C19.7851 4.54443 19.6325 4.87447 19.4799 5.0268C19.1747 5.50917 18.3864 5.50917 17.9032 5.0268C16.1993 3.30042 13.9869 2.36107 11.4692 2.36107ZM89.1345 2.36107C83.9467 2.36107 79.8523 6.44852 79.8523 11.2976C79.8523 16.4767 84.0993 20.5642 89.1345 20.5642C91.8048 20.5642 94.1698 19.4725 95.8991 17.5938L97.4758 19.1678C95.2633 21.5289 92.2879 22.9252 88.982 22.9252C82.7006 22.9252 77.5127 17.7461 77.5127 11.4753C77.5127 5.20451 82.7006 0 88.982 0C91.9573 0 94.8056 1.24401 96.9926 3.30042L97.1452 3.45275C97.2978 3.60508 97.4504 3.93512 97.4504 4.23977C97.4504 4.54443 97.2978 4.87447 97.1452 5.0268C96.84 5.50917 96.0517 5.50917 95.5685 5.0268C93.8646 3.30042 91.6522 2.36107 89.1345 2.36107ZM69.6546 0.152327C70.1378 0.152327 70.5956 0.456982 70.2904 0.787024C70.443 1.26939 74.3847 22.7475 74.3847 22.7475H72.3503L69.0443 4.54443C69.0443 4.54443 62.9155 19.9295 62.7629 20.2341C62.6103 20.5388 62.2797 20.8688 61.822 20.8688C61.3388 20.8688 61.0336 20.5642 60.8811 20.2341C60.7285 19.9295 54.5997 4.54443 54.5997 4.54443L51.4463 22.1128C51.4463 22.5952 50.9631 22.8999 50.5053 22.8999C50.0222 22.8999 49.5644 22.5952 49.5644 21.9605V21.8082C49.5644 21.8082 53.1756 1.39633 53.3281 0.939351C53.3281 0.456982 53.8113 0.152327 54.2691 0.152327C54.7268 0.152327 55.0574 0.456982 55.21 0.787024C55.3626 1.09168 61.9746 17.4161 61.9746 17.4161C61.9746 17.4161 68.5865 1.09168 68.7391 0.787024C68.8917 0.482369 69.1715 0.152327 69.6546 0.152327ZM107.063 12.0846H113.98L110.522 3.7574L107.063 12.0846ZM110.369 0C110.852 0 111.158 0.304654 111.31 0.787024C111.463 1.09168 120.262 22.9252 120.262 22.9252H118.049L114.591 14.4457H105.944L102.791 22.4429C102.638 22.7475 102.308 23.0776 101.85 23.0776C101.392 23.0776 100.909 22.7729 100.909 22.1382V21.6559C100.909 21.6559 109.25 1.09168 109.403 0.634697C109.581 0.304654 109.886 0 110.369 0ZM155 1.42172C155 2.05642 154.517 2.5134 153.906 2.5134H148.413V22.9252H146.379V2.5134H141.039C140.403 2.5134 139.945 2.03103 139.945 1.42172C139.945 0.812412 140.581 0.177715 141.191 0.177715H153.932C154.542 0.152327 155 0.787024 155 1.42172Z" fill="#040404"/><path d="M67.7473 30.9224C68.8409 30.9224 69.6292 31.8617 69.4766 32.8011V53.6699H65.8655V32.6487C65.8655 31.7094 66.6538 30.9224 67.7473 30.9224ZM26.4225 44.7334C26.4225 47.8815 28.3043 50.5472 31.9155 50.2172C35.5267 50.2172 37.5865 47.5514 37.5865 44.5557V30.897H41.1977V44.5557C41.1977 49.7348 37.5865 53.8222 31.9155 53.8222C26.2445 53.8222 22.6333 49.7602 22.6333 44.581V32.6487C22.6333 31.7094 23.4216 30.9224 24.5152 30.9224C25.6087 30.9224 26.397 31.7094 26.397 32.6487V44.7334H26.4225ZM114.769 34.6798L105.486 34.8321V40.1636H113.828C115.252 40.1636 115.862 40.7982 115.862 41.8899C115.862 42.8293 115.074 43.6163 113.828 43.6163H105.486V50.2172H116.651V53.8222H103.605C102.664 53.8222 101.875 53.0352 101.875 52.0959V32.9534C101.875 32.014 102.511 31.227 103.605 31.227H114.769C115.862 31.227 116.651 31.8617 116.651 32.9534C116.651 33.8927 116.015 34.6798 114.769 34.6798ZM14.3175 47.0944C14.3175 45.2157 13.0714 43.6417 10.3757 43.6417H4.70467V50.3949H10.5283C13.0459 50.3695 14.3175 48.8208 14.3175 47.0944ZM4.70467 34.6798V40.3413H10.1977C12.0796 40.3413 13.1731 39.0973 13.1731 37.5232C13.1731 35.9492 12.2321 34.7052 10.1977 34.7052L4.70467 34.6798ZM18.2338 46.9167C18.2338 50.6741 15.411 53.6699 11.3166 53.6699H1.24609V32.8011C1.24609 31.8617 1.88186 31.0747 2.97538 31.0747H10.8335C14.5972 31.0747 17.1148 33.4358 17.1148 36.8885C17.1148 39.8589 15.3856 41.2806 14.7498 41.5853C15.411 41.9153 18.0812 43.007 18.2338 46.9167ZM78.6062 30.9224C79.3946 30.9224 80.0303 31.5571 80.6407 32.3441C82.0648 34.0705 91.9573 46.7898 91.9573 46.7898V31.1001H95.5685V52.299C95.5685 53.2383 94.9327 54.0253 93.8392 54.0253C92.7457 54.0253 92.4151 53.3906 91.8048 52.6036C89.4397 49.6332 80.4881 38.1579 80.4881 38.1579V52.1212C80.4881 53.0606 79.5472 53.8476 78.6062 53.8476C77.5127 53.8476 76.7244 53.0606 76.7244 52.1212V32.6487C76.7244 31.7094 77.5127 30.9224 78.6062 30.9224ZM48.42 48.1861C48.7252 48.4908 50.4545 50.5472 53.4553 50.5472C55.6678 50.5472 57.0664 49.3032 57.0664 47.7291C57.0664 46.3074 56.2781 45.5204 54.5488 44.7588C54.0656 44.6064 52.0312 43.6671 51.5734 43.337C48.9032 42.093 46.6907 40.519 46.6907 37.2186C46.6907 33.6135 49.6661 31.1001 53.7605 31.1001C56.2781 31.1001 57.8548 31.7348 58.7957 32.1918C59.4315 32.3441 60.0418 32.9788 60.0418 33.9181C60.0418 35.0098 59.1009 35.6445 58.3125 35.6445C57.6768 35.6445 57.0664 35.3399 56.7358 35.1621C56.1001 35.0098 55.1591 34.5274 53.7605 34.5274C51.3954 34.5274 50.4545 35.7714 50.4545 37.0408C50.4545 38.1325 51.0902 39.0719 52.4889 39.7066C52.4889 39.7066 55.1591 40.9506 56.1001 41.4329C59.7112 43.1593 60.6522 45.038 60.6522 47.5514C60.6522 51.3088 57.4988 53.9746 52.9467 53.9746C48.242 53.9746 46.0295 51.1565 45.5463 50.5218L48.42 48.1861ZM120.262 50.5472L123.084 48.1861C123.39 48.4908 124.966 50.5472 128.12 50.5472C130.332 50.5472 131.731 49.3032 131.731 47.7291C131.731 46.3074 130.79 45.5204 129.213 44.7588C128.73 44.6064 126.696 43.6671 126.238 43.337C123.568 42.093 121.355 40.519 121.355 37.2186C121.355 33.6135 124.331 31.1001 128.425 31.1001C130.943 31.1001 132.519 31.7348 133.46 32.1918C134.096 32.3441 134.706 32.9788 134.706 33.9181C134.706 35.0098 133.765 35.6445 132.977 35.6445C132.341 35.6445 131.731 35.3399 131.4 35.1621C130.765 35.0098 129.824 34.5274 128.425 34.5274C126.06 34.5274 125.119 35.7714 125.119 37.0408C125.119 38.1325 125.755 39.0719 127.153 39.7066C127.153 39.7066 129.824 40.9506 130.765 41.4329C134.376 43.1593 135.317 45.038 135.317 47.5514C135.317 51.3088 132.163 53.9746 127.611 53.9746C122.932 53.9999 120.745 51.1565 120.262 50.5472ZM138.826 50.5472L141.344 48.1861C141.649 48.4908 143.378 50.5472 146.379 50.5472C148.591 50.5472 149.99 49.3032 149.99 47.7291C149.99 46.3074 149.202 45.5204 147.473 44.7588C146.837 44.6064 144.955 43.6671 144.497 43.337C141.827 42.093 139.614 40.519 139.614 37.2186C139.614 33.6135 142.59 31.1001 146.684 31.1001C149.202 31.1001 150.778 31.7348 151.719 32.1918C152.355 32.3441 152.966 32.9788 152.966 33.9181C152.966 35.0098 152.025 35.6445 151.236 35.6445C150.6 35.6445 149.99 35.3399 149.66 35.1621C149.024 35.0098 148.083 34.5274 146.684 34.5274C144.319 34.5274 143.378 35.7714 143.378 37.0408C143.378 38.1325 144.014 39.0719 145.413 39.7066C145.413 39.7066 148.235 40.9506 149.176 41.4329C152.788 43.1593 153.728 45.038 153.728 47.5514C153.728 51.3088 150.575 53.9746 146.023 53.9746C141.318 53.9999 139.284 51.1565 138.826 50.5472Z" fill="#005BBB"/></g><defs><clipPath id="clip0_1203_35"><rect width="155" height="54" fill="white"/></clipPath></defs></svg>