<svg width="80" height="80" fill="none" xmlns="http://www.w3.org/2000/svg"><g clip-path="url(#clip0_1_238)"><path d="M39.7312 4.2887C29.94 4.2887 21.0794 8.25373 14.6666 14.6666C8.25373 21.0794 4.28871 29.94 4.28871 39.7312C4.28871 49.5224 8.25373 58.3628 14.6666 64.7959C21.0794 71.2087 29.94 75.1737 39.7312 75.1737C49.5224 75.1737 58.383 71.2087 64.7959 64.7959C71.2087 58.383 75.1737 49.5224 75.1737 39.7312C75.1737 29.94 71.2087 21.0794 64.7959 14.6666C58.383 8.27396 49.5224 4.2887 39.7312 4.2887ZM39.7312 0C61.6805 0 79.4624 17.8022 79.4624 39.7312C79.4624 61.6602 61.6603 79.4624 39.7312 79.4624C17.8022 79.4624 0 61.6805 0 39.7312C0 17.8022 17.8022 0 39.7312 0Z" fill="#0A81C5"/><path d="M20.9378 39.4277C20.9378 37.1013 19.4003 35.7864 17.2357 35.7864H15.9006V43.0691H17.1953C19.2183 43.0691 20.9378 41.9564 20.9378 39.4277ZM44.6268 42.0374L34.8154 49.7449L25.8536 42.6847C24.5589 45.8001 21.4435 47.9647 17.8426 47.9647H10.1553V30.8705H17.8224C21.8481 30.8705 24.741 33.4195 25.8334 36.1505L34.8154 29.0903L38.1533 31.7L29.94 38.1533L31.5179 39.3873L39.7312 32.934L43.0489 35.5436L34.8356 42.0171L36.4135 43.2512L44.647 36.7979V30.8705H50.6148V42.9679H56.5624V47.9647H44.647V42.0374H44.6268ZM64.0878 42.9679H70.0354V47.9647H58.1201V30.8705H64.0878V42.9679Z" fill="#0A81C5"/></g><defs><clipPath id="clip0_1_238"><rect width="79.4827" height="79.4624" fill="white"/></clipPath></defs></svg>