<svg width="110" height="59" fill="none" xmlns="http://www.w3.org/2000/svg"><g clip-path="url(#clip0_1203_80)"><path d="M5.71389 31.6704H19.0972C19.3417 29.7948 19.8306 28.0114 20.5333 26.2896H0V57.3448H5.71389V44.6459H18.1194V39.2651H5.71389V31.6704Z" fill="#003A53"/><path d="M27.3167 31.6702C28.7222 25.2439 34.375 20.4472 41.1583 20.4472C42.9611 20.4472 44.6722 20.7855 46.2305 21.4004C47.3305 12.4528 54.8778 5.53459 64.0444 5.53459C73.2417 5.53459 80.7889 12.4836 81.8889 21.4312C83.8444 20.601 85.9833 20.1398 88.2444 20.1398C97.1972 20.1398 104.469 27.4577 104.469 36.4668C104.469 41.2634 102.789 44.8609 100.192 48.2124H106.486C108.869 44.615 110 40.6485 110 36.4668C110 24.4137 100.253 14.5744 88.2444 14.5744C87.4194 14.5744 86.625 14.6359 85.8305 14.7282C82.3167 6.08805 73.8833 0 64.075 0C54.175 0 45.7111 6.18029 42.2278 14.9126C41.8611 14.8819 41.525 14.8819 41.1583 14.8819C31.3194 14.8819 23.1305 22.1691 21.6639 31.6702H27.3167Z" fill="#288DC1"/><path d="M27.225 34.0684H21.6639V57.3444H27.225V34.0684Z" fill="#003A53"/><path d="M29.5778 34.0684H35.5972L41.1889 49.5037H41.3111L46.5666 34.0684H52.6472L43.2666 57.3444H38.9278L29.5778 34.0684Z" fill="#003A53"/><path d="M81.3694 57.3445L88.2139 46.8595C87.7555 46.9825 87.2667 46.9825 86.7167 46.9825C82.3472 46.9517 77.5805 43.0775 77.5805 36.8665C77.5805 30.2865 82.6222 25.7051 88.2444 25.7051C93.8055 25.7051 98.9694 30.0405 98.9694 36.8358C98.9694 37.9734 98.7555 39.2956 98.2667 40.71C97.7778 41.9706 97.1972 43.139 96.4639 44.1845L87.8778 57.3445H81.3694ZM88.275 30.9937C84.8833 30.9937 83.1111 33.9147 83.1111 36.3745C83.1111 39.5108 85.25 41.8169 88.275 41.8169C91.6055 41.8169 93.4083 38.8651 93.4083 36.559C93.4083 33.515 91.2083 30.9937 88.275 30.9937Z" fill="#288DC1"/><path d="M69.1778 50.6107C68.1083 52.1481 66.3972 53.009 64.1972 53.009C60.225 53.009 58.0556 49.7498 57.8111 48.2124H75.7778C75.9306 47.4437 76.1139 46.4905 76.1139 45.4143C76.1139 39.5415 71.5 33.146 64.1361 33.146C57.0167 33.146 51.975 39.2033 51.975 45.7833C51.975 52.5786 57.3222 58.1132 64.1972 58.1132C69.3611 58.1132 73.6084 54.5772 75.1667 50.6107H69.1778ZM64.2278 38.2501C66.9778 38.2501 69.85 39.972 70.4917 43.6925H57.6889C58.7278 39.3878 62.1806 38.2501 64.2278 38.2501Z" fill="#003A53"/><path d="M96.8 54.7616H95.8528V57.3444H95.5167V54.7616H94.5695V54.4541H96.8306V54.7616H96.8Z" fill="#288DC1"/><path d="M97.1973 54.4541H97.7167L98.6945 56.7294L99.6723 54.4541H100.161V57.3751H99.8251V54.9461L98.7862 57.3751H98.5723L97.5334 54.9461V57.3751H97.1973V54.4541Z" fill="#288DC1"/></g><defs><clipPath id="clip0_1203_80"><rect width="110" height="58.1132" fill="white"/></clipPath></defs></svg>