<svg width="153" height="34" fill="none" xmlns="http://www.w3.org/2000/svg"><g clip-path="url(#clip0_1203_41)"><path d="M151.757 11.2003L151.319 16.2342H149.172C145.745 16.2342 143.964 18.8654 143.964 21.3869V32.7564H137.889V11.2003H143.643L143.774 13.8908C144.981 12.0458 147.093 11.2003 149.698 11.2003H151.757ZM109.643 32.7562H103.563V21.3607C103.563 18.9742 103.347 15.9705 99.8424 15.9705C96.4669 15.9705 95.1221 18.3035 95.1221 21.0201V32.7562H89.0441V11.2001H94.6793L94.808 13.9558C96.0159 12.1108 98.2653 10.6742 101.584 10.6742C107.709 10.6742 109.643 14.8627 109.643 19.2214V32.7562ZM86.393 27.7208L85.9679 32.6256C84.51 33 83.2157 33.1344 81.6495 33.1344C75.921 33.1344 74.2594 30.6188 74.2594 25.5626V5.12141H80.3388V11.2005H86.3882L85.9679 16.2338H80.3388V25.1248C80.3388 27.1538 80.9199 28.2499 83.093 28.2499C84.0379 28.2499 85.0891 28.1409 86.393 27.7208ZM72.2633 11.2003L71.7925 16.2342H70.1405C66.72 16.2342 65.019 18.8621 65.019 21.3869V32.7564H58.9389V11.2003H64.6954L64.8153 13.8908C66.0292 12.0458 68.1417 11.2003 70.7502 11.2003H72.2633ZM31.5038 30.3681C27.3802 32.4806 23.2614 33.6993 17.8211 33.5479C7.73532 33.253 0.459015 27.2555 0.459015 17.1249C0.459015 7.03868 7.80551 0.594227 17.8258 0.442867C22.9052 0.368492 27.4504 1.60285 31.003 4.60522L26.7235 8.75126C24.5252 6.95649 21.2906 5.90742 17.4253 6.07509C11.119 6.35628 7.31909 10.745 7.23529 16.7791C7.15286 23.3169 11.3391 27.8224 17.8831 27.9868C20.9623 28.0605 23.1681 27.6645 25.0769 26.8438V20.1612H18.2755L18.7346 14.6803H31.5038V30.3681ZM135.174 24.0268H118.506C118.981 26.7813 121.242 28.4384 124.058 28.5134C126.795 28.5845 128.326 27.7925 130.329 25.851L134.295 28.7477C131.476 32.073 128.093 33.2832 124.24 33.2832C117.461 33.2832 112.383 28.7444 112.383 21.9776C112.383 15.218 117.436 10.674 123.986 10.674C131.205 10.674 135.174 14.8625 135.174 22.2973V24.0268ZM129.084 19.52C128.897 16.7969 126.767 15.0752 123.833 15.1848C120.88 15.2918 118.914 17.1335 118.506 19.52H129.084ZM55.1115 18.6407V32.7562H49.7516L49.6187 30.6306C47.9742 32.5813 45.3044 33.2833 42.5556 33.2833C38.4164 33.2833 34.5054 31.3287 34.4237 26.7762C34.3004 19.6206 42.8329 19.1124 48.1915 19.1124H49.2624V18.8293C49.2624 16.463 47.6275 15.1849 44.549 15.1849C42.339 15.1849 40.1577 16.0337 38.5445 17.482L35.0368 14.0693C38.2216 11.5967 41.5351 10.6742 45.0653 10.6742C52.0378 10.6742 55.1115 13.7601 55.1115 18.6407ZM49.2624 23.3556H48.417C45.5388 23.3615 40.4833 23.4972 40.5024 26.3796C40.5296 30.4401 49.2624 29.1497 49.2624 24.2527V23.3556ZM147.015 30.2487C147.015 28.8767 148.096 27.8426 149.482 27.8426C150.852 27.8426 151.935 28.8767 151.935 30.2487C151.935 31.6449 150.852 32.6757 149.482 32.6757C148.096 32.6757 147.015 31.6449 147.015 30.2487ZM149.482 33.1578C151.133 33.1578 152.541 31.93 152.541 30.2487C152.541 28.5844 151.133 27.3592 149.482 27.3592C147.817 27.3592 146.407 28.5844 146.407 30.2487C146.407 31.93 147.817 33.1578 149.482 33.1578ZM148.841 30.481H149.451L150.37 31.93H150.964L149.971 30.4575C150.484 30.3975 150.876 30.1339 150.876 29.5356C150.876 28.8767 150.468 28.5844 149.642 28.5844H148.314V31.93H148.841V30.481ZM148.841 30.0497V29.0157H149.561C149.931 29.0157 150.323 29.092 150.323 29.5063C150.323 30.0197 149.922 30.0497 149.475 30.0497H148.841Z" fill="#002856"/></g><defs><clipPath id="clip0_1203_41"><rect width="153" height="34" fill="white"/></clipPath></defs></svg>