<svg width="84" height="85" fill="none" xmlns="http://www.w3.org/2000/svg"><g clip-path="url(#clip0_1_359)"><path d="M41.6594 84.2837C18.6905 84.2837 0 65.6956 0 42.6243C0 19.6348 18.6905 0.944336 41.6594 0.944336C64.6284 0.944336 83.3189 19.6348 83.3189 42.6243C83.3394 65.6956 64.6284 84.2837 41.6594 84.2837ZM41.6594 2.9096C19.7345 2.9096 1.96526 20.6788 1.96526 42.6038C1.96526 64.5287 19.7345 82.298 41.6594 82.298C63.5844 82.298 81.3536 64.5287 81.3536 42.6038C81.3741 20.8017 63.6049 2.9096 41.6594 2.9096ZM76.9727 54.4977C76.9523 54.5386 76.8909 54.5796 76.768 54.5386C76.6657 54.4977 76.6452 54.4568 76.6452 54.3953C76.6452 54.3339 78.0373 50.2192 78.0168 45.5107C77.9963 40.4338 75.9492 37.3017 73.2879 37.3017C71.6706 37.3017 70.5242 38.4685 70.5242 40.1881C70.5242 43.2998 74.3319 43.5455 74.3319 50.342C74.3319 53.1056 73.7587 55.7669 72.8375 58.6534C68.559 73.0858 54.9454 79.78 41.6799 79.78C35.5589 79.78 31.219 78.5312 29.9293 77.9375C29.8679 77.9171 29.8269 77.8147 29.8679 77.7123C29.8884 77.6305 29.9907 77.5691 30.0317 77.61C30.5639 77.8147 34.2897 78.9816 38.9163 78.9816C43.9932 78.9816 47.0025 76.8935 47.0025 74.355C47.0025 72.7378 45.7333 71.4686 44.116 71.4686C41.0044 71.4686 40.7587 75.3991 34.0645 75.3991C31.1781 75.3991 28.6396 74.8259 25.6508 73.9047C11.3003 69.5033 4.50372 55.9921 4.50372 42.6243C4.50372 36.0939 6.34616 30.8941 6.36663 30.8532C6.3871 30.8122 6.46899 30.7713 6.57134 30.8122C6.6737 30.8532 6.69417 30.935 6.69417 30.9555C6.5304 31.5082 5.30211 35.2136 5.30211 39.8401C5.30211 44.9171 7.36973 47.9264 10.031 47.9264C11.5254 47.9264 12.7947 46.78 12.7947 45.1627C12.7947 42.051 8.98698 41.703 8.98698 35.0089C8.98698 32.1224 9.58065 29.5839 10.4814 26.5951C14.8828 12.2651 28.3939 5.55042 41.6594 5.44806C47.8418 5.40712 53.2258 7.24955 53.4305 7.41332C53.4715 7.45426 53.492 7.51568 53.4715 7.61804C53.4305 7.74086 53.3487 7.74086 53.3077 7.74086C53.2463 7.74086 49.7252 6.26692 44.4231 6.26692C39.469 6.26692 36.3369 8.33454 36.3369 10.9958C36.3369 12.4902 37.5037 13.7595 39.2233 13.7595C42.335 13.7595 42.5807 9.95178 49.2748 9.95178C52.1613 9.95178 54.6998 10.525 57.6886 11.4462C72.121 15.8271 78.6923 29.4406 78.8152 42.6038C78.8971 49.3594 76.9932 54.4568 76.9727 54.4977ZM57.1359 44.569C53.2054 44.569 50.2165 47.4555 50.2165 50.9152C50.2165 53.8017 51.9566 56.115 54.2494 56.115C55.0683 56.115 55.8667 55.6441 55.8667 54.6205C55.8667 53.1056 53.8809 52.7576 54.0242 50.5058C54.1266 49.0318 55.5186 48.0287 56.9107 48.0287C59.6743 48.0287 60.964 50.7105 60.964 53.4741C60.8617 57.7527 57.7091 60.721 54.0242 60.721C49.1725 60.721 46.0608 56.1149 46.0608 51.1404C46.0608 43.7502 50.9126 40.8637 53.451 40.1677C53.4715 40.1677 60.0838 41.3345 59.8791 38.4276C59.7767 37.1379 57.8729 36.6466 56.5013 36.6056C54.9659 36.5442 53.4305 37.097 53.4305 37.097C52.6322 36.6875 52.0794 35.8891 51.7314 34.9679C56.4603 31.3854 59.8176 27.9257 59.8176 23.9952C59.8176 21.9276 58.4256 20.0647 55.7643 20.0647C51.0354 20.0647 47.4529 26.0628 47.4529 31.4878C47.4529 32.409 47.4529 33.3302 47.6985 34.1491C44.6892 36.3395 42.4578 37.7111 38.425 40.1267C38.425 39.6149 38.5273 38.3252 38.8753 36.6261C40.2674 35.1317 42.1508 32.8798 42.1508 31.1398C42.1508 30.3414 41.7004 29.6453 40.7587 29.6453C38.4454 29.6453 36.7258 33.105 36.255 35.5411C35.2109 36.8104 33.1433 38.4276 31.4032 38.4276C30.0112 38.4276 29.5608 37.1584 29.438 36.6875C33.8189 35.1931 39.2438 29.195 39.2438 23.7496C39.2438 22.6032 38.773 20.0647 35.3133 20.0647C30.1135 20.0647 25.7326 27.8029 25.7326 33.801C23.8902 33.801 23.1942 31.8358 23.1942 30.3414C23.1942 28.8469 23.7674 27.3525 23.7674 26.8817C23.7674 26.4108 23.5422 25.8376 22.8462 25.8376C21.1266 25.8376 20.0825 28.1509 20.0825 30.7917C20.2053 34.4766 22.621 36.7899 25.8555 37.0355C26.3263 39.226 28.2711 41.3141 30.7072 41.3141C32.2016 41.3141 34.0441 40.8432 35.3338 39.6968C35.2314 40.4952 35.1086 41.1912 34.9857 41.8873C29.9088 44.5486 26.2035 46.391 22.8666 49.4003C20.2258 51.8364 18.7109 55.0504 18.7109 57.5889C18.7109 61.0486 20.9014 64.2831 25.4051 64.2831C30.7072 64.2831 34.7606 60.0045 36.7258 54.1292C37.647 51.3656 38.0155 47.3327 38.2407 43.6274C43.5428 40.618 46.0608 38.8984 48.8245 36.9332C49.1725 37.5064 49.5205 37.9772 49.9709 38.3048C47.5552 39.574 41.7823 43.1565 41.7823 51.5703C41.7823 57.5684 45.8152 64.2626 53.7786 64.2626C60.3499 64.2626 64.8536 58.8377 64.8536 53.6379C64.8536 48.9499 62.2128 44.569 57.1359 44.569ZM25.3846 60.7415C23.665 60.8234 22.4981 59.7179 22.4981 57.8755C22.4981 52.9214 29.3766 48.172 34.5763 45.6336C33.6551 52.5529 31.3214 60.4754 25.3846 60.7415ZM29.1923 33.494C29.1923 29.6863 32.9591 22.4394 35.2519 23.2173C37.9746 24.118 33 31.4059 29.1923 33.494ZM51.0149 31.7539C51.0149 27.025 54.2289 22.4189 55.969 23.2787C57.9752 24.3023 54.4746 28.7651 51.0149 31.7539Z" fill="#3B73BA"/></g><defs><clipPath id="clip0_1_359"><rect width="83.3394" height="83.3394" fill="white" transform="translate(0 0.944336)"/></clipPath></defs></svg>