<svg width="166" height="56" fill="none" xmlns="http://www.w3.org/2000/svg"><path d="M40.7199 19.4991H21.4419V25.4079H35.2119C34.6218 33.4833 27.9335 37.0286 21.6386 37.0286C13.5733 37.0286 6.49158 30.5289 6.49158 21.4687C6.29487 12.6055 12.9832 5.90882 21.4419 5.90882C27.9335 5.90882 31.6711 10.045 31.6711 10.045L35.6054 5.90882C35.6054 5.90882 30.4908 0 21.0485 0C9.24559 0 0 10.2419 0 21.2717C0 32.1046 8.65545 42.7404 21.4419 42.7404C32.6546 42.7404 40.9167 34.862 40.9167 23.2413C40.9167 20.8778 40.7199 19.4991 40.7199 19.4991Z" fill="#607FBF"/><path d="M56.4575 20.6812C60.3918 20.6812 64.1293 23.8326 64.1293 28.9536C64.1293 34.0745 60.3918 37.2259 56.4575 37.2259C52.1297 37.2259 48.7856 33.6806 48.7856 28.7566C48.7856 24.2265 52.1297 20.6812 56.4575 20.6812ZM56.4575 15.3633C48.5889 15.3633 42.8842 21.666 42.8842 28.9536C42.8842 36.4381 48.3922 42.7408 56.6542 42.7408C64.1293 42.7408 70.0308 37.0289 70.0308 28.9536C70.0308 19.8934 62.949 15.3633 56.4575 15.3633Z" fill="#D21C1A"/><path d="M85.9646 20.6812C89.8989 20.6812 93.6364 23.8326 93.6364 28.9536C93.6364 34.0745 89.8989 37.2259 85.9646 37.2259C81.6368 37.2259 78.2927 33.6806 78.2927 28.7566C78.2927 24.2265 81.6368 20.6812 85.9646 20.6812ZM85.9646 15.3633C78.096 15.3633 72.3912 21.666 72.3912 28.9536C72.3912 36.4381 77.8992 42.7408 86.1613 42.7408C93.6364 42.7408 99.5379 37.0289 99.5379 28.9536C99.5379 19.8934 92.4561 15.3633 85.9646 15.3633Z" fill="#F5C500"/><path d="M115.471 20.6812C119.012 20.6812 122.75 23.8326 122.75 29.1505C122.75 34.4685 119.012 37.4229 115.471 37.4229C111.537 37.4229 107.996 34.2715 107.996 29.1505C107.8 23.8326 111.734 20.6812 115.471 20.6812ZM114.881 15.3633C107.603 15.3633 101.898 21.863 101.898 29.1505C101.898 37.4229 108.586 42.9378 114.685 42.9378C118.619 42.9378 120.586 41.3621 122.16 39.5894V42.3469C122.16 47.0739 119.406 50.0283 115.078 50.0283C110.947 50.0283 108.783 46.877 108.193 45.1043L103.078 47.2709C104.849 51.2101 108.586 55.3463 115.275 55.3463C122.553 55.3463 128.061 50.6192 128.061 40.9681V16.1511H122.357V18.5146C120.389 16.545 118.029 15.3633 114.881 15.3633Z" fill="#607FBF"/><path d="M153.241 20.484C155.798 20.484 157.569 21.8627 158.159 23.4384L146.159 28.5593C145.766 24.6201 149.307 20.484 153.241 20.484ZM153.044 15.166C146.159 15.166 140.454 20.6809 140.454 28.9533C140.454 37.6195 146.946 42.7405 153.634 42.7405C159.339 42.7405 162.88 39.5891 165.044 36.6347L160.323 33.4833C159.142 35.453 157.175 37.2256 153.634 37.2256C149.897 37.2256 148.126 35.059 146.946 33.0894L165.24 25.6049L164.257 23.4384C162.486 18.9083 158.552 15.166 153.044 15.166Z" fill="#D21C1A"/><path d="M137.7 1.37866H131.799V41.9525H137.7V1.37866Z" fill="#45A535"/></svg>