<svg width="138" height="61" fill="none" xmlns="http://www.w3.org/2000/svg"><g clip-path="url(#clip0_1_242)"><path d="M116.155 0.0258789L114.736 4.36892H137.662V0.0258789H116.155Z" fill="#4D81C2"/><path d="M99.2426 4.36892L97.8436 0.0258789H76.5669V4.36892H99.2426Z" fill="#4D81C2"/><path d="M68.8204 4.36892C66.2313 1.75892 63.1828 0.401719 59.675 0.0258789H30.276V4.36892H68.8204Z" fill="#4D81C2"/><path d="M26.789 0.0258789H0V4.36892H26.789V0.0258789Z" fill="#4D81C2"/><path d="M112.105 12.4912H137.641V8.18994H113.504L112.105 12.4912Z" fill="#4D81C2"/><path d="M76.5669 12.5121H101.873L100.495 8.18994H76.5669V12.5121Z" fill="#4D81C2"/><path d="M30.276 12.4914H72.9338C72.9338 10.8209 72.3283 9.60991 71.8272 8.16919H30.276V12.4914Z" fill="#4D81C2"/><path d="M26.789 8.18994H0V12.5121H26.789V8.18994Z" fill="#4D81C2"/><path d="M130.082 16.3123H110.915L109.495 20.6553L130.082 20.6344V16.3123Z" fill="#4D81C2"/><path d="M84.1046 20.6553H104.504L103.105 16.3123H84.1046V20.6553Z" fill="#4D81C2"/><path d="M73.2679 16.3123H61.0113V20.6553H72.6832C73.1008 19.3607 73.2679 17.7947 73.2679 16.3123Z" fill="#4D81C2"/><path d="M18.98 16.3333H7.47513V20.6554H18.98V16.3333Z" fill="#4D81C2"/><path d="M49.5273 16.3123H38.0224V20.6553H49.5273V16.3123Z" fill="#4D81C2"/><path d="M130.082 28.6107V24.2886H108.325L107.031 28.3184L105.695 24.2886H84.1046V28.6107H95.4216V25.3326L96.4656 28.6107H117.742L118.786 25.3326V28.6107H130.082Z" fill="#4D81C2"/><path d="M38.0224 28.6107H67.7556C69.0084 27.5041 70.3029 25.7293 71.0337 24.2886H38.0433C38.0224 24.3095 38.0224 28.6107 38.0224 28.6107Z" fill="#4D81C2"/><path d="M18.98 24.3093H7.47513V28.6315H18.98V24.3093Z" fill="#4D81C2"/><path d="M130.082 32.4316H118.807V36.7538H130.082V32.4316Z" fill="#4D81C2"/><path d="M84.1046 32.4316V36.7538H95.4216C95.4216 36.7538 95.4425 32.4316 95.4216 32.4316H84.1046Z" fill="#4D81C2"/><path d="M99.1173 36.7538H115.174C115.237 36.7538 116.489 32.4316 116.552 32.4316H97.7183C97.6974 32.4316 99.0964 36.7538 99.1173 36.7538Z" fill="#4D81C2"/><path d="M67.6929 32.4316H38.0224V36.7538C38.0224 36.7538 71.2843 36.7538 71.2216 36.7538C70.2611 35.2087 69.0501 33.6636 67.6929 32.4316Z" fill="#4D81C2"/><path d="M18.98 32.4316H7.496V36.7538H18.98V32.4316Z" fill="#4D81C2"/><path d="M130.082 40.575H118.807V44.8971H130.082V40.575Z" fill="#4D81C2"/><path d="M95.4216 40.575H84.1046V44.8971H95.4216V40.575Z" fill="#4D81C2"/><path d="M101.685 44.8761C101.685 44.8761 112.522 44.9179 112.522 44.897C112.522 44.8761 113.9 40.554 113.942 40.554H100.287C100.266 40.5748 101.685 44.8761 101.685 44.8761Z" fill="#4D81C2"/><path d="M49.6944 44.8761V40.554H38.0224V44.8761C38.0224 44.8761 49.6735 44.8761 49.6944 44.8761Z" fill="#4D81C2"/><path d="M61.2411 40.575V44.918H73.602C73.4976 43.4355 73.435 41.8904 72.8712 40.575H61.2411Z" fill="#4D81C2"/><path d="M19.0009 40.575H7.496V44.8971H19.0009V40.575Z" fill="#4D81C2"/><path d="M137.662 48.53H118.807V52.8522H137.662V48.53Z" fill="#4D81C2"/><path d="M95.4424 48.53H76.5669V52.8522H95.4424V48.53Z" fill="#4D81C2"/><path d="M104.233 52.8522H109.996L111.311 48.53H102.855L104.233 52.8522Z" fill="#4D81C2"/><path d="M26.7682 48.53C26.7891 48.53 -0.0417418 48.53 1.8179e-05 48.53V52.8522H26.7682C26.7891 52.8522 26.7682 48.53 26.7682 48.53Z" fill="#4D81C2"/><path d="M30.276 52.8522H71.2634H71.6184C72.5788 51.7038 72.8294 49.9707 73.1008 48.53H30.276V52.8522Z" fill="#4D81C2"/><path d="M106.843 60.9955H107.386L108.764 56.6733H105.507L106.843 60.9955Z" fill="#4D81C2"/><path d="M137.662 56.6733H118.807V61.0164H137.662V56.6733Z" fill="#4D81C2"/><path d="M30.2551 60.9955H59.0486C62.8906 60.9329 66.4402 59.4086 69.0502 56.6733C68.9458 56.6733 30.2551 56.6733 30.2551 56.6733V60.9955Z" fill="#4D81C2"/><path d="M95.4424 56.6733H76.5669V61.0164H95.4424V56.6733Z" fill="#4D81C2"/><path d="M0 56.6733V60.9955C0 61.0164 26.789 60.9955 26.7682 60.9955C26.7473 60.9955 26.7682 56.6942 26.7682 56.6942L0 56.6733Z" fill="#4D81C2"/></g><defs><clipPath id="clip0_1_242"><rect width="137.662" height="60.9696" fill="white" transform="translate(0 0.0258789)"/></clipPath></defs></svg>