<svg width="161" height="38" fill="none" xmlns="http://www.w3.org/2000/svg"><path d="M1.72284 20.71L2.48855 21.66L1.91427 20.33L2.48855 19.57L3.63711 21.09L2.67997 19L3.06283 18.24L4.78567 20.52L3.44568 17.67L3.82853 16.91L5.55138 19.38L4.01996 16.34L4.59424 15.58L6.50851 18.24L4.97709 15.2L5.35995 14.44L7.08279 16.91L5.55138 13.87L6.12566 13.11L8.03992 15.77L6.31708 12.54L6.69994 11.97L8.99706 14.63L7.08279 11.21L7.46564 10.64L9.76276 13.87L7.8485 9.88L8.23135 9.5L10.7199 12.92L8.6142 8.55L8.99706 8.17L12.0599 12.54L9.37991 7.22L9.76276 6.84L13.2084 12.16L10.1456 5.7L10.5285 5.32L14.5484 11.78L11.1028 4.37L11.2942 3.99L15.697 11.02L11.8685 3.04L12.0599 2.66L16.6541 9.88L12.6342 1.71L13.5913 0L27.374 23.75H0L1.72284 20.71Z" fill="#0B5491"/><path d="M34.8397 20.3302C34.8397 22.4202 34.8397 23.3702 35.4139 23.3702H36.5625V23.9402H31.5854V23.3702H32.5425C32.734 23.3702 32.9254 23.1802 32.9254 22.9902V14.0601C32.9254 11.9701 32.9254 11.0201 32.3511 11.0201H31.0111V10.6401H35.9882V11.2101H35.0311C34.8397 11.2101 34.6482 11.4001 34.6482 11.5901V20.3302H34.8397Z" fill="#1A1814"/><path d="M38.0939 23.1801C38.0939 23.3701 38.0939 23.3701 37.9025 23.3701H36.9454V23.9401H41.1568V23.3701H40.1997C39.6254 23.3701 39.6254 22.8001 39.6254 20.9001V18.6201H40.9654C44.4111 23.9401 44.6025 23.9401 44.9854 23.9401H47.0911V23.3701H46.7082C46.1339 23.3701 45.5596 22.8001 42.4968 18.4301C44.0282 18.0501 45.1768 17.1 45.1768 15.58C45.1768 13.3 43.0711 12.54 41.5397 12.54H36.3711V13.11H37.5197C38.0939 13.11 38.0939 13.87 38.0939 15.58V23.1801ZM39.6254 18.0501V13.3C39.6254 13.11 39.8168 12.92 40.0082 12.92H40.9654C42.4968 12.92 43.8368 14.06 43.8368 15.77C43.8368 17.48 42.3054 18.0501 40.5825 18.0501H39.6254Z" fill="#1A1814"/><path d="M52.0682 24.3202C55.7053 24.3202 58.1938 21.4702 58.1938 18.0502C58.1938 14.4402 56.0882 12.1602 52.4511 12.1602C48.814 12.1602 46.3254 15.0102 46.3254 18.4302C46.3254 21.8502 48.4311 24.3202 52.0682 24.3202ZM52.0682 12.5402C54.1739 12.5402 56.6624 14.2502 56.6624 18.4302C56.6624 21.6602 54.9396 23.5602 52.4511 23.5602C50.3454 23.5602 47.8568 21.8502 47.8568 17.6702C47.8568 14.6302 49.5797 12.5402 52.0682 12.5402Z" fill="#1A1814"/><path d="M68.3395 21.4701V14.8201C68.3395 13.8701 68.3395 12.9201 67.7652 12.9201H66.8081V12.3501H70.2538V12.9201H69.4881C69.2966 12.9201 69.1052 12.9201 69.1052 13.3001V23.7501C69.1052 23.9401 69.1052 24.1301 68.9138 24.1301C68.9138 24.1301 68.7224 24.1301 68.7224 23.9401L68.5309 23.5601L60.4909 14.0601V21.4701C60.4909 22.4201 60.4909 23.3701 61.0652 23.3701H62.0223V23.9401H58.5766V23.3701H59.3423C59.5337 23.3701 59.7252 23.3701 59.7252 22.9901V15.0101C59.7252 13.4901 59.5337 12.9201 58.768 12.9201H58.1937V12.3501H60.8737L68.3395 21.4701Z" fill="#1A1814"/><path d="M89.7793 11.0201H88.8221C88.6307 11.0201 88.4393 11.2101 88.4393 11.4001V20.3302C88.4393 22.4202 88.4393 23.3702 89.0135 23.3702H90.1621V23.9402H85.185V23.3702H86.1421C86.3336 23.3702 86.525 23.1802 86.525 22.9902V12.5401L81.7393 23.7502C81.7393 23.9402 81.7393 23.9402 81.3565 23.9402C81.3565 23.9402 81.165 23.7502 80.9736 23.3702L75.9965 12.7301V20.9002C75.9965 21.8502 75.9965 23.1802 76.7622 23.1802H77.9108V23.7502H73.8908V23.1802H74.6565C74.8479 23.1802 75.2308 23.1802 75.2308 22.8002V13.4901C75.2308 11.7801 75.0394 11.0201 74.0822 11.0201H73.5079V10.6401H76.9536L82.1222 21.2802L86.9079 10.6401H89.9707V11.0201H89.7793Z" fill="#1A1814"/><path d="M96.0964 24.3202C99.7336 24.3202 102.222 21.4702 102.222 18.0502C102.222 14.4402 100.116 12.1602 96.4793 12.1602C92.8421 12.1602 90.3535 15.0102 90.3535 18.4302C90.3535 21.8502 92.4592 24.3202 96.0964 24.3202ZM96.0964 12.5402C98.2021 12.5402 100.691 14.2502 100.691 18.4302C100.691 21.6602 98.9679 23.5602 96.6707 23.5602C94.565 23.5602 92.0764 21.8502 92.0764 17.6702C91.885 14.6302 93.6078 12.5402 96.0964 12.5402Z" fill="#1A1814"/><path d="M101.839 12.3501H106.051V12.9201H105.285C105.094 12.9201 104.902 13.1101 104.902 13.3001V20.1401C104.902 22.8001 106.625 23.5601 107.965 23.5601C111.794 23.5601 111.794 20.7101 111.794 19.1901V14.8201C111.794 13.8701 111.794 12.9201 111.219 12.9201H110.262V12.3501H113.516V12.9201H112.942C112.751 12.9201 112.559 12.9201 112.559 13.3001V19.7601C112.559 22.6101 110.645 24.3201 107.965 24.3201C103.562 24.3201 103.371 21.4701 103.371 19.5701V15.5801C103.371 13.6801 103.371 13.1101 102.796 13.1101H101.839V12.3501Z" fill="#1A1814"/><path d="M123.662 21.4701V15.0101C123.662 14.0601 123.662 13.1101 123.088 13.1101H122.131V12.3501H125.576V12.9201H125.002C124.811 12.9201 124.428 12.9201 124.428 13.3001V23.7501C124.428 23.9401 124.428 24.1301 124.428 24.1301C124.428 24.1301 124.236 24.1301 124.045 23.9401L123.853 23.5601L115.813 14.0601V21.4701C115.813 22.4201 115.813 23.3701 116.388 23.3701H117.345V23.9401H113.899V23.3701H114.473C114.665 23.3701 115.048 23.3701 115.048 22.9901V15.0101C115.048 13.4901 114.856 12.9201 114.091 12.9201H113.516V12.3501H116.196L123.662 21.4701Z" fill="#1A1814"/><path d="M131.51 20.9001C131.51 22.8001 131.51 23.3701 132.085 23.3701H133.425V23.9401H128.256V23.3701H129.596C129.788 23.3701 129.979 23.3701 129.979 23.1801V13.1101H129.405C127.299 13.1101 126.15 13.4901 125.959 14.0601C125.959 14.0601 125.959 14.2501 125.768 14.2501C125.576 14.2501 125.576 14.2501 125.576 14.0601C125.576 13.8701 125.959 13.1101 126.15 12.3501H135.339C135.53 13.1101 135.913 13.8701 135.913 14.0601C135.913 14.2501 135.722 14.2501 135.722 14.2501C135.53 14.2501 135.53 14.0601 135.53 14.0601C135.339 13.4901 134.382 13.1101 132.085 13.1101H131.51V20.9001Z" fill="#1A1814"/><path d="M140.699 19.5702C141.465 21.6602 141.848 22.9902 141.848 23.1802C141.848 23.3702 141.848 23.3702 141.656 23.3702H140.699V23.9402H144.719V23.3702H144.145C143.57 23.3702 143.379 23.1802 142.996 22.0402C142.039 19.5702 139.933 13.4902 139.933 12.7302C139.933 12.3502 140.316 12.3502 140.316 12.1602C140.316 12.1602 140.316 11.9702 140.125 11.9702C139.933 11.9702 139.55 11.9702 138.976 12.1602L134.382 23.1802C134.382 23.3702 133.999 23.3702 133.808 23.3702H133.425V23.9402H137.062V23.3702H135.913C135.722 23.3702 135.53 23.3702 135.53 22.8002C135.53 22.2302 136.105 20.5202 136.488 19.5702H140.699ZM140.316 19.0002H136.679L138.785 14.0602L140.316 19.0002Z" fill="#1A1814"/><path d="M147.399 20.9001C147.399 22.8001 147.399 23.3701 147.973 23.3701H148.93V23.9401H144.719V23.3701H145.485C145.676 23.3701 145.867 23.3701 145.867 23.1801V15.5801C145.867 13.6801 145.867 13.1101 145.293 13.1101H144.336V12.3501H148.547V12.9201H147.59C147.399 12.9201 147.399 13.1101 147.399 13.3001V20.9001Z" fill="#1A1814"/><path d="M158.885 21.4701V15.0101C158.885 14.0601 158.885 13.1101 158.31 13.1101H157.353V12.3501H160.799V12.9201H160.225C160.033 12.9201 159.842 12.9201 159.842 13.3001V23.7501C159.842 23.9401 159.842 24.1301 159.65 24.1301C159.65 24.1301 159.459 24.1301 159.459 23.9401L159.268 23.5601L151.228 14.0601V21.4701C151.228 22.4201 151.228 23.3701 151.802 23.3701H152.759V23.9401H149.313V23.3701H150.079C150.27 23.3701 150.462 23.3701 150.462 22.9901V15.0101C150.462 13.4901 150.27 12.9201 149.505 12.9201H148.93V12.3501H151.61L158.885 21.4701Z" fill="#1A1814"/><path d="M34.2655 36.2899C34.2655 37.2399 34.2655 37.6199 34.4569 37.6199H35.0311V37.8099H32.9255V37.6199H33.3084C33.3084 37.6199 33.4998 37.6199 33.4998 37.4299V33.6299C33.4998 32.6799 33.4998 32.2999 33.3084 32.2999H32.7341V31.9199H34.8397V32.2999H34.4569C34.4569 32.2999 34.4569 32.2999 34.4569 32.4899V36.2899H34.2655Z" fill="#1A1814"/><path d="M46.134 36.6698V33.4399C46.134 33.0599 46.134 32.4899 45.7511 32.4899H45.1768V32.1099H46.8997V32.2999H46.5168C46.5168 32.2999 46.3254 32.2999 46.3254 32.4899V37.8098V37.9998L46.134 37.8098L42.114 33.0599V36.6698C42.114 37.0498 42.114 37.6198 42.3055 37.6198H42.8797V37.8098H41.1569V37.6198H41.5398C41.5398 37.6198 41.7312 37.6198 41.7312 37.4298V33.4399C41.7312 32.6799 41.7312 32.4899 41.1569 32.4899H40.774V32.1099H42.114L46.134 36.6698Z" fill="#1A1814"/><path d="M58.5768 33.06C58.5768 33.06 58.5768 32.87 58.5768 33.06C58.3853 32.49 57.6196 32.3 57.0453 32.3C55.3225 32.3 54.3653 33.63 54.3653 35.15C54.3653 36.86 55.7053 37.81 56.8539 37.81C57.6196 37.81 58.5768 37.43 58.7682 36.86V36.67C58.7682 36.67 58.7682 36.67 58.7682 36.86C58.7682 37.05 58.7682 37.05 58.7682 37.62C58.1939 37.81 57.4282 38 56.6625 38C54.7482 38 53.5996 37.05 53.5996 35.15C53.5996 33.06 55.3225 31.73 57.2368 31.73C57.811 31.73 58.1939 31.92 58.7682 32.11C58.7682 32.87 58.7682 33.06 58.5768 33.06Z" fill="#1A1814"/><path d="M67.9566 37.9999C69.8709 37.9999 71.0194 36.4799 71.0194 34.9599C71.0194 33.0599 70.0623 31.9199 68.148 31.9199C66.2338 31.9199 65.0852 33.2499 65.0852 35.1499C65.0852 36.8599 66.2338 37.9999 67.9566 37.9999ZM67.9566 32.1099C68.9137 32.1099 70.2537 33.0599 70.2537 35.1499C70.2537 36.8599 69.488 37.8099 68.148 37.8099C66.9995 37.8099 65.8509 36.8599 65.8509 34.7699C65.8509 33.2499 66.808 32.1099 67.9566 32.1099Z" fill="#1A1814"/><path d="M78.1022 37.4298C78.1022 37.6198 78.1022 37.6198 78.1022 37.4298L77.5279 37.6198V37.8098H79.6336V37.6198H79.0593C78.8679 37.6198 78.6765 37.2398 78.6765 36.2898V35.1498H79.4422C81.1651 37.8098 81.1651 37.8098 81.548 37.8098H82.5051V37.6198H82.3137C82.1223 37.6198 81.7394 37.2398 80.2079 35.1498C80.9737 34.9598 81.7394 34.3898 81.7394 33.6299C81.7394 32.4899 80.7822 32.1099 79.8251 32.1099H77.3364V32.2999H77.9107C78.1022 32.2999 78.2936 32.6799 78.2936 33.6299V37.4298H78.1022ZM78.8679 34.9598V32.4899H79.0593H79.6336C80.3994 32.4899 80.9737 33.0599 80.9737 33.8198C80.9737 34.7698 80.2079 34.9598 79.4422 34.9598H78.8679Z" fill="#1A1814"/><path d="M88.248 32.2999H88.8223C89.0138 32.2999 89.0138 32.6799 89.0138 33.6299V37.4298V37.6198H88.4395V37.8098H90.5452V37.6198H89.9709C89.7795 37.6198 89.7795 37.2398 89.7795 36.2898V35.1498C89.9709 35.1498 90.3537 35.1498 90.5452 35.1498C91.8852 35.1498 92.6509 34.3898 92.6509 33.6299C92.6509 32.4899 91.6937 32.1099 90.7366 32.1099H88.248V32.2999ZM89.7795 32.4899C89.7795 32.4899 89.7795 32.4899 90.1623 32.4899C91.6937 32.4899 91.8852 33.4399 91.8852 33.8198C91.8852 34.5798 91.3109 34.9598 90.5452 34.9598C90.3537 34.9598 89.9709 34.9598 89.7795 34.7698V32.4899Z" fill="#1A1814"/><path d="M101.839 37.9999C103.754 37.9999 104.902 36.4799 104.902 34.9599C104.902 33.0599 103.945 31.9199 102.031 31.9199C100.116 31.9199 98.9679 33.4399 98.9679 35.1499C98.7764 36.8599 99.925 37.9999 101.839 37.9999ZM101.839 32.1099C102.796 32.1099 104.136 33.0599 104.136 35.1499C104.136 36.8599 103.371 37.8099 102.031 37.8099C100.882 37.8099 99.7336 36.8599 99.7336 34.7699C99.7336 33.2499 100.499 32.1099 101.839 32.1099Z" fill="#1A1814"/><path d="M111.794 37.4298C111.794 37.6198 111.794 37.6198 111.794 37.4298L111.219 37.6198V37.8098H113.325V37.6198H112.942C112.751 37.6198 112.559 37.2398 112.559 36.2898V35.1498H113.325C115.048 37.8098 115.048 37.8098 115.431 37.8098H116.388V37.6198H116.196C116.005 37.6198 115.622 37.2398 114.091 35.1498C114.856 34.9598 115.622 34.3898 115.622 33.6299C115.622 32.4899 114.665 32.1099 113.708 32.1099H111.028V32.2999H111.602C111.794 32.2999 111.985 32.6799 111.985 33.6299V37.4298H111.794ZM112.559 34.9598V32.4899H112.751H113.325C114.091 32.4899 114.665 33.0599 114.665 33.8198C114.665 34.7698 113.899 34.9598 113.134 34.9598H112.559Z" fill="#1A1814"/><path d="M125.385 35.7199C125.768 36.8599 125.959 37.4299 125.959 37.6199C125.959 37.6199 125.959 37.6199 125.768 37.6199H125.193V37.8099H127.299V37.6199H127.108C126.916 37.6199 126.725 37.4299 126.533 36.8599C125.959 35.7199 125.002 32.4899 125.002 32.2999C125.002 32.1099 125.193 32.1099 125.193 31.9199C125.193 31.9199 124.811 31.9199 124.619 31.9199L122.322 37.4299C122.322 37.4299 122.131 37.6199 121.939 37.6199H121.748V37.8099H123.662V37.6199H123.088C122.896 37.6199 122.896 37.6199 122.896 37.4299C122.896 37.2399 123.279 36.2899 123.471 35.7199H125.385ZM125.193 35.3399H123.279L124.236 32.8699L125.193 35.3399Z" fill="#1A1814"/><path d="M135.339 36.2898C135.339 37.2398 135.339 37.6198 135.531 37.6198H136.296V37.8098H133.808V37.6198H134.382C134.382 37.6198 134.573 37.6198 134.573 37.4298V32.4899H134.382C133.425 32.4899 132.851 32.6799 132.659 32.8699C132.659 32.8699 132.659 33.0599 132.468 33.0599C132.468 33.0599 132.659 32.4899 132.659 32.1099H137.254C137.445 32.4899 137.445 32.8699 137.445 33.0599C137.445 33.2499 137.445 33.0599 137.445 33.0599C137.445 33.0599 137.445 33.0599 137.445 32.8699C137.254 32.6799 136.871 32.4899 135.722 32.4899H135.531V36.2898H135.339Z" fill="#1A1814"/><path d="M144.145 33.6299C144.145 32.6799 144.145 32.2999 143.953 32.2999H143.379V31.9199H147.973C147.973 32.8699 147.782 32.8699 147.782 32.8699C147.782 32.8699 147.782 32.8699 147.782 32.6799C147.782 32.6799 147.59 32.2999 146.25 32.2999H145.293C145.293 32.2999 145.102 32.2999 145.102 32.4899V34.5799H146.059C147.016 34.5799 147.399 34.5799 147.399 34.1999V33.8199H147.59V35.3399H147.399V34.9599C147.399 34.7699 147.399 34.7699 146.25 34.7699H145.102V36.2899C145.102 37.4299 145.102 37.4299 145.485 37.4299H146.059C147.59 37.4299 147.973 37.2399 148.165 36.8599C148.165 36.8599 148.165 36.8599 148.356 36.8599C148.356 36.8599 148.165 37.4299 148.165 37.6199H143.57V37.4299H144.145C144.145 37.4299 144.145 37.4299 144.145 37.2399V33.6299Z" fill="#1A1814"/><path d="M154.291 32.2999H154.865C155.056 32.2999 155.056 32.6799 155.056 33.6299V37.4299C155.056 37.4299 155.056 37.6199 154.865 37.6199H154.482V37.8099H156.971C158.885 37.8099 160.033 36.4799 160.033 34.7699C160.033 34.0099 159.459 31.9199 156.971 31.9199H154.291V32.2999ZM155.822 32.6799C155.822 32.4899 155.822 32.4899 156.588 32.4899C157.928 32.4899 159.076 33.2499 159.076 35.3399C159.076 36.2899 158.502 37.6199 156.971 37.6199H156.205C155.822 37.6199 155.822 37.6199 155.822 36.4799V32.6799Z" fill="#1A1814"/></svg>