<svg width="173" height="65" fill="none" xmlns="http://www.w3.org/2000/svg"><path d="M20.6648 51.5924C20.734 51.5837 20.8205 51.5751 20.9243 51.5751C21.0281 51.5664 21.1146 51.5664 21.1925 51.5664C21.279 51.5664 21.3741 51.5664 21.4606 51.5751C21.5471 51.5751 21.6336 51.5837 21.7028 51.5924V55.8824H27.0485V51.5924C27.1177 51.5837 27.1956 51.5751 27.2907 51.5751C27.3772 51.5664 27.4724 51.5664 27.5589 51.5664C27.6367 51.5664 27.7319 51.5664 27.827 51.5751C27.9308 51.5751 28.0173 51.5837 28.0865 51.5924V61.6631C28.026 61.6717 27.9481 61.6804 27.853 61.6804C27.7578 61.6891 27.6627 61.6891 27.5589 61.6891C27.4637 61.6891 27.3772 61.6891 27.2907 61.6804C27.2042 61.6717 27.1177 61.6717 27.0485 61.6631V56.7664H21.7028V61.6717C21.6336 61.6804 21.5558 61.6891 21.4606 61.6891C21.3741 61.6977 21.279 61.6977 21.1925 61.6977C21.0887 61.6977 20.9935 61.6977 20.8984 61.6891C20.8032 61.6804 20.7254 61.6804 20.6648 61.6717V51.5924Z" fill="#676767"/><path d="M30.2317 54.5221C30.2923 54.5134 30.3788 54.5048 30.4912 54.5048C30.6037 54.4961 30.6815 54.4961 30.7334 54.4961C30.794 54.4961 30.8805 54.4961 30.9843 54.5048C31.0881 54.5134 31.1746 54.5134 31.2351 54.5221V58.5434C31.2351 59.0461 31.287 59.4621 31.3995 59.7828C31.5119 60.1034 31.6763 60.3548 31.8925 60.5368C32.1088 60.7188 32.3769 60.8488 32.6883 60.9181C32.9997 60.9874 33.3544 61.0221 33.7436 61.0221C34.0723 61.0221 34.3751 61.0048 34.6346 60.9701C34.8941 60.9354 35.1276 60.8921 35.3266 60.8401V54.5221C35.3871 54.5134 35.4736 54.5048 35.5861 54.5048C35.6985 54.4961 35.7764 54.4961 35.8283 54.4961C35.8888 54.4961 35.9753 54.4961 36.0791 54.5048C36.1829 54.5134 36.2694 54.5134 36.33 54.5221V61.4814C35.958 61.5768 35.5428 61.6548 35.0844 61.7241C34.6259 61.7934 34.1588 61.8281 33.6744 61.8281C33.1987 61.8281 32.7575 61.7848 32.3337 61.6981C31.9185 61.6114 31.5552 61.4554 31.2438 61.2128C30.9324 60.9788 30.6902 60.6494 30.5085 60.2248C30.3269 59.8088 30.2404 59.2628 30.2404 58.5868V54.5221H30.2317Z" fill="#676767"/><path d="M38.3281 54.5218C38.406 54.5132 38.4838 54.5045 38.5617 54.5045C38.6395 54.4958 38.7087 54.4958 38.7779 54.4958C38.8558 54.4958 38.9336 54.4958 39.0028 54.5045C39.072 54.5132 39.1499 54.5132 39.2277 54.5218C39.245 54.6865 39.2623 54.8945 39.271 55.1198C39.2796 55.3538 39.2883 55.5618 39.2883 55.7525C39.3748 55.5792 39.4959 55.4058 39.6343 55.2325C39.7727 55.0678 39.9457 54.9118 40.136 54.7818C40.3263 54.6518 40.5425 54.5478 40.7934 54.4698C41.0442 54.3918 41.321 54.3485 41.6324 54.3485C41.9265 54.3485 42.1774 54.3832 42.385 54.4438C42.5926 54.5132 42.7829 54.5998 42.9386 54.7125C43.0943 54.8252 43.224 54.9638 43.3278 55.1285C43.4316 55.2845 43.5354 55.4665 43.6219 55.6572C43.7344 55.5098 43.8555 55.3538 44.0025 55.1978C44.1409 55.0418 44.3053 54.8945 44.4869 54.7732C44.6686 54.6432 44.8762 54.5478 45.1184 54.4612C45.3519 54.3832 45.6201 54.3398 45.9142 54.3398C46.8138 54.3398 47.4539 54.5738 47.8518 55.0505C48.2497 55.5272 48.4486 56.2118 48.4486 57.0958V61.6458C48.3881 61.6545 48.3016 61.6632 48.1978 61.6632C48.094 61.6718 48.0075 61.6718 47.9469 61.6718C47.895 61.6718 47.8172 61.6718 47.7047 61.6632C47.5923 61.6545 47.5058 61.6545 47.4452 61.6458V57.4165C47.4452 56.6625 47.3155 56.0992 47.0473 55.7352C46.7792 55.3712 46.3813 55.1892 45.845 55.1892C45.5249 55.1892 45.2395 55.2498 44.9973 55.3712C44.7551 55.4925 44.5561 55.6572 44.3918 55.8652C44.2274 56.0732 44.1063 56.3072 44.0198 56.5845C43.9333 56.8618 43.8901 57.1478 43.8901 57.4598V61.6458C43.8295 61.6545 43.743 61.6632 43.6392 61.6632C43.5354 61.6718 43.4489 61.6718 43.3884 61.6718C43.3365 61.6718 43.2586 61.6718 43.1462 61.6632C43.0337 61.6545 42.9472 61.6545 42.8867 61.6458V57.2345C42.8867 56.5152 42.7656 55.9865 42.5147 55.6398C42.2639 55.2932 41.9179 55.1198 41.4508 55.1198C41.1394 55.1198 40.8539 55.1892 40.5858 55.3365C40.3263 55.4838 40.1014 55.6832 39.9024 55.9432C39.7121 56.2032 39.5651 56.5152 39.4526 56.8705C39.3488 57.2345 39.2969 57.6245 39.2969 58.0578V61.6458C39.2364 61.6545 39.1499 61.6632 39.0461 61.6632C38.9423 61.6718 38.8558 61.6718 38.7952 61.6718C38.7433 61.6718 38.6655 61.6718 38.553 61.6632C38.4406 61.6545 38.3541 61.6545 38.2935 61.6458V54.5218H38.3281Z" fill="#676767"/><path d="M54.5469 56.9488C54.5469 56.3334 54.3912 55.8828 54.0798 55.5968C53.7684 55.3108 53.3013 55.1721 52.6871 55.1721C52.2806 55.1721 51.9173 55.1981 51.5799 55.2501C51.2512 55.3021 50.9485 55.3628 50.689 55.4408C50.6371 55.3541 50.5938 55.2328 50.5592 55.0768C50.5246 54.9208 50.5073 54.7648 50.5073 54.6261C50.7668 54.5481 51.0955 54.4874 51.4761 54.4354C51.8567 54.3834 52.2546 54.3574 52.6525 54.3574C53.63 54.3574 54.3566 54.5568 54.8237 54.9554C55.2994 55.3541 55.533 55.9781 55.533 56.8274V61.5508C55.1783 61.6201 54.7545 61.6808 54.2528 61.7501C53.7511 61.8194 53.2753 61.8454 52.8169 61.8454C51.8827 61.8454 51.1388 61.6721 50.6025 61.3254C50.0662 60.9788 49.798 60.4241 49.798 59.6441C49.798 59.2714 49.8759 58.9334 50.0316 58.6388C50.1873 58.3441 50.4035 58.1014 50.6803 57.8934C50.9571 57.6941 51.2858 57.5381 51.6751 57.4341C52.0643 57.3301 52.4882 57.2781 52.9553 57.2781C53.3186 57.2781 53.63 57.2868 53.8895 57.3128C54.149 57.3388 54.3652 57.3561 54.5382 57.3734V56.9488H54.5469ZM54.5469 58.1968C54.3739 58.1794 54.1576 58.1534 53.9068 58.1361C53.6473 58.1101 53.4051 58.1014 53.1715 58.1014C52.419 58.1014 51.8308 58.2314 51.4156 58.4914C51.0004 58.7514 50.7928 59.1241 50.7928 59.6094C50.7928 59.9214 50.8533 60.1641 50.9831 60.3548C51.1128 60.5454 51.2685 60.6841 51.4761 60.7794C51.6751 60.8748 51.9 60.9441 52.1422 60.9788C52.3844 61.0134 52.6266 61.0308 52.8688 61.0308C53.1802 61.0308 53.4743 61.0134 53.7424 60.9874C54.0106 60.9614 54.2787 60.9268 54.5469 60.8748V58.1968Z" fill="#676767"/><path d="M57.4014 54.5221C57.4792 54.5134 57.5571 54.5048 57.6349 54.5048C57.7128 54.4961 57.782 54.4961 57.8512 54.4961C57.929 54.4961 58.0069 54.4961 58.0761 54.5048C58.1453 54.5134 58.2231 54.5134 58.301 54.5221C58.3183 54.6868 58.3356 54.9034 58.3442 55.1548C58.3529 55.4061 58.3615 55.6228 58.3615 55.8134C58.4653 55.6488 58.5951 55.4754 58.7508 55.3021C58.9151 55.1288 59.0968 54.9728 59.313 54.8341C59.5293 54.6954 59.7801 54.5828 60.0569 54.4874C60.3424 54.4008 60.6451 54.3574 60.9738 54.3574C61.8561 54.3574 62.5049 54.6001 62.9114 55.0941C63.318 55.5881 63.5169 56.2728 63.5169 57.1568V61.6634C63.4564 61.6721 63.3699 61.6808 63.2661 61.6808C63.1623 61.6894 63.0758 61.6894 63.0152 61.6894C62.9633 61.6894 62.8855 61.6894 62.773 61.6808C62.6606 61.6721 62.5741 61.6721 62.5135 61.6634V57.4341C62.5135 56.6368 62.3838 56.0734 62.1156 55.7268C61.8475 55.3801 61.4496 55.2068 60.9133 55.2068C60.5586 55.2068 60.2299 55.2761 59.9185 55.4061C59.6071 55.5361 59.339 55.7268 59.1141 55.9694C58.8892 56.2208 58.7075 56.5241 58.5778 56.8881C58.448 57.2521 58.3788 57.6681 58.3788 58.1361V61.6634C58.3183 61.6721 58.2318 61.6808 58.128 61.6808C58.0242 61.6894 57.9377 61.6894 57.8771 61.6894C57.8252 61.6894 57.7474 61.6894 57.6349 61.6808C57.5225 61.6721 57.436 61.6721 57.3754 61.6634V54.5221H57.4014Z" fill="#676767"/><path d="M69.1481 58.2312C69.1481 59.1845 69.3816 59.8865 69.8574 60.3285C70.3331 60.7792 71.0424 61.0045 71.9853 61.0045C72.3659 61.0045 72.7205 60.9785 73.0492 60.9092C73.3779 60.8485 73.698 60.7705 74.0094 60.6665C74.0613 60.7705 74.0959 60.8918 74.1305 61.0478C74.1564 61.1952 74.1824 61.3338 74.191 61.4552C73.8969 61.5765 73.5596 61.6718 73.1617 61.7325C72.7724 61.8018 72.3399 61.8278 71.8815 61.8278C71.2154 61.8278 70.6445 61.7325 70.1688 61.5505C69.693 61.3685 69.2951 61.1172 68.9924 60.7878C68.6896 60.4585 68.4561 60.0685 68.309 59.6178C68.162 59.1672 68.0928 58.6645 68.0928 58.1272C68.0928 57.6072 68.162 57.1132 68.3004 56.6538C68.4388 56.1945 68.6464 55.7958 68.9232 55.4492C69.2 55.1025 69.5546 54.8338 69.9871 54.6345C70.4196 54.4352 70.9386 54.3398 71.5441 54.3398C72.0458 54.3398 72.4956 54.4178 72.8849 54.5738C73.2741 54.7298 73.6115 54.9552 73.871 55.2412C74.1391 55.5272 74.3381 55.8652 74.4765 56.2638C74.6149 56.6625 74.6841 57.0958 74.6841 57.5638C74.6841 57.6505 74.6841 57.7545 74.6754 57.8845C74.6668 58.0145 74.6668 58.1272 74.6495 58.2225H69.1481V58.2312ZM73.6807 57.4685C73.6807 57.1825 73.6374 56.8965 73.5596 56.6105C73.4817 56.3332 73.352 56.0818 73.179 55.8738C73.006 55.6658 72.7897 55.4925 72.5129 55.3625C72.2448 55.2325 71.9161 55.1632 71.5355 55.1632C70.8262 55.1632 70.2812 55.3625 69.892 55.7612C69.5027 56.1598 69.2605 56.7232 69.1827 57.4598H73.6807V57.4685Z" fill="#676767"/><path d="M76.2151 54.5221C76.2929 54.5134 76.3708 54.5048 76.4486 54.5048C76.5265 54.4961 76.5957 54.4961 76.6649 54.4961C76.7427 54.4961 76.8206 54.4961 76.8898 54.5048C76.959 54.5134 77.0368 54.5134 77.1147 54.5221C77.132 54.6868 77.1493 54.8861 77.1579 55.1201C77.1666 55.3454 77.1752 55.5534 77.1752 55.7441C77.3742 55.3974 77.6596 55.1028 78.0229 54.8688C78.3862 54.6348 78.862 54.5134 79.4588 54.5134C79.5107 54.5134 79.5626 54.5134 79.6145 54.5134C79.6664 54.5134 79.7356 54.5221 79.8048 54.5308C79.8308 54.6868 79.8481 54.8428 79.8481 54.9814C79.8481 55.1288 79.8308 55.2761 79.8048 55.4148C79.727 55.4061 79.6578 55.3974 79.6145 55.3974C79.5713 55.3974 79.5194 55.3974 79.4675 55.3974C78.7841 55.3974 78.2305 55.5968 77.824 56.0041C77.4088 56.4028 77.2012 57.0701 77.2012 58.0061V61.6721C77.1406 61.6808 77.0541 61.6894 76.9503 61.6894C76.8465 61.6981 76.76 61.6981 76.6995 61.6981C76.6476 61.6981 76.5697 61.6981 76.4573 61.6894C76.3448 61.6808 76.2583 61.6808 76.1978 61.6721V54.5221H76.2151Z" fill="#676767"/><path d="M80.8515 54.5221C80.9294 54.5134 81.0072 54.5048 81.0851 54.5048C81.1629 54.4961 81.2321 54.4961 81.3013 54.4961C81.3792 54.4961 81.457 54.4961 81.5262 54.5048C81.5954 54.5134 81.6733 54.5134 81.7511 54.5221C81.7684 54.6868 81.7857 54.8861 81.7944 55.1201C81.803 55.3454 81.8117 55.5534 81.8117 55.7441C82.0106 55.3974 82.2961 55.1028 82.6594 54.8688C83.0227 54.6348 83.4984 54.5134 84.0953 54.5134C84.1472 54.5134 84.1991 54.5134 84.251 54.5134C84.3029 54.5134 84.3721 54.5221 84.4413 54.5308C84.4759 54.6868 84.4845 54.8428 84.4845 54.9814C84.4845 55.1288 84.4672 55.2761 84.4413 55.4148C84.3634 55.4061 84.2942 55.3974 84.251 55.3974C84.2077 55.3974 84.1558 55.3974 84.1039 55.3974C83.4206 55.3974 82.867 55.5968 82.4604 56.0041C82.0452 56.4028 81.8376 57.0701 81.8376 58.0061V61.6721C81.7771 61.6808 81.6906 61.6894 81.5868 61.6894C81.483 61.6981 81.3965 61.6981 81.3359 61.6981C81.284 61.6981 81.2062 61.6981 81.0937 61.6894C80.9813 61.6808 80.8948 61.6808 80.8342 61.6721V54.5221H80.8515Z" fill="#676767"/><path d="M88.4895 61.8369C87.9186 61.8369 87.4082 61.7415 86.9757 61.5509C86.5432 61.3602 86.1799 61.1002 85.8945 60.7622C85.609 60.4242 85.3928 60.0255 85.2544 59.5749C85.116 59.1155 85.0468 58.6302 85.0468 58.1015C85.0468 57.5815 85.116 57.0875 85.2544 56.6282C85.3928 56.1689 85.609 55.7702 85.8945 55.4409C86.1799 55.1029 86.5432 54.8429 86.9757 54.6522C87.4082 54.4615 87.9099 54.3662 88.4895 54.3662C89.0604 54.3662 89.5621 54.4615 89.9946 54.6522C90.4184 54.8429 90.7817 55.1029 91.0672 55.4409C91.3526 55.7789 91.5689 56.1775 91.7159 56.6282C91.863 57.0875 91.9322 57.5729 91.9322 58.1015C91.9322 58.6215 91.863 59.1155 91.7159 59.5749C91.5689 60.0342 91.3526 60.4329 91.0672 60.7622C90.7817 61.1002 90.4184 61.3602 89.9946 61.5509C89.5621 61.7415 89.0604 61.8369 88.4895 61.8369ZM88.4895 61.0222C89.2939 61.0222 89.8994 60.7622 90.2973 60.2335C90.6952 59.7135 90.8942 58.9942 90.8942 58.0929C90.8942 57.1829 90.6952 56.4722 90.2973 55.9522C89.8994 55.4322 89.2939 55.1635 88.4895 55.1635C87.685 55.1635 87.0795 55.4235 86.6816 55.9522C86.2837 56.4722 86.0848 57.1915 86.0848 58.0929C86.0848 58.9942 86.2837 59.7135 86.6816 60.2335C87.0795 60.7622 87.685 61.0222 88.4895 61.0222Z" fill="#676767"/><path d="M93.4978 54.5221C93.5756 54.5134 93.6535 54.5048 93.7313 54.5048C93.8092 54.5048 93.8784 54.4961 93.9476 54.4961C94.0254 54.4961 94.1033 54.4961 94.1725 54.5048C94.2417 54.5134 94.3195 54.5134 94.3974 54.5221C94.4147 54.6868 94.432 54.8861 94.4406 55.1201C94.4493 55.3454 94.4579 55.5534 94.4579 55.7441C94.6569 55.3974 94.9423 55.1028 95.3056 54.8688C95.6689 54.6348 96.1447 54.5134 96.7415 54.5134C96.7934 54.5134 96.8453 54.5134 96.8972 54.5134C96.9491 54.5134 97.0183 54.5221 97.0875 54.5308C97.1135 54.6868 97.1308 54.8428 97.1308 54.9814C97.1308 55.1288 97.1135 55.2761 97.0875 55.4148C97.0097 55.4061 96.9405 55.3974 96.8972 55.3974C96.854 55.3974 96.8021 55.3974 96.7502 55.3974C96.0668 55.3974 95.5132 55.5968 95.1067 56.0041C94.6915 56.4028 94.4839 57.0701 94.4839 58.0061V61.6721C94.4234 61.6808 94.3369 61.6894 94.2331 61.6894C94.1293 61.6981 94.0428 61.6981 93.9822 61.6981C93.9303 61.6981 93.8525 61.6981 93.74 61.6894C93.6276 61.6808 93.541 61.6808 93.4805 61.6721V54.5221H93.4978Z" fill="#676767"/><path d="M97.7104 61.6632C97.6758 61.4638 97.6671 61.2732 97.6671 61.0738C97.6671 60.8658 97.6844 60.6665 97.7104 60.4672C97.918 60.4412 98.1342 60.4238 98.3418 60.4238C98.5667 60.4238 98.783 60.4412 98.9906 60.4672C99.0252 60.6665 99.0338 60.8572 99.0338 61.0565C99.0338 61.2645 99.0165 61.4638 98.9906 61.6545C98.783 61.6805 98.5667 61.6978 98.3591 61.6978C98.1429 61.7065 97.9266 61.6978 97.7104 61.6632Z" fill="#676767"/><path d="M110.668 60.5192C110.746 60.6579 110.815 60.7965 110.876 60.9265C110.936 61.0565 110.979 61.1952 111.014 61.3339C110.668 61.4899 110.262 61.6199 109.794 61.7065C109.319 61.7932 108.826 61.8365 108.298 61.8365C107.563 61.8365 106.888 61.7239 106.283 61.4985C105.677 61.2732 105.149 60.9439 104.717 60.5192C104.284 60.0859 103.947 59.5572 103.705 58.9245C103.463 58.2919 103.342 57.5639 103.342 56.7405C103.342 55.8999 103.463 55.1545 103.696 54.4959C103.93 53.8372 104.267 53.2825 104.691 52.8319C105.123 52.3812 105.634 52.0345 106.248 51.7919C106.853 51.5492 107.537 51.4365 108.298 51.4365C108.929 51.4365 109.466 51.4799 109.881 51.5665C110.305 51.6532 110.608 51.7225 110.798 51.7745C110.781 51.9392 110.746 52.0865 110.711 52.1992C110.677 52.3119 110.625 52.4505 110.556 52.6065C110.426 52.5719 110.287 52.5285 110.158 52.4939C110.019 52.4592 109.864 52.4245 109.699 52.3985C109.526 52.3725 109.327 52.3465 109.102 52.3292C108.878 52.3119 108.609 52.3032 108.307 52.3032C107.71 52.3032 107.182 52.4072 106.706 52.6065C106.231 52.8059 105.833 53.1005 105.495 53.4819C105.167 53.8632 104.907 54.3312 104.726 54.8859C104.544 55.4405 104.457 56.0645 104.457 56.7665C104.457 57.4859 104.561 58.1099 104.76 58.6472C104.959 59.1759 105.245 59.6179 105.599 59.9732C105.954 60.3199 106.378 60.5799 106.853 60.7532C107.329 60.9179 107.848 61.0045 108.402 61.0045C108.878 61.0045 109.301 60.9612 109.691 60.8745C110.08 60.7532 110.409 60.6492 110.668 60.5192Z" fill="#676767"/><path d="M114.673 61.8369C114.102 61.8369 113.592 61.7415 113.159 61.5509C112.727 61.3602 112.363 61.1002 112.078 60.7622C111.793 60.4242 111.576 60.0255 111.438 59.5749C111.299 59.1155 111.23 58.6302 111.23 58.1015C111.23 57.5815 111.299 57.0875 111.438 56.6282C111.576 56.1689 111.793 55.7702 112.078 55.4409C112.363 55.1029 112.727 54.8429 113.159 54.6522C113.592 54.4615 114.093 54.3662 114.673 54.3662C115.244 54.3662 115.746 54.4615 116.178 54.6522C116.611 54.8429 116.965 55.1029 117.251 55.4409C117.536 55.7789 117.752 56.1775 117.899 56.6282C118.046 57.0875 118.116 57.5729 118.116 58.1015C118.116 58.6215 118.046 59.1155 117.899 59.5749C117.752 60.0342 117.536 60.4329 117.251 60.7622C116.965 61.1002 116.611 61.3602 116.178 61.5509C115.746 61.7415 115.244 61.8369 114.673 61.8369ZM114.673 61.0222C115.477 61.0222 116.083 60.7622 116.481 60.2335C116.879 59.7135 117.078 58.9942 117.078 58.0929C117.078 57.1829 116.879 56.4722 116.481 55.9522C116.083 55.4322 115.477 55.1635 114.673 55.1635C113.869 55.1635 113.263 55.4235 112.865 55.9522C112.467 56.4722 112.268 57.1915 112.268 58.0929C112.268 58.9942 112.467 59.7135 112.865 60.2335C113.263 60.7622 113.869 61.0222 114.673 61.0222Z" fill="#676767"/><path d="M119.681 54.5221C119.759 54.5134 119.837 54.5048 119.915 54.5048C119.993 54.4961 120.062 54.4961 120.131 54.4961C120.209 54.4961 120.287 54.4961 120.356 54.5048C120.425 54.5134 120.503 54.5134 120.581 54.5221C120.598 54.6868 120.616 54.9034 120.624 55.1548C120.633 55.4061 120.641 55.6228 120.641 55.8134C120.745 55.6488 120.875 55.4754 121.031 55.3021C121.195 55.1288 121.377 54.9728 121.602 54.8341C121.818 54.6954 122.069 54.5828 122.346 54.4874C122.631 54.4008 122.934 54.3574 123.271 54.3574C124.153 54.3574 124.802 54.6001 125.2 55.0941C125.607 55.5881 125.806 56.2728 125.806 57.1568V61.6634C125.745 61.6721 125.658 61.6808 125.555 61.6808C125.451 61.6894 125.364 61.6894 125.304 61.6894C125.252 61.6894 125.174 61.6894 125.062 61.6808C124.949 61.6721 124.863 61.6721 124.802 61.6634V57.4341C124.802 56.6368 124.672 56.0734 124.404 55.7268C124.136 55.3801 123.738 55.2068 123.202 55.2068C122.847 55.2068 122.519 55.2761 122.207 55.4061C121.896 55.5361 121.628 55.7268 121.403 55.9694C121.178 56.2208 120.996 56.5241 120.866 56.8881C120.737 57.2521 120.667 57.6681 120.667 58.1361V61.6634C120.607 61.6721 120.52 61.6808 120.417 61.6808C120.313 61.6894 120.226 61.6894 120.166 61.6894C120.114 61.6894 120.036 61.6894 119.924 61.6808C119.811 61.6721 119.725 61.6721 119.664 61.6634V54.5221H119.681Z" fill="#676767"/><path d="M132.838 61.6286C132.596 61.6893 132.336 61.7413 132.051 61.7846C131.765 61.8193 131.471 61.8366 131.143 61.8366C130.606 61.8366 130.105 61.776 129.629 61.672C129.153 61.5593 128.747 61.3686 128.392 61.0913C128.037 60.814 127.76 60.45 127.562 59.9993C127.363 59.5486 127.259 58.9853 127.259 58.3093C127.259 57.694 127.354 57.1393 127.553 56.654C127.752 56.1686 128.02 55.7526 128.375 55.4146C128.729 55.0766 129.153 54.8166 129.655 54.626C130.157 54.444 130.701 54.3486 131.307 54.3486C131.592 54.3486 131.843 54.3573 132.068 54.366C132.293 54.3833 132.509 54.4006 132.7 54.4266C132.899 54.4526 133.089 54.4873 133.262 54.522C133.444 54.5566 133.625 54.6086 133.824 54.6606V64.9566C133.764 64.9653 133.677 64.974 133.565 64.974C133.452 64.974 133.374 64.9826 133.322 64.9826C133.262 64.9826 133.175 64.9826 133.072 64.974C132.968 64.9653 132.881 64.9653 132.821 64.9566V61.6286H132.838ZM132.838 55.3106C132.535 55.2586 132.284 55.2153 132.094 55.198C131.895 55.1806 131.662 55.172 131.376 55.172C130.866 55.172 130.416 55.25 130.027 55.406C129.638 55.562 129.317 55.7873 129.067 56.082C128.816 56.368 128.625 56.7146 128.504 57.1046C128.375 57.4946 128.314 57.928 128.314 58.4046C128.314 58.864 128.383 59.254 128.522 59.5833C128.66 59.9126 128.85 60.1813 129.101 60.398C129.352 60.6146 129.646 60.7706 129.984 60.8746C130.321 60.9786 130.693 61.0306 131.108 61.0306C131.437 61.0306 131.765 61.0046 132.077 60.9613C132.388 60.918 132.648 60.8573 132.847 60.7966V55.3106H132.838Z" fill="#676767"/><path d="M135.779 54.5221C135.84 54.5134 135.926 54.5048 136.039 54.5048C136.151 54.4961 136.229 54.4961 136.281 54.4961C136.341 54.4961 136.428 54.4961 136.532 54.5048C136.635 54.5134 136.722 54.5134 136.782 54.5221V58.5434C136.782 59.0461 136.834 59.4621 136.947 59.7828C137.059 60.1034 137.224 60.3548 137.44 60.5368C137.656 60.7188 137.924 60.8488 138.236 60.9181C138.547 60.9874 138.902 61.0221 139.291 61.0221C139.62 61.0221 139.922 61.0048 140.182 60.9701C140.441 60.9354 140.675 60.8921 140.874 60.8401V54.5221C140.934 54.5134 141.021 54.5048 141.133 54.5048C141.246 54.4961 141.324 54.4961 141.376 54.4961C141.436 54.4961 141.523 54.4961 141.626 54.5048C141.73 54.5134 141.817 54.5134 141.877 54.5221V61.4814C141.505 61.5768 141.09 61.6548 140.632 61.7241C140.173 61.7934 139.706 61.8281 139.222 61.8281C138.746 61.8281 138.305 61.7848 137.89 61.6981C137.474 61.6114 137.111 61.4554 136.8 61.2128C136.488 60.9788 136.246 60.6494 136.064 60.2248C135.883 59.8088 135.796 59.2628 135.796 58.5868V54.5221H135.779Z" fill="#676767"/><path d="M144.507 58.2312C144.507 59.1845 144.74 59.8865 145.216 60.3285C145.692 60.7792 146.401 61.0045 147.344 61.0045C147.725 61.0045 148.079 60.9785 148.408 60.9092C148.737 60.8485 149.057 60.7705 149.368 60.6665C149.42 60.7705 149.455 60.8918 149.489 61.0478C149.515 61.1952 149.541 61.3338 149.55 61.4552C149.256 61.5765 148.918 61.6718 148.52 61.7325C148.131 61.8018 147.699 61.8278 147.24 61.8278C146.574 61.8278 146.003 61.7325 145.528 61.5505C145.052 61.3685 144.654 61.1172 144.351 60.7878C144.04 60.4585 143.815 60.0685 143.668 59.6178C143.521 59.1672 143.452 58.6645 143.452 58.1272C143.452 57.6072 143.521 57.1132 143.659 56.6538C143.798 56.1945 144.005 55.7958 144.282 55.4492C144.559 55.1025 144.913 54.8338 145.346 54.6345C145.778 54.4352 146.297 54.3398 146.903 54.3398C147.405 54.3398 147.854 54.4178 148.244 54.5738C148.633 54.7298 148.97 54.9552 149.23 55.2412C149.498 55.5272 149.697 55.8652 149.835 56.2638C149.974 56.6625 150.043 57.0958 150.043 57.5638C150.043 57.6505 150.043 57.7545 150.034 57.8845C150.026 58.0145 150.026 58.1272 150.008 58.2225H144.507V58.2312ZM149.039 57.4685C149.039 57.1825 148.996 56.8965 148.918 56.6105C148.84 56.3332 148.711 56.0818 148.538 55.8738C148.365 55.6658 148.148 55.4925 147.872 55.3625C147.604 55.2325 147.275 55.1632 146.886 55.1632C146.185 55.1632 145.631 55.3625 145.242 55.7612C144.853 56.1598 144.611 56.7232 144.533 57.4598H149.039V57.4685Z" fill="#676767"/><path d="M151.574 54.5221C151.652 54.5134 151.73 54.5048 151.808 54.5048C151.885 54.4961 151.955 54.4961 152.024 54.4961C152.102 54.4961 152.179 54.4961 152.249 54.5048C152.318 54.5134 152.396 54.5134 152.474 54.5221C152.491 54.6868 152.508 54.8861 152.517 55.1201C152.525 55.3454 152.534 55.5534 152.534 55.7441C152.733 55.3974 153.019 55.1028 153.382 54.8688C153.745 54.6348 154.221 54.5134 154.818 54.5134C154.87 54.5134 154.922 54.5134 154.973 54.5134C155.025 54.5134 155.095 54.5221 155.164 54.5308C155.198 54.6868 155.207 54.8428 155.207 54.9814C155.207 55.1288 155.19 55.2761 155.164 55.4148C155.086 55.4061 155.017 55.3974 154.973 55.3974C154.93 55.3974 154.878 55.3974 154.826 55.3974C154.143 55.3974 153.589 55.5968 153.183 56.0041C152.768 56.4028 152.56 57.0701 152.56 58.0061V61.6721C152.5 61.6808 152.413 61.6894 152.309 61.6894C152.205 61.6981 152.119 61.6981 152.058 61.6981C152.006 61.6981 151.929 61.6981 151.816 61.6894C151.704 61.6808 151.617 61.6808 151.557 61.6721V54.5221H151.574Z" fill="#676767"/><path d="M156.842 58.2312C156.842 59.1845 157.075 59.8865 157.551 60.3285C158.027 60.7792 158.736 61.0045 159.679 61.0045C160.06 61.0045 160.414 60.9785 160.743 60.9092C161.072 60.8485 161.392 60.7705 161.703 60.6665C161.755 60.7705 161.79 60.8918 161.824 61.0478C161.859 61.1952 161.876 61.3338 161.885 61.4552C161.591 61.5765 161.253 61.6718 160.855 61.7325C160.466 61.8018 160.034 61.8278 159.575 61.8278C158.909 61.8278 158.338 61.7325 157.862 61.5505C157.387 61.3685 156.989 61.1172 156.686 60.7878C156.383 60.4585 156.15 60.0685 156.003 59.6178C155.856 59.1672 155.786 58.6645 155.786 58.1272C155.786 57.6072 155.856 57.1132 155.994 56.6538C156.132 56.1945 156.34 55.7958 156.617 55.4492C156.894 55.1025 157.248 54.8338 157.681 54.6345C158.113 54.4352 158.632 54.3398 159.238 54.3398C159.74 54.3398 160.189 54.4178 160.579 54.5738C160.968 54.7298 161.297 54.9552 161.565 55.2412C161.833 55.5272 162.032 55.8652 162.17 56.2638C162.309 56.6625 162.378 57.0958 162.378 57.5638C162.378 57.6505 162.378 57.7545 162.369 57.8845C162.36 58.0145 162.36 58.1272 162.343 58.2225H156.842V58.2312ZM161.374 57.4685C161.374 57.1825 161.331 56.8965 161.253 56.6105C161.175 56.3332 161.046 56.0818 160.873 55.8738C160.7 55.6658 160.483 55.4925 160.207 55.3625C159.938 55.2325 159.61 55.1632 159.221 55.1632C158.52 55.1632 157.966 55.3625 157.577 55.7612C157.188 56.1598 156.946 56.7232 156.868 57.4598H161.374V57.4685Z" fill="#676767"/><path d="M169.09 51.3673C169.151 51.3586 169.237 51.35 169.35 51.35C169.462 51.3413 169.54 51.3413 169.592 51.3413C169.652 51.3413 169.739 51.3413 169.843 51.35C169.947 51.3586 170.033 51.3586 170.094 51.3673V61.49C169.782 61.5853 169.393 61.6633 168.926 61.7326C168.459 61.802 167.983 61.828 167.473 61.828C166.919 61.828 166.4 61.7673 165.916 61.646C165.431 61.5246 165.016 61.3253 164.661 61.0393C164.307 60.762 164.03 60.3893 163.822 59.93C163.615 59.4706 163.511 58.9073 163.511 58.2313C163.511 57.616 163.606 57.07 163.779 56.5846C163.961 56.108 164.22 55.7006 164.549 55.3626C164.878 55.0333 165.284 54.7733 165.751 54.6C166.218 54.4266 166.737 54.3313 167.3 54.3313C167.628 54.3313 167.957 54.3573 168.286 54.4093C168.614 54.4613 168.874 54.522 169.082 54.5826V51.3673H169.09ZM169.09 55.4753C168.891 55.3973 168.632 55.3366 168.32 55.276C168.009 55.2153 167.689 55.1893 167.352 55.1893C166.876 55.1893 166.469 55.2673 166.123 55.4146C165.777 55.562 165.483 55.77 165.258 56.0386C165.025 56.3073 164.852 56.628 164.739 57.0006C164.627 57.3733 164.566 57.7806 164.566 58.2313C164.566 59.202 164.817 59.9126 165.31 60.3546C165.812 60.7966 166.512 61.022 167.429 61.022C167.758 61.022 168.078 61.0046 168.381 60.97C168.684 60.9353 168.917 60.9006 169.09 60.8486V55.4753Z" fill="#676767"/><path d="M171.668 61.6632C171.633 61.4638 171.625 61.2732 171.625 61.0738C171.625 60.8658 171.642 60.6665 171.668 60.4672C171.875 60.4412 172.092 60.4238 172.299 60.4238C172.524 60.4238 172.74 60.4412 172.948 60.4672C172.983 60.6665 172.991 60.8572 172.991 61.0565C172.991 61.2645 172.974 61.4638 172.948 61.6545C172.74 61.6805 172.524 61.6978 172.317 61.6978C172.1 61.7065 171.884 61.6978 171.668 61.6632Z" fill="#676767"/><path d="M0.0778809 17.7235C0.294131 17.6975 0.553631 17.6802 0.865031 17.6628C1.16778 17.6455 1.44458 17.6455 1.68678 17.6455C1.96358 17.6455 2.24038 17.6542 2.51718 17.6628C2.79398 17.6802 3.03618 17.6975 3.25243 17.7235V48.3168C3.03618 48.3428 2.79398 48.3688 2.51718 48.3862C2.24038 48.3948 1.96358 48.4035 1.68678 48.4035C1.38403 48.4035 1.08128 48.3948 0.795831 48.3862C0.510381 48.3688 0.268181 48.3428 0.0865309 48.3168V17.7235H0.0778809Z" fill="#F16823"/><path d="M24.4622 26.624C24.7044 26.598 24.9466 26.572 25.1715 26.5547C25.3964 26.5373 25.6213 26.5373 25.8376 26.5373C26.0798 26.5373 26.3133 26.546 26.5209 26.5547C26.7372 26.5633 26.9621 26.5893 27.2129 26.624C27.2735 27.1353 27.3167 27.768 27.3513 28.5307C27.3773 29.2933 27.3946 29.9607 27.3946 30.5327C27.6973 30.0213 28.0952 29.51 28.5883 28.9813C29.0813 28.4527 29.6522 27.976 30.3096 27.5513C30.967 27.1267 31.7282 26.78 32.5759 26.5113C33.4323 26.2427 34.3665 26.104 35.3785 26.104C38.0687 26.104 40.0236 26.8493 41.2519 28.34C42.4715 29.8307 43.0857 31.9193 43.0857 34.6147V48.3167C42.904 48.3427 42.6532 48.3687 42.3245 48.386C42.0044 48.3947 41.7536 48.4033 41.5719 48.4033C41.4249 48.4033 41.174 48.3947 40.8367 48.386C40.4993 48.3687 40.2398 48.3427 40.0582 48.3167V35.4727C40.0582 33.0633 39.6516 31.33 38.8472 30.2813C38.0341 29.2327 36.8231 28.7127 35.1969 28.7127C34.1243 28.7127 33.1209 28.912 32.1694 29.302C31.2179 29.7007 30.4048 30.2727 29.7128 31.0267C29.0294 31.772 28.4845 32.708 28.0866 33.8173C27.6887 34.9267 27.4897 36.1833 27.4897 37.6047V48.3253C27.3081 48.3513 27.0572 48.3773 26.7372 48.3947C26.4171 48.4033 26.1576 48.412 25.976 48.412C25.8203 48.412 25.5781 48.4033 25.2407 48.3947C24.9034 48.3773 24.6439 48.3513 24.4622 48.3253V26.624Z" fill="#F16823"/><path d="M69.9698 26.6238C70.1515 26.5978 70.385 26.5718 70.6791 26.5544C70.9646 26.5371 71.2673 26.5371 71.5701 26.5371C71.8123 26.5371 72.115 26.5458 72.4697 26.5544C72.8243 26.5631 73.0838 26.5891 73.2741 26.6238L78.4555 45.0924L84.2337 26.6238C84.4759 26.5978 84.744 26.5718 85.0381 26.5544C85.3322 26.5371 85.6437 26.5371 85.981 26.5371C86.2232 26.5371 86.474 26.5371 86.7335 26.5371C86.993 26.5371 87.2526 26.5631 87.4947 26.6238L93.2729 44.8324L98.4543 26.6238C98.6359 26.5978 98.8608 26.5718 99.1203 26.5544C99.3798 26.5371 99.6307 26.5371 99.8815 26.5371C100.124 26.5371 100.401 26.5458 100.703 26.5544C101.006 26.5631 101.257 26.5891 101.439 26.6238L94.6915 48.3251C94.1379 48.4031 93.6017 48.4551 93.0913 48.4551C92.5031 48.4551 91.9755 48.4118 91.4824 48.3251L85.8426 30.3678L79.926 48.3164C79.3724 48.3944 78.8361 48.4464 78.3171 48.4464C77.7375 48.4464 77.2013 48.4031 76.7169 48.3164L69.9698 26.6238Z" fill="#F16823"/><path d="M105.366 17.7232C105.668 17.6972 106.101 17.6539 106.672 17.5932C107.234 17.5412 107.84 17.4806 108.48 17.4199C109.12 17.3592 109.768 17.3159 110.435 17.2899C111.083 17.2639 111.671 17.2466 112.199 17.2466C115.806 17.2466 118.574 17.8879 120.503 19.1879C122.423 20.4706 123.392 22.4812 123.392 25.2026C123.392 26.0866 123.254 26.8926 122.96 27.6032C122.666 28.3312 122.276 28.9812 121.792 29.5619C121.308 30.1512 120.728 30.6452 120.071 31.0266C119.413 31.4252 118.73 31.7286 118.029 31.9279C118.981 32.0406 119.898 32.2746 120.789 32.6299C121.671 32.9852 122.458 33.4792 123.15 34.1206C123.833 34.7532 124.387 35.5506 124.794 36.5039C125.2 37.4572 125.416 38.5926 125.416 39.9272C125.416 41.4612 125.088 42.7786 124.43 43.8879C123.773 44.9972 122.856 45.9159 121.68 46.6526C120.503 47.3892 119.11 47.9352 117.502 48.2906C115.893 48.6459 114.145 48.8192 112.251 48.8192C111.767 48.8192 111.213 48.8106 110.599 48.7759C109.985 48.7499 109.371 48.7152 108.739 48.6719C108.116 48.6286 107.502 48.5766 106.905 48.4986C106.308 48.4292 105.798 48.3599 105.374 48.3079V17.7232H105.366ZM112.891 30.7492C115.365 30.7492 117.182 30.2379 118.323 29.2152C119.474 28.2012 120.045 26.8666 120.045 25.2112C120.045 23.6772 119.439 22.3946 118.237 21.3632C117.026 20.3319 115.123 19.8119 112.528 19.8119C111.732 19.8119 110.979 19.8466 110.253 19.8986C109.535 19.9506 108.964 20.0112 108.532 20.0719V30.7492H112.891ZM108.532 45.9419C108.955 46.0026 109.535 46.0546 110.253 46.0892C110.971 46.1326 111.723 46.1499 112.528 46.1499C113.722 46.1499 114.889 46.0459 116.04 45.8552C117.19 45.6559 118.202 45.3179 119.093 44.8326C119.975 44.3559 120.685 43.7146 121.221 42.9172C121.757 42.1286 122.026 41.1319 122.026 39.9359C122.026 38.7486 121.792 37.7432 121.334 36.9372C120.875 36.1312 120.252 35.4639 119.448 34.9526C118.652 34.4412 117.718 34.0772 116.654 33.8432C115.581 33.6179 114.431 33.5052 113.211 33.5052H108.532V45.9419Z" fill="#F16823"/><path d="M132.042 37.8992C132.042 40.7852 132.769 42.9172 134.205 44.2779C135.632 45.6385 137.794 46.3145 140.666 46.3145C141.825 46.3145 142.907 46.2192 143.901 46.0372C144.896 45.8465 145.874 45.6039 146.808 45.2919C146.963 45.6039 147.085 45.9852 147.18 46.4359C147.275 46.8952 147.327 47.3025 147.361 47.6665C146.47 48.0392 145.432 48.3165 144.239 48.5159C143.045 48.7152 141.756 48.8105 140.338 48.8105C138.322 48.8105 136.583 48.5419 135.139 47.9785C133.686 47.4239 132.492 46.6525 131.566 45.6645C130.624 44.6679 129.94 43.4805 129.499 42.1112C129.058 40.7332 128.842 39.2252 128.842 37.5785C128.842 35.9839 129.049 34.5019 129.465 33.1152C129.871 31.7199 130.494 30.4979 131.342 29.4579C132.181 28.4005 133.253 27.5772 134.577 26.9879C135.891 26.3899 137.457 26.0952 139.3 26.0952C140.822 26.0952 142.18 26.3379 143.374 26.8232C144.567 27.2999 145.571 27.9759 146.384 28.8425C147.188 29.7092 147.794 30.7405 148.218 31.9452C148.633 33.1585 148.832 34.4672 148.832 35.8799C148.832 36.1399 148.823 36.4605 148.806 36.8592C148.789 37.2579 148.771 37.5959 148.745 37.8819H132.042V37.8992ZM145.813 35.5505C145.813 34.6752 145.683 33.8085 145.441 32.9592C145.199 32.1099 144.818 31.3645 144.291 30.7232C143.772 30.0819 143.106 29.5619 142.267 29.1719C141.445 28.7732 140.45 28.5739 139.291 28.5739C137.146 28.5739 135.476 29.1805 134.291 30.4025C133.089 31.6159 132.38 33.3405 132.129 35.5419H145.813V35.5505Z" fill="#F16823"/><path d="M5.39758 32.6645L17.0059 17.7318C17.2481 17.7058 17.4989 17.6885 17.7584 17.6711C18.0179 17.6538 18.2688 17.6538 18.511 17.6538C18.8483 17.6538 19.1684 17.6625 19.4711 17.6711C19.7825 17.6885 20.0939 17.7058 20.4313 17.7318L9.16033 32.3611L22.1872 48.3165C21.8499 48.3425 21.5039 48.3685 21.1579 48.3858C20.8032 48.3945 20.4659 48.4031 20.1285 48.4031C19.8517 48.4031 19.5663 48.3945 19.2808 48.3858C18.9867 48.3685 18.7099 48.3425 18.4331 48.3165L5.39758 32.6645Z" fill="#F16823"/><path d="M69.5287 37.1713C69.5287 30.7927 64.3646 25.6187 57.9982 25.6187C51.6318 25.6187 46.4678 30.7927 46.4678 37.1713C46.4678 43.55 51.6318 48.724 57.9982 48.724C64.3646 48.724 69.5287 43.55 69.5287 37.1713Z" fill="url(#paint0_radial_1210_212)"/><path opacity="0.64" d="M49.3569 33.5575C49.3569 37.3102 53.258 40.3522 58.0674 40.3522C62.8768 40.3522 66.7866 37.3102 66.7866 33.5575C66.7866 29.8135 62.8855 26.7715 58.0674 26.7715C53.258 26.7715 49.3569 29.8135 49.3569 33.5575Z" fill="white"/><path d="M64.6241 31.4255C63.0844 29.7008 60.9652 28.6782 58.6643 28.5395C56.3547 28.4095 54.1317 29.1808 52.4103 30.7235C50.8793 32.0928 49.8932 33.9215 49.6077 35.9408L48.0421 35.8888L50.3084 39.8928L53.1456 36.0708L51.3896 36.0102C51.6578 34.4848 52.4103 33.0982 53.5867 32.0582C54.9621 30.8362 56.7267 30.2122 58.5605 30.3248C60.3943 30.4375 62.081 31.2435 63.3007 32.6215C64.529 33.9995 65.1431 35.7675 65.0307 37.6135C64.9269 39.4508 64.1051 41.1408 62.7384 42.3628L63.9148 43.6802C65.6448 42.1462 66.6655 40.0228 66.8039 37.7088C66.9423 35.3948 66.1638 33.1675 64.6241 31.4255Z" fill="white"/><path d="M64.6241 31.2346C63.0844 29.5099 60.9652 28.4786 58.6643 28.3486C56.3547 28.2186 54.1317 28.9899 52.4103 30.5326C50.8793 31.9019 49.8932 33.7306 49.6077 35.7413L48.0421 35.6893L50.3084 39.7019L53.1456 35.8713L51.3896 35.8106C51.6578 34.2853 52.4103 32.8986 53.5867 31.8499C54.9621 30.6279 56.7267 30.0126 58.5605 30.1166C60.3943 30.2206 62.081 31.0439 63.3007 32.4219C64.529 33.7999 65.1431 35.5679 65.0307 37.4053C64.9269 39.2426 64.1051 40.9326 62.7384 42.1546L63.9148 43.4806C65.6448 41.9379 66.6655 39.8233 66.8039 37.5093C66.9423 35.1953 66.1638 32.9679 64.6241 31.2346Z" fill="url(#paint1_radial_1210_212)"/><path d="M149.982 41.6431L149.654 41.2185L163.407 17.7491C163.978 17.5585 164.419 17.4805 164.904 17.4805C165.855 17.4891 166.071 17.6018 166.495 17.7231L154.022 39.1558H164.878V29.8998C165.423 29.8131 165.95 29.7785 166.435 29.7785C166.928 29.7785 167.429 29.8218 167.948 29.8998V39.1645H172.853C172.939 39.6498 172.991 39.9011 172.991 40.3258C172.991 40.7765 172.939 41.2185 172.853 41.6431H167.948V48.4378C167.68 48.4985 167.403 48.5245 167.144 48.5245C166.884 48.5245 166.634 48.5245 166.383 48.5245C166.149 48.5245 165.89 48.5245 165.63 48.5245C165.371 48.5245 165.111 48.4985 164.869 48.4378V41.6431H149.982Z" fill="#F16823"/><defs><radialGradient id="paint0_radial_1210_212" cx="0" cy="0" r="1" gradientUnits="userSpaceOnUse" gradientTransform="translate(57.8574 41.2164) scale(10.0073 10.0266)"><stop offset="0.1476" stop-color="white"/><stop offset="0.3347" stop-color="#FAFAFA"/><stop offset="0.5518" stop-color="#ECECED"/><stop offset="0.7829" stop-color="#D5D6D7"/><stop offset="0.981" stop-color="#BBBCBE"/></radialGradient><radialGradient id="paint1_radial_1210_212" cx="0" cy="0" r="1" gradientUnits="userSpaceOnUse" gradientTransform="translate(57.4269 35.9064) scale(8.5244 8.54083)"><stop stop-color="white"/><stop offset="1"/></radialGradient></defs></svg>