<svg width="173" height="38" fill="none" xmlns="http://www.w3.org/2000/svg"><g clip-path="url(#clip0_1210_203)"><path d="M170.913 8.97427C171.231 8.97427 171.588 8.99101 171.588 8.56691C171.588 8.22601 171.31 8.17629 171.057 8.17629H170.532V8.97478L170.913 8.97427ZM170.534 10.3313H170.204V7.90134H171.134C171.68 7.90134 171.917 8.13825 171.917 8.57249C171.917 9.00268 171.639 9.18987 171.356 9.25075L172.034 10.3313H171.665L171.008 9.25075H170.543L170.534 10.3313ZM172.668 9.11276C172.668 8.12709 171.939 7.34433 170.962 7.34433C169.985 7.34433 169.255 8.12709 169.255 9.11276C169.255 10.0984 169.985 10.8812 170.962 10.8812C171.939 10.8812 172.668 10.0949 172.668 9.11073V9.11276ZM172.998 9.11276C172.997 9.65456 172.782 10.1738 172.4 10.5569C172.018 10.94 171.501 11.1558 170.961 11.1572C169.834 11.1572 168.924 10.2369 168.924 9.11276C168.924 7.98859 169.834 7.06836 170.961 7.06836C171.501 7.0697 172.018 7.28552 172.4 7.66863C172.782 8.05174 172.997 8.57096 172.998 9.11276Z" fill="#231F20"/><path d="M154.492 26.305C154.349 27.6078 154.275 28.2622 153.843 29.2803C155.066 30.2264 156.658 31.2405 159.402 31.2405C164.598 31.2405 167.696 27.7513 167.696 23.6138C167.696 16.1282 157.082 18.7453 157.082 12.4254C157.082 9.95183 158.892 8.20978 161.414 8.20978C163.941 8.20978 164.952 10.101 165.457 11.4073H165.816C166.104 10.101 166.321 9.29894 166.751 8.50046C165.376 7.48232 163.86 6.97705 161.768 6.97705C157.29 6.97705 154.399 9.58962 154.399 13.369C154.399 21.3619 165.012 18.6717 165.012 24.9242C165.012 27.6078 163.208 29.7891 160.246 29.7891C157.36 29.7891 155.622 27.902 154.904 26.3091H154.464L154.492 26.305ZM149.992 19.1156C149.992 26.5982 145.948 30.0123 140.682 30.0123C135.41 30.0123 131.367 26.5982 131.367 19.1156C131.367 11.562 135.41 8.21891 140.677 8.21891C145.943 8.21891 149.992 11.562 149.992 19.1207V19.1156ZM128.042 19.1207C128.042 26.8214 133.246 31.2552 140.68 31.2552C148.115 31.2552 153.316 26.8214 153.316 19.1207C153.316 11.4199 148.12 6.98618 140.685 6.98618C133.251 6.98618 128.05 11.4149 128.05 19.1156L128.042 19.1207ZM126.253 31.2496C126.18 29.7277 126.106 22.2451 126.106 18.7549C126.106 16.1373 126.47 9.38518 126.686 7.42195C126.252 7.49297 125.964 7.56906 125.605 7.56906C125.241 7.56906 124.806 7.49804 124.444 7.42702C124.735 12.6572 124.735 19.2724 124.735 25.3041C120.621 21.1595 113.11 12.9515 107.627 6.99582H107.121C107.192 8.51771 107.192 11.7898 107.192 16.0764C107.192 20.5051 106.757 29.2255 106.469 30.8286C106.905 30.7576 107.339 30.6815 107.77 30.6815C108.129 30.6815 108.569 30.7576 108.928 30.8336C108.781 29.4538 108.637 22.3334 108.637 19.4246C108.637 15.7923 108.713 13.7581 108.713 12.5203C114.485 18.6991 120.625 25.1672 125.75 31.2648H126.256L126.253 31.2496ZM101.49 19.1303C101.49 26.6129 97.3763 30.027 92.1048 30.027C86.8333 30.027 82.79 26.6129 82.79 19.1303C82.79 11.5726 86.8333 8.23058 92.1048 8.23058C97.3763 8.23058 101.49 11.5737 101.49 19.1308V19.1303ZM79.4694 19.1308C79.4694 26.8316 84.6701 31.2638 92.1048 31.2638C99.5394 31.2638 104.735 26.8311 104.735 19.1308C104.735 11.4301 99.5394 6.99836 92.1048 6.99836C84.6701 6.99836 79.4694 11.4286 79.4694 19.1298" fill="#100F0D"/><path d="M66.9235 16.2019C66.9235 13.7314 67.0685 11.2609 67.1393 8.79136C67.861 8.71781 68.8714 8.64679 70.3891 8.64679C72.6989 8.64679 75.6606 9.51933 75.6606 13.078C75.6606 17.148 71.9771 18.3103 69.1595 18.3103C68.2977 18.3103 67.5724 18.2362 66.9235 18.0901V16.2019ZM64.1811 22.0166C64.1811 24.9198 64.0361 27.9002 63.893 30.808C64.4692 30.7344 64.9746 30.6578 65.5508 30.6578C66.0572 30.6578 66.6324 30.7339 67.2116 30.8085C67.0686 27.9017 66.9235 24.9239 66.9235 22.0171V19.5465H68.2214C71.1124 22.5345 75.5903 28.7032 76.96 30.8136C77.612 30.7426 78.2589 30.6665 78.9109 30.6665C79.5629 30.6665 80.2857 30.7426 80.9326 30.8187C78.9867 28.6424 73.3514 21.3018 71.6987 19.2625C74.2257 18.9023 78.6279 17.1572 78.6279 12.7285C78.6279 8.731 75.3781 7.42725 71.6228 7.42725C70.329 7.42725 69.025 7.57436 67.7261 7.57436C66.503 7.57436 65.2041 7.50334 63.9052 7.43232C64.0517 10.3391 64.1932 13.2459 64.1932 16.2238V22.0166H64.1811ZM45.9276 22.0876V16.2709C45.9276 13.3692 45.781 10.4614 45.6395 7.62814C46.2207 7.7022 46.7261 7.77424 47.3023 7.77424C47.8077 7.77424 48.3131 7.7022 48.8943 7.62814C48.7478 10.4614 48.677 13.3687 48.677 16.2709V18.1621C48.677 18.3092 48.7478 18.3803 48.8236 18.3803C48.9691 18.3803 49.0409 18.3092 49.329 18.0896C52.4373 15.3958 56.2582 11.1904 59.3665 7.62408C59.7977 7.6951 60.2308 7.77119 60.7362 7.77119C61.2416 7.77119 61.8178 7.70017 62.3283 7.62408C59.2958 10.3127 54.0243 15.2487 51.6438 18.0845C55.2525 22.153 58.9344 26.4346 62.6871 30.7263C62.0382 30.6502 61.3882 30.5792 60.6654 30.5792C60.0893 30.5792 59.4373 30.6502 58.8611 30.7263C55.6841 26.7999 50.633 20.6261 49.1875 19.1701C49.0409 19.0281 48.8994 18.952 48.8236 18.952C48.7528 18.952 48.6821 19.023 48.6821 19.094V22.0719C48.6821 24.9026 48.7528 27.8855 48.8994 30.7162C48.3197 30.6401 47.8127 30.5691 47.3094 30.5691C46.7332 30.5691 46.2278 30.6401 45.6481 30.7162C45.7896 27.8804 45.9382 24.8975 45.9382 22.0668" fill="#100F0D"/><path d="M0.290108 15.3999H16.4614C16.8202 15.3999 21.0834 15.6211 22.8144 13.1526C24.6188 10.6785 29.7472 3.41504 29.7472 3.41504C30.104 3.63064 30.104 3.70623 30.3926 3.92589C30.3926 3.92589 21.8056 15.9843 21.8056 16.0553C20.2879 18.0845 17.8331 18.5969 15.8862 18.5969H0C0 17.7243 0.0732852 16.4865 0.290108 15.3958V15.3999ZM37.758 19.0332C37.758 23.8271 36.1003 28.2558 32.994 31.5278L26.0642 21.8694C25.4123 20.9969 24.2564 19.543 22.3798 19.0362C24.2564 18.4538 25.4123 17.0019 26.0642 16.2019L32.9935 6.46592C36.1003 9.73797 37.758 14.1667 37.758 19.0367" fill="#F03B25"/><path d="M1.51774 11.407H15.3798C18.9854 11.407 19.6389 10.3889 20.5739 9.37377C20.6472 9.37377 26.2083 1.45235 26.2083 1.45235C26.2083 1.45235 26.5702 1.59845 27.0003 1.8176C27.0003 1.8176 23.7504 6.46595 19.5656 12.2806C18.9161 13.1531 17.6865 14.606 15.305 14.606H0.506409C0.797022 13.3692 1.22915 12.2806 1.51724 11.407H1.51774ZM4.6215 6.539H12.42C13.7907 6.539 14.5842 5.23018 15.0897 4.7239C15.0897 4.79492 18.483 0.000976562 18.483 0.000976562C13.7907 0.071998 8.51976 1.96117 4.6215 6.5385" fill="#F03B25"/><path d="M3.89877 7.4115H14.5135C17.0375 7.48252 18.5518 5.30622 18.5518 5.30622L22.1655 0.289062L23.1015 0.436178C23.1015 0.436178 17.7603 7.91879 17.6865 7.99286C16.5321 9.80745 15.306 10.4624 13.7908 10.5369H1.9509C2.16722 9.95356 3.03249 8.49762 3.89877 7.412V7.4115ZM0.290108 22.5999H16.4614C16.8202 22.5999 21.0834 22.4528 22.8144 24.8523C24.6188 27.3178 29.7472 34.5863 29.7472 34.5863C30.104 34.3682 30.104 34.2921 30.3926 34.0755C30.3926 34.0755 21.8056 22.017 21.8056 21.946C20.2879 19.9118 17.8331 19.4045 15.8862 19.4045H0C0 20.2821 0.0732852 21.5098 0.290108 22.6055" fill="#F03B25"/><path d="M1.51774 26.5874H15.3798C18.9854 26.5874 19.6389 27.6106 20.5739 28.6231C20.6472 28.6231 26.2083 36.5461 26.2083 36.5461C26.2083 36.5461 26.5702 36.404 27.0003 36.1859C27.0003 36.1859 23.7504 31.534 19.5656 25.7255C18.9161 24.8529 17.6865 23.397 15.305 23.397C15.305 23.4731 0.506409 23.397 0.506409 23.397C0.796517 24.6398 1.22915 25.7255 1.51724 26.5929L1.51774 26.5874ZM4.6215 31.468H12.42C13.7907 31.468 14.5842 32.7769 15.0897 33.2842L18.483 38.0122C13.7907 37.9361 8.51976 36.0489 4.6215 31.4731" fill="#F03B25"/><path d="M3.8988 30.5878H14.5135C17.0376 30.5878 18.5518 32.6972 18.5518 32.6972L22.1655 37.7082L23.1015 37.5611C23.1015 37.5611 17.7603 30.08 17.6865 30.0065C16.5322 28.1883 15.306 27.537 13.7908 27.4629H1.95093C2.38356 28.3344 3.03252 29.4992 3.8988 30.5878Z" fill="#F03B25"/></g><defs><clipPath id="clip0_1210_203"><rect width="173" height="38" fill="white"/></clipPath></defs></svg>