<svg width="200" height="37" fill="none" xmlns="http://www.w3.org/2000/svg"><path d="M54.0699 26.9286C51.9349 27.0087 49.8799 27.0353 48.0117 27.0353C43.5014 27.0353 39.258 26.7952 39.258 21.164V0.374023H42.1937V19.536C42.1937 23.726 42.9944 24.5801 47.905 24.5801H54.0699V26.9286Z" fill="#7F9FB4"/><path d="M56.4718 2.42868C56.4718 0.934151 56.8455 0.400391 58.1265 0.400391C59.4075 0.400391 59.8078 0.934151 59.8078 2.42868C59.8078 3.92321 59.4609 4.43028 58.1265 4.43028C56.7921 4.43028 56.4718 3.92321 56.4718 2.42868ZM56.7654 6.6187H59.5143V26.955H56.7387V6.6187H56.7654Z" fill="#7F9FB4"/><path d="M73.6855 25.2464C73.1784 26.5808 72.5379 27.2213 71.5238 27.2213C70.4563 27.2213 69.7891 26.5808 69.282 25.2464L62.1296 6.61816H65.092L71.5772 23.912L78.1424 6.61816H80.9713L73.6855 25.2464Z" fill="#7F9FB4"/><path d="M81.5318 16.7866C81.5318 9.42068 83.7469 6.35156 90.4189 6.35156C97.3044 6.35156 99.1726 9.95444 99.1726 15.5055C99.1726 16.066 99.1459 16.84 99.1192 17.4271C96.7973 17.8274 91.9668 18.2811 89.1379 18.3879L84.334 18.5747C84.681 22.738 85.9353 24.873 91.0594 24.873C93.7015 24.873 96.1568 24.5795 98.2385 24.3126L98.4787 26.5544C96.1568 26.9013 93.8083 27.2216 89.9652 27.2216C83.2932 27.2216 81.5318 22.8181 81.5318 16.7866ZM89.6183 16.2261C91.4064 16.1461 94.4488 15.9059 96.317 15.6657C96.3437 15.2654 96.3703 14.6515 96.3703 14.2512C96.3703 10.8085 94.8758 8.62004 90.4189 8.62004C85.2948 8.62004 84.2273 11.2355 84.2273 16.493L89.6183 16.2261Z" fill="#7F9FB4"/><path d="M108.754 26.9546H103.363V0.827021C105.658 0.400013 108.834 0.106445 112.01 0.106445C117.881 0.106445 122.685 1.28072 122.685 8.45979C122.685 13.1569 120.71 15.372 117.587 16.3328L123.672 26.9813H117.454L112.01 16.9466C110.915 16.9466 109.688 16.8932 108.754 16.8398V26.9546ZM108.754 12.5164C109.848 12.6498 110.942 12.6498 112.036 12.6498C115.372 12.6498 117.347 11.7958 117.347 8.40642C117.347 5.47074 116.013 4.29646 112.143 4.29646C111.076 4.29646 109.848 4.37653 108.754 4.53665V12.5164Z" fill="#7F9FB4"/><path d="M125.274 20.7361C125.274 17.1332 126.848 14.9181 130.905 14.2776C133.04 13.9306 135.175 13.8506 137.417 13.7705C137.417 11.422 136.322 10.3811 133.68 10.3811C131.225 10.3811 128.556 10.648 126.501 10.9149L126.101 7.15188C128.236 6.77825 131.092 6.37793 134.081 6.37793C138.618 6.37793 142.381 7.63227 142.381 12.9165V21.4833C142.381 22.8711 142.327 24.0454 142.22 25.3531C139.872 26.7142 136.803 27.248 133.147 27.248C127.489 27.2213 125.274 25.0595 125.274 20.7361ZM137.417 17.0798C135.895 17.1599 134.134 17.2133 132.72 17.5335C130.931 17.9605 130.264 18.5477 130.264 20.6827C130.264 22.8177 131.492 23.3782 133.707 23.3782C134.828 23.3782 136.189 23.2981 137.283 22.8177C137.363 21.9904 137.417 21.003 137.417 20.0956V17.0798Z" fill="#7F9FB4"/><path d="M150.681 26.9545H145.637V12.0893C145.637 10.7015 145.69 9.52727 145.797 8.21956C148.065 7.0186 151.241 6.32471 154.39 6.32471C156.632 6.32471 158.207 6.75172 159.301 7.49898C161.116 6.80509 163.357 6.32471 165.519 6.32471C172.031 6.32471 172.992 9.82084 172.992 13.9842V26.9279H167.948V14.4379C167.948 11.7958 167.307 10.3813 164.478 10.3813C163.678 10.3813 162.503 10.5948 161.569 11.0485C161.783 11.9559 161.836 12.9433 161.836 13.9575V26.9012H156.792V14.4112C156.792 11.8224 156.178 10.3546 153.403 10.3546C152.522 10.3546 151.428 10.5948 150.814 10.8884C150.734 11.7157 150.681 12.7031 150.681 13.6105V26.9545Z" fill="#7F9FB4"/><path d="M181.692 36.4822H176.648V12.0893C176.648 10.7015 176.701 9.52727 176.808 8.21956C179.103 6.88516 182.226 6.32471 185.001 6.32471C191.78 6.32471 194.636 8.78001 194.636 16.7597C194.636 24.6327 191.86 27.1947 185.588 27.1947C184.361 27.1947 182.92 27.0346 181.719 26.7677V36.4822H181.692ZM184.548 23.2449C189.405 23.2449 189.512 20.496 189.512 16.8131C189.512 13.5038 189.325 10.3546 184.975 10.3546C183.854 10.3546 182.573 10.5414 181.799 10.8884C181.719 11.7157 181.665 12.7031 181.665 13.6105V22.8179C182.546 23.0581 183.667 23.2449 184.548 23.2449Z" fill="#7F9FB4"/><path d="M8.27328 27.542L0 36.2423H10.7019L8.27328 27.542Z" fill="#7F9FB4"/><path d="M9.9013 27.2749L12.41 36.2421H34.4543V33.173L9.9013 27.2749Z" fill="#3A7D3D"/><path d="M10.8888 25.8343L34.4276 31.4922V17.6411L10.8888 25.8343Z" fill="#73BF69"/><path d="M11.7962 23.779L34.4276 15.9061V0L11.7962 23.779Z" fill="#A2D296"/><path d="M200 8.61993C200 8.9135 199.947 9.18038 199.84 9.42057C199.733 9.66077 199.6 9.87427 199.413 10.0344C199.226 10.1945 199.039 10.328 198.799 10.4347C198.559 10.5415 198.319 10.5682 198.052 10.5682C197.758 10.5682 197.518 10.5148 197.278 10.408C197.038 10.3013 196.824 10.1678 196.664 9.98102C196.504 9.7942 196.37 9.60739 196.264 9.3672C196.157 9.127 196.13 8.86012 196.13 8.59324C196.13 8.29968 196.184 8.03279 196.29 7.7926C196.397 7.55241 196.531 7.33891 196.717 7.17878C196.904 7.01865 197.091 6.88521 197.331 6.77846C197.571 6.67171 197.812 6.64502 198.078 6.64502C198.345 6.64502 198.586 6.6984 198.826 6.77846C199.066 6.85852 199.253 7.01865 199.44 7.17878C199.626 7.33891 199.76 7.55241 199.867 7.7926C199.947 8.05948 200 8.32636 200 8.61993ZM199.573 8.61993C199.573 8.37974 199.546 8.16624 199.466 7.95273C199.386 7.73923 199.279 7.5791 199.146 7.44566C199.013 7.31222 198.852 7.17878 198.666 7.09871C198.479 7.01865 198.292 6.99196 198.078 6.99196C197.865 6.99196 197.651 7.01865 197.491 7.09871C197.305 7.17878 197.144 7.28553 197.011 7.44566C196.878 7.60579 196.771 7.76592 196.691 7.95273C196.611 8.16624 196.584 8.37974 196.584 8.61993C196.584 8.83344 196.611 9.04694 196.691 9.26044C196.771 9.47395 196.851 9.63408 196.984 9.76752C197.118 9.92764 197.278 10.0344 197.465 10.1145C197.651 10.1945 197.865 10.2479 198.105 10.2479C198.319 10.2479 198.505 10.2212 198.692 10.1411C198.879 10.0611 199.039 9.95433 199.173 9.7942C199.306 9.66076 199.413 9.47395 199.493 9.28713C199.546 9.07363 199.573 8.86013 199.573 8.61993ZM197.678 9.74083H197.331V7.55241H198.159C198.425 7.55241 198.612 7.60579 198.746 7.71254C198.879 7.81929 198.959 7.97942 198.959 8.19292C198.959 8.37974 198.906 8.53987 198.799 8.61993C198.692 8.7 198.559 8.75337 198.399 8.78006L199.013 9.74083H198.612L198.052 8.80675H197.705V9.74083H197.678ZM198.078 8.51318C198.132 8.51318 198.212 8.51318 198.265 8.51318C198.319 8.51318 198.372 8.48649 198.425 8.4598C198.479 8.43312 198.505 8.40643 198.532 8.35305C198.559 8.29968 198.586 8.2463 198.586 8.16624C198.586 8.11286 198.559 8.05948 198.532 8.00611C198.505 7.97942 198.452 7.92604 198.425 7.92604C198.399 7.92604 198.345 7.87267 198.292 7.87267C198.239 7.87267 198.185 7.87267 198.132 7.87267H197.705V8.51318H198.078Z" fill="#80A1B6"/></svg>