<svg width="162" height="46" fill="none" xmlns="http://www.w3.org/2000/svg"><path d="M41.8891 39.5659L40.8924 42.3945C40.8655 42.4483 40.8385 42.4753 40.7847 42.4753H39.8418C39.761 42.4753 39.7341 42.4483 39.761 42.3675L42.805 33.855C42.832 33.8011 42.832 33.7473 42.8589 33.6664C42.8859 33.5856 42.8859 33.4779 42.9128 33.2893C42.9128 33.2354 42.9397 33.2085 42.9936 33.2085H44.3675C44.4213 33.2085 44.4483 33.2354 44.4483 33.2893L47.7348 42.3945C47.7617 42.4483 47.7348 42.5022 47.6809 42.5022H46.6034C46.5495 42.5022 46.5225 42.4753 46.4956 42.4214L45.4719 39.5659H41.8891ZM45.1217 38.4884C45.0409 38.2729 44.9332 37.9496 44.7985 37.5725C44.6638 37.1684 44.5291 36.7644 44.3675 36.3603C44.2058 35.9293 44.0712 35.5252 43.9365 35.1481C43.8018 34.744 43.694 34.4477 43.6401 34.2052H43.6132C43.5593 34.4207 43.4785 34.717 43.3708 35.0403C43.263 35.3636 43.1283 35.7407 42.9936 36.1178C42.8589 36.495 42.7242 36.899 42.5626 37.3301C42.4279 37.7341 42.2663 38.1382 42.1585 38.5153H45.1217V38.4884Z" fill="#504F4D"/><path d="M48.8931 37.2492C48.8931 37.1145 48.8931 36.9798 48.8931 36.8451C48.8931 36.6835 48.8931 36.5488 48.8662 36.4141C48.8662 36.2794 48.8662 36.1447 48.8393 36.01C48.8393 35.9023 48.8393 35.7945 48.8123 35.7406C48.8123 35.6868 48.8393 35.6598 48.8931 35.6598H49.7552C49.809 35.6598 49.8629 35.6868 49.8899 35.7406C49.9168 35.7945 49.9168 35.9023 49.9437 36.01C49.9437 36.1447 49.9707 36.2794 49.9976 36.441C50.6172 35.8215 51.3176 35.5251 52.1527 35.5251C52.3951 35.5251 52.6645 35.5521 52.9339 35.6329C53.2033 35.7137 53.4457 35.8484 53.6612 36.037C53.8767 36.2255 54.0653 36.5219 54.2269 36.8721C54.3616 37.2223 54.4424 37.6802 54.4424 38.219V42.3675C54.4424 42.4214 54.4155 42.4752 54.3347 42.4752H53.3649C53.311 42.4752 53.2571 42.4483 53.2571 42.3675V38.3537C53.2571 37.8149 53.1494 37.3839 52.9069 37.0606C52.6645 36.7374 52.3143 36.5757 51.8025 36.5757C51.4523 36.5757 51.129 36.6566 50.8327 36.7912C50.5364 36.9259 50.267 37.1414 50.0515 37.4108V42.3675C50.0515 42.4214 50.0245 42.4752 49.9707 42.4752H48.9739C48.9201 42.4752 48.8931 42.4483 48.8931 42.3675V37.2492Z" fill="#504F4D"/><path d="M60.9346 39.5659L59.9378 42.3945C59.9109 42.4483 59.884 42.4753 59.8301 42.4753H58.8872C58.8064 42.4753 58.7795 42.4483 58.8064 42.3675L61.8505 33.855C61.8774 33.8011 61.8774 33.7473 61.9043 33.6664C61.9313 33.5856 61.9313 33.4779 61.9582 33.2893C61.9582 33.2354 61.9852 33.2085 62.039 33.2085H63.4129C63.4668 33.2085 63.4937 33.2354 63.4937 33.2893L66.7802 42.3945C66.8071 42.4483 66.7802 42.5022 66.7263 42.5022H65.6488C65.5949 42.5022 65.5679 42.4753 65.541 42.4214L64.5174 39.5659H60.9346ZM64.1672 38.4884C64.0863 38.2729 63.9786 37.9496 63.8439 37.5725C63.7092 37.1684 63.5745 36.7644 63.4129 36.3603C63.2513 35.9293 63.1166 35.5252 62.9819 35.1481C62.8472 34.744 62.7394 34.4477 62.6855 34.2052H62.6586C62.6047 34.4207 62.5239 34.717 62.4162 35.0403C62.3084 35.3636 62.1737 35.7407 62.039 36.1178C61.9043 36.495 61.7696 36.899 61.608 37.3301C61.4733 37.7341 61.3117 38.1382 61.2039 38.5153H64.1672V38.4884Z" fill="#504F4D"/><path d="M70.8748 42.6369C70.3899 42.6369 69.932 42.5561 69.5279 42.4214C69.0969 42.2867 68.7467 42.0442 68.4234 41.7748C68.1002 41.4785 67.8577 41.1283 67.6961 40.6704C67.5075 40.2394 67.4267 39.7275 67.4267 39.1618C67.4267 38.65 67.5075 38.1651 67.6961 37.7341C67.8846 37.3031 68.1271 36.9259 68.4773 36.6027C68.8006 36.2794 69.2046 36.037 69.6895 35.8484C70.1475 35.6598 70.6862 35.579 71.2519 35.579C71.4405 35.579 71.6021 35.579 71.7368 35.606C71.8715 35.6329 72.0062 35.6329 72.1409 35.6598V32.5081C72.1409 32.4542 72.1678 32.4272 72.2217 32.4272H73.2184C73.2723 32.4272 73.2993 32.4542 73.2993 32.5081V41.3438C73.2993 41.4516 73.2993 41.5593 73.2993 41.6671C73.2993 41.7748 73.2993 41.9095 73.3262 42.0173C73.3262 42.0712 73.2993 42.0981 73.2454 42.125C72.8413 42.3136 72.4372 42.4483 72.0601 42.5291C71.656 42.583 71.2519 42.6369 70.8748 42.6369ZM72.114 36.6835C72.0062 36.6296 71.8715 36.6027 71.7099 36.5757C71.5483 36.5488 71.3866 36.5488 71.1981 36.5488C70.794 36.5488 70.4438 36.6027 70.1205 36.7374C69.7973 36.8721 69.5279 37.0337 69.3124 37.2761C69.0969 37.5186 68.9083 37.761 68.8006 38.0843C68.6659 38.3806 68.612 38.7308 68.612 39.081C68.612 39.539 68.6659 39.9161 68.8006 40.2394C68.9352 40.5626 69.0969 40.8051 69.3393 41.0206C69.5548 41.2091 69.8242 41.3708 70.0936 41.4516C70.363 41.5324 70.6862 41.5863 70.9826 41.5863C71.1711 41.5863 71.3597 41.5863 71.5752 41.5593C71.7638 41.5324 71.9523 41.4785 72.114 41.4246V36.6835Z" fill="#504F4D"/><path d="M77.9865 35.5251C78.4714 35.5251 78.9293 35.606 79.3065 35.7945C79.7106 35.9831 80.0338 36.2255 80.3032 36.5488C80.5726 36.8721 80.7881 37.2492 80.9497 37.6802C81.1114 38.1112 81.1652 38.5692 81.1652 39.081C81.1652 39.6198 81.0844 40.1047 80.9228 40.5357C80.7612 40.9667 80.5456 41.3438 80.2763 41.6671C80.0069 41.9634 79.6567 42.2059 79.2795 42.3944C78.8755 42.5561 78.4445 42.6638 77.9865 42.6638C77.4208 42.6638 76.9359 42.556 76.5318 42.3675C76.1278 42.152 75.7776 41.8826 75.5351 41.5593C75.2657 41.2361 75.0772 40.832 74.9425 40.4279C74.8078 39.9969 74.7539 39.5659 74.7539 39.1349C74.7539 38.65 74.8347 38.1651 74.9694 37.7341C75.131 37.3031 75.3466 36.9259 75.6159 36.6027C75.8853 36.2794 76.2355 36.037 76.6396 35.8484C77.0437 35.6329 77.4747 35.5251 77.9865 35.5251ZM77.9326 36.5488C77.6363 36.5488 77.3669 36.6027 77.1245 36.7374C76.882 36.8721 76.6665 37.0337 76.5049 37.2492C76.3433 37.4647 76.2086 37.7341 76.1008 38.0304C75.9931 38.3267 75.9661 38.6769 75.9661 39.0541C75.9661 39.4043 76.02 39.7545 76.1008 40.0508C76.1816 40.374 76.3163 40.6434 76.5049 40.8589C76.6665 41.1014 76.882 41.263 77.1514 41.3977C77.4208 41.5324 77.7171 41.5863 78.0404 41.5863C78.2828 41.5863 78.5253 41.5324 78.7677 41.4516C79.0102 41.3438 79.1987 41.2091 79.3873 40.9936C79.5759 40.7781 79.7106 40.5087 79.8452 40.2124C79.953 39.8892 80.0069 39.512 80.0069 39.081C80.0069 38.7577 79.9799 38.4345 79.8991 38.1382C79.8183 37.8418 79.7106 37.5725 79.522 37.33C79.3604 37.0876 79.1449 36.899 78.8755 36.7643C78.6061 36.6296 78.2828 36.5488 77.9326 36.5488Z" fill="#504F4D"/><path d="M83.7244 32.4272C83.7513 32.4272 83.7783 32.4272 83.8052 32.4272C83.8321 32.4272 83.8321 32.4542 83.8321 32.5081V35.7945C84.2901 35.606 84.8019 35.5252 85.3407 35.5252C85.8256 35.5252 86.2566 35.606 86.6607 35.7676C87.0647 35.9292 87.388 36.1717 87.6574 36.468C87.9268 36.7643 88.1423 37.1145 88.3039 37.5186C88.4655 37.9227 88.5194 38.3537 88.5194 38.8386C88.5194 39.4851 88.4117 40.0239 88.1961 40.5087C87.9806 40.9936 87.6843 41.3708 87.3341 41.694C86.9839 42.0173 86.5529 42.2597 86.095 42.4214C85.637 42.583 85.1521 42.6638 84.6403 42.6638C84.2901 42.6638 83.9399 42.6369 83.6436 42.6099C83.3203 42.5561 83.024 42.5022 82.7277 42.3944C82.6738 42.3944 82.6469 42.3406 82.6469 42.2597V32.5619C82.6469 32.5081 82.6738 32.4811 82.7546 32.4811H83.7244V32.4272ZM87.3341 38.9194C87.3341 38.192 87.1456 37.6263 86.7415 37.1953C86.3374 36.7643 85.8256 36.5488 85.1521 36.5488C84.8558 36.5488 84.6133 36.5757 84.3978 36.6027C84.1823 36.6566 83.9938 36.7104 83.8321 36.7913V41.5055C83.9668 41.5593 84.1015 41.5863 84.2632 41.5863C84.4248 41.6132 84.5864 41.6132 84.775 41.6132C85.0982 41.6132 85.4484 41.5593 85.7448 41.4516C86.068 41.3438 86.3374 41.1822 86.5798 40.9398C86.8223 40.7242 87.0109 40.4279 87.1456 40.1047C87.2533 39.7545 87.3341 39.3504 87.3341 38.9194Z" fill="#504F4D"/><path d="M90.7822 39.2158C90.7822 39.539 90.8361 39.8623 90.9169 40.1586C90.9977 40.4549 91.1594 40.6974 91.3479 40.9129C91.5365 41.1284 91.7789 41.29 92.0753 41.4247C92.3716 41.5594 92.7218 41.6133 93.0989 41.6133C93.3953 41.6133 93.7185 41.5864 94.0148 41.5325C94.3112 41.4786 94.5805 41.3708 94.8499 41.2362C94.9038 41.2092 94.9307 41.2362 94.9307 41.29V42.0982C94.9307 42.1521 94.9038 42.2059 94.8499 42.2329C94.6075 42.3676 94.3381 42.4484 94.0148 42.5292C93.6916 42.61 93.3144 42.6369 92.8834 42.6369C92.2638 42.6369 91.752 42.5292 91.3479 42.3406C90.9169 42.1521 90.5937 41.8827 90.3243 41.5325C90.0549 41.2092 89.8933 40.8321 89.7586 40.4011C89.6508 39.997 89.57 39.566 89.57 39.135C89.57 38.6501 89.6508 38.1921 89.7855 37.7342C89.9202 37.3032 90.1357 36.8991 90.4051 36.5758C90.6745 36.2526 90.9977 35.9832 91.3749 35.7946C91.752 35.606 92.183 35.4983 92.6679 35.4983C93.1797 35.4983 93.6108 35.5791 93.934 35.7677C94.2842 35.9562 94.5536 36.1717 94.7691 36.4411C94.9846 36.7105 95.1462 37.0338 95.2271 37.357C95.3348 37.6803 95.3617 38.0036 95.3617 38.2999C95.3617 38.4884 95.3617 38.6231 95.3348 38.7578C95.3348 38.8925 95.3079 38.9733 95.2809 39.0272C95.2809 39.0811 95.254 39.108 95.1732 39.108C95.0654 39.135 94.8769 39.135 94.6075 39.1619C94.3381 39.1619 94.0418 39.1888 93.7185 39.1888H90.7822V39.2158ZM93.4222 38.3538C93.7724 38.3538 93.9879 38.3538 94.1226 38.3538C94.2303 38.3538 94.3112 38.3538 94.3381 38.3268C94.3381 38.2999 94.365 38.2729 94.365 38.246C94.365 38.2191 94.365 38.1921 94.365 38.1652C94.365 38.0305 94.3381 37.8958 94.2842 37.7072C94.2303 37.5187 94.1495 37.3301 94.0148 37.1415C93.8801 36.953 93.7185 36.8183 93.503 36.6836C93.2875 36.5489 93.0181 36.495 92.6949 36.495C92.3985 36.495 92.1561 36.5489 91.9406 36.6566C91.7251 36.7644 91.5365 36.8991 91.3749 37.0607C91.2132 37.2223 91.1055 37.4379 90.9977 37.6534C90.9169 37.8689 90.863 38.1113 90.8092 38.3268H93.4222V38.3538Z" fill="#504F4D"/><path d="M106.38 42.2328C106.38 42.3136 106.353 42.3675 106.299 42.3675C106.056 42.4752 105.787 42.5291 105.464 42.583C105.14 42.6099 104.79 42.6368 104.386 42.6368C103.793 42.6368 103.228 42.556 102.662 42.3675C102.096 42.1789 101.584 41.9095 101.153 41.5324C100.722 41.1552 100.345 40.6434 100.076 40.0508C99.8066 39.4312 99.6719 38.7038 99.6719 37.8418C99.6719 37.1414 99.7796 36.4949 100.022 35.9023C100.265 35.3096 100.588 34.8247 101.019 34.3937C101.45 33.9896 101.962 33.6664 102.581 33.4239C103.201 33.1815 103.874 33.0737 104.602 33.0737C105.086 33.0737 105.464 33.1007 105.733 33.1545C106.002 33.2084 106.245 33.2623 106.38 33.3431C106.433 33.3701 106.46 33.397 106.46 33.4509V34.3937C106.46 34.4476 106.433 34.4745 106.353 34.4745C105.949 34.259 105.356 34.1513 104.548 34.1513C104.009 34.1513 103.497 34.2321 103.039 34.4206C102.581 34.5823 102.204 34.8517 101.881 35.148C101.558 35.4712 101.288 35.8484 101.127 36.3063C100.938 36.7643 100.857 37.2761 100.857 37.8149C100.857 38.5422 100.992 39.1618 101.234 39.6467C101.477 40.1316 101.773 40.5087 102.15 40.805C102.527 41.1013 102.931 41.2899 103.335 41.3977C103.767 41.5054 104.171 41.5862 104.521 41.5862C104.871 41.5862 105.194 41.5593 105.464 41.5324C105.733 41.5054 106.002 41.4246 106.272 41.3169C106.326 41.3169 106.353 41.3169 106.353 41.3707V42.2328H106.38Z" fill="#504F4D"/><path d="M110.501 35.5251C110.986 35.5251 111.444 35.606 111.821 35.7945C112.225 35.9831 112.548 36.2255 112.818 36.5488C113.087 36.8721 113.303 37.2492 113.464 37.6802C113.626 38.1112 113.68 38.5692 113.68 39.081C113.68 39.6198 113.599 40.1047 113.437 40.5357C113.276 40.9667 113.06 41.3438 112.791 41.6671C112.521 41.9634 112.171 42.2059 111.794 42.3944C111.39 42.5561 110.959 42.6638 110.501 42.6638C109.935 42.6638 109.45 42.556 109.046 42.3675C108.642 42.152 108.292 41.8826 108.05 41.5593C107.78 41.2361 107.592 40.832 107.457 40.4279C107.322 39.9969 107.268 39.5659 107.268 39.1349C107.268 38.65 107.349 38.1651 107.484 37.7341C107.646 37.3031 107.861 36.9259 108.131 36.6027C108.4 36.2794 108.75 36.037 109.154 35.8484C109.558 35.6329 110.016 35.5251 110.501 35.5251ZM110.447 36.5488C110.151 36.5488 109.882 36.6027 109.639 36.7374C109.397 36.8721 109.181 37.0337 109.019 37.2492C108.858 37.4647 108.723 37.7341 108.615 38.0304C108.508 38.3267 108.481 38.6769 108.481 39.0541C108.481 39.4043 108.535 39.7545 108.615 40.0508C108.696 40.374 108.831 40.6434 109.019 40.8589C109.181 41.1014 109.397 41.263 109.666 41.3977C109.935 41.5324 110.232 41.5863 110.555 41.5863C110.797 41.5863 111.04 41.5324 111.282 41.4516C111.525 41.3438 111.713 41.2091 111.902 40.9936C112.09 40.7781 112.225 40.5087 112.36 40.2124C112.468 39.8892 112.521 39.512 112.521 39.081C112.521 38.7577 112.495 38.4345 112.414 38.1382C112.333 37.8418 112.225 37.5725 112.037 37.33C111.875 37.0876 111.659 36.899 111.39 36.7643C111.121 36.6296 110.824 36.5488 110.447 36.5488Z" fill="#504F4D"/><path d="M115.242 42.5022C115.188 42.5022 115.161 42.4752 115.161 42.3944V37.1414C115.161 36.8451 115.161 36.5488 115.134 36.3064C115.134 36.0639 115.108 35.8753 115.081 35.7406C115.081 35.6868 115.108 35.6598 115.161 35.6598H116.05C116.104 35.6598 116.131 35.6868 116.158 35.7406C116.185 35.8215 116.185 35.9292 116.212 36.037C116.239 36.1717 116.239 36.2794 116.239 36.4141C116.859 35.8215 117.559 35.5251 118.34 35.5251C119.202 35.5251 119.822 35.8753 120.199 36.5488C120.495 36.2525 120.845 36.01 121.196 35.8215C121.546 35.6329 122.004 35.5251 122.516 35.5251C122.785 35.5251 123.054 35.5521 123.297 35.6329C123.566 35.7137 123.809 35.8484 124.024 36.0639C124.24 36.2525 124.428 36.5488 124.563 36.8721C124.698 37.2223 124.778 37.6533 124.778 38.192V42.3944C124.778 42.4483 124.751 42.4752 124.671 42.4752H123.701C123.647 42.4752 123.593 42.4483 123.593 42.3675V38.2729C123.593 37.788 123.485 37.3839 123.243 37.0606C123.027 36.7374 122.65 36.5488 122.165 36.5488C121.815 36.5488 121.492 36.6296 121.196 36.7643C120.899 36.899 120.657 37.1145 120.441 37.3569C120.468 37.4378 120.468 37.5725 120.495 37.7341C120.522 37.8957 120.522 38.0843 120.522 38.2459V42.3675C120.522 42.4214 120.495 42.4752 120.414 42.4752H119.445C119.391 42.4752 119.337 42.4483 119.337 42.3675V38.219C119.337 37.6802 119.229 37.2761 118.987 36.9798C118.744 36.6835 118.394 36.5488 117.936 36.5488C117.613 36.5488 117.317 36.6027 117.047 36.7374C116.778 36.8721 116.508 37.0606 116.239 37.33V42.3675C116.239 42.4214 116.212 42.4483 116.158 42.4483H115.242V42.5022Z" fill="#504F4D"/><path d="M129.439 35.5251C129.951 35.5251 130.408 35.606 130.813 35.7676C131.217 35.9292 131.567 36.1717 131.836 36.468C132.106 36.7643 132.321 37.1145 132.483 37.5186C132.644 37.9227 132.698 38.3537 132.698 38.8386C132.698 39.4851 132.59 40.0238 132.348 40.5087C132.106 40.9936 131.809 41.3708 131.432 41.694C131.055 42.0173 130.624 42.2328 130.139 42.3944C129.654 42.5561 129.169 42.6369 128.684 42.6369C128.523 42.6369 128.388 42.6369 128.28 42.6099C128.173 42.6099 128.065 42.583 127.957 42.556V45.3576C127.957 45.4115 127.93 45.4385 127.876 45.4654C127.795 45.4654 127.688 45.4923 127.58 45.4923C127.472 45.4923 127.364 45.5193 127.257 45.5193C127.149 45.5462 127.068 45.5462 126.987 45.5462C126.907 45.5462 126.853 45.5731 126.853 45.5731C126.799 45.5731 126.772 45.5462 126.772 45.4923V36.7643C126.772 36.7104 126.772 36.6027 126.772 36.468C126.772 36.3333 126.772 36.2255 126.745 36.1447C126.745 36.1178 126.745 36.0908 126.772 36.0908C127.014 36.01 127.364 35.8753 127.822 35.7406C128.28 35.606 128.846 35.5251 129.439 35.5251ZM129.304 36.5488C129.062 36.5488 128.819 36.5757 128.604 36.6027C128.388 36.6296 128.173 36.6835 127.984 36.7643V41.5055C128.119 41.5324 128.226 41.5593 128.388 41.5863C128.523 41.5863 128.657 41.6132 128.792 41.6132C129.115 41.6132 129.466 41.5593 129.789 41.4516C130.112 41.3438 130.408 41.1822 130.678 40.9667C130.947 40.7512 131.136 40.4549 131.297 40.1316C131.459 39.7814 131.54 39.3773 131.54 38.9194C131.54 38.192 131.351 37.6263 130.947 37.1953C130.543 36.7643 130.004 36.5488 129.304 36.5488Z" fill="#504F4D"/><path d="M139.002 41.29C139.002 41.4247 139.002 41.5325 139.002 41.6402C139.002 41.748 139.002 41.8557 139.029 41.9635C139.029 41.9904 139.029 42.0174 139.002 42.0174C138.49 42.2598 138.032 42.4214 137.628 42.5023C137.224 42.5831 136.793 42.61 136.389 42.61C136.012 42.61 135.662 42.5561 135.338 42.4753C135.015 42.3945 134.746 42.2329 134.503 42.0712C134.261 41.8827 134.099 41.6672 133.964 41.3978C133.83 41.1284 133.776 40.8051 133.776 40.428C133.776 40.0509 133.857 39.7276 134.018 39.4582C134.18 39.1888 134.395 38.9733 134.692 38.7848C134.961 38.5962 135.311 38.4884 135.688 38.3807C136.066 38.2999 136.47 38.246 136.928 38.246C137.197 38.246 137.386 38.246 137.547 38.246C137.709 38.246 137.817 38.246 137.897 38.2729V37.9497C137.897 37.8419 137.87 37.7072 137.844 37.5456C137.817 37.384 137.736 37.2223 137.628 37.0877C137.52 36.953 137.359 36.8183 137.143 36.7105C136.928 36.6028 136.658 36.5489 136.308 36.5489C135.985 36.5489 135.662 36.5758 135.338 36.6566C135.042 36.7375 134.773 36.8452 134.53 36.953C134.476 36.9799 134.422 36.953 134.422 36.8721V36.0101C134.422 35.9562 134.449 35.9293 134.503 35.9024C134.773 35.7677 135.069 35.6599 135.419 35.606C135.769 35.5522 136.119 35.4983 136.497 35.4983C136.955 35.4983 137.332 35.5791 137.655 35.7138C137.978 35.8485 138.248 36.0371 138.436 36.2795C138.625 36.5219 138.786 36.7913 138.894 37.1146C139.002 37.4379 139.029 37.7611 139.029 38.1382V41.29H139.002ZM137.87 39.2427C137.763 39.2158 137.628 39.2158 137.493 39.1888C137.332 39.1888 137.17 39.1619 136.955 39.1619C136.281 39.1619 135.769 39.2697 135.446 39.4852C135.123 39.7007 134.961 40.0239 134.961 40.4011C134.961 40.5627 134.988 40.7243 135.042 40.859C135.096 41.0206 135.204 41.1553 135.338 41.2631C135.473 41.3708 135.635 41.4786 135.85 41.5325C136.066 41.6133 136.308 41.6402 136.631 41.6402C137.089 41.6402 137.52 41.5594 137.897 41.3978V39.2427H137.87Z" fill="#504F4D"/><path d="M140.968 37.2492C140.968 37.1145 140.968 36.9798 140.968 36.8451C140.968 36.6835 140.968 36.5488 140.941 36.4141C140.941 36.2794 140.941 36.1447 140.914 36.01C140.914 35.9023 140.914 35.7945 140.888 35.7406C140.888 35.6868 140.914 35.6598 140.968 35.6598H141.83C141.884 35.6598 141.938 35.6868 141.965 35.7406C141.992 35.7945 141.992 35.9023 142.019 36.01C142.019 36.1447 142.046 36.2794 142.073 36.441C142.692 35.8215 143.393 35.5251 144.228 35.5251C144.47 35.5251 144.74 35.5521 145.009 35.6329C145.278 35.7137 145.521 35.8484 145.736 36.037C145.952 36.2255 146.14 36.5219 146.302 36.8721C146.437 37.2223 146.518 37.6802 146.518 38.219V42.3675C146.518 42.4214 146.491 42.4752 146.41 42.4752H145.44C145.386 42.4752 145.332 42.4483 145.332 42.3675V38.3537C145.332 37.8149 145.225 37.3839 144.982 37.0606C144.74 36.7374 144.389 36.5757 143.878 36.5757C143.527 36.5757 143.204 36.6566 142.908 36.7912C142.612 36.9529 142.342 37.1414 142.127 37.4108V42.3675C142.127 42.4214 142.1 42.4752 142.046 42.4752H141.049C140.995 42.4752 140.968 42.4483 140.968 42.3675V37.2492Z" fill="#504F4D"/><path d="M148.619 35.6868C148.673 35.6868 148.7 35.7137 148.727 35.7676C149.023 36.5488 149.265 37.2223 149.481 37.8149C149.696 38.4075 149.885 38.9194 150.047 39.3504C150.208 39.7814 150.343 40.1316 150.424 40.4279C150.531 40.7242 150.585 40.9397 150.639 41.1014C150.855 40.4549 151.124 39.7006 151.42 38.8655C151.717 38.0304 152.094 37.0068 152.525 35.7945C152.552 35.7407 152.579 35.7137 152.633 35.7137H153.629C153.683 35.7137 153.71 35.7406 153.683 35.8215C153.414 36.5757 153.144 37.3569 152.848 38.192C152.552 39.0002 152.229 39.8353 151.905 40.6704C151.582 41.5054 151.232 42.3136 150.909 43.1217C150.558 43.9299 150.235 44.7111 149.885 45.4654C149.858 45.5193 149.804 45.5462 149.723 45.5731L148.673 45.654C148.619 45.654 148.592 45.627 148.619 45.5462C148.834 45.1152 149.05 44.6303 149.292 44.0915C149.535 43.5528 149.777 43.014 150.02 42.4483C150.047 42.3944 150.047 42.3405 150.02 42.2597C149.966 42.125 149.885 41.9095 149.777 41.6401C149.669 41.3708 149.535 41.0475 149.4 40.6973C149.265 40.3471 149.104 39.97 148.942 39.539C148.78 39.1349 148.592 38.7039 148.43 38.2728C148.269 37.8418 148.08 37.4108 147.918 37.0068C147.757 36.5757 147.595 36.1986 147.46 35.8215C147.434 35.7676 147.46 35.7406 147.541 35.7406H148.619V35.6868Z" fill="#504F4D"/><path d="M20.8772 0.640137V35.3637L29.7399 28.2789V5.4621L20.8772 0.640137Z" fill="#563E94"/><path d="M16.7556 27.7941L9.56311 30.9189V3.63037L16.7556 5.7585V27.7941Z" fill="#563E94"/><path d="M0 26.986L5.44154 25.5582V8.12912L0 7.26709V26.986Z" fill="#563E94"/><path d="M58.995 5.46216L51.4253 17.8807L43.7748 5.46216H39.7341V28.2789H43.5324V11.6041L51.3445 24.1574L59.1566 11.5233V28.2789H62.9549V5.46216H58.995Z" fill="#211645"/><path d="M75.7237 28.2788L75.6968 26.2315C74.5653 27.9017 72.7066 28.6829 70.7132 28.6829C67.8038 28.6829 65.7834 26.7972 65.7834 24.0764C65.7834 21.1132 67.6691 19.3353 71.4405 18.7696L75.589 18.1231V17.8537C75.589 16.1566 74.3229 15.2137 72.1409 15.2137C70.0397 15.2137 68.2618 16.1027 66.7263 17.5035V13.8129C68.1271 12.6815 70.0666 11.9272 72.4103 11.9272C76.882 11.9272 79.3065 14.217 79.3065 18.0153V28.2788H75.7237ZM71.6291 25.6119C73.9727 25.6119 75.6159 24.0764 75.6159 21.8944V21.0055L72.0601 21.5981C70.336 21.8944 69.4471 22.6487 69.4471 23.7801C69.474 24.9385 70.336 25.6119 71.6291 25.6119Z" fill="#211645"/><path d="M91.8058 15.9142C91.6442 15.8064 91.321 15.7795 90.8361 15.7795C88.0614 15.7795 86.3643 17.9346 86.3643 21.2211V28.2789H82.6199V12.3045H86.3374V15.0522C87.1186 13.1934 89.0043 11.9812 91.1054 11.9812C91.5365 11.9812 91.752 12.0081 91.8328 12.089V15.9142H91.8058Z" fill="#211645"/><path d="M94.2303 5.46216V28.2789H97.9747V21.9484L98.8098 21.1941L104.521 28.2789H109.154L101.665 19.2546L108.615 12.3045H103.982L97.9747 18.3387V5.46216H94.2303Z" fill="#211645"/><path d="M123.351 26.986C121.68 28.0366 119.579 28.6831 117.182 28.6831C111.902 28.6831 108.562 25.1003 108.562 20.2784C108.562 15.4834 111.902 11.9275 116.589 11.9275C121.249 11.9275 124.267 15.4564 124.267 20.1706C124.267 20.6825 124.267 20.9788 124.159 21.4637H112.306C112.602 23.6726 114.434 25.4505 117.424 25.4505C119.445 25.4505 121.411 24.7232 123.324 23.2955V26.986H123.351ZM120.576 18.6621C120.361 16.4801 118.771 14.9715 116.535 14.9715C114.246 14.9715 112.575 16.7764 112.333 18.6621H120.576Z" fill="#211645"/><path d="M133.776 25.208C134.395 25.208 135.042 25.0733 135.527 24.7231V28.0904C134.907 28.4406 133.964 28.6831 132.644 28.6831C129.412 28.6831 127.526 26.7166 127.526 23.3762V15.5102H124.725L131.324 7.10547V12.3046H135.554V15.5102H131.324V22.6758C131.298 24.4807 132.079 25.208 133.776 25.208Z" fill="#211645"/><path d="M153.71 20.3053C153.71 24.9926 150.1 28.6831 145.198 28.6831C140.295 28.6831 136.685 24.9926 136.685 20.3053C136.685 15.618 140.295 11.9275 145.198 11.9275C150.1 11.9275 153.71 15.5911 153.71 20.3053ZM140.43 20.3053C140.43 23.053 142.531 25.235 145.198 25.235C147.865 25.235 149.966 23.053 149.966 20.3053C149.966 17.5576 147.865 15.3756 145.198 15.3756C142.531 15.3756 140.43 17.5576 140.43 20.3053Z" fill="#211645"/><path d="M153.818 9.09863H156.7V9.71821H155.596V13.0586H154.895V9.71821H153.818V9.09863Z" fill="#040000"/><path d="M158.236 10.1762V13.0855H157.562V9.09863H158.263L159.61 11.119L160.93 9.09863H161.63V13.0855H160.983V10.1762L159.798 11.981H159.475L158.236 10.1762Z" fill="#040000"/></svg>