<svg width="154" height="24" fill="none" xmlns="http://www.w3.org/2000/svg"><g clip-path="url(#clip0_1_128)"><path d="M36.6766 7.17595H42.3486L42.604 9.03623C43.0417 7.54071 45.9051 6.48291 47.6377 6.48291C51.6865 6.48291 53.3097 8.98151 53.3097 13.3222V22.7147H47.0176V14.3435C47.0176 12.6656 46.7075 11.4072 45.0296 11.4072C43.4794 11.4072 42.6587 13.0851 42.6587 14.2705V22.733H36.6766V7.17595Z" fill="#005EA8"/><path d="M9.77556 10.8412C11.4535 10.8412 13.259 10.4765 13.259 8.54323C13.259 6.55529 11.3258 6.11758 9.77556 6.11758H6.96691V10.8412H9.77556ZM0 22.8053V0.755615H10.5233C16.8154 0.755615 19.6788 3.80136 19.6788 8.23319C19.6788 12.9568 17.0708 16.2032 10.5233 16.2032H6.96691V22.8053H0Z" fill="#005EA8"/><path d="M105.908 7.17595H111.635L111.817 9.03623C112.31 7.54071 115.173 6.48291 116.924 6.48291C120.9 6.48291 122.596 8.98151 122.596 13.3222V22.7877H116.304V14.3435C116.304 12.6656 115.921 11.4072 114.243 11.4072C112.747 11.4072 111.945 13.0851 111.945 14.2705V22.8059H105.908V7.17595Z" fill="#005EA8"/><path d="M77.0191 17.2067C77.0191 17.8268 77.3291 18.7569 77.7121 19.067C78.1498 19.377 78.7152 19.6871 79.39 19.6871C80.5025 19.6871 81.3779 19.377 81.3779 18.3192C81.4327 15.7112 71.9124 18.0092 71.9124 11.79C71.9124 7.43114 75.2682 6.44629 78.7699 6.44629C82.2716 6.44629 87.05 7.13933 86.8676 11.863H81.5786C81.5786 11.4253 81.3962 11.1152 81.1409 10.7505C80.7579 10.3127 80.3384 10.1304 79.5177 10.0574C78.4599 10.0027 77.4568 10.1851 77.4568 10.9875C77.5115 13.4132 87.2871 11.79 87.2871 17.5167C87.2871 21.4926 84.4784 23.2982 79.0617 23.2982C75.633 23.2435 71.347 21.4926 71.347 17.1885H77.0191V17.2067Z" fill="#005EA8"/><path d="M141.454 13.2127C141.454 12.8297 141.454 12.3373 140.961 11.7172C140.706 11.4072 140.159 10.7141 139.284 10.7141C136.913 10.7141 136.293 13.0121 136.293 14.8906C136.293 17.0792 137.277 18.8665 139.156 18.8665C140.779 18.8665 141.582 17.371 141.582 16.1308H147.053C147.181 19.3772 144.937 23.2254 138.901 23.2254C133.976 23.2254 130.493 19.7966 130.493 14.8177C130.493 8.78089 134.979 6.48291 138.828 6.48291C144.062 6.48291 147.053 9.65632 146.98 13.2127H141.454Z" fill="#005EA8"/><path d="M64.6172 15.6384C62.5016 16.6414 59.7659 16.5685 59.7659 18.137C59.7659 19.14 60.2583 19.6325 61.5714 19.6325C63.5594 19.6325 64.7449 17.5169 64.6172 15.6384ZM65.1279 22.8059L64.5078 21.4927C63.3223 22.4958 62.0092 23.043 60.0942 23.043C58.1062 22.9883 54.2945 22.7329 54.2945 18.5564C54.2945 11.6989 64.5078 14.8176 64.5625 11.4619C64.5625 10.3493 63.2493 10.4041 62.6293 10.4041C61.3161 10.4041 60.5684 10.6594 60.386 12.5197H55.1517C55.1517 9.29153 56.0818 6.5376 62.994 6.5376C69.5962 6.5376 70.271 10.0211 70.271 13.4498V20.5444C70.271 21.4745 70.3257 21.9122 70.964 22.6053V22.7329L65.1279 22.8059ZM29.5091 15.6384C27.3935 16.6414 24.7125 16.5685 24.6578 18.137C24.6578 19.14 25.2231 19.6325 26.4633 19.6325C28.506 19.6325 29.6367 17.5169 29.5091 15.6384ZM30.0015 22.8059L29.3814 21.4927C28.1959 22.4958 26.9558 23.043 24.9678 23.043C23.0346 22.9883 19.2411 22.7329 19.2411 18.5564C19.2411 11.6989 29.4544 14.8176 29.4544 11.4619C29.4544 10.3493 28.2142 10.4041 27.5211 10.4041C26.281 10.4041 25.4602 10.6594 25.2779 12.5197H20.0436C20.0436 9.29153 21.0466 6.5376 27.8859 6.5376C34.5428 6.5376 35.2358 10.0211 35.2358 13.4498V20.5444C35.2358 21.4745 35.2905 21.9122 35.9288 22.6053V22.7329L30.0015 22.8059Z" fill="#005EA8"/><path d="M123.708 5.18796H129.508V0.701416H123.708V5.18796ZM129.49 7.1759H123.69V22.8059H129.49V7.1759Z" fill="#005EA8"/><path d="M93.8162 14.9636C93.8162 16.8968 94.4363 19.2678 96.5519 19.3225C98.6675 19.3225 99.2329 16.8968 99.2329 14.9636C99.2329 13.1033 98.6675 10.6594 96.5519 10.6594C94.4545 10.6594 93.8891 13.0851 93.8162 14.9636ZM96.5701 6.6106C101.731 6.6106 104.905 10.2217 104.905 14.9636C104.905 19.7602 101.731 23.2984 96.5701 23.2984C91.4088 23.2984 88.1624 19.7419 88.1624 14.9636C88.1624 10.2217 91.3905 6.6106 96.5701 6.6106Z" fill="#005EA8"/><path d="M148.421 19.9425C148.421 18.6293 149.478 17.5715 150.792 17.5715C152.105 17.5715 153.163 18.6293 153.163 19.9425C153.163 21.2556 152.105 22.3134 150.792 22.3134C149.478 22.3134 148.421 21.2556 148.421 19.9425ZM152.871 19.9789C152.871 18.7935 151.941 17.8633 150.81 17.8633C149.624 17.8633 148.694 18.7935 148.694 19.9789C148.694 21.0915 149.624 22.0398 150.81 22.0398C151.941 22.0216 152.871 21.0915 152.871 19.9789ZM151.977 21.2556H151.594L150.846 20.0154H150.226V21.2556H149.916V18.5746H151.029C151.521 18.5746 151.977 18.7205 151.977 19.3224C151.977 19.8148 151.649 20.0154 151.156 20.0154L151.977 21.2556ZM150.737 19.7601C151.102 19.7601 151.667 19.8148 151.667 19.3224C151.667 18.8847 151.284 18.83 150.974 18.83H150.226V19.7601H150.737Z" fill="#005EA8"/></g><defs><clipPath id="clip0_1_128"><rect width="153.163" height="22.5969" fill="white" transform="translate(0 0.701416)"/></clipPath></defs></svg>