<svg width="120" height="42" fill="none" xmlns="http://www.w3.org/2000/svg"><path d="M58.6286 11.1111C53.2674 11.0404 48.8938 15.2795 48.8232 20.6491V40.149L53.7612 37.3229V28.9154C55.172 29.9751 56.9356 30.5404 58.7697 30.5404C64.1308 30.6817 68.575 26.3719 68.7161 21.0023C68.8571 15.6328 64.5541 11.1817 59.1929 11.0404C58.9813 11.1111 58.8402 11.1111 58.6286 11.1111ZM58.6286 25.6654C55.948 25.6654 53.7612 23.4752 53.7612 20.7904C53.7612 18.1056 55.948 15.9154 58.6286 15.9154C61.3092 15.9154 63.496 18.1056 63.496 20.7904C63.637 23.3339 61.6619 25.5241 59.1224 25.6654H58.6286ZM92.4181 4.96436L97.3561 2.06763V29.7632H92.4181V4.96436ZM80.1439 11.1111C74.7827 11.1817 70.4796 15.5621 70.5501 20.9317C70.6207 26.3012 74.9943 30.611 80.3555 30.5404C85.7167 30.4697 89.9492 26.1599 89.9492 20.7904C89.9492 15.4208 85.6461 11.1111 80.3555 11.0404C80.2849 11.1111 80.2144 11.1111 80.1439 11.1111ZM80.1439 25.6654C77.4633 25.6654 75.2765 23.4752 75.2765 20.7904C75.2765 18.1056 77.4633 15.9154 80.1439 15.9154C82.8244 15.9154 85.0112 18.1056 85.0112 20.7904C85.1523 23.3339 83.1772 25.5241 80.6376 25.6654H80.1439ZM120 11.8176L108.431 38.2414H103.141L107.161 29.4099L99.4018 11.8176H104.763L109.842 23.3339L114.709 11.8176H120Z" fill="#002843"/><path d="M13.787 27.7083C9.29294 27.7083 5.6499 24.553 5.6499 20.6607C5.6499 16.7684 9.29294 13.6131 13.787 13.6131C18.2811 13.6131 21.9241 16.7684 21.9241 20.6607C21.9241 24.553 18.2811 27.7083 13.787 27.7083ZM35.8545 17.9501L27.2517 22.2517L27.291 22.0493L27.3155 21.87L27.3436 21.5725L27.3452 21.55L27.3468 21.5293L27.3632 21.166L27.3664 20.7674L27.36 20.4786L27.3388 20.0648L27.3075 19.6854L27.2602 19.2753L27.2278 19.05L27.1599 18.6509L27.0797 18.2587L26.9863 17.8747L26.8806 17.4981L26.8079 17.2659L26.682 16.9022L26.544 16.5463L26.4203 16.2562L26.2589 15.9127L26.0864 15.5766L25.9027 15.2501L25.7036 14.9255L25.4928 14.6068L25.4737 14.5801L25.247 14.2661L25.0065 13.9571L24.7522 13.6536L24.4825 13.3529L24.1958 13.0554L24.1635 13.0228L23.8598 12.7294L23.5402 12.4402L23.2015 12.1524L22.8442 11.8663L22.816 11.8447L22.4375 11.5606L22.0346 11.2755L21.63 11.0038L21.1771 10.7154L20.6877 10.4198L20.3209 10.2069L19.7596 9.89466L19.1268 9.55623L18.9166 9.44682L18.1399 9.05043L17.9477 8.95344L17.4587 8.7088L0.0424624 0V5.46444L8.64468 9.76594L8.42327 9.83721L8.23162 9.90853L7.92053 10.0358L7.89662 10.0465L7.87433 10.0561L7.50325 10.2253L7.10398 10.4221L6.81789 10.5711L6.41489 10.7936L6.05122 11.0074L5.66472 11.2479L5.45343 11.3859L5.08868 11.636L4.73778 11.8921L4.40067 12.1538L4.07783 12.4209L3.88088 12.5924L3.58039 12.8683L3.2943 13.1493L3.06542 13.3884L2.80318 13.6804L2.55364 13.9774L2.3179 14.2795L2.09336 14.5903L1.88099 14.9076L1.86184 14.937L1.66224 15.2635L1.47432 15.5978L1.29754 15.9399L1.13239 16.2921L0.977899 16.6549L0.960914 16.6976L0.819735 17.0715L0.690721 17.455L0.571766 17.8518L0.465038 18.2624L0.457088 18.2964L0.362586 18.7218L0.278746 19.1655L0.20918 19.6064L0.147564 20.0897L0.0966094 20.6038L0.0669159 20.9868L0.0355961 21.5629L0.0137927 22.2053L0.00897432 22.4205L0.00108415 23.1994L0.000481843 23.3935L0 23.8827V41.3004L5.46349 38.5682V29.965L5.64774 30.0961L5.81283 30.2037L6.09898 30.3747L6.11862 30.3858L6.13349 30.3945L6.49078 30.5899L6.89059 30.7927L7.17939 30.9311L7.60679 31.1238L7.99859 31.2884L8.43604 31.4594L8.66485 31.5436L9.10074 31.6935L9.53609 31.8305L9.97035 31.9533L10.402 32.0631L10.6647 32.1238L11.0948 32.2117L11.5222 32.2866L11.8689 32.3376L12.2952 32.3896L12.7209 32.4283L13.1335 32.4531L13.5598 32.4669L13.9872 32.4678L14.0148 32.4673L14.4443 32.454L14.8769 32.4283L15.3107 32.3892L15.7497 32.3363L16.1936 32.2701L16.2329 32.2632L16.681 32.1818L17.1333 32.0862L17.5936 31.9749L18.0623 31.8484L18.0878 31.8411L18.5641 31.6985L19.0546 31.5376L19.5212 31.3721L20.0399 31.1748L20.5847 30.9541L20.9727 30.7881L21.57 30.5219L22.2294 30.2138L22.4349 30.1149L23.2249 29.7282L23.4128 29.6349L23.9017 29.3907L41.3179 20.6819L35.8544 17.9501H35.8545Z" fill="#EB3C00"/></svg>