<svg width="170" height="29" fill="none" xmlns="http://www.w3.org/2000/svg"><g clip-path="url(#clip0_1210_191)"><path d="M17.6562 12.9003H10.675L12.1875 6.0331H18.6437C20.7687 6.0331 22.0187 7.18076 22.0187 8.85523C22.0187 11.0628 20.4062 12.9003 17.6562 12.9003ZM29.175 8.17792C29.175 3.46182 25.55 0 19.2125 0H6.3125L0 28.8485H7.1875L9.3625 18.9397H13.5687L17.75 28.8485H24.9187L20.4625 18.463C25.8063 17.6227 29.175 13.3205 29.175 8.17792ZM41.575 18.0491L47.7375 7.41281L50.0687 18.0491H41.5812H41.575ZM44.825 0L28.125 28.8485H35.2938L38.0875 24.0634H51.3875L52.4375 28.8485H59.6063L53.3125 0H44.825ZM80.1875 12.9003H73.8125L75.3125 6.0331H80.8625C83.05 6.0331 84.3938 7.08042 84.3938 8.85523C84.3938 11.0628 82.7375 12.9003 80.1937 12.9003H80.1875ZM81.5938 0H69.4375L63.125 28.8485H70.3L72.4875 18.9271H80.5C87.35 18.9271 91.5 13.7469 91.5 8.28453C91.5 3.41792 87.7187 0.00627141 81.5875 0.00627141L81.5938 0ZM105.387 0H98.2L91.875 28.8485H99.0625L105.387 0Z" fill="black"/><path d="M156.862 0H134.2C134.544 0.351199 134.888 0.714941 135.2 1.0975C137.738 4.18303 139.075 8.05876 139.075 12.3233C139.075 18.9083 136.312 24.8473 131.875 28.8485H145.75L152.344 12.4048H144.094L145.469 6.02682H161.856L153.25 28.8485H156.625C164.481 28.8987 169.794 22.3513 169.794 14.3992C169.794 6.44701 164.731 0 156.856 0" fill="#E95F26"/><path d="M116.85 22.8279H112.881L116.569 6.0331H120.319C124.431 6.0331 126.737 9.1249 126.737 12.9944C126.737 18.1996 123.037 22.8279 116.862 22.8279H116.85ZM131.25 4.70356C128.787 1.69328 124.719 0 119.919 0H110.706L104.375 28.8485H115.969C120.469 28.8485 123.931 27.8451 126.575 26.2458C131.95 22.9722 133.856 17.215 133.856 12.3233C133.856 9.27541 132.906 6.69159 131.256 4.70356" fill="black"/></g><defs><clipPath id="clip0_1210_191"><rect width="170" height="28.8485" fill="white"/></clipPath></defs></svg>