<svg width="172" height="42" fill="none" xmlns="http://www.w3.org/2000/svg"><path d="M35.6701 24.2247C39.1798 24.2247 44.2653 23.4932 44.2653 19.3194C44.2727 18.9968 44.2438 18.6745 44.1793 18.3584L42.0162 9.26475C41.5291 7.27104 41.0994 6.39611 37.604 4.6032C34.8822 3.16888 29.0088 0.916992 27.2038 0.916992C25.3988 0.916992 25.0836 3.02545 23.1497 3.02545C21.2158 3.02545 19.9122 1.46203 18.1359 1.46203C16.3595 1.46203 15.3567 2.60949 14.5116 4.97613C14.5116 4.97613 12.1479 11.6314 11.847 12.5924C11.8204 12.7731 11.8204 12.9567 11.847 13.1374C11.847 15.7335 22.018 24.2247 35.6557 24.2247H35.6701ZM44.7953 21.0119C45.0495 21.9496 45.2079 22.9107 45.268 23.8805C45.268 27.8249 40.8558 29.9907 35.0541 29.9907C21.9321 29.9907 10.4575 22.3027 10.4575 17.2252C10.4256 16.5049 10.5477 15.7861 10.8156 15.1168C6.10259 15.375 0 16.2212 0 21.6143C0 30.4497 20.915 41.3506 37.475 41.3506C50.1673 41.3506 53.3762 35.6133 53.3762 31.0521C53.3762 27.4807 50.2962 23.4359 44.781 21.0119" fill="#ED2636"/><path d="M44.738 21.0121C44.9922 21.9498 45.1506 22.911 45.2107 23.8808C45.2107 27.8251 40.7985 29.991 34.9968 29.991C21.8748 29.991 10.4002 22.303 10.4002 17.2255C10.3864 16.501 10.5281 15.782 10.8156 15.1171L11.8471 12.564C11.8204 12.7447 11.8204 12.9283 11.8471 13.109C11.8471 15.7051 22.018 24.1963 35.6557 24.1963C39.1654 24.1963 44.2509 23.4648 44.2509 19.2909C44.2583 18.9684 44.2295 18.646 44.1649 18.3299L44.738 21.0121Z" fill="black"/><path d="M162.435 26.8353C162.435 30.1629 164.44 31.7981 168.165 31.7981C169.291 31.7654 170.411 31.6066 171.502 31.3247V27.4521C170.803 27.6723 170.073 27.7836 169.339 27.7819C167.835 27.7819 167.277 27.3086 167.277 25.8886V19.9505H171.646V15.9631H167.277V10.9143L162.506 11.947V15.9631H159.355V19.9505H162.506L162.435 26.8353ZM147.594 26.9214C147.594 25.8886 148.625 25.3866 150.186 25.3866C151.153 25.3847 152.115 25.5052 153.051 25.7452V27.7533C152.138 28.2496 151.111 28.5015 150.072 28.4848C148.539 28.4848 147.637 27.8967 147.637 26.9214H147.594ZM149.069 31.8554C150.594 31.9092 152.097 31.4828 153.367 30.6363V31.5829H158.08V21.5426C158.08 17.7417 155.515 15.6332 151.247 15.6332C148.72 15.6721 146.232 16.2593 143.955 17.3544L145.645 20.8542C147.125 20.1354 148.731 19.7116 150.373 19.6063C152.35 19.6063 153.352 20.3808 153.352 21.9443V22.7188C152.197 22.4158 151.008 22.2663 149.814 22.2741C145.803 22.2741 143.382 23.9523 143.382 26.9644C143.382 29.7183 145.559 31.8124 149.112 31.8124L149.069 31.8554ZM123.198 31.5399H128.269V23.4933H136.764V31.5829H141.835V10.9143H136.692V18.8605H128.197V10.9143H123.126L123.198 31.5399ZM103.787 23.7228C103.786 23.1907 103.893 22.6639 104.101 22.174C104.308 21.6841 104.613 21.2411 104.995 20.8716C105.377 20.5021 105.83 20.2135 106.327 20.0232C106.823 19.8329 107.353 19.7448 107.884 19.7641C109.098 19.7398 110.278 20.1694 111.193 20.9689V26.4337C110.75 26.8481 110.23 27.1705 109.662 27.3823C109.094 27.594 108.489 27.6908 107.884 27.6672C107.354 27.6844 106.827 27.5954 106.332 27.4052C105.838 27.2151 105.386 26.9278 105.004 26.5602C104.623 26.1925 104.318 25.7521 104.109 25.2648C103.9 24.7775 103.79 24.2532 103.787 23.7228ZM111.25 31.5399H115.978V9.88159L111.193 10.9143V16.795C109.981 16.1012 108.606 15.7446 107.21 15.7623C106.159 15.7529 105.116 15.951 104.141 16.3452C103.165 16.7394 102.277 17.3221 101.527 18.06C100.777 18.7979 100.179 19.6765 99.768 20.6456C99.3569 21.6148 99.1404 22.6555 99.131 23.7085C99.1216 24.7614 99.3194 25.8059 99.7132 26.7822C100.107 27.7586 100.689 28.6478 101.426 29.399C102.163 30.1501 103.04 30.7486 104.008 31.1603C104.976 31.5719 106.016 31.7886 107.067 31.7981C108.572 31.8064 110.039 31.3285 111.25 30.4354V31.5399ZM89.6047 19.592C90.343 19.5995 91.0594 19.8449 91.6476 20.2918C92.2358 20.7387 92.6647 21.3634 92.8708 22.0733H86.3672C86.5409 21.3508 86.9574 20.71 87.5468 20.2583C88.1362 19.8065 88.8627 19.5713 89.6047 19.592ZM81.5109 23.7945C81.5249 24.8969 81.7608 25.9851 82.2043 26.9942C82.6477 28.0032 83.2898 28.9125 84.0921 29.6676C84.8943 30.4226 85.8404 31.0081 86.8737 31.3889C87.907 31.7697 89.0063 31.9382 90.1061 31.8841C92.4887 31.9255 94.7981 31.0591 96.5668 29.4601L93.4152 26.5915C92.9987 26.9904 92.5064 27.3014 91.9674 27.5059C91.4284 27.7104 90.8539 27.8043 90.278 27.7819C89.4647 27.8038 88.6638 27.5784 87.981 27.1354C87.2982 26.6925 86.7655 26.0527 86.4531 25.3006H97.5695V24.1244C97.5695 19.1617 94.2317 15.5902 89.6906 15.5902C88.6088 15.5666 87.5334 15.7629 86.5294 16.167C85.5254 16.5712 84.6136 17.1749 83.8492 17.9416C83.0847 18.7084 82.4833 19.6224 82.0814 20.6284C81.6795 21.6343 81.4854 22.7114 81.5109 23.7945ZM73.2881 15.1886C73.6204 15.1433 73.9584 15.1697 74.2796 15.2661C74.6008 15.3625 74.8977 15.5266 75.1503 15.7474C75.4028 15.9682 75.6053 16.2405 75.744 16.5462C75.8827 16.8518 75.9545 17.1836 75.9545 17.5194C75.9545 17.8551 75.8827 18.1869 75.744 18.4926C75.6053 18.7982 75.4028 19.0706 75.1503 19.2914C74.8977 19.5122 74.6008 19.6763 74.2796 19.7726C73.9584 19.869 73.6204 19.8954 73.2881 19.8501H68.2743V15.2603L73.2881 15.1886ZM63.2604 31.5112H68.3316V24.0527H72.1851L76.0816 31.5829H81.7401L77.2133 23.3212C78.3683 22.8497 79.3563 22.0434 80.0505 21.0058C80.7447 19.9683 81.1136 18.7467 81.1098 17.4978C81.1098 13.783 78.2447 10.9143 73.8182 10.9143H63.2461L63.2604 31.5112Z" fill="black"/></svg>