<svg width="114" height="80" fill="none" xmlns="http://www.w3.org/2000/svg"><path d="M47.3034 8.68847C50.9694 4.86392 56.0733 2.49183 61.718 2.49183C69.2217 2.49183 75.7682 6.68118 79.2546 12.9004C82.2842 11.5451 85.6377 10.7911 89.166 10.7911C102.7 10.7911 113.672 21.8727 113.672 35.5416C113.672 49.2121 102.7 60.2936 89.166 60.2936C87.545 60.2946 85.9279 60.1333 84.339 59.8121C81.2689 65.2952 75.4185 68.9999 68.7035 68.9999C65.8924 68.9999 63.2336 68.3498 60.8663 67.1938C57.754 74.5236 50.503 79.663 42.0521 79.663C33.2514 79.663 25.751 74.0874 22.872 66.268C21.6139 66.5355 20.3104 66.675 18.9728 66.675C8.49466 66.6751 0 58.0823 0 47.4808C0 40.3763 3.81659 34.1732 9.48721 30.8545C8.31977 28.1649 7.6704 25.1963 7.6704 22.0752C7.6704 9.88323 17.556 0 29.749 0C36.9077 0 43.2698 3.40792 47.3034 8.68847Z" fill="#00A1E0"/><path d="M16.4642 41.3113C16.3929 41.4978 16.4901 41.5368 16.5127 41.5691C16.7264 41.7247 16.9435 41.8367 17.1621 41.9615C18.3215 42.5775 19.4162 42.7574 20.561 42.7574C22.8927 42.7574 24.3403 41.5156 24.3403 39.5165V39.4776C24.3403 37.6292 22.7066 36.9581 21.1731 36.4733L20.9739 36.4085C19.8178 36.0323 18.8203 35.7082 18.8203 34.9461V34.9057C18.8203 34.2539 19.4032 33.7739 20.3068 33.7739C21.3107 33.7739 22.5025 34.108 23.27 34.5327C23.27 34.5327 23.4951 34.6786 23.5777 34.4598C23.623 34.343 24.0117 33.2956 24.0522 33.1822C24.0959 33.0589 24.0182 32.9681 23.9388 32.9195C23.0628 32.386 21.8516 32.0212 20.5983 32.0212L20.3652 32.0228C18.231 32.0228 16.7413 33.3134 16.7413 35.1633V35.2022C16.7413 37.1526 18.3849 37.7849 19.9248 38.2259L20.1725 38.3021C21.2947 38.6474 22.2614 38.9441 22.2614 39.7353V39.7743C22.2614 40.4974 21.6332 41.0356 20.6195 41.0356C20.226 41.0356 18.9711 41.0275 17.6158 40.1697C17.4522 40.074 17.3567 40.0044 17.2304 39.9282C17.164 39.8861 16.9972 39.813 16.9244 40.0336L16.4642 41.3113ZM50.5996 41.3113C50.5284 41.4978 50.6256 41.5368 50.6482 41.5691C50.8619 41.7247 51.079 41.8367 51.2975 41.9615C52.4568 42.5775 53.5517 42.7574 54.6964 42.7574C57.0281 42.7574 58.4758 41.5156 58.4758 39.5165V39.4776C58.4758 37.6292 56.8419 36.9581 55.3084 36.4733L55.1093 36.4085C53.9531 36.0323 52.9556 35.7082 52.9556 34.9461V34.9057C52.9556 34.2539 53.5385 33.7739 54.4421 33.7739C55.446 33.7739 56.6378 34.108 57.4054 34.5327C57.4054 34.5327 57.6305 34.6786 57.7129 34.4598C57.7582 34.343 58.1469 33.2956 58.1874 33.1822C58.2312 33.0589 58.1534 32.9681 58.0741 32.9195C57.1981 32.386 55.9868 32.0212 54.7336 32.0212L54.5003 32.0228C52.3662 32.0228 50.8765 33.3134 50.8765 35.1633V35.2022C50.8765 37.1526 52.52 37.7849 54.06 38.2259L54.3077 38.3021C55.4298 38.6474 56.3983 38.9441 56.3983 39.7353V39.7743C56.3983 40.4974 55.7683 41.0356 54.7546 41.0356C54.3613 41.0356 53.1063 41.0275 51.751 40.1697C51.5874 40.074 51.4903 40.0076 51.3673 39.9282C51.3251 39.9006 51.1276 39.8244 51.0596 40.0336L50.5996 41.3113ZM73.9031 37.3956C73.9031 38.5256 73.6926 39.4156 73.278 40.0448C72.8683 40.6674 72.2482 40.9705 71.3836 40.9705C70.5174 40.9705 69.9004 40.669 69.4972 40.0448C69.089 39.4174 68.8819 38.5256 68.8819 37.3956C68.8819 36.2672 69.089 35.3787 69.4972 34.7561C69.9004 34.1401 70.5174 33.8401 71.3836 33.8401C72.2483 33.8401 72.8684 34.1401 73.2797 34.7561C73.6927 35.3786 73.9031 36.2671 73.9031 37.3956ZM75.8495 35.3009C75.6583 34.6539 75.3604 34.0832 74.9638 33.6083C74.567 33.1316 74.0651 32.749 73.4691 32.4701C72.8748 32.1929 72.1722 32.0519 71.3836 32.0519C70.5934 32.0519 69.8906 32.1929 69.2963 32.4701C68.7004 32.749 68.1985 33.1317 67.8002 33.6083C67.4051 34.0849 67.1071 34.6556 66.9145 35.3009C66.725 35.9445 66.6294 36.6481 66.6294 37.3956C66.6294 38.1431 66.725 38.8483 66.9145 39.4903C67.1071 40.1356 67.4035 40.7063 67.8019 41.1829C68.1985 41.6596 68.7021 42.0405 69.2964 42.3112C69.8922 42.582 70.5934 42.7198 71.3837 42.7198C72.1723 42.7198 72.8734 42.582 73.4692 42.3112C74.0635 42.0405 74.567 41.6595 74.9639 41.1829C75.3605 40.7078 75.6584 40.1371 75.8496 39.4903C76.0407 38.8467 76.1362 38.1414 76.1362 37.3956C76.1362 36.6498 76.0405 35.9445 75.8495 35.3009ZM91.8326 40.6687C91.7679 40.479 91.5849 40.5504 91.5849 40.5504C91.3016 40.6591 91.0003 40.7595 90.6797 40.8098C90.3542 40.8599 89.9963 40.886 89.6125 40.886C88.6703 40.886 87.9221 40.6055 87.3862 40.051C86.8486 39.4965 86.5474 38.6 86.5506 37.3873C86.5539 36.2832 86.8193 35.453 87.2971 34.8208C87.7716 34.1918 88.4938 33.869 89.4572 33.869C90.2604 33.869 90.8725 33.9614 91.5135 34.1641C91.5135 34.1641 91.6674 34.2305 91.7402 34.0296C91.9102 33.5561 92.0365 33.2173 92.2179 32.6968C92.2698 32.5493 92.1435 32.4861 92.0981 32.4682C91.8455 32.3693 91.2496 32.2089 90.7994 32.1408C90.3784 32.0759 89.8862 32.0419 89.3389 32.0419C88.521 32.0419 87.7924 32.1813 87.1691 32.4602C86.5473 32.7374 86.0194 33.12 85.6017 33.5968C85.1839 34.0734 84.8665 34.644 84.6544 35.2893C84.4439 35.9329 84.3371 36.6398 84.3371 37.3873C84.3371 39.0037 84.7727 40.3103 85.6325 41.267C86.4939 42.2268 87.7878 42.7148 89.4751 42.7148C90.4725 42.7148 91.4959 42.5122 92.2311 42.2219C92.2311 42.2219 92.372 42.1538 92.3104 41.9902L91.8326 40.6687ZM95.2381 36.313C95.3304 35.6856 95.5037 35.1635 95.7709 34.7567C96.1741 34.1389 96.7893 33.8001 97.6541 33.8001C98.5189 33.8001 99.0904 34.1405 99.5001 34.7567C99.7721 35.1635 99.8903 35.7084 99.9373 36.313H95.2381ZM101.791 34.9332C101.626 34.309 101.216 33.6783 100.948 33.3897C100.523 32.9326 100.109 32.6132 99.6976 32.4348C99.16 32.2046 98.5155 32.0522 97.8095 32.0522C96.987 32.0522 96.2404 32.1901 95.6349 32.4754C95.0277 32.7608 94.5177 33.1499 94.1177 33.6347C93.7176 34.1177 93.4165 34.6933 93.2253 35.3467C93.0327 35.9969 92.9355 36.7054 92.9355 37.4527C92.9355 38.2131 93.036 38.9216 93.2351 39.5587C93.436 40.2008 93.7565 40.7666 94.1905 41.2351C94.6227 41.707 95.1798 42.0767 95.847 42.3343C96.5093 42.5905 97.3141 42.7234 98.2386 42.7217C100.141 42.7152 101.144 42.2905 101.557 42.0619C101.629 42.0214 101.699 41.9501 101.611 41.7458L101.181 40.5378C101.116 40.3579 100.933 40.4244 100.933 40.4244C100.462 40.5995 99.7916 40.914 98.2288 40.9108C97.2072 40.9092 96.4492 40.6077 95.9748 40.1358C95.4874 39.6527 95.2494 38.9425 95.2073 37.9406L101.796 37.9471C101.796 37.9471 101.969 37.9439 101.987 37.7752C101.994 37.7041 102.214 36.42 101.791 34.9332ZM42.4717 36.313C42.5656 35.6856 42.7373 35.1635 43.0044 34.7567C43.4076 34.1389 44.0229 33.8001 44.8876 33.8001C45.7522 33.8001 46.3239 34.1405 46.7351 34.7567C47.0055 35.1635 47.1237 35.7084 47.1707 36.313H42.4717ZM49.0231 34.9332C48.858 34.309 48.45 33.6783 48.1812 33.3897C47.7569 32.9326 47.3424 32.6132 46.9312 32.4348C46.3935 32.2046 45.7492 32.0522 45.0431 32.0522C44.2222 32.0522 43.474 32.1901 42.8685 32.4754C42.2613 32.7608 41.7512 33.1499 41.3512 33.6347C40.9513 34.1177 40.6501 34.6933 40.4591 35.3467C40.268 35.9969 40.1692 36.7054 40.1692 37.4527C40.1692 38.2131 40.2696 38.9216 40.4688 39.5587C40.6697 40.2008 40.9903 40.7666 41.4242 41.2351C41.8566 41.707 42.4136 42.0767 43.0807 42.3343C43.743 42.5905 44.5477 42.7234 45.4723 42.7217C47.3749 42.7152 48.3773 42.2905 48.7902 42.0619C48.8631 42.0214 48.9327 41.9501 48.8453 41.7458L48.4162 40.5378C48.3498 40.3579 48.1669 40.4244 48.1669 40.4244C47.6957 40.5995 47.0269 40.914 45.4611 40.9108C44.441 40.9092 43.6832 40.6077 43.2087 40.1358C42.7212 39.6527 42.4833 38.9425 42.4411 37.9406L49.0298 37.9471C49.0298 37.9471 49.203 37.9439 49.2209 37.7752C49.2271 37.7041 49.4473 36.42 49.0231 34.9332ZM28.2302 40.6326C27.9727 40.4266 27.9371 40.3748 27.8497 40.2418C27.7201 40.0392 27.6537 39.7506 27.6537 39.3842C27.6537 38.8037 27.8448 38.3871 28.2415 38.1066C28.2368 38.1083 28.8083 37.6122 30.1522 37.6299C31.0962 37.6429 31.9398 37.7824 31.9398 37.7824V40.7818H31.9414C31.9414 40.7818 31.1043 40.9616 30.1619 41.0184C28.8212 41.0995 28.2253 40.631 28.2302 40.6326ZM30.8517 35.9973C30.5845 35.9779 30.2379 35.9665 29.8234 35.9665C29.2583 35.9665 28.7126 36.0378 28.2009 36.1756C27.686 36.3134 27.2229 36.5292 26.8246 36.8143C26.4268 37.0986 26.0999 37.4709 25.8692 37.9022C25.6361 38.3367 25.5179 38.8491 25.5179 39.423C25.5179 40.0067 25.6182 40.5141 25.819 40.9293C26.0199 41.3459 26.3097 41.6928 26.6788 41.9605C27.0447 42.228 27.4966 42.424 28.0211 42.5424C28.5377 42.6608 29.1238 42.7207 29.7651 42.7207C30.4403 42.7207 31.1139 42.6657 31.7665 42.5537C32.4126 42.4434 33.206 42.2829 33.4262 42.2327C33.5806 42.1955 33.7344 42.156 33.8877 42.1144C34.0513 42.0739 34.0384 41.8987 34.0384 41.8987L34.0351 35.866C34.0351 34.5429 33.6821 33.562 32.9874 32.9541C32.296 32.3478 31.2775 32.0412 29.9611 32.0412C29.4671 32.0412 28.6721 32.1094 28.196 32.205C28.196 32.205 26.7565 32.4839 26.1638 32.9476C26.1638 32.9476 26.0343 33.0287 26.1056 33.2103L26.572 34.4652C26.6302 34.6274 26.7874 34.5722 26.7874 34.5722C26.7874 34.5722 26.8375 34.5527 26.8959 34.5187C28.1638 33.828 29.7668 33.8491 29.7668 33.8491C30.4794 33.8491 31.0267 33.9917 31.3958 34.2754C31.7552 34.551 31.9382 34.9677 31.9382 35.8464V36.1253C31.3714 36.0443 30.8517 35.9973 30.8517 35.9973ZM83.9929 32.5982C84.043 32.4489 83.9378 32.3776 83.894 32.3614C83.7824 32.3177 83.2221 32.1993 82.7897 32.1717C81.9624 32.1215 81.5026 32.2609 81.0911 32.4457C80.6831 32.6305 80.2298 32.9288 79.977 33.2677V32.4652C79.977 32.3533 79.8977 32.2641 79.7876 32.2641H78.0987C77.9886 32.2641 77.9093 32.3532 77.9093 32.4652V42.3047C77.9093 42.415 78 42.5058 78.1101 42.5058H79.8411C79.8941 42.5055 79.9448 42.4842 79.9822 42.4465C80.0195 42.4088 80.0404 42.3578 80.0402 42.3047V37.3891C80.0402 36.7292 80.1131 36.071 80.2589 35.6576C80.4014 35.2489 80.5957 34.9215 80.8353 34.6864C81.0766 34.4529 81.3502 34.2892 81.6498 34.1968C81.9558 34.1027 82.2942 34.0719 82.5339 34.0719C82.8788 34.0719 83.2577 34.161 83.2577 34.161C83.3839 34.1756 83.4553 34.0978 83.4972 33.9827C83.6107 33.6812 83.9313 32.7781 83.9929 32.5982Z" fill="white"/><path d="M67.745 28.038C67.5345 27.9731 67.3435 27.9293 67.094 27.8823C66.8413 27.837 66.5402 27.8142 66.1987 27.8142C65.0067 27.8142 64.0676 28.1514 63.4086 28.8161C62.7528 29.4777 62.3074 30.4844 62.0839 31.8091L62.0029 32.2549H60.5069C60.5069 32.2549 60.3255 32.2484 60.2866 32.4463L60.0422 33.8195C60.0243 33.9492 60.0811 34.0318 60.2559 34.0318H61.7116L60.2348 42.2874C60.1198 42.9521 59.987 43.4985 59.8396 43.9135C59.6955 44.3221 59.5547 44.6285 59.3798 44.8522C59.2114 45.0663 59.0527 45.2251 58.7773 45.3175C58.5507 45.3937 58.2884 45.4294 58.0018 45.4294C57.843 45.4294 57.631 45.4033 57.4739 45.3709C57.3185 45.3401 57.2359 45.3061 57.1176 45.2558C57.1176 45.2558 56.9476 45.191 56.8796 45.3612C56.8261 45.5023 56.4375 46.5706 56.3905 46.7021C56.3453 46.8333 56.41 46.9355 56.4925 46.9663C56.6868 47.0344 56.8309 47.0797 57.0949 47.143C57.4609 47.229 57.7701 47.2338 58.0599 47.2338C58.6655 47.2338 59.2193 47.1479 59.6776 46.9826C60.1375 46.8155 60.5389 46.5252 60.8952 46.133C61.279 45.7082 61.5202 45.264 61.7503 44.656C61.9786 44.0561 62.1746 43.3103 62.3299 42.4414L63.8148 34.0318H65.9846C65.9846 34.0318 66.1675 34.0383 66.2049 33.8389L66.4509 32.4674C66.4672 32.3361 66.4121 32.255 66.2355 32.255H64.1289C64.1403 32.2081 64.2357 31.4654 64.4771 30.7668C64.5807 30.4701 64.775 30.2285 64.9386 30.063C65.1006 29.9009 65.2868 29.7858 65.4909 29.7193C65.6997 29.6512 65.9379 29.6188 66.1985 29.6188C66.3961 29.6188 66.5919 29.6415 66.7392 29.6723C66.9433 29.7161 67.0226 29.7388 67.0762 29.7551C67.2916 29.8199 67.3206 29.7567 67.3628 29.653L67.8664 28.2684C67.9182 28.119 67.7903 28.0557 67.745 28.038ZM38.3109 42.3053C38.3109 42.4155 38.2316 42.5047 38.1214 42.5047H36.3743C36.2641 42.5047 36.1864 42.4155 36.1864 42.3053V28.2261C36.1864 28.1159 36.2641 28.0267 36.3743 28.0267H38.1214C38.2316 28.0267 38.3109 28.1159 38.3109 28.2261V42.3053Z" fill="white"/></svg>