<svg width="154" height="48" fill="none" xmlns="http://www.w3.org/2000/svg"><path d="M130.097 33.5837C128.22 34.2522 126.474 34.8539 124.729 35.5224C124.221 35.7229 124.199 35.3218 124.044 35.1213C121.305 31.1993 118.566 27.2773 115.826 23.3553C115.672 23.1101 115.495 22.8873 115.318 22.6422C115.031 22.8427 115.142 23.1101 115.142 23.3107C115.142 27.0321 115.119 30.7313 115.142 34.4527C115.142 35.0544 114.987 35.2104 114.39 35.1881C112.8 35.1436 111.209 35.1436 109.619 35.1881C109.133 35.1881 108.934 35.099 108.934 34.5419C108.956 23.2661 108.956 11.9903 108.934 0.714585C108.934 0.135198 109.111 0.00149154 109.641 0.0237757C111.231 0.0683439 112.822 0.0683439 114.412 0.0237757C114.965 0.00149154 115.119 0.157482 115.097 0.714585C115.075 7.06556 115.075 13.4388 115.097 19.7898C115.097 20.0572 114.876 20.4583 115.318 20.6143C115.716 20.748 115.937 20.436 116.158 20.1686C118.588 17.2717 121.018 14.3748 123.404 11.4555C123.823 10.9653 124.133 10.8093 124.751 11.1213C125.988 11.7452 127.292 12.28 128.617 12.8594C126.187 15.5335 123.846 18.1631 121.438 20.748C120.885 21.3497 120.775 21.7062 121.349 22.4193C124.309 26.0962 127.159 29.8176 130.097 33.5837Z" fill="black"/><path d="M72.1735 32.0908C71.5107 32.6925 71.0026 33.205 70.4282 33.6507C67.225 36.1242 63.6903 36.4139 60.0673 34.854C57.4826 33.7398 56.4885 31.4 56.3118 28.7482C55.9362 23.0657 56.2234 17.3833 56.135 11.7008C56.135 11.2329 56.3339 11.1883 56.7094 11.2106C58.3221 11.2329 59.9348 11.2551 61.5475 11.2106C62.166 11.1883 62.2765 11.4111 62.2765 11.9905C62.2544 16.2022 62.2323 20.4362 62.2765 24.6479C62.2765 25.7398 62.2544 26.8317 62.4753 27.9014C63.0497 30.6869 64.9937 31.7788 67.5122 31.4446C70.5608 31.0434 72.1293 28.9487 72.1514 25.4278C72.1735 20.9933 72.1735 16.5588 72.1514 12.1242C72.1514 11.4334 72.2839 11.166 73.035 11.1883C74.6035 11.2551 76.1499 11.2329 77.7184 11.2106C78.1603 11.2106 78.3149 11.3443 78.3149 11.79C78.2928 19.4111 78.2928 27.01 78.3149 34.6312C78.3149 35.0769 78.1823 35.2106 77.7405 35.2106C76.0395 35.1883 74.3605 35.1883 72.6595 35.2106C72.2839 35.2106 72.1514 35.1214 72.1735 34.7203C72.1956 33.8735 72.1735 33.0713 72.1735 32.0908Z" fill="black"/><path d="M88.72 14.3973C90.0234 13.038 91.2164 11.9461 92.7407 11.3667C95.1045 10.4531 97.5346 10.3416 99.9425 11.1661C102.925 12.2135 104.361 14.5756 104.582 17.6063C104.979 23.311 104.714 29.038 104.781 34.7427C104.781 35.077 104.714 35.2107 104.339 35.2107C102.571 35.1884 100.782 35.1884 99.0147 35.2107C98.3961 35.233 98.5728 34.8096 98.5728 34.5199C98.5728 29.818 98.5728 25.116 98.5728 20.4141C98.5728 19.6564 98.5287 18.921 98.3298 18.2079C97.5345 15.3333 95.4359 14.6425 92.8512 15.1104C90.1339 15.6007 88.7421 17.6063 88.72 20.7706C88.6979 25.3166 88.6979 29.8625 88.72 34.3862C88.72 35.0324 88.5875 35.233 87.9247 35.2107C86.3121 35.1439 84.6994 35.1661 83.0867 35.2107C82.6449 35.2107 82.5123 35.0993 82.5123 34.6313C82.5344 27.0547 82.5344 19.4558 82.5123 11.8792C82.5123 11.3667 82.667 11.2553 83.1309 11.2776C84.7878 11.2998 86.4667 11.3221 88.1457 11.2776C88.6759 11.2553 88.7642 11.4558 88.7421 11.9238C88.6759 12.6369 88.72 13.3946 88.72 14.3973Z" fill="black"/><path d="M46.0171 17.6061C46.0171 11.9905 46.0171 6.37491 45.9951 0.759313C45.9951 0.179926 46.1055 -0.0206318 46.7241 0.0016523C48.3367 0.0462205 49.9494 0.0239364 51.5621 0.0016523C52.0039 0.0016523 52.1365 0.113073 52.1365 0.581039C52.1144 11.9237 52.1144 23.244 52.1365 34.5866C52.1365 35.1214 51.9597 35.1883 51.4958 35.166C49.9273 35.1437 48.3588 35.1214 46.8124 35.166C46.1718 35.1883 45.973 35.0323 45.973 34.3415C46.0392 28.7704 46.0171 23.1994 46.0171 17.6061Z" fill="black"/><path d="M13.9182 15.5559C12.5044 14.62 11.0463 14.0406 9.34529 14.308C8.37327 14.464 7.57797 14.932 7.2466 15.9125C6.91523 16.893 7.2466 17.7398 7.95353 18.4529C9.43366 19.9459 11.201 21.1047 12.7916 22.464C13.2555 22.8651 13.6973 23.2885 14.1612 23.6896C17.7622 26.8763 16.8564 33.4055 11.2452 35.1659C7.37915 36.3693 3.71196 35.9013 0.376142 33.4278C-0.0656879 33.1158 -0.109872 32.8707 0.199409 32.425C0.707514 31.6896 1.17144 30.9097 1.59117 30.1075C1.81209 29.7063 1.94464 29.7063 2.27601 29.996C3.51314 31.0211 4.81653 31.9125 6.4734 32.0462C8.39536 32.2244 9.87549 31.2439 10.1406 29.5504C10.3394 28.2356 9.76503 27.2105 8.793 26.4083C7.62216 25.4278 6.38503 24.5141 5.17 23.5559C3.8666 22.5309 2.60738 21.4835 1.83418 19.9682C0.155227 16.6924 1.74582 12.6813 5.41301 11.3219C8.85928 10.0295 12.1951 10.542 15.3763 12.3693C15.6414 12.5253 15.7518 12.6367 15.553 12.9487C14.9786 13.7955 14.4705 14.6868 13.9182 15.5559Z" fill="black"/><path d="M135.444 34.4308C135.444 33.1606 135.466 32.0909 135.422 31.0213C135.399 30.531 135.598 30.3305 135.996 30.1299C140.26 27.9684 144.523 25.7845 148.787 23.623C148.986 23.5338 149.162 23.4447 149.339 23.3333C149.693 23.1327 149.693 22.9099 149.339 22.687C149.162 22.5756 148.964 22.4865 148.787 22.3973C144.567 20.2581 140.348 18.1188 136.106 16.0241C135.62 15.7789 135.399 15.5115 135.422 14.9322C135.466 13.8625 135.444 12.7929 135.444 11.6118C136.305 12.0352 137.078 12.414 137.852 12.8152C141.629 14.7762 145.407 16.7149 149.185 18.6759C150.62 19.4113 152.034 20.1689 153.47 20.9043C153.802 21.0603 153.934 21.2608 153.934 21.6397C153.912 22.531 153.89 23.4001 153.934 24.2915C153.956 24.7817 153.78 25.0491 153.338 25.272C148.699 27.6118 144.059 29.9739 139.42 32.3583C138.117 32.9823 136.857 33.6731 135.444 34.4308Z" fill="#73AF37"/><path d="M41.8861 16.1576C38.7933 9.47236 30.1114 9.00439 26.0465 13.6172C25.7814 13.9069 25.4721 14.1743 25.0524 14.5977C25.0524 13.5726 25.0303 12.7258 25.0524 11.879C25.0745 11.3888 24.9419 11.2328 24.4338 11.2551C22.8433 11.2774 21.2527 11.2997 19.6621 11.2551C19.1761 11.2551 19.0435 11.3888 19.0435 11.879C19.0656 23.4445 19.0656 35.0322 19.0435 46.5977C19.0435 47.1548 19.2423 47.2439 19.7063 47.2217C21.2527 47.1994 22.777 47.1771 24.3234 47.2217C24.964 47.2439 25.0303 46.9988 25.0303 46.4417C25.0082 41.9849 25.0082 37.5058 25.0082 33.049C25.0082 32.7593 25.0082 32.4696 25.0082 31.9793C25.3175 32.3136 25.4721 32.4919 25.6489 32.6701C26.6209 33.6952 27.6371 34.6534 28.9847 35.1882C32.674 36.6813 37.5783 35.3442 40.1851 31.957C43.9406 27.0545 44.4266 21.6395 41.8861 16.1576ZM36.8934 22.8205C36.8051 25.0267 36.5179 27.1882 35.4575 29.2161C33.3146 33.2941 28.2336 32.6033 26.4221 29.3944C25.185 27.2105 24.9199 24.8261 25.0524 22.3749C25.1408 20.659 25.4721 19.01 26.2674 17.4724C28.0127 14.1743 32.0333 13.3275 34.5517 15.7342C35.9214 17.049 36.4737 18.7648 36.7388 20.5698C36.8051 21.3275 36.9376 22.0852 36.8934 22.8205Z" fill="black"/></svg>