<svg width="184" height="40" fill="none" xmlns="http://www.w3.org/2000/svg"><g clip-path="url(#clip0_1210_269)"><path d="M48.1856 27.6294V16.7026H44.6326V11.8831H48.1856V6.12695H53.8944V11.8831H58.2659V16.7026H53.8944V26.1465C53.8944 27.4928 54.613 28.5074 55.8905 28.5074C56.6178 28.5414 57.3312 28.3043 57.8866 27.844L59.0843 32.0587C57.7297 33.0611 56.0479 33.5467 54.3535 33.4245C53.5424 33.5265 52.7181 33.4453 51.944 33.1872C51.1699 32.9291 50.4667 32.5009 49.8884 31.9356C49.3101 31.3703 48.8721 30.6829 48.608 29.9262C48.344 29.1696 48.2609 28.3638 48.3653 27.5709" fill="#445464"/><path d="M59.5036 22.3611C59.463 20.9166 59.7218 19.4791 60.2644 18.135C60.807 16.7909 61.6222 15.5681 62.6609 14.54C63.6996 13.5119 64.9403 12.6998 66.3085 12.1526C67.6766 11.6055 69.1438 11.3346 70.6218 11.3562C77.0692 11.3562 81.4007 16.0586 81.4007 22.8879V24.1952H65.432C65.668 25.5968 66.4363 26.8596 67.5835 27.7314C68.7307 28.6032 70.1722 29.0197 71.6199 28.8976C73.7018 28.8798 75.7127 28.1556 77.3088 26.8489L79.8438 30.4976C77.3437 32.4797 74.1987 33.5183 70.9811 33.4245C69.4652 33.5075 67.9483 33.2794 66.528 32.7549C65.1077 32.2303 63.8155 31.421 62.7344 30.3789C61.6533 29.3369 60.8074 28.0851 60.2509 26.7042C59.6945 25.3233 59.4399 23.8439 59.5036 22.3611ZM70.6218 15.883C69.3193 15.8077 68.0388 16.2362 67.0566 17.0758C66.0744 17.9154 65.4694 19.0989 65.3721 20.3708H75.9714C75.9287 19.7303 75.7555 19.1045 75.462 18.5303C75.1686 17.9561 74.7607 17.4449 74.2624 17.0269C73.7641 16.6088 73.1853 16.2923 72.5602 16.0959C71.935 15.8994 71.276 15.8271 70.6218 15.883Z" fill="#445464"/><path d="M98.0281 32.8976V20.1951C98.1134 19.6637 98.0689 19.12 97.8985 18.6085C97.728 18.0969 97.4363 17.632 97.0471 17.2516C96.658 16.8712 96.1824 16.586 95.6591 16.4194C95.1358 16.2528 94.5796 16.2094 94.0359 16.2927C93.0848 16.3099 92.1503 16.5384 91.3029 16.961C90.4556 17.3835 89.7178 17.9891 89.1455 18.7317V32.9171H83.5165V11.883H89.1654V14.5756C90.1143 13.5478 91.276 12.7291 92.5735 12.174C93.871 11.6189 95.2745 11.3401 96.6907 11.3561C101.441 11.3561 103.797 13.9708 103.797 18.0488V32.8976H98.0281Z" fill="#445464"/><path d="M119.766 32.8979V30.6735C118.902 31.5854 117.846 32.3036 116.671 32.7785C115.496 33.2534 114.229 33.4739 112.959 33.4247C111.997 33.4669 111.035 33.318 110.134 32.9869C109.232 32.6557 108.408 32.1493 107.712 31.4982C107.016 30.8472 106.463 30.0649 106.085 29.1987C105.707 28.3326 105.512 27.4005 105.513 26.4589C105.513 21.5028 109.506 19.6687 112.959 19.6687C114.214 19.5946 115.472 19.7845 116.646 20.2254C117.82 20.6663 118.884 21.3481 119.766 22.2247V19.5126C119.766 17.3857 117.889 16.0004 115.055 16.0004C112.743 16.0171 110.526 16.9047 108.867 18.4784L106.631 14.576C109.242 12.382 112.59 11.2077 116.033 11.2784C120.963 11.2784 125.454 13.2296 125.454 19.2394V32.8979H119.766ZM119.766 27.8443V25.2296C119.209 24.5927 118.512 24.0866 117.728 23.7488C116.943 23.4111 116.091 23.2503 115.234 23.2784C112.999 23.2784 111.242 24.4687 111.242 26.4589C111.242 28.4491 113.059 29.6004 115.234 29.6004C116.076 29.6583 116.92 29.5306 117.705 29.2266C118.489 28.9226 119.193 28.4502 119.766 27.8443Z" fill="#445464"/><path d="M127.95 32.8975V3.90234H133.599V14.5755C134.364 13.5643 135.363 12.745 136.515 12.1853C137.668 11.6256 138.939 11.3414 140.226 11.356C145.715 11.356 149.707 15.6097 149.707 22.3609C149.707 29.1121 145.715 33.4243 140.186 33.4243C138.903 33.4206 137.637 33.1283 136.488 32.57C135.339 32.0117 134.337 31.2024 133.559 30.2048V32.8975H127.95ZM138.489 28.5072C141.743 28.5072 143.919 26.0097 143.919 22.3609C143.919 18.7121 141.723 16.2731 138.489 16.2731C137.538 16.2917 136.604 16.5208 135.757 16.9433C134.91 17.3657 134.172 17.9705 133.599 18.7121V26.1462C134.186 26.8673 134.929 27.4527 135.774 27.8608C136.619 28.2689 137.546 28.4896 138.489 28.5072Z" fill="#445464"/><path d="M157.312 3.86328H151.663V32.8779H157.312V3.86328Z" fill="#445464"/><path d="M159.428 22.361C159.39 20.9157 159.652 19.4778 160.197 18.1336C160.741 16.7894 161.558 15.5667 162.599 14.5389C163.639 13.5111 164.881 12.6994 166.25 12.1524C167.619 11.6055 169.087 11.3347 170.566 11.3562C177.014 11.3562 181.325 16.0586 181.325 22.8879V24.1952H165.357C165.593 25.5967 166.361 26.8596 167.508 27.7314C168.655 28.6032 170.097 29.0197 171.544 28.8976C173.626 28.8798 175.637 28.1556 177.233 26.8489L179.768 30.4976C177.275 32.4783 174.137 33.5171 170.926 33.4245C169.409 33.5072 167.891 33.2791 166.47 32.7548C165.049 32.2305 163.755 31.4215 162.673 30.3797C161.59 29.338 160.742 28.0865 160.183 26.7056C159.625 25.3247 159.367 23.8448 159.428 22.361ZM170.566 15.883C169.264 15.8077 167.983 16.2362 167.001 17.0758C166.019 17.9154 165.414 19.0989 165.317 20.3708H175.896C175.856 19.7311 175.685 19.1058 175.394 18.5317C175.102 17.9575 174.696 17.4462 174.2 17.028C173.703 16.6097 173.125 16.2929 172.501 16.0962C171.877 15.8996 171.219 15.8271 170.566 15.883Z" fill="#445464"/><path d="M183.082 9.22934C183.358 9.389 183.586 9.61807 183.741 9.89276C183.915 10.1753 184.004 10.4996 184 10.8293C184.007 11.1532 183.917 11.4721 183.741 11.7464C183.586 12.0211 183.358 12.2502 183.082 12.4098C182.788 12.5651 182.458 12.6456 182.124 12.644C181.796 12.6424 181.474 12.562 181.186 12.4098C180.904 12.2395 180.676 11.9964 180.527 11.7074C180.351 11.433 180.261 11.1142 180.268 10.7903C180.263 10.4606 180.353 10.1363 180.527 9.85373C180.682 9.57905 180.909 9.34997 181.186 9.19032C181.468 9.02106 181.793 8.93313 182.124 8.93666C182.461 8.93261 182.793 9.02044 183.082 9.19032V9.22934ZM182.882 12.0781C183.098 11.9483 183.277 11.767 183.401 11.5513C183.528 11.3164 183.596 11.0557 183.601 10.7903C183.601 10.5243 183.532 10.2625 183.401 10.0293C183.284 9.8037 183.104 9.61454 182.882 9.483C182.65 9.35733 182.389 9.29026 182.124 9.28788C181.865 9.29017 181.61 9.35735 181.385 9.483C181.164 9.61454 180.984 9.8037 180.866 10.0293C180.741 10.264 180.68 10.5259 180.687 10.7903C180.685 11.0543 180.746 11.315 180.866 11.5513C180.987 11.7725 181.169 11.9559 181.391 12.0802C181.614 12.2045 181.868 12.2647 182.124 12.2537C182.388 12.2582 182.649 12.1978 182.882 12.0781ZM182.783 10.7123C182.689 10.8098 182.573 10.8835 182.443 10.9269L182.982 11.7464H182.503L182.044 10.9854H181.884V11.7074H181.465V9.75617H182.024C182.623 9.75617 182.922 9.9708 182.922 10.361C182.925 10.4259 182.914 10.4905 182.89 10.551C182.866 10.6115 182.83 10.6664 182.783 10.7123ZM181.884 10.7123H182.104C182.363 10.7123 182.483 10.7123 182.483 10.4001C182.483 10.0879 182.483 10.2245 182.483 10.1854C182.385 10.1588 182.282 10.1588 182.184 10.1854H181.984L181.884 10.7123Z" fill="#445464"/><path d="M35.9303 6.20515L36.8685 9.60027L39.9225 21.0149C40.3217 22.4588 40.7409 23.9808 40.8407 24.41C40.9126 24.7188 40.9066 25.04 40.8231 25.3459C40.7396 25.6519 40.5813 25.9334 40.3616 26.1661L37.9264 28.6442L29.3033 37.0734L26.7682 39.5515C26.5301 39.7662 26.2422 39.921 25.9292 40.0026C25.6162 40.0842 25.2876 40.0901 24.9718 40.0198L21.4985 39.0247L9.82139 35.9808L6.34819 35.1222C6.04087 35.0327 5.76015 34.872 5.52979 34.6539C5.30414 34.4273 5.13358 34.1538 5.03077 33.8539C5.03077 33.4247 4.51178 31.9027 4.11256 30.4588L0.978695 18.9661C0.579476 17.5613 0.160296 16.0003 0.000608873 15.61L0.43975 15.493L0.87889 15.3759C0.998656 15.7856 1.41784 17.3271 1.81705 18.7515L4.95092 30.1856C5.35014 31.6295 5.76932 33.1515 5.86913 33.5808C5.93595 33.7224 6.02335 33.8538 6.12862 33.971C6.2485 34.0739 6.38296 34.1593 6.52784 34.2247L9.98108 35.1222L21.6582 38.1856L25.1314 39.0832C25.2895 39.1136 25.4526 39.1083 25.6083 39.0677C25.7639 39.0272 25.9081 38.9524 26.0297 38.8491L28.5647 36.371L37.108 28.0198L39.643 25.5417C39.7487 25.4229 39.8252 25.282 39.8668 25.1298C39.9083 24.9776 39.9137 24.8182 39.8826 24.6637C39.7828 24.2539 39.3636 22.7125 38.9644 21.2686L35.9303 9.75637L34.9722 6.4393C34.921 6.29913 34.8363 6.17292 34.7252 6.07112C34.6141 5.96932 34.4798 5.89487 34.3334 5.85393L30.8602 4.93686L19.1631 1.83442L15.7099 0.917347C15.5517 0.891089 15.3897 0.89841 15.2347 0.938812C15.0797 0.979214 14.9354 1.05175 14.8116 1.15149L12.2766 3.62954L3.71334 12.0003L1.1783 14.4783C1.07627 14.5993 1.00206 14.7403 0.960732 14.8919C0.919402 15.0434 0.911912 15.2018 0.938773 15.3564L0.499632 15.4734L0.000608873 15.61C-0.071298 15.3013 -0.0652592 14.9801 0.0182039 14.6741C0.101667 14.3682 0.260047 14.0867 0.479672 13.8539L3.05463 11.3564L11.6179 3.00515L14.1529 0.527103C14.3873 0.299067 14.6761 0.131543 14.9931 0.0395859C15.3102 -0.0523715 15.6456 -0.0658803 15.9694 0.000273481L19.4026 0.956371L31.0998 4.01979L34.553 4.93686C34.8698 5.01794 35.1591 5.1795 35.3914 5.40515C35.6145 5.63033 35.7788 5.90474 35.8704 6.20515" fill="#03A7B6"/><path d="M21.2186 3.18057L23.7736 4.62447L32.4167 9.50252L34.9917 10.9464C35.2141 11.0863 35.399 11.2762 35.531 11.5003C35.6629 11.7243 35.7381 11.976 35.7502 12.2342V27.844C35.7381 28.1022 35.6629 28.3539 35.531 28.5779C35.399 28.802 35.2141 28.9919 34.9917 29.1318L32.4167 30.5757L23.7736 35.4537L21.2186 36.8976C20.9831 37.0127 20.7234 37.0726 20.4601 37.0726C20.1968 37.0726 19.9371 37.0127 19.7016 36.8976L17.1266 35.4537L8.48355 30.5757L5.98844 29.0537L6.18804 28.722L6.36769 28.4098L8.94266 29.8537L17.5857 34.7318L20.1407 36.1757C20.2602 36.2273 20.3894 36.254 20.52 36.254C20.6506 36.254 20.7798 36.2273 20.8993 36.1757L23.4543 34.7318L32.0974 29.8537L34.6524 28.4098C34.7592 28.3337 34.8495 28.2376 34.9181 28.127C34.9866 28.0165 35.032 27.8938 35.0516 27.7659V12.1562C35.0342 12.0277 34.9898 11.9041 34.9211 11.7933C34.8524 11.6824 34.7609 11.5868 34.6524 11.5123L32.0375 10.1464L23.3944 5.26837L20.8394 3.90252C20.7144 3.87613 20.5851 3.87613 20.4601 3.90252C20.3363 3.86729 20.2047 3.86729 20.0809 3.90252L17.5259 5.26837L8.88277 10.1464L6.30781 11.5903C6.21314 11.6712 6.13609 11.77 6.08122 11.8806C6.02636 11.9912 5.9948 12.1115 5.98844 12.2342V27.844C6.0045 27.9706 6.04633 28.0928 6.11146 28.2034C6.1766 28.314 6.26372 28.4107 6.36769 28.4879L6.18804 28.8001L5.98844 29.1318C5.76248 28.9957 5.57479 28.8066 5.44235 28.5818C5.30992 28.3569 5.2369 28.1033 5.22992 27.844V12.2342C5.2369 11.9749 5.30992 11.7213 5.44235 11.4964C5.57479 11.2716 5.76248 11.0825 5.98844 10.9464L8.5634 9.50252L17.1865 4.62447L19.7615 3.18057C19.9928 3.05229 20.2541 2.98486 20.52 2.98486C20.7859 2.98486 21.0473 3.05229 21.2785 3.18057" fill="#03A7B6"/><path d="M10.1005 8.83916L12.6555 8.15623L21.2188 5.85379L23.7738 5.19038C24.0062 5.14419 24.2464 5.1519 24.4752 5.2129C24.704 5.27389 24.915 5.38647 25.0912 5.5416L26.9476 7.35623L33.2153 13.6587L35.0917 15.4733C35.2542 15.6429 35.3704 15.8498 35.4297 16.0748C35.489 16.2999 35.4895 16.5359 35.431 16.7611C35.431 17.0538 35.0517 18.1855 34.7523 19.2392L32.4568 27.6294C32.1574 28.6831 31.858 29.7953 31.7781 30.1075C31.7153 30.331 31.5911 30.5335 31.4188 30.6928C31.249 30.8527 31.0442 30.9728 30.82 31.044L28.265 31.7075L19.6818 33.9514L17.1468 34.6343V34.3026L17.047 33.9904L19.5221 33.1709L28.1053 30.9075L30.6404 30.244C30.7538 30.2112 30.8568 30.1508 30.9398 30.0684C31.0171 29.9822 31.078 29.8831 31.1194 29.7757C31.1194 29.4636 31.4987 28.3514 31.7981 27.2977L34.0936 18.9075C34.393 17.8538 34.6924 16.7221 34.7723 16.4294C34.7944 16.3158 34.7896 16.1987 34.7585 16.0872C34.7274 15.9756 34.6707 15.8724 34.5926 15.7855C34.3731 15.5514 33.5347 14.7318 32.7363 13.9709L26.4685 7.80501L24.5922 5.99038C24.5036 5.92121 24.3999 5.87291 24.2891 5.84922C24.1784 5.82554 24.0635 5.8271 23.9534 5.85379L21.3984 6.51721L12.8152 8.80014L10.2802 9.48306C10.1486 9.5338 10.0416 9.63142 9.98078 9.75623C9.89178 9.83722 9.82341 9.93745 9.78117 10.0489C9.78117 10.3416 9.40192 11.4733 9.1025 12.527L6.80699 20.9172C6.50758 21.9709 6.20816 23.0831 6.12832 23.3953C6.10624 23.5089 6.11095 23.6259 6.14208 23.7375C6.1732 23.8491 6.22994 23.9522 6.30797 24.0392L8.16434 25.8538L14.4321 32.0001C15.2305 32.7611 16.0689 33.5806 16.2884 33.8148C16.3807 33.8855 16.4865 33.9375 16.5996 33.9677C16.7128 33.9979 16.8309 34.0056 16.9472 33.9904L17.047 34.3026V34.6343C16.8146 34.6805 16.5743 34.6728 16.3455 34.6118C16.1167 34.5508 15.9058 34.4382 15.7295 34.2831C15.6098 33.9514 14.7714 33.1709 13.973 32.3709L7.70523 26.2245L5.82891 24.4099C5.66794 24.2393 5.5527 24.0324 5.49349 23.8077C5.43427 23.583 5.43293 23.3474 5.48957 23.1221C5.48957 22.8099 5.86883 21.6977 6.16824 20.644L8.46375 12.2538C8.76316 11.2001 9.06258 10.0684 9.14242 9.77574C9.20521 9.55219 9.32948 9.34973 9.50172 9.19038C9.66599 9.02353 9.87264 8.90232 10.1005 8.83916Z" fill="#03A7B6"/><path d="M7.84471 32.3319C5.34816 29.8927 3.64772 26.7845 2.95846 23.4004C2.2692 20.0164 2.62209 16.5086 3.97248 13.3207C5.32288 10.1327 7.61013 7.40784 10.5449 5.49071C13.4797 3.57357 16.9302 2.55029 20.46 2.55029C23.9898 2.55029 27.4403 3.57357 30.3751 5.49071C33.3099 7.40784 35.5972 10.1327 36.9476 13.3207C38.298 16.5086 38.6508 20.0164 37.9616 23.4004C37.2723 26.7845 35.5719 29.8927 33.0753 32.3319C29.729 35.6014 25.1913 37.4381 20.46 37.4381C15.7287 37.4381 11.1911 35.6014 7.84471 32.3319ZM32.4765 31.7855C34.862 29.4672 36.4896 26.5086 37.1531 23.285C37.8165 20.0613 37.4859 16.7177 36.2031 13.678C34.9203 10.6382 32.7431 8.03919 29.9475 6.21036C27.1519 4.38153 23.8638 3.40524 20.4999 3.40524C17.1361 3.40524 13.848 4.38153 11.0524 6.21036C8.25677 8.03919 6.0796 10.6382 4.79681 13.678C3.51402 16.7177 3.18339 20.0613 3.84682 23.285C4.51026 26.5086 6.13788 29.4672 8.52338 31.7855C10.1026 33.3295 11.9776 34.5543 14.0411 35.3899C16.1046 36.2255 18.3163 36.6556 20.5498 36.6556C22.7834 36.6556 24.9951 36.2255 27.0586 35.3899C29.1221 34.5543 30.9971 33.3295 32.5763 31.7855" fill="#03A7B6"/><path d="M21.019 7.37569L23.0151 8.44886L29.4225 12.0586L31.4186 13.1318C31.5874 13.2315 31.7273 13.3716 31.8251 13.5389C31.9229 13.7062 31.9754 13.8952 31.9775 14.0879V25.5806C31.9717 25.7725 31.9177 25.9601 31.8203 26.1269C31.7228 26.2936 31.5849 26.4343 31.4186 26.5367L29.4225 27.6098L22.9153 31.2196L20.9192 32.2928C20.7474 32.3833 20.5554 32.4307 20.3603 32.4307C20.1652 32.4307 19.9731 32.3833 19.8014 32.2928L17.965 31.2196L11.5974 27.6098L9.70112 26.5367L9.84084 26.3025L9.98057 26.0684L11.9767 27.1415L18.3841 30.7513L20.2804 31.8245C20.3682 31.8633 20.4635 31.8833 20.5599 31.8833C20.6562 31.8833 20.7515 31.8633 20.8393 31.8245L22.7356 30.7513L29.1431 27.1415L31.0394 26.0684C31.1925 25.9463 31.2924 25.7719 31.3188 25.5806V14.0879C31.2537 13.9024 31.1179 13.7486 30.9396 13.6586L29.0433 12.5854L22.6358 8.91716L20.7395 7.80496C20.6561 7.75283 20.5591 7.72513 20.4601 7.72513C20.361 7.72513 20.2641 7.75283 20.1806 7.80496L18.2843 8.85862L11.9767 12.5269L9.98057 13.6586C9.90142 13.7161 9.8356 13.7892 9.78744 13.8733C9.73928 13.9574 9.70986 14.0504 9.70112 14.1464V25.6391C9.70986 25.7351 9.73928 25.8282 9.78744 25.9122C9.8356 25.9963 9.90142 26.0695 9.98057 26.1269L9.84084 26.3611L9.70112 26.5952C9.53239 26.4955 9.39249 26.3554 9.29468 26.1881C9.19687 26.0208 9.14439 25.8318 9.14221 25.6391V14.0879C9.14439 13.8952 9.19687 13.7062 9.29468 13.5389C9.39249 13.3716 9.53239 13.2315 9.70112 13.1318L11.5974 12.0586L17.965 8.44886L19.961 7.37569C20.1328 7.28518 20.3248 7.23779 20.52 7.23779C20.7151 7.23779 20.9071 7.28518 21.0789 7.37569" fill="#03A7B6"/><path d="M11.1184 28.9559C9.27656 27.1509 8.02332 24.8527 7.51697 22.3517C7.01063 19.8507 7.27391 17.2592 8.27354 14.9044C9.27318 12.5496 10.9643 10.5372 13.1334 9.12152C15.3024 7.70578 17.852 6.9502 20.4601 6.9502C23.0682 6.9502 25.6178 7.70578 27.7869 9.12152C29.9559 10.5372 31.6471 12.5496 32.6467 14.9044C33.6463 17.2592 33.9096 19.8507 33.4033 22.3517C32.8969 24.8527 31.6437 27.1509 29.8018 28.9559C28.5762 30.1571 27.1202 31.1101 25.5172 31.7604C23.9142 32.4106 22.1957 32.7453 20.4601 32.7453C18.7246 32.7453 17.0061 32.4106 15.4031 31.7604C13.8001 31.1101 12.344 30.1571 11.1184 28.9559ZM29.3627 28.5657C31.1185 26.8454 32.3132 24.655 32.796 22.2712C33.2789 19.8875 33.0281 17.4173 32.0754 15.1728C31.1228 12.9283 29.5109 11.0101 27.4436 9.66067C25.3762 8.31121 22.946 7.59098 20.4601 7.59098C17.9742 7.59098 15.544 8.31121 13.4767 9.66067C11.4093 11.0101 9.79747 12.9283 8.8448 15.1728C7.89213 17.4173 7.64137 19.8875 8.1242 22.2712C8.60703 24.655 9.80179 26.8454 11.5575 28.5657C12.7257 29.7102 14.1133 30.6183 15.6409 31.2379C17.1685 31.8574 18.8062 32.1764 20.4601 32.1764C22.114 32.1764 23.7517 31.8574 25.2793 31.2379C26.807 30.6183 28.1946 29.7102 29.3627 28.5657Z" fill="#03A7B6"/></g><defs><clipPath id="clip0_1210_269"><rect width="184" height="40" fill="white"/></clipPath></defs></svg>