<svg width="162" height="26" fill="none" xmlns="http://www.w3.org/2000/svg"><path d="M69.3605 23.708L62.2914 3.99833C62.201 3.72582 62.0665 3.36605 62.0665 3.05045C62.0665 2.19627 62.7873 1.38517 63.8201 1.38517C64.7216 1.38517 65.309 1.97114 65.5779 2.82532L71.4357 19.8087L77.3354 2.77793C77.6043 1.97006 78.1455 1.38409 79.0416 1.38409H79.2245C80.1723 1.38409 80.7575 1.97006 81.0265 2.77793L86.8778 19.8087L92.828 2.73592C93.0529 2.011 93.5445 1.38409 94.4934 1.38409C95.4831 1.38409 96.205 2.14672 96.205 3.00521C96.205 3.31973 96.0683 3.67842 95.9801 3.9531L88.8658 23.708C88.5022 24.7399 87.7847 25.2817 86.9724 25.2817H86.8379C85.9364 25.2817 85.2597 24.7399 84.9424 23.708L79.1363 6.95942L73.2796 23.708C72.9644 24.7399 72.2866 25.2817 71.3884 25.2817H71.2937C70.4406 25.2817 69.723 24.7399 69.3605 23.708Z" fill="#696566"/><path d="M120.89 3.10332C120.89 2.15219 121.656 1.34003 122.602 1.34003C123.599 1.34003 124.363 2.10803 124.363 3.10332V7.10278C126.076 3.21857 129.874 1.38527 132.392 1.38527C133.434 1.38527 134.111 2.1522 134.111 3.14533C134.111 4.09538 133.483 4.76967 132.573 4.90539C128.06 5.4472 124.364 8.83699 124.364 15.5692V23.4894C124.364 24.4384 123.643 25.2495 122.651 25.2495C121.659 25.2495 120.891 24.4783 120.891 23.4894L120.89 3.10332Z" fill="#696566"/><path d="M145.257 25.4692C138.978 25.4692 133.851 20.593 133.851 13.4418V13.3492C133.851 6.68914 138.494 1.32385 144.815 1.32385C151.574 1.32385 155.424 6.9078 155.424 13.0357C155.424 13.9771 154.665 14.6503 153.83 14.6503H137.304C137.786 19.6537 141.276 22.4694 145.348 22.4694C148.178 22.4694 150.249 21.3513 151.932 19.7862C152.197 19.5654 152.506 19.3866 152.906 19.3866C153.743 19.3866 154.409 20.0576 154.409 20.8655C154.409 21.2662 154.233 21.6701 153.875 21.9793C151.711 24.0786 149.144 25.4692 145.257 25.4692ZM152.02 12.1007C151.665 7.89447 149.277 4.23216 144.723 4.23216C140.744 4.23216 137.739 7.58317 137.302 12.1007H152.02Z" fill="#696566"/><path d="M96.2664 18.2311V18.1406C96.2664 13.2331 100.316 10.6178 106.206 10.6178C109.176 10.6178 111.289 11.0228 113.362 11.612V10.7976C113.362 6.61293 110.791 4.44786 106.433 4.44786C104.093 4.44786 102.731 4.74623 101.018 5.50993C100.797 5.60041 100.57 5.64672 100.394 5.64672C99.5841 5.64672 98.8612 4.9692 98.8612 4.16026C98.8612 3.4418 99.1743 2.99694 99.8079 2.7158C102.098 1.72051 103.825 1.38983 106.792 1.38983C110.073 1.38983 112.593 2.24293 114.299 3.9556C115.876 5.53147 116.686 7.78271 116.686 10.7567V23.605C116.686 24.5927 115.966 25.3155 115.017 25.3155C114.031 25.3155 113.363 24.5938 113.363 23.6944V21.4733C111.741 23.5942 109.039 25.4824 104.955 25.4824C100.634 25.4792 96.2664 23.005 96.2664 18.2311ZM113.406 16.429V14.1767C111.693 13.6823 109.397 13.1857 106.565 13.1857C102.208 13.1857 99.7756 15.0793 99.7756 18.0038V18.0932C99.7756 21.0198 102.472 22.7314 105.624 22.7314C109.895 22.7314 113.406 20.1182 113.406 16.429Z" fill="#696566"/><path d="M6.35066 2.84705C5.58899 1.17532 3.70634 0.418081 1.94847 1.20009C0.188462 1.98318 -0.45917 3.93712 0.335848 5.60994L7.71693 21.6735C8.87772 24.1907 10.1009 25.5103 12.3967 25.5103C14.8495 25.5103 15.9188 24.0733 17.0786 21.6735C17.0786 21.6735 23.5162 7.63821 23.5807 7.49171C23.6463 7.34307 23.8529 6.88959 24.508 6.8939C25.0621 6.89713 25.5279 7.33984 25.5279 7.93442V21.6594C25.5279 23.775 26.6995 25.5103 28.9543 25.5103C31.2071 25.5103 32.4249 23.775 32.4249 21.6594V10.428C32.4249 8.26188 33.9751 6.8562 36.088 6.8562C38.2009 6.8562 39.6069 8.3125 39.6069 10.428V21.6594C39.6069 23.775 40.7828 25.5103 43.0334 25.5103C45.2861 25.5103 46.5104 23.775 46.5104 21.6594V10.428C46.5104 8.26188 48.0541 6.8562 50.1681 6.8562C52.2777 6.8562 53.6892 8.3125 53.6892 10.428V21.6594C53.6892 23.775 54.864 25.5103 57.1167 25.5103C59.3683 25.5103 60.5905 23.775 60.5905 21.6594V8.87693C60.5905 4.17948 56.8176 0.888796 52.2777 0.888796C47.7432 0.888796 44.9031 4.02976 44.9031 4.02976C43.3938 2.07043 41.3132 0.893103 37.7921 0.893103C34.0762 0.893103 30.8241 4.02976 30.8241 4.02976C29.3137 2.07043 26.7425 0.893103 24.6135 0.893103C21.3204 0.893103 18.7052 2.34295 17.1098 5.99556L12.3967 17.1193L6.35066 2.84705Z" fill="#696566"/><path d="M155.704 4.23874V4.21935C155.704 2.64779 156.978 1.32397 158.579 1.32397C160.202 1.32397 161.459 2.63379 161.459 4.2075V4.21935C161.459 5.7963 160.188 7.12012 158.579 7.12012C156.956 7.12012 155.704 5.81461 155.704 4.23874ZM160.906 4.21935V4.21181C160.906 2.91923 159.909 1.85932 158.579 1.85932C157.261 1.85932 156.249 2.93754 156.249 4.21935V4.23443C156.249 5.52378 157.249 6.5837 158.579 6.5837C159.893 6.5837 160.906 5.50762 160.906 4.21935Z" fill="#696566"/><path d="M157.479 3.07949C157.479 2.90822 157.615 2.77142 157.788 2.77142H158.748C159.109 2.77142 159.388 2.87375 159.561 3.05687C159.719 3.2109 159.805 3.43388 159.805 3.69239V3.70101C159.805 4.14049 159.584 4.40871 159.249 4.54981L159.673 5.06685C159.732 5.1444 159.772 5.20796 159.772 5.30275C159.772 5.47294 159.628 5.58496 159.482 5.58496C159.345 5.58496 159.252 5.51495 159.18 5.42662L158.583 4.67045H158.094V5.27797C158.094 5.44924 157.962 5.58388 157.789 5.58388C157.616 5.58388 157.48 5.44816 157.48 5.27797V3.07949H157.479ZM158.714 4.12649C159.013 4.12649 159.177 3.9703 159.177 3.73225V3.72255C159.177 3.46296 159.001 3.32293 158.703 3.32293H158.091V4.12541H158.714V4.12649Z" fill="#696566"/></svg>