<?xml version="1.0" standalone="no"?>
<!DOCTYPE svg PUBLIC "-//W3C//DTD SVG 20010904//EN"
 "http://www.w3.org/TR/2001/REC-SVG-20010904/DTD/svg10.dtd">
<svg version="1.0" xmlns="http://www.w3.org/2000/svg"
 width="512.000000pt" height="512.000000pt" viewBox="0 0 512.000000 512.000000"
 preserveAspectRatio="xMidYMid meet">
<metadata>
Created by potrace 1.14, written by Peter Selinger 2001-2017
</metadata>
<g transform="translate(0.000000,512.000000) scale(0.100000,-0.100000)"
fill="#000000" stroke="none">
<path d="M1207 3462 c-23 -3 -40 -22 -101 -115 -40 -62 -134 -204 -208 -317
-74 -113 -177 -270 -230 -350 -257 -393 -547 -835 -604 -921 -35 -53 -64 -98
-64 -100 0 -2 249 -4 552 -3 l553 1 30 40 c27 37 166 248 384 583 45 69 86
132 92 140 14 21 214 325 335 510 56 85 156 238 223 339 66 102 119 187 116
189 -5 5 -1035 9 -1078 4z"/>
<path d="M2612 3462 c-16 -3 -44 -36 -100 -120 -42 -64 -79 -121 -82 -127 -3
-5 -48 -75 -101 -155 -53 -80 -143 -217 -201 -305 -94 -144 -144 -219 -173
-263 -5 -8 -59 -91 -120 -183 -60 -93 -181 -276 -267 -408 -87 -132 -158 -241
-158 -243 0 -5 1110 -2 1114 3 2 2 37 56 78 119 41 63 136 208 211 321 120
183 240 367 625 954 58 88 138 210 178 272 41 61 76 117 79 125 4 11 -85 13
-527 13 -293 0 -543 -1 -556 -3z"/>
<path d="M4009 3458 c-11 -4 -22 -16 -26 -25 -4 -10 -12 -23 -17 -30 -6 -6
-101 -149 -211 -317 -110 -169 -288 -441 -395 -604 -107 -164 -199 -305 -205
-314 -5 -9 -48 -74 -95 -144 -187 -282 -237 -359 -234 -363 5 -5 1103 -5 1108
0 2 2 36 54 75 114 39 61 76 117 81 125 14 20 192 290 395 600 286 437 416
635 523 796 57 86 101 159 98 162 -9 8 -1074 8 -1097 0z"/>
</g>
</svg>
