<svg width="80" height="71" fill="none" xmlns="http://www.w3.org/2000/svg"><path fill-rule="evenodd" clip-rule="evenodd" d="M32.58 70.331c-.688 0-1.409 0-2.097-.065-4.653-.293-9.11-1.564-13.108-3.715a31.68 31.68 0 0 1-8.88-7.04 32.002 32.002 0 0 1-5.768-9.354C.99 45.823.269 41.195.564 36.438c.492-7.626 3.67-14.47 8.52-19.652 6.325-6.747 15.5-10.723 25.463-10.07 1.474.097 2.949.292 4.39.586l-.655 3.194a31.645 31.645 0 0 0-3.932-.522c-8.619-.554-16.614 2.77-22.284 8.441-4.718 4.726-7.799 11.113-8.258 18.25-.262 4.205.36 8.344 1.868 12.157 1.213 3.096 2.95 5.997 5.243 8.539a28.31 28.31 0 0 0 7.865 6.257 28.515 28.515 0 0 0 11.863 3.39c3.408.228 6.75-.163 9.93-1.076a28.81 28.81 0 0 0 10.879-5.996 28.969 28.969 0 0 0 6.685-8.54 28.067 28.067 0 0 0 3.015-11.08 28.375 28.375 0 0 0-3.015-14.698 27.835 27.835 0 0 0-2.687-4.302l2.621-1.956a31.775 31.775 0 0 1 5.31 10.82 31.66 31.66 0 0 1 1.048 10.397 31.53 31.53 0 0 1-3.212 12.026 31.61 31.61 0 0 1-7.602 9.842 31.96 31.96 0 0 1-10.88 6.258 31.847 31.847 0 0 1-10.224 1.662l.066-.033Zm-.03-10.167c-.525 0-1.049 0-1.573-.065-6.882-.489-12.813-4.14-16.45-9.386-2.688-3.911-4.13-8.702-3.77-13.786.23-3.096 1.082-5.997 2.459-8.572 1.245-2.379 2.949-4.464 4.948-6.192a22.058 22.058 0 0 1 15.926-5.345c.397 0 .766.057 1.16.118l.085.013c1.442.195 2.884.521 4.26.977l-1.048 3.097c-1.508-.522-3.08-.815-4.654-.945-4.882-.359-9.47 1.238-13.01 4.073a18.449 18.449 0 0 0-6.815 13.004c-.295 4.302.884 8.376 3.178 11.667 3.08 4.498 8.127 7.627 13.993 8.05 5.964.424 11.47-2.02 15.172-6.127 2.622-2.933 4.359-6.713 4.654-10.95a18.372 18.372 0 0 0-1.344-8.31 18.769 18.769 0 0 0-3.932-5.932l1.409-1.37.95-.912a21.75 21.75 0 0 1 4.424 6.486 21.584 21.584 0 0 1 1.803 10.299 21.578 21.578 0 0 1-2.032 7.756 21.608 21.608 0 0 1-5.44 7.105 20.89 20.89 0 0 1-4.03 2.738 21.788 21.788 0 0 1-10.225 2.542l-.098-.033Zm-8.358-12.678a12.403 12.403 0 0 0 8.323 3.226c.656 0 1.311-.065 1.966-.163a12.333 12.333 0 0 0 8.029-4.92c1.933-2.64 2.687-5.9 2.163-9.126-.23-1.5-.754-2.9-1.508-4.205l-2.818 1.63c.557.945.95 1.988 1.114 3.096a8.927 8.927 0 0 1-.032 3.096 9.249 9.249 0 0 1-1.573 3.585 9.92 9.92 0 0 1-2.032 2.02 9.205 9.205 0 0 1-3.867 1.598c-2.622.456-5.178-.326-7.111-1.858-1.671-1.369-2.884-3.292-3.244-5.573-.754-4.563 2.13-8.897 6.52-10.103.296-.065.624-.13.951-.196.852-.163 1.704-.163 2.556-.065l.394-3.226c-1.147-.13-2.327-.13-3.474.065-1.9.293-3.605 1.043-5.08 2.053a12.408 12.408 0 0 0-2.687 2.542 12.245 12.245 0 0 0-2.424 9.452 12.176 12.176 0 0 0 3.834 7.072Z" fill="#1C3C70"/><path d="M53.423 5.866 49.097 0l-7.34 9.68 2.163 7.952-11.372 17.37s-.23-.032-.36 0a3.602 3.602 0 0 0-2.065.913 5.324 5.324 0 0 0-.557.652 3.488 3.488 0 0 0-.458 2.77c.229.815.72 1.564 1.507 2.053a3.397 3.397 0 0 0 2.785.424c.82-.228 1.573-.717 2.065-1.5a3.358 3.358 0 0 0 .459-2.704c-.066-.294-.23-.587-.394-.848l11.142-17.37 8.094-1.402 6.325-11.08-7.668-1.044Zm-4.359-.423 1.41 1.923-4.195 6.518-.95-3.553 3.735-4.92v.032Zm3.638 9.581-3.572.62 4.26-6.519 2.49.326-3.178 5.573Z" fill="#005EAB"/></svg>