<svg width="80" height="71" fill="none" xmlns="http://www.w3.org/2000/svg"><path fill-rule="evenodd" clip-rule="evenodd" d="M49.966 11.315C48.79 4.898 43.129 0 36.384 0 29.64 0 23.978 4.898 22.802 11.346a13.203 13.203 0 0 0-.216 2.48c0 .837.093 1.736.278 2.573.031.31.093.59.155.868l13.396 20.244L49.78 17.267a7.21 7.21 0 0 0 .155-.868c.185-.837.278-1.705.278-2.573 0-.868-.093-1.705-.247-2.51Zm-3.063 4.65L36.384 31.9 25.927 16.027a10.433 10.433 0 0 1-.247-2.2C25.68 7.904 30.475 3.1 36.384 3.1c5.91 0 10.735 4.805 10.735 10.726a9.65 9.65 0 0 1-.216 2.14ZM52.01 19.5l1.083-3.1h18.562v34.224L61.51 65.999H.5V31.186l9.745-14.788h9.467l1.083 3.1h-8.848L3.594 32.148v2.852h18.315l4.579-6.913 1.856 2.82L25.62 35h5.445l2.011 3.1H23.58l-8.198 12.4h29.514l8.199-12.4H39.76l1.98-3.1h13.396l10.24-15.5H52.011Zm-48.417 18.6v24.645l4.857-7.347L9.627 53.6l2.041-3.1 8.199-12.4H3.594Zm3.589 24.8h29.545l3.063-4.65 3.063-4.65H13.338l-6.157 9.3Zm52.655 0 2.042-3.1 4.115-6.2H46.566l-2.351 3.534-3.806 5.766h19.43Zm8.724-13.175v-29.45l-4.671 7.068-5.043 7.657-2.073 3.1-4.114 6.262-4.053 6.138h19.429l.525-.775Z" fill="#1C3C70"/><path d="M42.14 10.043a6.415 6.415 0 0 0-2.196-2.356c-1.02-.682-2.227-1.054-3.557-1.054-3.62 0-6.59 2.976-6.59 6.603a6.601 6.601 0 0 0 2.877 5.456 6.778 6.778 0 0 0 3.001 1.116c.248.031.464.031.712.031a6.582 6.582 0 0 0 5.754-9.796Zm-2.288 3.41a3.334 3.334 0 0 1-1.888 2.883c-.464.279-1.02.403-1.577.403a3.342 3.342 0 0 1-1.98-.62 3.515 3.515 0 0 1-1.516-2.883c0-1.922 1.577-3.503 3.496-3.503.68 0 1.33.186 1.856.558.99.589 1.64 1.705 1.64 2.945 0 .062 0 .155-.031.217Z" fill="#005EAB"/></svg>