<svg width="296" height="370" fill="none" xmlns="http://www.w3.org/2000/svg"><path d="M243.88 0H296c-41.21 62.715-82.045 124.865-122.866 187H121c41.166-62.643 81.93-124.676 122.88-187Z" fill="#FF4713"/><path d="M168.229 115C183 174.5 94.88 224 148.5 224c-56.418 85.52-40.823 61.27-96.71 146H0c56.359-85.422 112.166-170.013 168.229-255Z" fill="#F5B335"/><circle cx="174.5" cy="138.5" r="100.5" fill="#fff"/><path d="M173.949 225.82c48.529 0 87.869-39.34 87.869-87.868 0-48.529-39.34-87.87-87.869-87.87-48.529 0-87.869 39.341-87.869 87.87 0 48.528 39.34 87.868 87.869 87.868Z" fill="#000"/><path d="M173.947 211.176c40.44 0 73.224-32.783 73.224-73.224 0-40.44-32.784-73.224-73.224-73.224-40.441 0-73.224 32.784-73.224 73.224 0 40.441 32.783 73.224 73.224 73.224Z" fill="#fff"/><path d="m100.724 96.76 7.14 1.098-.61 1.037-1.831-.244-1.342 2.441 1.159 1.403-.549 1.037-4.699-5.43.732-1.343Zm.55 1.159 2.135 2.501 1.099-2.013-3.234-.488Z" fill="#fff"/><path d="m110.609 93.772-5.431-1.709 4.393 3.112-.671.915-5.492-3.905 1.038-1.464 5.491 1.891-3.478-4.698 1.038-1.404 5.491 3.905-.671.916-4.393-3.112 3.417 4.515-.732 1.038Z" fill="#fff"/><path d="m115.006 83.52-1.709 1.952 1.526 1.342 2.075-2.318.732.67-2.868 3.113-5.065-4.516 2.685-3.05.732.67-1.891 2.197 1.403 1.22 1.709-1.952.671.671Z" fill="#fff"/><path d="m119.153 79.615-.061.06-.793.733 1.953 2.075-.855.793-4.637-4.943 1.891-1.77c1.221-1.159 2.197-.976 2.929-.183.489.489.916 1.282.305 2.38l3.112 1.099-.915.854-2.929-1.098Zm-.793-.489c.732-.67.976-1.281.366-1.891-.549-.55-.976-.427-1.647.183l-.794.793 1.404 1.526.671-.61Z" fill="#fff"/><path d="m125.738 76.621.549-.488.488.61-2.074 1.648-.489-.61.55-.488-3.234-4.028-.55.428-.488-.61 2.075-1.648.488.61-.61.488 3.295 4.088Z" fill="#fff"/><path d="m131.054 70.95.976-.55c.793 1.403.366 2.624-.854 3.417-1.526 1.037-2.99.671-4.272-1.22-1.342-2.014-.976-3.662.549-4.699 1.343-.854 2.563-.671 3.417.732l-.915.733c-.732-1.099-1.403-.977-2.013-.61-.855.549-1.099 1.525-.062 3.172.977 1.465 1.831 1.709 2.746 1.099.733-.55.916-1.22.428-2.075Z" fill="#fff"/><path d="m134.955 63.57 5.431 4.76-1.098.549-1.404-1.22-2.38 1.403.245 1.83-1.038.55-1.037-7.201 1.281-.671Zm-.122 1.281.488 3.295 2.014-1.098-2.502-2.197Z" fill="#fff"/><path d="m138.863 61.675.977-.427.427.915.122 1.647-.488.061-.244-1.22-.367.183-.427-1.16Z" fill="#fff"/><path d="M146.181 60.881c-.366-.793-.915-1.037-1.647-.732-.671.244-.976.671-.732 1.22.244.672.915.61 1.708.489 1.038-.184 2.258-.367 2.807 1.037.488 1.22-.183 2.319-1.586 2.868-1.526.549-2.563.305-3.234-.977l1.098-.61c.366.671.793 1.038 1.831.671.854-.305 1.098-.854.854-1.403-.305-.732-1.037-.55-1.892-.427-.976.183-2.135.305-2.685-1.038-.488-1.159.122-2.196 1.526-2.745 1.342-.489 2.319-.122 2.99 1.037l-1.038.61Z" fill="#fff"/><path d="m157.656 59.478-2.441.55.671 2.806-1.159.244-1.526-6.529 3.966-.915.245.915-2.807.672.427 1.952 2.441-.549.183.854Z" fill="#fff"/><path d="m162.722 54.718 3.478 6.346-1.22.183-.855-1.586-2.807.427-.366 1.77-1.159.182 1.464-7.078 1.465-.244Zm-.61 1.098-.671 3.234 2.257-.305-1.586-2.929Z" fill="#fff"/><path d="M171.506 56.06c-.122-.854-.549-1.22-1.342-1.22-.732.061-1.098.305-1.098.976.061.733.671.855 1.464.977 1.037.183 2.258.305 2.319 1.83.061 1.343-.854 2.197-2.441 2.258-1.648.061-2.502-.488-2.746-1.953l1.221-.244c.122.733.427 1.282 1.525 1.22.915-.06 1.281-.487 1.281-1.098-.061-.793-.793-.854-1.647-.976-.976-.183-2.136-.366-2.197-1.83-.061-1.282.854-2.075 2.38-2.136 1.464-.061 2.258.549 2.502 1.952l-1.221.244Z" fill="#fff"/><path d="m176.937 54.961-2.013-.06.061-.977 5.187.183-.061.976-2.014-.06-.244 5.796-1.16-.06.244-5.798Z" fill="#fff"/><path d="m186.272 58.624-2.562-.305-.245 2.014 3.051.366-.122.976-4.271-.549.854-6.712 4.028.55-.122.976-2.868-.367-.244 1.831 2.562.305-.061.915Z" fill="#fff"/><path d="M193.233 58.258c.123-.854-.183-1.342-.976-1.525-.732-.183-1.159 0-1.281.671-.183.732.427 1.037 1.159 1.343.976.427 2.136.915 1.77 2.38-.305 1.28-1.404 1.891-2.929 1.525-1.587-.366-2.319-1.16-2.136-2.624l1.22.122c-.061.732.122 1.343 1.16 1.526.854.183 1.403-.123 1.525-.733.183-.793-.549-1.037-1.342-1.403-.915-.427-1.953-.915-1.648-2.319.244-1.22 1.404-1.77 2.868-1.464 1.404.305 2.014 1.159 1.892 2.501h-1.282Z" fill="#fff"/><path d="m198.786 58.623-1.891-.61.305-.915 4.942 1.586-.305.916-1.891-.61-1.77 5.552-1.098-.366 1.708-5.553Z" fill="#fff"/><path d="m201.895 63.568.305-.854 2.379.915-.305.854-2.379-.915Z" fill="#fff"/><path d="m209.89 65.58 2.258 1.098-1.525 3.173-.794-.366.367-.855a2.388 2.388 0 0 1-2.136 0c-1.526-.732-1.953-2.257-.976-4.21 1.098-2.319 2.745-2.746 4.393-1.892 1.342.672 1.77 1.709 1.098 3.235l-1.098-.489c.488-1.037.122-1.586-.549-1.891-.854-.427-1.831-.183-2.685 1.525-.793 1.587-.549 2.502.427 2.99.793.366 1.648.183 2.075-.732l.061-.061-1.282-.61.366-.916Z" fill="#fff"/><path d="m216.476 69.974-.061-.061-.916-.55-1.464 2.38-.976-.61 3.539-5.736 2.196 1.343c1.465.915 1.526 1.892.916 2.807-.366.61-1.038 1.22-2.197.915l-.244 3.295-1.037-.671.244-3.112Zm.305-.915c.854.549 1.464.61 1.891-.122.428-.672.122-1.099-.61-1.526l-.976-.61-1.098 1.77.793.488Z" fill="#fff"/><path d="M220.992 72.171c1.342-1.77 3.112-2.075 4.637-.915 1.526 1.16 1.465 2.746.183 4.454-1.403 1.83-2.989 2.258-4.576.977-1.587-1.16-1.587-2.746-.244-4.516Zm3.783 2.868c.976-1.281 1.099-2.258.183-2.99-.915-.732-1.952-.427-2.99.915-.976 1.282-1.098 2.38-.183 3.051.976.733 1.953.366 2.99-.976Z" fill="#fff"/><path d="m229.232 83.642 2.502-4.516-4.393 2.685-1.099-1.037 3.539-6.041.916.854-3.051 4.882 4.942-3.051.855.854-2.868 5.126 4.82-3.173.854.854-5.918 3.661-1.099-1.098Z" fill="#fff"/><path d="m234.602 88.4.488.549-.61.488-1.709-2.013.611-.489.488.55 3.966-3.296-.488-.549.61-.488 1.709 2.014-.61.488-.489-.55-3.966 3.296Z" fill="#fff"/><path d="m238.445 94.871 2.502-5.247-4.149 2.929-.61-.915 5.552-3.906.794 1.16-2.563 5.308 4.21-2.99.61.916-5.552 3.905-.794-1.16Z" fill="#fff"/><path d="m244.973 99.077 1.221 2.196-3.051 1.709-.427-.732.793-.488c-.671-.061-1.343-.489-1.709-1.221-.854-1.525-.366-2.929 1.587-4.027 2.258-1.22 3.783-.671 4.698.976.733 1.343.428 2.502-.854 3.234l-.61-.976c.915-.61.976-1.22.61-1.892-.488-.793-1.403-1.22-3.112-.244-1.525.855-1.892 1.77-1.342 2.685.427.793 1.22 1.099 2.135.61l.061-.061-.671-1.22.671-.55Z" fill="#fff"/><path d="m114.579 197.564-.854-.793 4.759-4.821 1.831 1.77c1.22 1.22 1.037 2.196.244 2.99-.61.61-1.831 1.403-3.478-.183l-.733-.733-1.769 1.77Zm2.99-1.77c.732.733 1.403.794 2.014.184.549-.55.488-1.038-.184-1.77l-.793-.732-1.708 1.708.671.61Z" fill="#fff"/><path d="m123.487 201.777-.061-.061-.854-.672-1.77 2.197-.915-.732 4.21-5.309 2.014 1.587c1.342 1.098 1.281 2.074.61 2.868-.427.549-1.159 1.098-2.258.61l-.671 3.295-.976-.793.671-2.99Zm.366-.855c.793.611 1.403.733 1.892.122.488-.61.244-1.037-.427-1.586l-.855-.671-1.281 1.647.671.488Z" fill="#fff"/><path d="m128.492 207.937.61.428-.427.671-2.196-1.465.427-.671.61.427 2.868-4.271-.61-.427.427-.671 2.196 1.464-.427.671-.61-.427-2.868 4.271Z" fill="#fff"/><path d="m138.92 207.148 1.098.61-5.369 4.759-1.282-.732 1.099-7.139 1.159.61-1.037 5.919 4.332-4.027Z" fill="#fff"/><path d="m144.781 209.828-.305 7.201-1.099-.489.061-1.83-2.563-1.099-1.22 1.343-1.098-.488 4.881-5.309 1.343.671Zm-1.099.671-2.257 2.441 2.074.916.183-3.357Z" fill="#fff"/><path d="m149.901 212.696-1.891-.61.305-.915 4.942 1.586-.305.916-1.891-.61-1.77 5.552-1.098-.366 1.708-5.553Z" fill="#fff"/><path d="m158.758 217.945-2.502-.549-.427 1.953 3.051.671-.183.976-4.211-.915 1.404-6.59 3.966.854-.183.977-2.807-.611-.366 1.831 2.502.549-.244.854Z" fill="#fff"/><path d="m170.542 219.958 1.159.183c-.244 1.587-1.281 2.258-2.807 2.197-1.83-.122-2.745-1.282-2.623-3.6.183-2.441 1.464-3.479 3.295-3.357 1.586.122 2.44 1.038 2.318 2.624h-1.159c.061-1.342-.549-1.647-1.22-1.708-.977-.061-1.831.549-1.953 2.502-.122 1.708.427 2.501 1.464 2.562.855 0 1.404-.427 1.526-1.403Z" fill="#fff"/><path d="M174.802 219.044c-.122-2.197 1.037-3.6 2.99-3.661 1.891-.061 2.929 1.159 2.99 3.295.122 2.258-.855 3.6-2.868 3.722-2.014.061-3.051-1.159-3.112-3.356Zm4.698-.305c-.061-1.587-.61-2.441-1.769-2.38-1.16.061-1.77.976-1.709 2.624.061 1.648.671 2.502 1.831 2.441 1.22-.061 1.708-.977 1.647-2.685Z" fill="#fff"/><path d="m187.61 221.24-2.623-5.064.915 5.308-1.099.184-1.098-6.652 1.77-.305 2.563 5.248.732-5.797 1.708-.305 1.099 6.651-1.099.183-.915-5.309-.793 5.614-1.16.244Z" fill="#fff"/><path d="m196.832 219.226-1.099.305-1.891-6.468 2.441-.732c1.708-.488 2.44.183 2.746 1.281.244.855.366 2.319-1.892 2.929l-.976.305.671 2.38Zm-.122-3.478c1.037-.305 1.403-.854 1.159-1.708-.244-.733-.671-.977-1.647-.672l-1.038.305.671 2.319.855-.244Z" fill="#fff"/><path d="m203.482 209.831 4.881 5.309-1.159.427-1.221-1.342-2.623 1.037.061 1.831-1.099.427-.244-7.201 1.404-.488Zm-.306 1.221.123 3.295 2.135-.854-2.258-2.441Z" fill="#fff"/><path d="m214.957 211.783-4.943-3.112h-.061l2.38 4.454-.976.549-3.173-5.98 1.22-.671 4.943 3.234-2.441-4.576.976-.549 3.173 5.98-1.098.671Z" fill="#fff"/><path d="m220.503 207.451.61-.428.427.672-2.197 1.464-.427-.671.61-.427-2.868-4.333-.61.427-.427-.671 2.197-1.464.427.671-.61.427 2.868 4.333Z" fill="#fff"/><path d="m225.695 200.858-2.013 1.586 1.22 1.587 2.441-1.892.61.793-3.356 2.624-4.21-5.309 3.173-2.501.61.732-2.258 1.769 1.16 1.465 2.013-1.587.61.733Z" fill="#fff"/><path d="M229.909 194.756c-.611-.549-1.221-.549-1.831 0-.549.489-.61.977-.183 1.404.488.549 1.098.183 1.709-.183.915-.549 1.952-1.221 2.99-.183.915.976.793 2.197-.367 3.295-1.159 1.098-2.257 1.281-3.356.366l.794-.976c.61.488 1.159.671 1.952-.061.671-.611.671-1.221.244-1.648-.549-.549-1.159-.122-1.891.366-.855.549-1.892 1.099-2.868.061-.855-.915-.672-2.135.366-3.173 1.037-.976 2.075-1.037 3.173-.183l-.732.915Z" fill="#fff"/><path d="M175.292 67.352h-.915l-.122 42.714h.366l.671-42.714Zm-8.543.427s-.061 0 0 0h-.427c-.122 0-.244 0-.366.061l5.004 42.409c.122 0 .244 0 .366-.061l-4.577-42.41Zm-8.42 1.403s-.061 0 0 0h-.061c-.061 0-.122.061-.183.061h-.061c-.183.061-.305.061-.489.123l10.13 41.493c.122 0 .244-.061.366-.061l-9.702-41.616Zm-8.177 2.38c-.305.122-.549.183-.854.305l15.072 39.968c.122-.061.244-.061.366-.122l-14.584-40.15Zm-7.872 3.417-.366.183h-.488l19.832 37.833c.122-.061.183-.122.305-.183L142.28 74.979Zm-7.322 4.333c-.061.06-.122.06-.183.122a3.384 3.384 0 0 0-.488.366l24.225 35.147c.122-.061.183-.122.305-.183l-23.859-35.452Zm-6.834 5.125-.122.123c-.183.183-.366.305-.549.488l28.252 32.035a1.33 1.33 0 0 1 .305-.244l-27.886-32.402Zm-6.102 5.98c-.122.122-.183.245-.305.305v.122l-.122.123 31.913 28.374.244-.244-31.73-28.68Zm-5.37 6.652c-.122.183-.244.366-.427.549-.061.06-.061.122-.122.183l35.086 24.347c.061-.122.122-.183.183-.305l-34.72-24.774Zm-4.515 7.2c-.122.244-.306.549-.428.793l37.772 19.954c.061-.122.122-.183.183-.305l-37.527-20.442Zm-3.662 7.749c0 .061-.061.123-.061.184v.061c-.061.183-.183.427-.244.61l39.907 15.194c.061-.122.061-.244.122-.305l-39.724-15.744Zm-2.624 8.116c-.061.183-.061.305-.122.488-.061.122-.061.305-.122.427l41.494 10.252c0-.122.061-.244.061-.366l-41.311-10.801Zm-1.647 8.36v.122c-.061.244-.061.488-.122.732l42.409 5.126c0-.122 0-.244.061-.366l-42.348-5.614Zm42.104 9.092-42.714-.61v.915l42.714.061v-.366Zm.122 3.478-42.47 4.515c0 .184.061.367.061.55v.366l42.409-5.065c.061-.183 0-.244 0-.366Zm.549 3.295L105.363 154c.061.244.122.549.183.794v.061l41.494-10.191c0-.061 0-.183-.061-.305Zm.976 3.173-40.151 14.584c.122.244.183.549.305.793l39.968-15.133c-.061 0-.061-.122-.122-.244Zm1.343 3.051-38.077 19.405c.122.183.183.427.305.61 0 .061.061.122.061.183l37.833-19.893c0-.061-.061-.183-.122-.305Zm1.708 2.929-35.452 23.798c.061.061.061.122.122.183l.366.549 35.147-24.286a.842.842 0 0 1-.183-.244Zm2.075 2.685-32.341 27.886c.061.061.061.122.122.122.122.122.244.244.306.366l31.974-28.313c.061.122 0 .061-.061-.061Zm3.173 1.525-29.595 32.524.183.183c.122.061.183.183.305.244l.184.183 29.167-32.889c-.061-.061-.122-.184-.244-.245Zm2.563 2.014-25.506 35.819.122.122c.061.061.122.061.122.122.122.122.305.183.427.305L159 159.919l-.183-.183Zm2.136 2.868-20.381 37.527c.244.122.549.306.793.428l19.893-37.833c-.122-.061-.244-.122-.305-.122Zm2.99 1.404-15.622 39.724.55.183c.122.061.183.061.305.122l15.133-39.968c-.122 0-.244-.061-.366-.061Zm3.173 1.037-10.74 41.371c.061 0 .122 0 .183.061h.122c.183.061.427.123.671.184l10.191-41.494c-.183-.061-.305-.122-.427-.122Zm3.295.61-5.614 42.348c.305.061.61.061.915.122l5.065-42.409c-.122 0-.244-.061-.366-.061Zm3.844.244h-.366l-.549 42.714h.915v-42.714Zm3.356-.183c-.122 0-.244 0-.366.061l4.576 42.47c.306-.061.611-.061.916-.122l-5.126-42.409Zm3.295-.61c-.122 0-.244.061-.366.061l9.702 41.616c.183-.061.305-.061.488-.122h.183c.061 0 .122 0 .183-.061l-10.19-41.494Zm3.234-.976c-.122.061-.244.061-.305.122l14.645 40.09c.061-.061.183-.061.244-.122h.122c.183-.061.305-.122.488-.183L184.14 164.13Zm1.953-3.601c-.122.061-.183.122-.305.183l20.502 40.274h.061c.123-.061.306-.183.428-.244a.462.462 0 0 1 .244-.122l-20.93-40.091Zm2.685-1.464c-.122.061-.183.122-.305.183l25.14 37.344c.061-.061.183-.122.244-.183h.061c.122-.061.244-.183.366-.244 0 0 .061 0 .061-.061l-25.567-37.039Zm3.966-.183-.244.244 27.947 32.28.061-.061h.061c.061-.062.183-.123.244-.245h.061l.122-.122-28.252-32.096Zm2.38-2.441-.244.244 31.608 28.68c.183-.245.427-.428.61-.672l-31.974-28.252Zm2.074-2.624c-.061.122-.122.183-.183.305l34.843 24.713c.122-.122.183-.305.305-.427v-.122c.061-.061.122-.122.122-.183l-35.087-24.286Zm1.77-2.929c-.061.122-.122.183-.183.305l37.588 20.32c.122-.244.305-.549.427-.793l-37.832-19.832Zm1.343-3.051c-.062.122-.062.244-.123.305l39.786 15.621c.061-.061.061-.183.122-.244v-.061c.061-.183.122-.305.183-.488v-.061l-39.968-15.072Zm1.037-3.173c0 .122-.061.244-.061.366l41.371 10.679c.061-.305.122-.61.244-.915l-41.554-10.13Zm.549-3.295c0 .122 0 .244-.061.366l42.348 5.553v-.122c.061-.244.061-.488.122-.793l-42.409-5.004Zm42.958-3.539-42.714.061v.366l42.714.488v-.915Zm-.549-8.482-42.409 5.187c0 .122 0 .244.061.366l42.47-4.638v-.183c-.061-.244-.122-.488-.122-.732Zm-1.526-8.421-41.493 10.313c0 .122.061.244.061.366l41.616-9.763c0-.061-.062-.183-.062-.244-.061-.244-.122-.489-.122-.672Zm-2.562-8.115-39.907 15.255c.061.122.061.244.122.305l40.09-14.706c-.061-.122-.061-.183-.122-.305a2.836 2.836 0 0 0-.183-.549Zm-3.54-7.811-37.771 19.954c.061.122.122.183.183.305l38.016-19.466c-.122-.183-.183-.427-.306-.61v-.061a.131.131 0 0 1-.122-.122Zm-4.454-7.261-35.087 24.347c.061.122.123.183.184.305l35.391-23.92s0-.061-.061-.061c-.061-.122-.122-.183-.183-.305v-.061c-.122-.122-.183-.183-.244-.305Zm-5.309-6.712-31.913 28.435.244.244 32.279-28.008-.061-.061v-.061l-.061-.061-.061-.061-.061-.061-.366-.366Zm-6.041-6.041-28.252 32.035.244.244 28.679-31.67-.183-.182h-.061l-.427-.427Zm-6.712-5.248-24.164 35.208c.122.061.183.122.305.183l24.652-34.903c-.305-.122-.549-.305-.793-.488Zm-7.322-4.394-19.771 37.894c.122.061.183.122.305.183l20.259-37.588-.366-.184h-.061c-.244-.244-.305-.305-.366-.305Zm-7.811-3.478-15.011 39.968c.122.061.244.061.305.122l15.56-39.785c-.061-.06-.183-.06-.244-.122-.122-.06-.244-.122-.366-.122h-.061c-.061 0-.122-.06-.183-.06Zm-8.116-2.502-10.068 41.494c.122 0 .244.061.366.061l10.618-41.371a12.163 12.163 0 0 1-.916-.184Zm-8.42-1.525-4.943 42.409c.122 0 .244 0 .366.061l5.492-42.348h-.244c-.183 0-.366-.061-.549-.061-.061-.061-.122-.061-.122-.061Z" fill="#000"/><path d="m237.657 188.597-.854-.671c11.41-14.34 17.451-31.608 17.451-49.914a79.887 79.887 0 0 0-6.163-30.876l1.038-.428c4.149 9.947 6.224 20.503 6.224 31.304 0 18.55-6.102 36.002-17.696 50.585Z" fill="#fff"/><path d="M110.243 188.594c-11.594-14.523-17.696-32.035-17.696-50.646 0-10.862 2.075-21.357 6.224-31.304l1.037.427a79.907 79.907 0 0 0-6.163 30.877c0 18.306 6.041 35.574 17.452 49.914l-.854.732Z" fill="#fff"/><path d="m237.657 188.533-.854-.671c11.41-14.34 17.451-31.608 17.451-49.914a79.895 79.895 0 0 0-6.163-30.877l.977-.427c4.149 9.947 6.224 20.442 6.224 31.304.061 18.55-6.102 36.062-17.635 50.585Z" fill="#fff"/><path d="M110.243 188.533c-11.594-14.523-17.696-32.035-17.696-50.585 0-10.862 2.075-21.357 6.224-31.304l.976.427a79.908 79.908 0 0 0-6.163 30.877c0 18.306 6.041 35.574 17.452 49.914l-.793.671Z" fill="#fff"/><path d="M217.763 133.864c-1.831-.122-3.418-1.282-4.15-2.929l-.244-.61-.427.427c-2.441 2.38-6.163 3.6-11.045 3.6-4.881 0-9.336-1.526-12.265-4.149l-.732-.672v4.211h-60.532v-8.97h4.089v-14.95h-4.089v-9.458h23.92v7.322h14.096l.732 3.112.732-.549c2.136-1.587 4.577-2.319 7.811-2.319 6.163 0 9.824 2.685 10.373 7.628l.183 1.586.671-1.403c2.685-5.797 9.459-7.811 14.95-7.872h.549c5.98 0 12.754 2.868 13.547 10.923l.122 1.037-11.411 1.282-.061-1.16c-.122-3.539-1.159-4.21-2.685-4.21-2.379 0-3.173 1.281-3.173 5.37 0 4.149.794 5.43 3.173 5.43 1.77 0 2.807-.976 2.807-2.623v-1.099h11.411l-.122 1.587.61-.183a4.102 4.102 0 0 1 1.465-.244 4.92 4.92 0 0 1 4.942 4.942c0 2.563-1.891 4.699-4.454 4.943h-.793Zm.305 10.251c-2.014 0-2.929 1.465-2.929 9.702 0 8.299.976 9.703 2.929 9.703 2.013 0 2.929-1.465 2.929-9.703 0-8.237-.916-9.702-2.929-9.702Zm-29.9 0c-2.014 0-2.929 1.465-2.929 9.702 0 8.299.976 9.703 2.929 9.703 2.013 0 2.929-1.465 2.929-9.703 0-8.237-.916-9.702-2.929-9.702Zm-29.9 0c-2.014 0-2.929 1.465-2.929 9.702 0 8.299.976 9.703 2.929 9.703 2.014 0 2.929-1.465 2.929-9.703 0-8.237-.976-9.702-2.929-9.702Zm-32.097 12.265 1.038.793-.305.733c-.488.976-.733 3.112 0 4.393.366.61.976.915 1.83.915 1.709 0 2.685-.793 3.112-2.44.122-.489.183-1.099.183-1.709 0-1.709-.427-2.99-1.22-3.783-.61-.549-1.342-.854-2.258-.854-1.464 0-2.929.61-4.515 1.769l-.427.183-8.238-3.295 2.502-18.062h23.492v10.435h-14.888l-.306 2.196.733-.305c1.403-.61 2.929-.915 4.576-.915 3.844 0 6.834 1.037 8.97 3.051.61.549 1.16 1.22 1.648 2.014l.732 1.159.122-1.343c.732-10.678 6.163-16.536 15.316-16.536 7.505 0 12.509 3.905 14.523 11.35l.427 1.586.427-1.586c1.953-7.384 6.956-11.35 14.523-11.35 7.505 0 12.509 3.905 14.523 11.35l.427 1.586.427-1.586c1.891-7.262 6.834-11.228 14.218-11.289h.915c9.458.244 14.95 7.2 14.95 19.099 0 12.204-5.675 19.161-15.499 19.161-7.506 0-12.509-3.967-14.523-11.411l-.427-1.587-.427 1.587c-2.014 7.505-7.018 11.411-14.584 11.411-7.506 0-12.509-3.967-14.523-11.411l-.427-1.587-.427 1.587c-2.014 7.505-7.018 11.411-14.584 11.411-6.834 0-11.838-3.54-14.096-10.008l-.427-1.281-.427 1.281a14.438 14.438 0 0 1-1.22 2.807c-.794 1.343-1.709 2.502-2.868 3.478-2.929 2.502-6.529 3.723-10.679 3.723-6.041 0-12.936-3.234-13.79-10.252l-.061-.732 11.532-5.736Zm44.667-39.663c-1.891 0-3.295 1.404-3.295 3.295v4.821h5.736v-6.041c0-1.404-.854-2.075-2.441-2.075Zm-22.638 8.055h6.468v-8.116h-3.051v-6.834h-3.356v14.95h-.061Z" fill="#fff"/><path d="M158.328 135.756c-9.092 0-14.34 6.041-14.34 18.062 0 11.899 5.309 18.123 14.34 18.123 8.97 0 14.401-6.224 14.401-18.123 0-12.021-5.431-18.062-14.401-18.062Zm0 28.863c-3.295 0-4.027-3.173-4.027-10.801 0-7.627.732-10.8 4.027-10.8s4.027 3.173 4.027 10.8c0 7.628-.671 10.801-4.027 10.801Z" fill="#F5B335"/><path d="M188.234 135.756c-9.092 0-14.339 6.041-14.339 18.062 0 11.899 5.308 18.123 14.339 18.123 8.97 0 14.401-6.224 14.401-18.123.061-12.021-5.431-18.062-14.401-18.062Zm.061 28.863c-3.295 0-4.027-3.173-4.027-10.801 0-7.627.732-10.8 4.027-10.8s4.028 3.173 4.028 10.8c0 7.628-.733 10.801-4.028 10.801Z" fill="#285CFF"/><path d="M218.129 135.756c-9.092 0-14.34 6.041-14.34 18.062 0 11.899 5.309 18.123 14.34 18.123 8.97 0 14.401-6.224 14.401-18.123.061-12.021-5.431-18.062-14.401-18.062Zm.061 28.863c-3.295 0-4.028-3.173-4.028-10.801 0-7.627.733-10.8 4.028-10.8 3.295 0 4.027 3.173 4.027 10.8 0 7.628-.732 10.801-4.027 10.801Z" fill="#0033A1"/><path d="M139.837 150.216c-1.83-1.708-4.515-2.746-8.237-2.746-3.723 0-5.797 1.648-6.713 2.441l.733-5.553h14.828v-8.298h-21.541l-2.257 16.414 6.285 3.234c1.098-.915 3.112-2.441 5.736-2.441 1.159 0 2.196.366 2.99 1.16.976.915 1.586 2.44 1.586 4.576 0 .732-.061 1.404-.183 1.953-.549 2.38-2.136 3.295-4.149 3.295-4.028 0-3.722-5.065-2.807-6.834l-.061-.061-10.068 5.247c.732 6.407 7.2 9.336 12.692 9.336 3.539 0 7.017-.976 10.007-3.478 1.037-.915 1.953-1.952 2.624-3.173a12.937 12.937 0 0 0 1.708-6.407c0-3.478-.976-6.59-3.173-8.665Z" fill="#FF4713"/><path d="M129.518 132.644v-6.773h4.088v-17.147h-4.088v-7.322h21.784v7.322h-4.089v17.086h4.089v6.834h-21.784Z" fill="#000"/><path d="M171.263 132.643v-6.834h3.173v-7.139c0-2.136-1.525-3.112-3.539-3.112-2.502 0-4.394 1.83-4.394 4.332v5.919h3.234v6.834h-17.024v-6.834h3.051v-10.251h-3.051v-6.835h13.424v4.699c.244-.183.427-.427.61-.671 2.441-2.807 5.248-3.845 8.97-3.845 5.187 0 9.398 2.136 9.398 7.872v9.031h2.745v6.834h-16.597Z" fill="#000"/><path d="m214.948 118.854-9.214 1.037c-.122-2.563-.61-5.248-3.722-5.248-3.966 0-4.272 3.295-4.272 6.468v.061c0 3.173.306 6.469 4.272 6.469 2.075 0 3.905-1.16 3.905-3.723h9.153l-.061.794c-1.525 7.444-8.238 8.603-13.058 8.603-7.567 0-15.072-3.722-15.072-12.204 0-8.481 7.444-12.204 15.072-12.204 0 0 11.899-.793 12.997 9.947Z" fill="#000"/><path d="M222.084 128.922c0 2.136-1.709 3.844-3.905 3.844-2.136 0-3.906-1.708-3.906-3.844a3.893 3.893 0 0 1 3.906-3.905c2.135 0 3.905 1.769 3.905 3.905Z" fill="#000"/></svg>