<svg width="160" height="143" fill="none" xmlns="http://www.w3.org/2000/svg"><path fill-rule="evenodd" clip-rule="evenodd" d="M160 19.497c0 9.933-8.051 17.984-17.983 17.984s-17.984-8.052-17.984-17.984c0-9.932 8.052-17.983 17.984-17.983 9.932 0 17.983 8.051 17.983 17.983Zm-15.151 6.029c.938.269 1.909.403 2.914.403 1.729 0 3.089-.37 4.081-1.108.992-.753 1.487-1.774 1.487-3.063 0-.954-.268-1.746-.804-2.378-.429-.517-.988-.874-1.676-1.071a3.1 3.1 0 0 0 1.355-1.004c.469-.591.703-1.297.703-2.116 0-1.223-.449-2.176-1.347-2.861-.897-.699-2.137-1.048-3.718-1.048-.952 0-1.87.14-2.754.423-.885.269-1.628.652-2.232 1.149l1.126 2.7a5.622 5.622 0 0 1 1.648-.927 5.569 5.569 0 0 1 1.85-.303c.616 0 1.085.115 1.407.343.322.228.482.564.482 1.008 0 .456-.167.812-.502 1.068-.335.241-.791.362-1.367.362h-2.131v2.902h2.493c.643 0 1.125.114 1.447.342.335.229.503.578.503 1.048 0 .497-.181.873-.543 1.129-.362.241-.905.362-1.628.362-.697 0-1.374-.1-2.031-.302a6.577 6.577 0 0 1-1.869-.927l-1.126 2.74c.563.47 1.307.847 2.232 1.129Zm-10.643-5.09-4.313 5.271h4.181l2.169-2.78 2.153 2.78h4.221l-4.31-5.282 4.009-4.954h-4.161l-1.908 2.484-1.892-2.484h-4.181l4.032 4.964Z" fill="#FF4713"/><path d="M142.464 71.768c0 39.34-31.892 71.232-71.232 71.232S0 111.108 0 71.768 31.892.536 71.232.536c19.423 0 37.031 7.774 49.881 20.38.184 8.31 5.671 15.31 13.21 17.752 5.199 9.89 8.141 21.151 8.141 33.1Z" fill="#000"/><path d="M71.225 131.132c32.784 0 59.36-26.576 59.36-59.36 0-32.783-26.576-59.36-59.36-59.36-32.783 0-59.36 26.577-59.36 59.36 0 32.784 26.577 59.36 59.36 59.36Z" fill="#fff"/><path d="m23.095 120.087-.693-.643 3.859-3.908 1.484 1.435c.99.989.84 1.78.198 2.424-.495.494-1.484 1.137-2.82-.149l-.594-.593-1.434 1.434Zm2.424-1.434c.593.593 1.138.643 1.632.148.445-.445.396-.841-.148-1.435l-.643-.593-1.385 1.385.544.495Z" fill="#fff"/><path d="m30.313 123.503-.05-.05-.692-.544-1.434 1.781-.742-.594 3.413-4.303 1.632 1.286c1.088.89 1.039 1.682.495 2.325-.346.445-.94.89-1.83.494l-.545 2.672-.791-.643.544-2.424Zm.297-.693c.643.495 1.138.594 1.533.099.396-.495.198-.841-.346-1.286l-.692-.544-1.04 1.335.545.396Z" fill="#fff"/><path d="m34.373 128.495.494.347-.346.544-1.78-1.187.346-.545.494.347 2.325-3.463-.495-.346.347-.544 1.78 1.187-.346.544-.494-.346-2.325 3.462Z" fill="#fff"/><path d="m42.822 127.859.89.494-4.353 3.859-1.039-.594.89-5.787.94.494-.84 4.798 3.512-3.264Z" fill="#fff"/><path d="m47.573 130.026-.247 5.837-.89-.395.049-1.484-2.078-.891-.99 1.089-.89-.396 3.958-4.304 1.088.544Zm-.89.544-1.83 1.979 1.681.742.148-2.721Z" fill="#fff"/><path d="m51.721 132.359-1.533-.494.247-.742 4.007 1.286-.248.742-1.533-.495-1.435 4.502-.89-.297 1.385-4.502Z" fill="#fff"/><path d="m58.908 136.609-2.028-.445-.346 1.582 2.473.545-.148.791-3.414-.742 1.138-5.342 3.215.692-.148.792-2.276-.495-.296 1.484 2.028.445-.198.693Z" fill="#fff"/><path d="m68.462 138.24.94.148c-.198 1.287-1.04 1.831-2.276 1.781-1.484-.099-2.226-1.039-2.127-2.918.148-1.979 1.187-2.82 2.671-2.721 1.286.099 1.979.841 1.88 2.127h-.94c.05-1.088-.445-1.336-.99-1.385-.79-.049-1.483.445-1.582 2.028-.1 1.385.346 2.028 1.187 2.078.693 0 1.138-.347 1.237-1.138Z" fill="#fff"/><path d="M71.917 137.501c-.099-1.781.841-2.919 2.424-2.968 1.534-.049 2.375.94 2.424 2.671.099 1.83-.692 2.919-2.325 3.018-1.632.049-2.473-.94-2.523-2.721Zm3.81-.247c-.05-1.286-.496-1.979-1.435-1.93-.94.05-1.435.792-1.385 2.128.05 1.335.544 2.028 1.484 1.978.989-.049 1.385-.791 1.335-2.176Z" fill="#fff"/><path d="m82.3 139.28-2.126-4.106.742 4.304-.89.148-.891-5.391 1.434-.248 2.078 4.254.593-4.699 1.386-.247.89 5.392-.89.148-.742-4.304-.644 4.551-.94.198Z" fill="#fff"/><path d="m89.77 137.647-.89.248-1.534-5.244 1.978-.593c1.385-.396 1.979.148 2.226 1.038.198.693.297 1.88-1.533 2.375l-.792.247.545 1.929Zm-.1-2.819c.842-.248 1.138-.693.94-1.385-.197-.594-.544-.792-1.335-.545l-.841.248.544 1.88.693-.198Z" fill="#fff"/><path d="m95.173 130.034 3.957 4.303-.94.346-.989-1.088-2.127.841.05 1.484-.891.346-.198-5.837 1.138-.395Zm-.248.989.1 2.671 1.73-.692-1.83-1.979Z" fill="#fff"/><path d="m104.454 131.615-4.007-2.523h-.05l1.93 3.612-.792.445-2.572-4.848.99-.544 4.006 2.622-1.979-3.71.792-.446 2.572 4.848-.89.544Z" fill="#fff"/><path d="m108.955 128.102.495-.347.346.544-1.78 1.188-.347-.545.495-.346-2.325-3.512-.495.346-.346-.544 1.781-1.187.346.544-.495.346 2.325 3.513Z" fill="#fff"/><path d="m113.169 122.76-1.633 1.286.99 1.286 1.978-1.533.495.643-2.721 2.127-3.413-4.304 2.572-2.028.495.594-1.83 1.434.94 1.187 1.632-1.286.495.594Z" fill="#fff"/><path d="M116.597 117.807c-.495-.445-.989-.445-1.484 0-.445.396-.495.792-.148 1.138.395.445.89.149 1.385-.148.742-.445 1.583-.99 2.424-.149.742.792.643 1.781-.297 2.672-.94.89-1.831 1.038-2.721.296l.643-.791c.495.396.94.544 1.583-.05.544-.494.544-.989.198-1.335-.445-.445-.94-.099-1.534.297-.692.445-1.533.89-2.324.049-.693-.742-.545-1.731.296-2.572.841-.792 1.682-.841 2.573-.149l-.594.742Z" fill="#fff"/><path d="M72.31 14.53h-.741l-.1 34.627h.298l.544-34.626Zm-6.925.347s-.049 0 0 0h-.346c-.099 0-.198 0-.297.05L68.8 49.305c.099 0 .197 0 .296-.05l-3.71-34.379Zm-6.826 1.138s-.05 0 0 0h-.05c-.049 0-.098.05-.148.05h-.05c-.148.049-.247.049-.395.098L66.128 49.8c.098 0 .197-.049.296-.049L58.56 16.015Zm-6.628 1.929c-.248.099-.446.148-.693.247l12.218 32.4c.1-.049.198-.049.297-.098L51.931 17.944Zm-6.382 2.77-.297.149H44.856l16.078 30.669c.098-.05.148-.1.247-.149L45.549 20.714Zm-5.936 3.512c-.05.05-.099.05-.148.1a2.734 2.734 0 0 0-.396.296l19.639 28.493c.098-.05.148-.1.247-.149l-19.342-28.74Zm-5.54 4.155-.099.1c-.148.148-.297.247-.445.395l22.903 25.97c.05-.05.148-.148.247-.198L34.073 28.381Zm-4.947 4.848c-.099.1-.148.198-.247.248v.099l-.099.098 25.871 23.002.198-.198L29.126 33.23Zm-4.353 5.392c-.099.148-.197.297-.346.445-.05.05-.05.1-.099.149l28.444 19.737c.049-.1.098-.149.148-.247L24.773 38.62Zm-3.66 5.837c-.1.198-.247.445-.346.643l30.62 16.176c.049-.1.098-.149.148-.248L21.113 44.46Zm-2.968 6.282c0 .05-.05.1-.05.149v.05c-.05.148-.148.346-.197.494l32.35 12.317c.05-.099.05-.198.1-.247L18.145 50.74Zm-2.127 6.58c-.05.148-.05.247-.1.395-.049.1-.049.247-.098.346l33.637 8.31c0-.098.05-.197.05-.296l-33.49-8.756Zm-1.336 6.776v.1c-.05.197-.05.395-.099.593l34.38 4.155c0-.099 0-.198.049-.297l-34.33-4.55Zm34.132 7.37-34.627-.494v.742l34.627.05v-.297Zm.1 2.82-34.43 3.661c0 .148.05.297.05.445V78.69l34.38-4.106c.048-.148 0-.198 0-.296Zm.444 2.672-33.736 7.815c.05.198.099.446.148.643v.05l33.638-8.261c0-.05 0-.148-.05-.247Zm.792 2.572L17.6 91.352c.1.198.15.446.248.644l32.4-12.268c-.049 0-.049-.1-.098-.198Zm1.088 2.473-30.867 15.73c.099.149.148.347.247.495 0 .05.05.1.05.149L51.337 82.25c0-.05-.05-.149-.099-.248Zm1.385 2.375-28.74 19.292c.05.049.05.099.099.148l.297.445 28.493-19.688c-.05-.049-.1-.098-.149-.197Zm1.682 2.176L28.088 109.16c.05.05.05.099.099.099.098.099.197.198.247.297l25.92-22.952c.05.099 0 .05-.05-.05Zm2.572 1.237-23.991 26.366.148.148c.1.049.149.148.248.198l.148.148 23.645-26.662c-.05-.05-.099-.149-.198-.198Zm2.078 1.632L38.278 118.46l.099.099c.05.05.099.05.099.099.099.099.247.148.346.247l20.281-29.333-.148-.149Zm1.731 2.325L44.164 122.17c.198.099.445.247.643.346l16.127-30.669c-.1-.05-.198-.099-.248-.099Zm2.424 1.138-12.663 32.203.445.148c.099.05.148.05.247.099l12.268-32.4c-.1 0-.198-.05-.297-.05Zm2.572.84-8.706 33.539c.05 0 .1 0 .148.05h.1c.148.049.346.099.544.148l8.26-33.637c-.148-.05-.247-.1-.346-.1Zm2.671.496-4.55 34.329c.247.05.494.05.742.099l4.105-34.379c-.099 0-.198-.05-.297-.05Zm3.117.197h-.297l-.445 34.627h.742V94.419Zm2.72-.148c-.098 0-.197 0-.296.05l3.71 34.428c.247-.049.494-.049.742-.099L74.19 94.271Zm2.672-.495c-.1 0-.198.05-.297.05l7.865 33.736c.148-.049.247-.049.396-.099H84.975c.049 0 .098 0 .148-.049l-8.261-33.638Zm2.621-.791c-.099.05-.197.05-.247.099l11.872 32.499c.05-.049.148-.049.198-.099h.099c.148-.049.247-.099.396-.148L79.483 92.985Zm1.583-2.919c-.099.05-.148.1-.247.149l16.62 32.648h.05c.1-.05.248-.149.347-.198a.371.371 0 0 1 .197-.099l-16.967-32.5Zm2.177-1.187c-.099.05-.148.099-.247.148l20.38 30.274c.049-.049.148-.099.198-.148h.049c.099-.05.198-.149.297-.198 0 0 .049 0 .049-.05L83.243 88.879Zm3.215-.148-.198.198 22.656 26.167.05-.049h.049c.049-.05.148-.099.198-.198h.049l.099-.099-22.903-26.02Zm1.93-1.979-.198.198 25.623 23.249c.149-.198.347-.346.495-.544l-25.92-22.903Zm1.681-2.127c-.05.099-.099.148-.148.247l28.245 20.034c.099-.099.149-.247.248-.346v-.099c.049-.049.099-.099.099-.148L90.069 84.625Zm1.435-2.374c-.05.099-.1.148-.149.247l30.472 16.472c.099-.198.247-.445.346-.643l-30.67-16.076Zm1.088-2.474c-.05.1-.05.198-.099.248l32.252 12.663c.05-.05.05-.148.099-.198v-.05c.05-.148.099-.247.149-.395v-.05l-32.4-12.218Zm.841-2.572c0 .099-.05.198-.05.297l33.539 8.656a4.08 4.08 0 0 1 .198-.742l-33.687-8.211Zm.445-2.671c0 .099 0 .198-.05.297l34.331 4.501v-.099c.049-.198.049-.396.099-.643l-34.38-4.056Zm34.825-2.87-34.627.05v.297l34.627.396v-.743Zm-.445-6.875-34.38 4.204c0 .1 0 .198.05.297l34.428-3.76v-.148a2.505 2.505 0 0 1-.098-.593Zm-1.237-6.827-33.637 8.36c0 .1.049.198.049.297l33.736-7.914c0-.05-.049-.149-.049-.198-.05-.198-.099-.396-.099-.544Zm-2.078-6.579L92.593 63.75c.049.099.049.198.098.247l32.5-11.921c-.05-.099-.05-.148-.099-.247a2.292 2.292 0 0 0-.149-.446Zm-2.869-6.331-30.62 16.175c.05.1.1.149.149.248l30.817-15.78c-.098-.149-.148-.346-.247-.495v-.05c-.049 0-.099-.049-.099-.098Zm-3.611-5.887L90.02 58.902c.05.1.099.149.148.248l28.691-19.391s0-.05-.05-.05c-.049-.099-.099-.148-.148-.247v-.05a.878.878 0 0 1-.198-.247Zm-4.303-5.441L88.289 56.775l.197.198 26.168-22.705-.049-.05v-.049l-.05-.05-.049-.049-.05-.05a82.717 82.717 0 0 1-.296-.296Zm-4.898-4.897-22.903 25.97.198.198 23.249-25.674a20.68 20.68 0 0 0-.148-.148h-.049l-.347-.346Zm-5.441-4.255L84.232 53.115c.1.05.149.099.248.148l19.984-28.295c-.247-.099-.445-.247-.643-.395Zm-5.936-3.561L81.858 51.73c.099.05.148.099.247.148l16.423-30.471-.297-.149h-.05c-.197-.198-.246-.247-.296-.247Zm-6.332-2.82-12.168 32.4c.098.05.197.05.247.1l12.614-32.252c-.05-.05-.149-.05-.198-.1-.099-.049-.198-.098-.297-.098h-.05c-.049 0-.098-.05-.148-.05Zm-6.579-2.028L76.812 49.8c.1 0 .198.05.297.05l8.607-33.538a9.803 9.803 0 0 1-.742-.149Zm-6.826-1.236L74.14 49.305c.099 0 .198 0 .297.05l4.452-34.33h-.198c-.148 0-.297-.05-.445-.05-.05-.05-.1-.05-.1-.05Z" fill="#000"/><path d="m122.886 112.826-.693-.544c9.251-11.625 14.148-25.624 14.148-40.464a64.779 64.779 0 0 0-4.996-25.03l.841-.346c3.363 8.063 5.045 16.62 5.045 25.376 0 15.038-4.946 29.185-14.345 41.008Z" fill="#fff"/><path d="M19.587 112.826C10.19 101.053 5.242 86.856 5.242 71.769c0-8.805 1.682-17.314 5.046-25.377l.84.347a64.774 64.774 0 0 0-4.995 25.03c0 14.84 4.897 28.839 14.147 40.464l-.693.593Z" fill="#fff"/><path d="m122.886 112.777-.693-.544c9.251-11.625 14.148-25.624 14.148-40.464a64.779 64.779 0 0 0-4.996-25.03l.791-.346c3.364 8.063 5.046 16.57 5.046 25.376.049 15.038-4.947 29.235-14.296 41.008Z" fill="#fff"/><path d="M19.587 112.777C10.19 101.004 5.242 86.807 5.242 71.769c0-8.805 1.682-17.314 5.046-25.377l.791.347a64.775 64.775 0 0 0-4.996 25.03c0 14.84 4.897 28.839 14.148 40.464l-.644.544Z" fill="#fff"/><path d="M106.741 68.455c-1.484-.099-2.77-1.039-3.364-2.374l-.197-.495-.347.346c-1.978 1.93-4.996 2.919-8.953 2.919-3.957 0-7.569-1.237-9.943-3.364l-.593-.544v3.413H34.273v-7.271h3.314v-12.12h-3.314v-7.667h19.39v5.936H65.09l.594 2.523.594-.446c1.73-1.286 3.71-1.88 6.331-1.88 4.996 0 7.964 2.177 8.41 6.184l.148 1.286.544-1.138c2.177-4.699 7.667-6.331 12.12-6.38h.445c4.847 0 10.338 2.324 10.981 8.854l.099.84-9.25 1.04-.05-.94c-.099-2.87-.94-3.414-2.176-3.414-1.93 0-2.572 1.04-2.572 4.354 0 3.363.643 4.402 2.572 4.402 1.434 0 2.275-.791 2.275-2.127v-.89h9.251l-.099 1.286.494-.149a3.33 3.33 0 0 1 1.188-.198 3.99 3.99 0 0 1 4.006 4.007c0 2.078-1.533 3.81-3.611 4.007h-.643Zm.248 8.31c-1.633 0-2.375 1.188-2.375 7.866 0 6.727.792 7.865 2.375 7.865 1.632 0 2.374-1.187 2.374-7.865s-.742-7.866-2.374-7.866Zm-24.24 0c-1.631 0-2.373 1.188-2.373 7.866 0 6.727.79 7.865 2.374 7.865 1.632 0 2.374-1.187 2.374-7.865s-.742-7.866-2.374-7.866Zm-24.238 0c-1.632 0-2.374 1.188-2.374 7.866 0 6.727.791 7.865 2.374 7.865 1.633 0 2.375-1.187 2.375-7.865s-.792-7.866-2.375-7.866Zm-26.02 9.943.842.643-.248.594c-.395.791-.593 2.523 0 3.562.297.494.792.742 1.484.742 1.385 0 2.177-.644 2.523-1.98.1-.395.149-.89.149-1.384 0-1.385-.347-2.424-.99-3.067a2.625 2.625 0 0 0-1.83-.693c-1.187 0-2.374.495-3.66 1.435l-.347.148-6.678-2.671 2.028-14.642H44.81v8.459h-12.07l-.247 1.78.593-.247c1.138-.495 2.375-.742 3.71-.742 3.117 0 5.54.841 7.272 2.474.495.445.94.989 1.336 1.632l.593.94.1-1.088c.593-8.657 4.995-13.406 12.415-13.406 6.085 0 10.14 3.166 11.773 9.2l.346 1.287.347-1.286c1.583-5.986 5.639-9.201 11.773-9.201 6.084 0 10.14 3.166 11.773 9.2l.346 1.287.347-1.286c1.533-5.887 5.54-9.102 11.525-9.151h.742c7.668.197 12.12 5.837 12.12 15.483 0 9.893-4.601 15.532-12.565 15.532-6.084 0-10.14-3.215-11.773-9.25l-.346-1.286-.347 1.286c-1.632 6.084-5.688 9.25-11.822 9.25-6.085 0-10.14-3.215-11.773-9.25l-.347-1.286-.346 1.286c-1.632 6.084-5.688 9.25-11.822 9.25-5.54 0-9.597-2.869-11.427-8.112l-.346-1.04-.347 1.04a11.72 11.72 0 0 1-.989 2.275c-.643 1.088-1.385 2.028-2.325 2.82-2.374 2.028-5.293 3.017-8.657 3.017-4.897 0-10.486-2.622-11.179-8.31l-.05-.594 9.35-4.65Zm36.21-32.153c-1.533 0-2.67 1.138-2.67 2.671v3.908h4.649v-4.897c0-1.138-.693-1.682-1.979-1.682Zm-18.352 6.53h5.244v-6.58h-2.474v-5.54H50.4v12.12h-.05Z" fill="#fff"/><path d="M58.556 69.987c-7.37 0-11.624 4.897-11.624 14.642 0 9.646 4.303 14.692 11.624 14.692 7.272 0 11.674-5.046 11.674-14.692 0-9.745-4.402-14.642-11.674-14.642Zm0 23.398c-2.67 0-3.264-2.573-3.264-8.756s.593-8.755 3.264-8.755c2.672 0 3.265 2.572 3.265 8.755 0 6.183-.544 8.756-3.265 8.756Z" fill="#F5B335"/><path d="M82.814 69.987c-7.37 0-11.624 4.897-11.624 14.642 0 9.646 4.303 14.692 11.624 14.692 7.272 0 11.674-5.046 11.674-14.692.05-9.745-4.402-14.642-11.674-14.642Zm.05 23.398c-2.672 0-3.265-2.573-3.265-8.756s.593-8.755 3.265-8.755c2.67 0 3.264 2.572 3.264 8.755 0 6.183-.593 8.756-3.264 8.756Z" fill="#285CFF"/><path d="M107.039 69.987c-7.37 0-11.625 4.897-11.625 14.642 0 9.646 4.304 14.692 11.625 14.692 7.271 0 11.674-5.046 11.674-14.692.049-9.745-4.403-14.642-11.674-14.642Zm.049 23.398c-2.671 0-3.265-2.573-3.265-8.756s.594-8.755 3.265-8.755c2.671 0 3.265 2.572 3.265 8.755 0 6.183-.594 8.756-3.265 8.756Z" fill="#0033A1"/><path d="M43.578 81.71c-1.484-1.385-3.66-2.226-6.678-2.226s-4.7 1.335-5.441 1.979l.593-4.502h12.02v-6.727H26.611L24.78 83.54l5.095 2.622c.89-.742 2.522-1.979 4.65-1.979.94 0 1.78.297 2.423.94.792.742 1.286 1.979 1.286 3.71a7.49 7.49 0 0 1-.148 1.583c-.445 1.93-1.731 2.671-3.364 2.671-3.264 0-3.017-4.106-2.275-5.54l-.05-.05-8.162 4.254c.594 5.194 5.837 7.569 10.29 7.569 2.868 0 5.688-.792 8.112-2.82.84-.742 1.583-1.583 2.127-2.572a10.488 10.488 0 0 0 1.385-5.194c0-2.82-.791-5.342-2.572-7.024Z" fill="#FF4713"/><path d="M35.217 67.463v-5.491h3.314v-13.9h-3.314v-5.936h17.66v5.936h-3.315v13.85h3.314v5.54h-17.66Z" fill="#000"/><path d="M69.057 67.462v-5.54h2.573v-5.788c0-1.731-1.237-2.523-2.87-2.523-2.028 0-3.561 1.484-3.561 3.512v4.799h2.622v5.54H54.02v-5.54h2.473v-8.31h-2.474V48.07h10.883v3.809c.198-.149.347-.347.495-.544 1.978-2.276 4.254-3.117 7.271-3.117 4.205 0 7.618 1.731 7.618 6.381v7.322h2.226v5.54H69.057Z" fill="#000"/><path d="m104.479 56.285-7.47.841c-.098-2.078-.494-4.254-3.017-4.254-3.215 0-3.462 2.671-3.462 5.243v.05c0 2.572.247 5.243 3.462 5.243 1.682 0 3.166-.94 3.166-3.017h7.42l-.049.643c-1.237 6.035-6.678 6.975-10.586 6.975-6.134 0-12.218-3.018-12.218-9.894s6.035-9.893 12.218-9.893c0 0 9.646-.643 10.536 8.063Z" fill="#000"/><path d="M110.261 64.444c0 1.731-1.385 3.116-3.165 3.116-1.732 0-3.166-1.385-3.166-3.116a3.156 3.156 0 0 1 3.166-3.166c1.731 0 3.165 1.434 3.165 3.166Z" fill="#000"/><path d="m122.802 28.363-3.003 2.494-.395-.445-.495.396 1.385 1.632.495-.395-.396-.446 2.836-2.356c-.149-.289-.292-.582-.427-.88Z" fill="#fff"/><path d="m124.925 31.945-3.244 2.282.495.742 3.297-2.327c-.188-.228-.371-.46-.548-.697Z" fill="#fff"/><path d="m125.501 32.676-1.99 4.173.644.94 3.784-2.662a19.736 19.736 0 0 1-.685-.602l-2.506 1.78 1.397-2.893c-.221-.24-.436-.485-.644-.736Z" fill="#fff"/><path d="M68.157 4.394c.644 0 .99.296 1.089.989l.99-.198c-.199-1.138-.842-1.633-2.029-1.583-1.237.05-1.979.692-1.93 1.731.049 1.16.948 1.329 1.728 1.474l.053.01.105.015c.647.09 1.185.166 1.231.777 0 .495-.297.84-1.039.89-.89.05-1.137-.395-1.236-.99l-.99.199c.198 1.187.89 1.632 2.226 1.583 1.286-.05 2.028-.742 1.979-1.83-.05-1.237-1.039-1.336-1.88-1.485-.643-.098-1.137-.198-1.187-.791 0-.544.297-.742.89-.791Z" fill="#fff"/><path fill-rule="evenodd" clip-rule="evenodd" d="m62.119 4.293 2.82 5.144-.99.149-.693-1.286-2.275.346-.297 1.435-.94.148 1.188-5.738 1.187-.198Zm-.495.89-.544 2.622 1.83-.247-1.286-2.375Z" fill="#fff"/><path d="m56.036 8.599 1.978-.446-.149-.692-1.978.445-.346-1.583 2.275-.544-.198-.742-3.215.742 1.236 5.293.94-.198-.543-2.275Z" fill="#fff"/><path d="M48.71 9.29c-.297-.643-.742-.84-1.336-.593-.544.197-.791.544-.594.989a.625.625 0 0 0 .448.421c.092.026.195.036.305.037.09 0 .187-.005.287-.016l.135-.016.07-.01.14-.02c.841-.149 1.83-.297 2.276.84.396.99-.148 1.88-1.286 2.325-1.237.446-2.078.248-2.622-.791l.89-.495c.063.115.128.218.199.307.055.07.115.132.18.183.248.193.58.24 1.106.054a1.44 1.44 0 0 0 .551-.326.78.78 0 0 0 .156-.222.642.642 0 0 0 .05-.165.748.748 0 0 0-.065-.424c-.226-.543-.741-.466-1.358-.373l-.175.026c-.792.149-1.732.248-2.177-.84-.395-.94.099-1.781 1.237-2.226 1.088-.396 1.88-.1 2.424.84l-.842.495Z" fill="#fff"/><path d="m43.563 9.589-.792.346.347.94.296-.149.198.99.396-.05-.099-1.335-.346-.742Z" fill="#fff"/><path fill-rule="evenodd" clip-rule="evenodd" d="m39.612 11.47 4.402 3.858-.89.445-1.138-.99-1.93 1.138.198 1.484-.84.445-.841-5.837 1.039-.544Zm-.1 1.038.396 2.671 1.633-.89-2.029-1.78Z" fill="#fff"/><path d="m37.234 17.011-.792.445c.396.693.248 1.237-.346 1.682-.742.495-1.435.297-2.226-.89-.84-1.336-.643-2.127.05-2.573.494-.296 1.038-.395 1.632.495l.742-.594c-.692-1.137-1.682-1.286-2.77-.593-1.237.84-1.534 2.176-.445 3.809 1.038 1.533 2.226 1.83 3.462.99.99-.644 1.336-1.633.693-2.77Z" fill="#fff"/><path d="m32.145 22.048.445-.395.395.495-1.682 1.335-.396-.495.446-.395-2.622-3.265-.445.346-.396-.494 1.682-1.336.396.494-.494.396 2.67 3.314Z" fill="#fff"/><path fill-rule="evenodd" clip-rule="evenodd" d="m26.755 24.525.049-.05 2.374.89.742-.692-2.523-.89c.495-.89.149-1.534-.247-1.93-.593-.642-1.385-.79-2.374.149l-1.534 1.435 3.76 4.006.692-.643-1.583-1.681.644-.594Zm-.297-1.979c.494.495.297.99-.297 1.534l-.544.494-1.138-1.236.643-.643c.544-.495.89-.594 1.336-.149Z" fill="#fff"/><path d="m23.44 27.645-1.386 1.582 1.237 1.089 1.682-1.88.593.544-2.325 2.523-4.106-3.66 2.177-2.474.594.544-1.534 1.781 1.138.99 1.385-1.584.544.545Z" fill="#fff"/><path d="m15.47 34.566 4.402 1.385.594-.841-2.77-3.66 3.561 2.522.544-.742-4.452-3.166-.84 1.138 2.819 3.809-4.452-1.534-.841 1.188 4.452 3.165.544-.742-3.562-2.523Z" fill="#fff"/><path fill-rule="evenodd" clip-rule="evenodd" d="m17.649 39.269-5.788-.89-.593 1.087 3.808 4.403.445-.841-.94-1.138 1.09-1.979 1.483.198.495-.84Zm-3.612 2.077-1.73-2.028 2.621.396-.89 1.632Z" fill="#fff"/><path d="m73.644 4.49-1.632-.049.05-.792 4.204.149-.05.791-1.631-.05-.199 4.7-.94-.05.198-4.699Z" fill="#fff"/><path d="m79.126 7.21 2.077.248.05-.742-2.078-.248.198-1.484 2.325.297.099-.791-3.265-.446-.692 5.442 3.463.445.098-.792-2.473-.296.198-1.633Z" fill="#fff"/><path d="M86.867 7.161c.099-.692-.149-1.088-.791-1.237-.594-.148-.94 0-1.04.545-.148.593.347.84.94 1.088l.028.012c.786.344 1.7.744 1.407 1.917-.248 1.039-1.138 1.534-2.374 1.237-1.287-.297-1.88-.94-1.732-2.127l.99.099c-.05.593.099 1.088.94 1.236.692.149 1.137-.099 1.236-.593.135-.585-.345-.802-.917-1.06l-.171-.078c-.742-.346-1.583-.742-1.336-1.88.198-.99 1.138-1.434 2.325-1.187 1.138.247 1.633.94 1.533 2.028h-1.038Z" fill="#fff"/><path d="m89.822 6.964 1.533.495-1.384 4.501.89.297 1.434-4.501 1.534.494.247-.742-4.007-1.286-.247.742Z" fill="#fff"/><path d="m93.866 11.472.247-.692 1.93.742-.248.692-1.929-.742Z" fill="#fff"/><path d="m102.188 13.995-1.83-.89-.297.741 1.039.495-.049.05c-.347.742-1.039.89-1.682.593-.792-.396-.99-1.138-.346-2.424.692-1.385 1.484-1.583 2.176-1.236.544.247.841.692.445 1.533l.891.396c.544-1.237.198-2.078-.891-2.622-1.335-.693-2.671-.346-3.561 1.534-.792 1.583-.445 2.82.791 3.413a1.933 1.933 0 0 0 1.732 0l-.297.692.643.297 1.236-2.572Z" fill="#fff"/><path fill-rule="evenodd" clip-rule="evenodd" d="m105.697 16.659-.05-.05-.742-.445-1.187 1.93-.791-.496 2.869-4.65 1.781 1.089c1.187.742 1.237 1.533.742 2.275-.297.495-.841.99-1.781.742l-.198 2.672-.841-.545.198-2.523Zm.247-.742c.693.445 1.187.494 1.534-.1.346-.543.099-.89-.495-1.236l-.791-.495-.891 1.435.643.395Z" fill="#fff"/><path fill-rule="evenodd" clip-rule="evenodd" d="M113.116 17.703c-1.237-.94-2.671-.692-3.759.742-1.088 1.435-1.088 2.72.198 3.66 1.286 1.04 2.572.693 3.71-.79 1.038-1.386 1.088-2.672-.149-3.612Zm-.544.643c.742.594.643 1.386-.148 2.424-.841 1.088-1.633 1.385-2.424.792-.742-.544-.643-1.435.148-2.474.841-1.088 1.682-1.335 2.424-.742Z" fill="#fff"/><path d="m116.038 27.743 2.029-3.66-3.562 2.176-.89-.84 2.868-4.898.742.692-2.473 3.958 4.007-2.474.692.693-2.324 4.155 3.908-2.572.692.692-4.798 2.968-.891-.89Z" fill="#fff"/><path d="m129.787 42.036-.989-1.781-.545.445.545.99-.05.049c-.742.396-1.385.148-1.731-.495-.445-.742-.148-1.484 1.088-2.176 1.385-.792 2.127-.446 2.523.198.297.544.247 1.038-.495 1.533l.495.791c1.039-.593 1.286-1.533.693-2.621-.742-1.336-1.979-1.781-3.81-.792-1.583.89-1.978 2.028-1.286 3.265.111.22.254.406.42.556.134.12.281.218.436.29.171.078.35.127.53.143l-.644.396.347.594 2.473-1.385Z" fill="#fff"/></svg>