<svg width="997" height="135" fill="none" xmlns="http://www.w3.org/2000/svg"><path d="m909.012 46.634 16.971-34.074v93.939l-36.083 19.32 6.1-41.643.109-.744-.53-.532-29.208-29.322 41.518-6.13.774-.114.349-.7zM284.549 3.364l20.186 40.53.347.698.77.117 44.438 6.76-32.357 32.483-.55.552.135.766 8.077 45.952-40.338-21.598-.708-.379-.708.379-40.435 21.649 6.745-46.045.109-.743-.53-.533-32.347-32.472 45.856-6.77.774-.115.35-.7 20.186-40.53zm-214.221 0 20.186 40.53.348.698.77.117 44.438 6.76-32.358 32.483-.55.552.135.766 8.078 45.952-40.339-21.598-.708-.379-.708.379-40.434 21.649 6.745-46.045.108-.743-.53-.533L3.163 51.48l45.855-6.77.775-.115.349-.7 20.186-40.53zm428.442 0 20.186 40.53.347.698.77.117 44.438 6.76-32.358 32.483-.549.552.135.766 8.077 45.952-40.338-21.598-.708-.379-.708.379-40.435 21.649 6.745-46.045.109-.743-.53-.533-32.347-32.472 45.856-6.77.774-.115.349-.7 20.187-40.53zm214.221.007 20.186 40.53.347.697.77.118 44.438 6.759-32.358 32.484-.549.551.135.767 8.077 45.951-40.339-21.597-.708-.379-.708.379-40.434 21.649 6.745-46.045.109-.744-.53-.532-32.347-32.473 45.856-6.77.774-.114.349-.7 20.187-40.53z" fill="#FE8836" stroke="#FE8836" stroke-width="3"/></svg>