<svg width="123" height="107" fill="none" xmlns="http://www.w3.org/2000/svg"><ellipse cx="52.1239" cy="54.322" rx="51.163" ry="51.2021" fill="white"/><path d="M62.2628 57.3274C60.6705 54.8247 58.023 52.9547 53.802 52.8981C50.2971 52.8509 47.6496 54.0503 45.7935 56.043L45.5108 58.7252H43.9562C43.3815 59.8868 42.9669 61.1807 42.7031 62.5501C45.2282 63.9951 46.8299 66.5073 46.8299 69.6617C46.8299 71.6922 46.1327 73.751 44.9361 75.3377C46.8581 77.8687 49.7129 79.2381 53.1142 79.2381C57.3163 79.2381 60.1429 77.4154 61.9236 74.8088C60.5574 72.7027 59.7754 69.9167 59.7754 66.5262C59.7754 63.0318 60.5669 59.7735 62.2628 57.3274ZM53.3686 74.0721C51.7198 74.0721 50.6269 72.8633 50.1464 70.9177C49.8543 69.5955 49.8166 68.2072 49.8166 66.8473C49.8166 64.354 49.9579 61.0863 50.9095 59.4713C51.6067 58.338 52.6714 57.8941 53.5099 57.8941C55.2718 57.8941 56.1857 59.3296 56.5532 60.9068C56.9206 62.484 56.996 65.2323 56.996 66.3751C56.9866 69.9639 56.4401 74.0721 53.3686 74.0721Z" fill="#FFDD00"/><path d="M71.2345 52.9903C67.0701 52.9336 64.1305 54.6336 62.265 57.3252C63.8855 59.8751 64.4226 63.0862 64.4226 65.7023C64.4226 68.8378 63.6971 72.2094 61.9258 74.8065C63.829 77.7343 66.8722 79.3303 70.5373 79.3303C78.9227 79.3303 81.8529 72.0677 81.8529 65.7873C81.8435 60.6212 79.7613 53.0942 71.2345 52.9903ZM70.7917 74.1549C69.1429 74.1549 68.05 72.946 67.5694 71.0005C67.2774 69.6783 67.2397 68.2805 67.2397 66.93C67.2397 64.4367 67.381 61.169 68.3326 59.554C69.0298 58.4207 70.0851 57.9768 70.933 57.9768C72.6949 57.9768 73.6088 59.4124 73.9669 60.9896C74.3343 62.5668 74.4097 65.315 74.4097 66.4578C74.4191 70.0466 73.8726 74.1549 70.7917 74.1549Z" fill="#007DC4"/><path d="M62.2627 57.3282C60.5668 59.7743 59.7754 63.0326 59.7754 66.527C59.7754 69.9175 60.5574 72.7035 61.9236 74.8096C63.6949 72.2124 64.4203 68.8314 64.4203 65.7053C64.4203 63.0893 63.8927 59.8782 62.2627 57.3282Z" fill="#62A63B"/><path d="M42.7042 62.5632C41.1684 61.6849 39.3029 61.1938 37.2395 61.1938C35.8828 61.1938 34.234 61.4488 33.141 61.8927C32.8867 62.006 32.6323 62.1477 32.3685 62.2988L32.7359 58.7383H43.9573C44.4472 57.7372 45.0596 56.8306 45.7945 56.0561L46.0583 53.4873H27.3937L25.9993 67.1343L32.2554 67.9087C32.6982 67.2476 33.2824 66.2937 35.3269 66.2937C37.9273 66.2937 39.171 67.9465 39.171 70.2226C39.171 72.2058 38.1063 74.1514 35.44 74.1514C33.9419 74.1514 32.7359 73.4525 32.2931 72.0264C32.1141 71.4409 32.1141 70.8175 32.1141 70.1942L24.6426 70.9686C25.0477 72.8764 25.4152 74.633 27.0263 76.3235C29.8811 79.2229 34.055 79.2229 35.4117 79.2229C37.5316 79.2229 41.4511 79.0435 44.1928 76.2102C44.4566 75.9458 44.7016 75.6625 44.9277 75.3508C43.2883 73.1881 42.3461 70.1753 42.3461 66.4448C42.3461 65.1038 42.4686 63.8004 42.7042 62.5632Z" fill="#E33126"/><path d="M45.5116 58.7337L45.7943 56.0515C45.0594 56.8354 44.4564 57.742 43.957 58.7337H45.5116Z" fill="#F48132"/><path d="M42.7057 62.5579C42.4701 63.7951 42.3477 65.0984 42.3477 66.4395C42.3477 70.1699 43.2993 73.1827 44.9292 75.3454C46.1258 73.7588 46.823 71.6999 46.823 69.6694C46.8324 66.515 45.2307 64.0028 42.7057 62.5579Z" fill="#F48132"/><path d="M24.6484 51.6168V47.3669H27.1829V36.6854H24.6484V32.105H38.1876V36.6854H35.6531V47.3669H38.1876V51.6168H24.6484Z" fill="#231F20"/><path d="M50.4213 51.6151V47.3652H52.3905V42.9075C52.3905 41.5664 51.4389 40.962 50.2046 40.962C48.65 40.962 47.4723 42.1142 47.4723 43.6725V47.3557H49.498V51.6057H38.8984V47.3557H40.8111V40.9431H38.8984V36.6837H47.2556V39.6209C47.3969 39.5076 47.5288 39.347 47.6419 39.2148C49.1682 37.4581 50.9207 36.8348 53.2102 36.8348C56.4324 36.8348 59.0517 38.1476 59.0517 41.7364V47.3652H60.7759V51.6246H50.4213V51.6151Z" fill="#231F20"/><path d="M77.6227 42.9926L71.9036 43.6254C71.8377 42.0387 71.5079 40.3482 69.5764 40.3482C67.1174 40.3482 66.9289 42.3976 66.9289 44.3715V44.4092C66.9289 46.3831 67.1174 48.4325 69.5764 48.4325C70.8672 48.4325 72.0073 47.6958 72.0073 46.1187H72.1957H77.7075L77.6604 46.6098C76.7182 51.2469 72.5443 51.9741 69.5293 51.9741C64.809 51.9741 60.1641 49.6508 60.1641 44.362V44.3809C60.1641 39.0921 64.809 36.7688 69.5293 36.7688C69.5199 36.7877 76.9255 36.3061 77.6227 42.9926Z" fill="#231F20"/><path d="M82.0622 49.2733C82.0622 50.605 80.9787 51.6911 79.6503 51.6911C78.3218 51.6911 77.2383 50.605 77.2383 49.2733C77.2383 47.9417 78.3218 46.8556 79.6503 46.8556C80.9787 46.8556 82.0622 47.9417 82.0622 49.2733Z" fill="#231F20"/><path d="M52.2744 91.0906C72.5407 91.0906 88.9629 74.6198 88.9629 54.3146C88.9629 33.9999 72.5313 17.5386 52.2744 17.5386C32.0081 17.5386 15.5859 34.0094 15.5859 54.3146C15.5859 74.6292 32.0081 91.0906 52.2744 91.0906Z" stroke="#231F20" stroke-width="1.0461"/><path d="M4.03631 56.8375L3.96094 55.3548L12.7797 52.4648L12.8457 53.617L10.4243 54.3915L10.575 57.2531L13.0624 57.7914L13.1189 58.9436L4.03631 56.8375ZM9.65171 57.0736L9.5198 54.6654L5.26115 56.0348V56.0631L9.65171 57.0736Z" fill="#231F20"/><path d="M3.98047 51.182L4.20659 49.3309L11.4708 48.4148V48.3865L4.64942 45.7421L4.87554 43.891L13.7603 44.9865L13.6284 46.0821L5.85541 45.1282V45.1565L13.3834 48.0842L13.2515 49.1798L5.24299 50.1998V50.2281L13.016 51.182L12.8841 52.2775L3.98047 51.182Z" fill="#231F20"/><path d="M5.72852 41.1792L7.17005 36.7687L8.10281 37.0803L7.00046 40.4331L9.66683 41.3114L10.7032 38.1475L11.636 38.4498L10.5996 41.6136L13.6523 42.6147L14.8017 39.1109L15.7345 39.4131L14.2458 43.9652L5.72852 41.1792Z" fill="#231F20"/><path d="M7.83203 35.265L9.05687 32.6395C9.65044 31.3645 10.7811 30.9112 12.0624 31.5061C12.9481 31.9217 13.7395 32.6678 13.5228 33.7161L13.5416 33.7255C13.9468 33.055 14.7194 32.9322 15.4354 33.2061L16.8487 33.7917C17.772 34.1694 18.0641 34.1222 18.3279 33.9522L17.7626 35.1611C17.5082 35.2555 16.877 35.0477 16.4624 34.8872L15.1716 34.3678C14.0222 33.9239 13.6641 34.5094 13.4286 35.0194L12.7973 36.3699L16.4059 38.0699L15.9348 39.071L7.83203 35.265ZM11.9776 35.9922L12.4393 35.0005C12.7125 34.4055 13.2213 33.3289 11.6573 32.5922C10.8659 32.2145 10.1121 32.5167 9.6787 33.4517L9.12282 34.6511L11.9776 35.9922Z" fill="#231F20"/><path d="M11.0469 29.0777L11.631 28.1427L19.2344 32.8932L18.6503 33.8282L11.0469 29.0777Z" fill="#231F20"/><path d="M20.4835 25.9812C21.7649 27.0956 22.6035 28.5689 21.4069 30.1272C19.8617 32.1577 17.7512 30.9678 15.9611 29.5889C14.1709 28.21 12.5127 26.4251 14.0202 24.4607C15.132 23.0062 16.4133 23.0157 17.836 24.0451L17.1388 24.9612C16.3191 24.3662 15.4335 24.0923 14.7363 24.999C13.8035 26.2173 15.0189 27.3978 16.6677 28.6634C18.3071 29.9194 19.7675 30.7883 20.7003 29.57C21.5199 28.5028 20.6343 27.5867 19.7863 26.8973L20.4835 25.9812Z" fill="#231F20"/><path d="M18.1016 20.0888L19.138 19.0216L27.2313 23.5643L26.421 24.3954L24.2163 23.1299L22.2189 25.1793L23.5191 27.3798L22.7182 28.2109L18.1016 20.0888ZM21.729 24.386L23.406 22.6577L19.5148 20.4477L19.496 20.4666L21.729 24.386Z" fill="#231F20"/><path d="M21.1934 17.236L22.0696 16.4899L22.7762 17.321C23.3886 18.0482 23.888 18.7565 23.2473 19.6726L22.8704 19.2193C23.0683 18.7754 22.9929 18.5109 22.6726 18.1237L22.4747 17.8971L22.0507 18.2559L21.1934 17.236Z" fill="#231F20"/><path d="M27.9836 15.1013C27.4466 14.3268 26.7965 13.9774 25.9297 14.5818C25.1665 15.1107 24.9969 15.8379 25.5434 16.6218C26.9755 18.6995 29.5948 15.054 31.4603 17.7551C32.638 19.4645 31.7241 20.8151 30.6783 21.5328C28.9541 22.7228 27.8329 22.1845 26.7494 20.6167L27.6539 19.984C28.2286 20.8151 28.8881 21.665 30.2166 20.7395C30.9421 20.239 31.1399 19.3323 30.6029 18.5484C29.1614 16.4612 26.5232 20.0784 24.6483 17.3679C24.1772 16.6879 23.5365 15.1296 25.4021 13.8357C26.8059 12.863 27.9271 13.1274 28.8881 14.4685L27.9836 15.1013Z" fill="#231F20"/><path d="M34.1191 9.41563L38.4532 7.80066L38.7924 8.71675L35.4853 9.94451L36.4652 12.5795L39.5838 11.4178L39.923 12.3339L36.8044 13.4956L38.2647 17.4338L37.2283 17.821L34.1191 9.41563Z" fill="#231F20"/><path d="M40.9555 7.24441L42.397 6.90442L46.7876 15.0926L45.6664 15.357L44.4792 13.0999L41.6904 13.7515L41.6056 16.3015L40.4844 16.5659L40.9555 7.24441ZM41.7092 12.826L44.0552 12.2782L41.9542 8.31162H41.9259L41.7092 12.826Z" fill="#231F20"/><path d="M50.1716 8.24462C50.0962 7.30019 49.7099 6.67687 48.6547 6.76187C47.7313 6.83742 47.2225 7.37575 47.2885 8.32962C47.4864 10.8512 51.5848 9.0096 51.8392 12.2868C51.9994 14.3551 50.5296 15.0634 49.2671 15.1673C47.1754 15.3278 46.4782 14.2984 46.3369 12.4001L47.4392 12.3151C47.5146 13.3162 47.6654 14.3928 49.2765 14.2606C50.1527 14.1945 50.7746 13.5145 50.7086 12.5607C50.5108 10.0296 46.4123 11.824 46.1579 8.53739C46.0919 7.70629 46.318 6.0441 48.5793 5.86466C50.2846 5.73244 51.1232 6.52576 51.2739 8.15962L50.1716 8.24462Z" fill="#231F20"/><path d="M55.2804 14.9604L54.178 14.9037L54.5549 6.91385L52.3125 6.80996L52.3596 5.82776L57.9562 6.0922L57.9091 7.0744L55.6572 6.97052L55.2804 14.9604Z" fill="#231F20"/><path d="M59.5617 6.38647L64.103 7.29312L63.9146 8.25644L60.4568 7.56701L59.9103 10.3342L63.1703 10.9858L62.9818 11.9492L59.7219 11.2975L59.1001 14.4519L62.7086 15.1696L62.5202 16.133L57.8281 15.198L59.5617 6.38647Z" fill="#231F20"/><path d="M68.5714 11.1536C68.8634 10.2564 68.7504 9.52921 67.7517 9.19866C66.866 8.90589 66.1876 9.21755 65.8956 10.1242C65.1041 12.523 69.5983 12.4192 68.5714 15.5358C67.9213 17.5096 66.3007 17.5946 65.0947 17.198C63.1067 16.5463 62.8617 15.3186 63.4553 13.5053L64.5011 13.8547C64.1902 14.8086 63.9076 15.8569 65.4527 16.3669C66.2913 16.6407 67.1298 16.2535 67.4219 15.3469C68.2133 12.9386 63.738 13.0047 64.765 9.87865C65.0193 9.09478 65.8673 7.64036 68.0249 8.34868C69.6454 8.887 70.1165 9.93532 69.6266 11.5125L68.5714 11.1536Z" fill="#231F20"/><path d="M70.7022 19.4459L69.7129 18.9548L73.2743 11.796L71.2581 10.7949L71.6915 9.91663L76.7133 12.4194L76.2799 13.2977L74.2542 12.2871L70.7022 19.4459Z" fill="#231F20"/><path d="M74.2916 16.8131L76.8921 18.4375L76.3739 19.2686L73.7734 17.6442L74.2916 16.8131Z" fill="#231F20"/><path d="M82.7675 19.9456C83.3139 19.1807 83.5589 18.3212 82.7015 17.6318C81.5049 16.6685 80.2989 17.8585 78.9987 19.4734C77.6985 21.0884 76.8035 22.5334 78 23.4872C79.1966 24.4506 80.4309 23.0906 81.1752 22.1556L79.7996 21.0412L80.3649 20.3329L82.5225 22.0706L79.6112 25.7066L78.961 25.1872L79.7242 24.2333L79.7054 24.2145C79.0364 24.6678 78.0942 24.7056 77.3311 24.0917C75.5127 22.6278 76.5962 20.6162 78.1037 18.7273C79.5169 16.9612 81.3448 15.3463 83.2668 16.9046C85.2737 18.5196 83.9452 20.2762 83.6625 20.6445L82.7675 19.9456Z" fill="#231F20"/><path d="M86.8548 20.4196L88.7769 22.5917C89.7096 23.6495 89.6813 24.8678 88.6167 25.8122C87.8818 26.4639 86.8925 26.8889 86.0163 26.2844L85.9974 26.3033C86.4497 26.9455 86.2612 27.7011 85.7242 28.2489L84.6313 29.3255C83.9246 30.0244 83.8398 30.3077 83.8964 30.6194L83.0107 29.6183C83.0296 29.3538 83.463 28.8438 83.7739 28.5322L84.7632 27.55C85.6206 26.6622 85.2343 26.105 84.8574 25.6895L83.8681 24.5656L80.8814 27.2194L80.1465 26.3883L86.8548 20.4196ZM84.5465 23.9517L85.2719 24.7734C85.7053 25.2645 86.4968 26.1522 87.7876 25C88.4471 24.4145 88.4659 23.6023 87.7781 22.8373L86.9019 21.8456L84.5465 23.9517Z" fill="#231F20"/><path d="M90.8708 33.1884C88.9865 34.4256 86.7535 35.3984 85.3968 33.3206C84.04 31.2523 85.8207 29.5807 87.7051 28.3435C89.5989 27.1063 91.8224 26.1335 93.1792 28.2113C94.5359 30.289 92.7552 31.9512 90.8708 33.1884ZM88.3364 29.3163C86.6028 30.4496 85.312 31.5451 86.1505 32.8295C86.989 34.114 88.506 33.3584 90.2396 32.2251C91.9732 31.0918 93.264 29.9962 92.4254 28.7118C91.5869 27.4274 90.07 28.1829 88.3364 29.3163Z" fill="#231F20"/><path d="M95.6238 32.5662L96.0384 33.5956L89.7446 37.6L89.7541 37.6188L97.0277 36.0605L97.5271 37.2977L91.1956 41.2077L91.205 41.2266L98.5163 39.7627L98.9309 40.7921L89.9331 42.4165L89.4337 41.1699L95.7086 37.3261L95.6992 37.3072L88.4915 38.8088L87.9922 37.5622L95.6238 32.5662Z" fill="#231F20"/><path d="M99.0431 42.1989L99.3257 43.2661L90.6577 45.5327L90.375 44.4655L99.0431 42.1989Z" fill="#231F20"/><path d="M99.7002 44.9187L99.9169 46.3353L92.9825 50.4153V50.4436L100.369 49.2914L100.539 50.3869L91.6917 51.7658L91.4562 50.2642L98.1833 46.307V46.2787L91.0133 47.3931L90.8438 46.2976L99.7002 44.9187Z" fill="#231F20"/><path d="M98.0559 57.1788C98.9981 57.1504 99.8178 56.8199 99.8461 55.7243C99.8838 54.1944 98.2067 53.9488 96.1339 53.9016C94.0611 53.8544 92.384 54.0149 92.3463 55.5543C92.3086 57.0843 94.1365 57.2449 95.333 57.2732L95.3707 55.4977L96.2752 55.5166L96.2093 58.2932L91.5549 58.1893L91.5737 57.3582L92.7892 57.3865V57.3582C92.026 57.1032 91.423 56.376 91.4418 55.3938C91.4984 53.0516 93.7502 52.6927 96.1527 52.7494C98.414 52.7966 100.798 53.2688 100.741 55.7432C100.685 58.3215 98.4894 58.331 98.0277 58.3404L98.0559 57.1788Z" fill="#231F20"/><path d="M52.2768 105.522C80.4857 105.522 103.362 82.6008 103.362 54.3152C103.362 26.0391 80.4951 3.1178 52.2768 3.1178C24.0679 3.1178 1.20117 26.0391 1.20117 54.3152C1.20117 82.5914 24.0679 105.522 52.2768 105.522Z" stroke="#231F20" stroke-width="1.0461"/><path d="M12.1788 65.7242C12.4991 66.9142 11.7831 68.1514 10.5959 68.463C9.40878 68.7841 8.18394 68.0664 7.8636 66.8764C7.54326 65.6864 8.25932 64.4587 9.44646 64.1376C10.6336 63.8259 11.8584 64.5342 12.1788 65.7242Z" fill="#231F20"/><path d="M16.9126 71.9382L18.0338 73.931C18.4201 74.611 19.3905 76.3487 17.1575 77.6142C15.7066 78.4359 14.3687 77.9637 13.6244 76.632L12.9554 75.4421L9.65779 77.3026L9.11133 76.3393L16.9126 71.9382ZM13.7469 74.9982L14.3875 76.1504C14.7833 76.8493 15.5935 77.1704 16.6299 76.5848C17.4873 76.1032 17.8171 75.3854 17.28 74.4315L16.6676 73.3454L13.7469 74.9982Z" fill="#231F20"/><path d="M19.6819 76.7009L21.4627 78.9959C22.3295 80.1103 22.2164 81.3192 21.1046 82.1975C20.332 82.8019 19.3145 83.1608 18.4759 82.4997L18.4571 82.5186C18.8622 83.1891 18.6267 83.9258 18.052 84.4358L16.8931 85.4369C16.1393 86.0885 16.0451 86.3719 16.0734 86.6835L15.2537 85.6352C15.2819 85.3708 15.7625 84.8891 16.0922 84.6058L17.1475 83.6897C18.0614 82.868 17.7034 82.2825 17.3642 81.8386L16.4503 80.6581L13.3034 83.1136L12.625 82.2447L19.6819 76.7009ZM17.1569 80.082L17.8258 80.9414C18.231 81.4608 18.9565 82.3958 20.3226 81.3381C21.0198 80.7997 21.0858 79.9875 20.4545 79.1753L19.6442 78.1365L17.1569 80.082Z" fill="#231F20"/><path d="M23.3956 81.2234L24.1587 82.0262L17.6577 88.2027L16.8945 87.3999L23.3956 81.2234Z" fill="#231F20"/><path d="M24.5621 82.5354L25.4289 83.2909L21.7073 90.2608L21.7261 90.2797L28.0953 85.6142L28.9621 86.3698L21.3775 91.6586L20.3223 90.733L24.5621 82.5354Z" fill="#231F20"/><path d="M30.2055 87.0576L31.4303 87.8887L28.3965 96.6719L27.4449 96.0202L28.2929 93.6214L25.928 92.0159L23.9965 93.678L23.0449 93.0264L30.2055 87.0576ZM26.6252 91.3925L28.6226 92.7525L30.1113 88.5215L30.0924 88.5026L26.6252 91.3925Z" fill="#231F20"/><path d="M31.2279 98.0053L30.248 97.4953L33.9131 90.3932L31.9157 89.3637L32.368 88.4949L37.3521 91.0732L36.8998 91.942L34.893 90.9032L31.2279 98.0053Z" fill="#231F20"/><path d="M37.6623 91.0636L42.034 92.5841L41.7136 93.5097L38.3783 92.3575L37.455 95.0208L40.5924 96.1163L40.2721 97.0418L37.1346 95.9463L36.0794 98.9873L39.556 100.196L39.2357 101.122L34.7227 99.554L37.6623 91.0636Z" fill="#231F20"/><path d="M51.7413 99.8731C51.4869 101.554 50.686 103.046 48.7357 102.876C46.2013 102.65 46.0788 100.223 46.2766 97.9748C46.4839 95.7177 47.1057 93.366 49.5648 93.5927C51.3927 93.7532 52.0616 94.8488 51.9486 96.6149L50.7991 96.511C50.865 95.491 50.6201 94.6032 49.48 94.4993C47.9537 94.3577 47.6051 96.0199 47.4167 98.0882C47.2282 100.156 47.2753 101.847 48.8017 101.989C50.1396 102.111 50.4411 100.874 50.573 99.7881L51.7413 99.8731Z" fill="#231F20"/><path d="M58.5576 98.033C58.6895 100.29 58.4162 102.717 55.9572 102.859C53.4886 103.01 52.9328 100.63 52.8008 98.373C52.6689 96.1158 52.9328 93.6887 55.4013 93.547C57.8604 93.3959 58.4162 95.7758 58.5576 98.033ZM53.9503 98.3069C54.0728 100.375 54.3743 102.047 55.9006 101.952C57.427 101.858 57.5306 100.167 57.4081 98.0991C57.2856 96.0308 56.9841 94.3592 55.4578 94.4442C53.922 94.5387 53.8184 96.2386 53.9503 98.3069Z" fill="#231F20"/><path d="M58.6855 93.414L60.4945 92.9796L63.8958 99.4773L63.9241 99.4678L64.0089 92.1296L65.8178 91.6952L67.9095 100.422L66.8354 100.677L65.0076 93.0457L64.9793 93.0552L64.8851 101.149L63.811 101.404L60.0517 94.2357L60.0234 94.2451L61.8513 101.876L60.7772 102.131L58.6855 93.414Z" fill="#231F20"/><path d="M66.707 91.1271L68.7987 90.211C69.5147 89.8993 71.3426 89.0966 72.3695 91.4576C73.0385 92.9876 72.4355 94.272 71.0411 94.8764L69.788 95.4242L71.3049 98.8997L70.2967 99.3436L66.707 91.1271ZM69.4299 94.5931L70.6359 94.0642C71.3708 93.7431 71.7665 92.9593 71.2955 91.8732C70.8997 90.976 70.2214 90.5699 69.2227 91.0137L68.0826 91.5143L69.4299 94.5931Z" fill="#231F20"/><path d="M72.7852 88.0766L74.0383 87.2833L80.8502 93.5921L79.8703 94.206L78.0143 92.4682L75.5928 93.9982L76.3466 96.4348L75.3667 97.0487L72.7852 88.0766ZM75.3102 93.1104L77.3453 91.826L74.0759 88.7661L74.0571 88.7755L75.3102 93.1104Z" fill="#231F20"/><path d="M76.1055 85.8979L77.189 84.9629L84.3024 88.7123L84.3213 88.6934L79.4502 83.0079L80.2888 82.2902L86.1303 89.0995L84.9808 90.0911L78.0746 86.4551L78.0558 86.474L82.7855 91.9894L81.947 92.7072L76.1055 85.8979Z" fill="#231F20"/><path d="M80.7695 81.6361L81.5327 80.8334L87.9961 87.0477L87.2329 87.8505L80.7695 81.6361Z" fill="#231F20"/><path d="M82.0684 80.27L84.9326 76.6245L85.7052 77.2289L83.5193 80.0056L85.724 81.7528L87.7874 79.1367L88.56 79.7411L86.506 82.3572L89.0311 84.3499L91.3111 81.46L92.0837 82.0644L89.1253 85.8232L82.0684 80.27Z" fill="#231F20"/><path d="M89.1692 73.9532C88.3589 73.481 87.624 73.4432 87.0964 74.3593C86.6347 75.1621 86.7855 75.8987 87.6146 76.3709C89.8005 77.6365 90.6108 73.2166 93.4467 74.8599C95.2369 75.8987 94.9919 77.5137 94.3512 78.6092C93.3054 80.4225 92.0617 80.4225 90.4129 79.4592L90.9688 78.5053C91.8356 79.0059 92.806 79.497 93.6163 78.0898C94.0591 77.3248 93.8519 76.4276 93.0227 75.946C90.8275 74.671 89.9795 79.0815 87.1341 77.4287C86.418 77.0132 85.1744 75.8798 86.305 73.9154C87.1624 72.4327 88.2836 72.1871 89.7251 72.9899L89.1692 73.9532Z" fill="#231F20"/><path d="M92.3505 65.7631C92.6991 64.5826 93.9428 63.9026 95.1205 64.2426C96.2982 64.592 96.9766 65.8387 96.6374 67.0192C96.2888 68.1998 95.0451 68.8797 93.8674 68.5397C92.6897 68.1903 92.0019 66.9437 92.3505 65.7631Z" fill="#231F20"/><circle cx="105.935" cy="16.5728" r="16.097" fill="white"/><path fill-rule="evenodd" clip-rule="evenodd" d="M106.139 29.1208C113.038 29.1208 118.63 23.5284 118.63 16.6298C118.63 9.7312 113.038 4.13879 106.139 4.13879C99.2408 4.13879 93.6484 9.7312 93.6484 16.6298C93.6484 23.5284 99.2408 29.1208 106.139 29.1208ZM106.754 18.6715V20.9937H114.147V18.4364H110.601L111.928 17.1724C112.614 16.5257 113.094 15.9182 113.368 15.3499C113.642 14.7816 113.78 14.184 113.78 13.5569C113.78 12.5575 113.451 11.7932 112.795 11.2641C112.148 10.7252 111.198 10.4558 109.944 10.4558C109.258 10.4558 108.582 10.5537 107.915 10.7497C107.259 10.9457 106.695 11.2151 106.225 11.5581L107.18 13.8508C107.582 13.5667 107.974 13.3609 108.356 13.2335C108.748 13.0964 109.121 13.0278 109.473 13.0278C109.865 13.0278 110.164 13.1062 110.37 13.2629C110.585 13.4099 110.693 13.6353 110.693 13.939C110.693 14.184 110.62 14.4289 110.473 14.6739C110.335 14.909 110.091 15.2128 109.738 15.5851L106.754 18.6715ZM99.8378 17.1333L96.6691 20.9937H100.226L101.578 19.2432L102.93 20.9937H106.516L103.347 17.1256L106.296 13.4981H102.739L101.583 15.0233L100.446 13.4981H96.8748L99.8378 17.1333Z" fill="#FF4713"/></svg>