<svg width="119" height="119" fill="none" xmlns="http://www.w3.org/2000/svg"><path d="M119 59.5C119 71.268 115.51 82.7717 108.972 92.5564C102.434 102.341 93.1419 109.967 82.2697 114.471C71.3975 118.974 59.434 120.153 47.8921 117.857C36.3503 115.561 25.7484 109.894 17.4272 101.573C9.10595 93.2516 3.43912 82.6497 1.1433 71.1078C-1.15252 59.566 0.0257801 47.6025 4.52919 36.7303C9.0326 25.8581 16.6589 16.5655 26.4436 10.0276C36.2283 3.48961 47.732 0 59.5 0C75.2804 0 90.4144 6.26873 101.573 17.4271C112.731 28.5856 119 43.7196 119 59.5Z" fill="black"/><path d="M59.4993 109.083C49.6927 109.083 40.1063 106.175 31.9523 100.726C23.7984 95.2781 17.4432 87.5342 13.6903 78.4741C9.9375 69.4139 8.95558 59.4443 10.8688 49.8261C12.782 40.2079 17.5043 31.373 24.4387 24.4387C31.373 17.5043 40.2079 12.782 49.8261 10.8688C59.4443 8.95558 69.4139 9.9375 78.4741 13.6903C87.5342 17.4432 95.2781 23.7984 100.726 31.9523C106.175 40.1063 109.083 49.6927 109.083 59.4993C109.068 72.6453 103.84 85.2487 94.5443 94.5443C85.2487 103.84 72.6453 109.068 59.4993 109.083Z" fill="white"/><path d="M57.8477 4.04377L57.8477 4.05453L57.8353 4.04626L57.8477 4.04377Z" fill="white"/><path d="M58.6369 3.88512L57.8477 4.04377C57.8471 3.93004 57.8229 3.81762 57.7768 3.71358C57.7292 3.60626 57.6593 3.51031 57.5717 3.43212C57.4842 3.35393 57.3809 3.2953 57.2689 3.26012C57.1569 3.22495 57.0387 3.21405 56.9222 3.22814C56.4387 3.25293 56.1784 3.44713 56.1991 3.88098C56.1991 4.38095 56.6618 4.47185 57.1742 4.55449L57.2537 4.56801C57.9349 4.68339 58.7171 4.8159 58.7609 5.79407C58.8022 6.68657 58.1659 7.26918 57.1081 7.31876C56.0503 7.36834 55.4057 6.97168 55.2363 6.00067L56.0627 5.84366C56.0653 5.96867 56.0951 6.09161 56.1501 6.2039C56.2051 6.31619 56.284 6.41513 56.3811 6.49381C56.4783 6.5725 56.5915 6.62903 56.7128 6.65947C56.834 6.68991 56.9605 6.69352 57.0833 6.67005C57.6866 6.64112 57.9634 6.35602 57.9428 5.93043C57.9195 5.4335 57.4621 5.36335 56.9271 5.28128L56.823 5.26519C56.1454 5.15362 55.3727 5.00074 55.3314 4.0256C55.29 3.19921 55.9264 2.62901 56.9387 2.58355C57.951 2.5381 58.4634 2.97196 58.6369 3.88512Z" fill="white"/><path fill-rule="evenodd" clip-rule="evenodd" d="M51.9048 3.13232L54.2476 7.43781L53.4213 7.5535L52.8263 6.47093L50.9421 6.74364L50.6859 7.94604L49.8926 8.06173L50.8966 3.28934L51.8842 3.14472L51.9048 3.13232ZM51.4916 3.89673H51.4627L51.0495 6.0784L52.5742 5.85941L51.5082 3.8926L51.4916 3.89673Z" fill="white"/><path d="M46.8213 6.76778L48.4823 6.37938L48.3377 5.76785L46.6766 6.15212L46.3709 4.8299L48.2757 4.39192L48.1269 3.75146L45.4453 4.37539L46.4824 8.83788L47.2592 8.66021L46.8213 6.76778Z" fill="white"/><path d="M40.6999 7.32631C40.6631 7.2154 40.6032 7.11355 40.5242 7.02749C40.4452 6.94142 40.3488 6.8731 40.2414 6.82702C40.134 6.78095 40.0181 6.75817 39.9013 6.76019C39.7844 6.7622 39.6693 6.78898 39.5636 6.83874C39.1091 7.01228 38.9232 7.27672 39.0802 7.68578C39.2372 8.09485 39.7041 8.09898 40.2165 8.0246L40.2805 8.01469C40.9651 7.9084 41.7604 7.78492 42.1089 8.70637C42.4271 9.53276 42.0056 10.2972 41.0305 10.6649C40.0553 11.0327 39.3033 10.8674 38.8364 9.99554L39.5719 9.58235C39.6133 9.70177 39.6806 9.81055 39.769 9.90085C39.8574 9.99115 39.9648 10.0607 40.0833 10.1046C40.2018 10.1484 40.3286 10.1655 40.4545 10.1545C40.5804 10.1435 40.7023 10.1047 40.8115 10.041C41.3775 9.82613 41.547 9.47078 41.3982 9.07412C41.2211 8.60822 40.7749 8.68053 40.2468 8.7661L40.1864 8.77586L40.1297 8.78488C39.4479 8.89231 38.667 8.98735 38.324 8.08245C38.0141 7.28912 38.4273 6.57016 39.3901 6.19829C40.3528 5.82641 40.9602 6.09499 41.4065 6.90898L40.6999 7.32217V7.32631Z" fill="white"/><path d="M36.4179 7.52466L35.7402 7.83042L36.0832 8.58244L36.327 8.47087L36.4757 9.31792L36.7897 9.26421L36.6947 8.13205L36.4179 7.52466Z" fill="white"/><path fill-rule="evenodd" clip-rule="evenodd" d="M33.1128 9.12622L36.7737 12.3533L36.0464 12.7417L35.1167 11.9153L33.4681 12.8326L33.6251 14.0474L32.9227 14.4234L32.2285 9.59726L33.1086 9.12622H33.1128ZM32.9971 9.98153H32.9681L33.3111 12.1797L34.6705 11.4525L33.0177 9.96914L32.9971 9.98153Z" fill="white"/><path d="M31.112 13.7638L30.4384 14.1481L30.4343 14.1605C30.5166 14.2641 30.5755 14.3843 30.607 14.5128C30.6385 14.6414 30.6418 14.7752 30.6166 14.9051C30.5915 15.0351 30.5386 15.158 30.4615 15.2655C30.3843 15.3731 30.2849 15.4627 30.1699 15.5281C29.5583 15.9372 28.9716 15.7389 28.3188 14.7637C27.5833 13.6688 27.7816 13.0118 28.3477 12.6317C28.7402 12.3713 29.203 12.3094 29.7071 13.0448L30.331 12.5573C29.7402 11.64 28.8972 11.483 28.0047 12.0821C26.9676 12.7763 26.7032 13.8836 27.6246 15.2554C28.4964 16.5281 29.4757 16.7801 30.517 16.0818C31.3516 15.5199 31.645 14.7018 31.112 13.7638Z" fill="white"/><path d="M26.8648 17.9706L27.2532 17.6565L27.5921 18.0821L26.1872 19.206L25.8484 18.7804L26.2409 18.4664L24.0593 15.7352L23.6709 16.0451L23.332 15.6195L24.7369 14.4956L25.0757 14.9212L24.6832 15.2352L26.8648 17.9706Z" fill="white"/><path fill-rule="evenodd" clip-rule="evenodd" d="M22.3943 20.0201L22.3495 20.0612L21.8247 20.5529L23.1387 21.9412L22.5602 22.4867L19.4199 19.1439L20.6967 17.9498C21.5231 17.1523 22.1925 17.2969 22.6842 17.8217C22.903 18.0203 23.0436 18.2906 23.0808 18.5838C23.1179 18.877 23.049 19.1738 22.8866 19.4208L25.0146 20.181L24.3783 20.7554L22.3943 20.0201ZM22.1057 18.4167C22.49 18.8258 22.3536 19.21 21.8495 19.6852V19.6893L21.4033 20.1025L20.4322 19.0695L20.9818 18.5531C21.428 18.1357 21.7214 18.0076 22.1057 18.4167Z" fill="white"/><path d="M19.605 22.6297L18.4439 23.9354L19.4687 24.8444L20.857 23.2742L21.3528 23.7122L19.4315 25.8815L16.002 22.8404L17.8324 20.7744L18.3241 21.2083L17.0225 22.6751L17.9646 23.5098L19.1216 22.1999L19.605 22.6297Z" fill="white"/><path d="M12.9446 28.411L16.6055 29.5762L17.0931 28.8945L14.7874 25.8368L14.7957 25.8203L17.7707 27.9441L18.2087 27.3285L14.4775 24.6675L13.7916 25.6344L16.2006 28.754L16.1923 28.7664L12.4611 27.4979L11.7422 28.5019L15.4733 31.1629L15.9113 30.5514L12.9322 28.4275L12.9446 28.411Z" fill="white"/><path fill-rule="evenodd" clip-rule="evenodd" d="M14.7612 32.3361L9.91861 31.613L9.40625 32.4725L12.6002 36.1623L12.9886 35.464L12.187 34.5302L13.1085 32.8774L14.3481 33.0592L14.7612 32.3361ZM10.2698 32.4229V32.394L10.2864 32.3857L12.4969 32.7287L11.7491 34.0757L10.2698 32.4229Z" fill="white"/><path d="M61.5404 3.29592L60.1934 3.2422L60.2182 2.58936L63.722 2.72984L63.6931 3.38269L62.342 3.32897L62.1808 7.25432L61.3834 7.22126L61.5404 3.29592Z" fill="white"/><path d="M66.1237 5.54878L67.8591 5.7719L67.9418 5.13145L66.2064 4.91246L66.3675 3.66461L68.3095 3.91666L68.3922 3.26381L65.6568 2.9126L65.0742 7.45773L67.9459 7.82961L68.0327 7.17263L65.9502 6.90405L66.1237 5.54878Z" fill="white"/><path d="M72.57 5.53495L72.5738 5.51975L73.3798 5.57214C73.4501 4.64658 73.07 4.08877 72.0824 3.86978C71.0949 3.65079 70.3346 4.01853 70.1528 4.84492C69.9421 5.787 70.6486 6.13408 71.2726 6.42332L71.3682 6.4657C71.8654 6.68541 72.2865 6.87151 72.1816 7.35714C72.0866 7.77446 71.7477 7.97693 71.1569 7.84884C71.0345 7.83986 70.9155 7.80467 70.808 7.74566C70.7004 7.68665 70.6069 7.60519 70.5336 7.50682C70.4603 7.40845 70.409 7.29546 70.3832 7.17553C70.3575 7.05559 70.3578 6.93152 70.3842 6.81172L69.5578 6.74561C69.4669 7.73314 69.9421 8.2703 71.0246 8.50995C72.0411 8.73721 72.8055 8.33641 72.9997 7.46457C73.2106 6.50568 72.4905 6.17513 71.8612 5.88631L71.7891 5.85311C71.318 5.64238 70.9296 5.3862 71.0246 4.94822C71.1197 4.51023 71.4213 4.4028 71.8965 4.51023C72.0107 4.52789 72.1199 4.5693 72.2171 4.63179C72.3143 4.69428 72.3973 4.77646 72.4608 4.87302C72.5243 4.96959 72.5668 5.07839 72.5856 5.19241C72.6035 5.30127 72.5995 5.41257 72.5738 5.51975L72.5535 5.51842L72.57 5.53495Z" fill="white"/><path d="M75.0234 5.36684L76.3085 5.77591L75.1226 9.51945L75.8829 9.7591L77.0687 6.01556L78.362 6.42462L78.5604 5.8007L75.2218 4.74292L75.0234 5.36684Z" fill="white"/><path d="M78.4043 9.14473L78.6233 8.58691L80.2306 9.21497L80.0116 9.77278L78.4043 9.14473Z" fill="white"/><path d="M85.3402 11.2545L83.8155 10.5066L83.8114 10.5232L83.5428 11.0727L84.4064 11.4859L84.3775 11.5438C84.3262 11.6756 84.247 11.7948 84.1453 11.893C84.0436 11.9913 83.9218 12.0664 83.7883 12.1132C83.6548 12.1599 83.5127 12.1771 83.3719 12.1637C83.2311 12.1503 83.0949 12.1066 82.9726 12.0355C82.3198 11.7132 82.171 11.0975 82.6999 10.0191C83.2949 8.84148 83.9643 8.68859 84.5345 8.96957C85.0097 9.20509 85.2287 9.56043 84.9188 10.267L85.646 10.6099C86.1046 9.59349 85.8113 8.87453 84.894 8.42415C83.7618 7.86634 82.6627 8.16384 81.9025 9.71745C81.2496 11.0438 81.5306 12.0437 82.5801 12.5602C82.8007 12.6733 83.045 12.7323 83.2929 12.7323C83.5407 12.7323 83.785 12.6733 84.0056 12.5602L83.766 13.1346L84.2907 13.3907L85.3402 11.2545Z" fill="white"/><path fill-rule="evenodd" clip-rule="evenodd" d="M88.3116 13.4622L88.2537 13.425L87.6463 13.0449L86.6423 14.6646L85.9688 14.2514L88.3859 10.3591L89.8693 11.2806C90.8568 11.8921 90.8816 12.5573 90.5056 13.1647C90.3717 13.4267 90.1489 13.6325 89.8771 13.7453C89.6054 13.8581 89.3023 13.8705 89.0223 13.7804L88.8363 16.0282L88.1174 15.5778L88.3116 13.4622ZM88.4892 12.8424C89.0801 13.2102 89.485 13.2556 89.7825 12.7639C90.08 12.2722 89.8776 12.0367 89.3693 11.7144L88.7289 11.3012L87.981 12.5036L88.4975 12.8259L88.4892 12.8424Z" fill="white"/><path fill-rule="evenodd" clip-rule="evenodd" d="M94.4718 14.3744C93.4264 13.5687 92.2488 13.7836 91.3356 14.9736C90.4307 16.1512 90.4142 17.2337 91.4968 18.0643C92.5794 18.8948 93.6578 18.6262 94.604 17.3866C95.48 16.2421 95.5172 15.1802 94.4718 14.3744ZM94.0462 14.8785C94.6536 15.3454 94.5792 16.019 93.914 16.8867V16.8743C93.2115 17.7916 92.5339 18.0147 91.9017 17.5436C91.2695 17.0726 91.3439 16.3619 92.0257 15.4777C92.7074 14.5934 93.4388 14.4116 94.0462 14.8785Z" fill="white"/><path d="M96.9302 22.7389L98.6326 19.6813L98.6161 19.6647L95.6493 21.4911L94.918 20.7762L97.298 16.698L97.9054 17.2889L95.8187 20.5903L95.827 20.5986L99.1863 18.5408L99.7647 19.1028L97.8392 22.5612L97.8475 22.5695L101.108 20.4126L101.686 20.9746L97.6616 23.4496L96.9302 22.7389Z" fill="white"/><path d="M100.879 26.3246L100.556 25.9444L103.238 23.6967L103.56 24.0851L103.978 23.738L102.825 22.3579L102.408 22.7091L102.726 23.0851L100.044 25.3288L99.7218 24.9486L99.3086 25.2957L100.461 26.6758L100.879 26.3246Z" fill="white"/><path d="M103.158 30.3076L104.852 26.7377L104.835 26.717L102.022 28.6962L101.592 28.0805L105.339 25.4485L105.885 26.2253L104.133 29.8077L104.141 29.8201L107.001 27.812L107.43 28.4276L103.683 31.0597L103.158 30.3076Z" fill="white"/><path d="M107.632 33.2146L107.612 33.1785L107.645 33.2074L107.632 33.2146Z" fill="white"/><path d="M107.108 33.5049L107.632 33.2146L108.438 34.6618L106.372 35.8188L106.091 35.3106L106.612 34.9759C106.366 34.9411 106.132 34.8479 105.929 34.7041C105.726 34.5604 105.561 34.3702 105.447 34.1495C104.876 33.133 105.215 32.1496 106.508 31.4307C108.021 30.6043 109.091 30.9679 109.702 32.0711C109.828 32.2476 109.913 32.4497 109.951 32.6628C109.99 32.876 109.981 33.095 109.924 33.3042C109.868 33.5134 109.767 33.7076 109.627 33.873C109.487 34.0384 109.313 34.1709 109.116 34.261L108.703 33.5875C109.343 33.1743 109.364 32.7611 109.116 32.3149C108.806 31.7612 108.157 31.4885 107.013 32.1331C105.959 32.7157 105.732 33.3107 106.087 33.947C106.146 34.0765 106.232 34.1917 106.34 34.2846C106.447 34.3775 106.574 34.446 106.711 34.4852C106.847 34.5245 106.991 34.5337 107.132 34.5121C107.272 34.4905 107.406 34.4387 107.525 34.3602L107.579 34.3313L107.108 33.5049Z" fill="white"/><path fill-rule="evenodd" clip-rule="evenodd" d="M19.277 99.902L18.7109 99.3442L21.9008 96.0593L23.1404 97.27C23.9668 98.0964 23.8345 98.7658 23.3057 99.3029C22.8925 99.7161 22.0661 100.27 20.9422 99.1748L20.4464 98.6831L19.2646 99.8896L19.277 99.902ZM21.3182 98.6625C21.8306 99.1665 22.2727 99.2037 22.6941 98.774C23.1156 98.3443 23.0329 98.0551 22.5619 97.5923L22.033 97.0758L20.8885 98.241L21.3017 98.6542L21.3182 98.6625Z" fill="white"/><path fill-rule="evenodd" clip-rule="evenodd" d="M25.2585 102.699L25.3122 102.74V102.765L24.8618 104.831L25.5229 105.364L25.9857 103.137C26.2529 103.26 26.555 103.283 26.8381 103.204C27.1211 103.124 27.3667 102.947 27.531 102.703C27.9731 102.145 28.0227 101.48 27.1178 100.753L25.7502 99.6619L22.8867 103.24L23.5065 103.736L24.6965 102.248L25.2585 102.699ZM26.8534 102.224C26.5022 102.662 26.1014 102.562 25.5601 102.149L25.0849 101.765L25.9691 100.658L26.56 101.133C27.0352 101.513 27.2046 101.786 26.8534 102.224Z" fill="white"/><path d="M28.7199 106.892L29.1372 107.169L28.8356 107.624L27.3398 106.624L27.6415 106.173L28.0547 106.45L29.9925 103.541L29.5835 103.268L29.8851 102.814L31.3809 103.814L31.0793 104.264L30.6578 103.983L28.7199 106.892Z" fill="white"/><path d="M36.5119 106.751L35.7805 106.354L32.8096 109.122L32.7931 109.114L33.5079 105.114L32.7394 104.697L32.0039 109.515L32.8799 109.994L36.5119 106.751Z" fill="white"/><path fill-rule="evenodd" clip-rule="evenodd" d="M39.7613 108.191L38.8407 107.778L35.5352 111.357L36.2665 111.662L37.0929 110.762L38.849 111.501L38.8035 112.741L39.5638 113.063L39.7613 108.191ZM39.0225 108.617H38.9936L37.4978 110.27L38.9233 110.869L39.0225 108.634V108.617Z" fill="white"/><path d="M41.9238 109.728L43.213 110.133L42.023 113.876L42.7874 114.12L43.9733 110.377L45.2666 110.786L45.4608 110.162L42.1222 109.104L41.9238 109.728Z" fill="white"/><path d="M49.2238 113.655L47.5132 113.287L47.2239 114.622L49.2775 115.064L49.137 115.708L46.3066 115.101L47.2694 110.622L49.9675 111.2L49.8271 111.841L47.9098 111.432L47.6495 112.655L49.356 113.022L49.2238 113.655Z" fill="white"/><path d="M57.9522 115.141L57.1837 115.034C57.1855 115.165 57.1593 115.295 57.1067 115.415C57.0536 115.536 56.9749 115.644 56.876 115.732C56.777 115.82 56.6603 115.885 56.5336 115.924C56.407 115.963 56.2736 115.973 56.1424 115.955C55.4069 115.91 55.064 115.393 55.1384 114.22C55.2169 112.906 55.7788 112.505 56.4565 112.546C56.9316 112.575 57.3324 112.807 57.2828 113.699H58.0803C58.1754 112.608 57.5927 111.972 56.5226 111.906C55.2747 111.827 54.3946 112.538 54.2913 114.191C54.1922 115.74 54.8285 116.538 56.0681 116.616C57.0721 116.678 57.8035 116.207 57.9522 115.141Z" fill="white"/><path fill-rule="evenodd" clip-rule="evenodd" d="M60.0611 114.409C59.9908 112.91 60.7594 111.988 62.0733 111.93C63.3873 111.872 64.0443 112.711 64.1104 114.153C64.1765 115.699 63.5319 116.608 62.1725 116.67C60.8131 116.732 60.1272 115.893 60.0611 114.409ZM63.2633 114.215C63.2137 113.124 62.8501 112.562 62.0733 112.596C61.2965 112.629 60.8627 113.236 60.9123 114.352C60.9618 115.467 61.3585 116.058 62.1518 116.004C62.9452 115.951 63.3088 115.352 63.2592 114.199L63.2633 114.215Z" fill="white"/><path d="M66.9993 112.513L68.7719 115.922L69.5983 115.782L70.1189 111.989H70.1396L70.747 115.588L71.4907 115.46L70.7263 110.943L69.557 111.142L69.0612 115.055L69.0488 115.059L67.301 111.522L66.082 111.728L66.8464 116.245L67.5902 116.121L66.9787 112.513H66.9993Z" fill="white"/><path fill-rule="evenodd" clip-rule="evenodd" d="M74.995 114.555L74.2347 114.778L72.9414 110.382L74.5942 109.894C75.7305 109.56 76.247 110.018 76.4494 110.741C76.6147 111.312 76.6849 112.299 75.1809 112.741L74.5115 112.94L74.9867 114.555H74.995ZM74.9206 112.175C75.6106 111.973 75.8586 111.609 75.6891 111.027C75.5363 110.514 75.2264 110.382 74.5901 110.568L73.8835 110.775L74.3463 112.345L74.9206 112.175Z" fill="white"/><path d="M79.5155 108.188L79.5028 108.174L79.5193 108.187L79.5155 108.188Z" fill="white"/><path fill-rule="evenodd" clip-rule="evenodd" d="M78.5938 108.559L79.5155 108.188L82.8083 111.79L82.0439 112.096L81.2175 111.187L79.4491 111.893L79.4862 113.133L78.7425 113.43L78.5938 108.559ZM79.2673 109.001H79.2962V108.997L80.7919 110.649L79.3623 111.224L79.2673 109.001Z" fill="white"/><path d="M87.2787 109.501L83.936 107.389L83.9153 107.402L85.5391 110.434L84.8822 110.79L82.7129 106.749L83.5517 106.298L86.8986 108.472L86.9151 108.463L85.2623 105.381L85.9234 105.026L88.0886 109.067L87.2787 109.501Z" fill="white"/><path d="M91.4419 106.286L91.0245 106.559L89.0949 103.646L89.5164 103.365L89.2189 102.91L87.7148 103.906L88.0165 104.356L88.4297 104.088L90.3593 107.001L89.942 107.278L90.2436 107.732L91.7435 106.736L91.4419 106.286Z" fill="white"/><path d="M94.5238 102.116L93.152 103.198L93.999 104.273L95.6477 102.975L96.0567 103.496L93.7801 105.289L90.9414 101.686L93.1107 99.9795L93.5156 100.496L91.9785 101.707L92.7553 102.694L94.1271 101.612L94.5238 102.116Z" fill="white"/><path d="M97.4018 97.9881C97.4021 97.9885 97.4025 97.9889 97.4028 97.9893L97.3945 97.9976L97.4018 97.9881Z" fill="white"/><path d="M97.1258 97.7731C97.2325 97.8236 97.3268 97.897 97.4018 97.9881L97.8904 97.3489C97.159 96.7745 96.4855 96.7828 95.7542 97.4811C95.0228 98.1794 94.903 99.014 95.4897 99.6256C96.155 100.324 96.8367 99.9355 97.4235 99.5718C97.4554 99.5519 97.4871 99.5319 97.5184 99.5121C97.9729 99.2254 98.3603 98.981 98.7044 99.3405C98.9977 99.638 98.9812 100.051 98.5432 100.464C98.4665 100.562 98.3695 100.642 98.2589 100.698C98.1484 100.755 98.0268 100.787 97.9027 100.792C97.7787 100.797 97.6549 100.775 97.5401 100.728C97.4252 100.681 97.322 100.609 97.2375 100.518L96.721 101.179C97.4896 101.799 98.2416 101.667 98.9977 100.944C99.7539 100.221 99.8489 99.3652 99.2333 98.7165C98.542 98.0131 97.8468 98.442 97.2499 98.8102L97.221 98.8281C96.7789 99.1008 96.3368 99.2785 96.0434 98.9603C95.75 98.6422 95.8079 98.3281 96.1632 97.9893C96.2384 97.8976 96.333 97.8238 96.4402 97.7731C96.5474 97.7224 96.6644 97.6961 96.783 97.6961C96.9016 97.6961 97.0187 97.7224 97.1258 97.7731Z" fill="white"/><path d="M65.2846 12.0308L61.9253 40.7602L62.1691 40.7892L65.8878 12.1052H65.7349L65.3796 12.0639H65.3094L65.2846 12.0308ZM70.9742 13.0473L64.1689 41.1445L64.4045 41.2024L71.5775 13.1795L70.9742 13.0308V13.0473ZM76.4986 14.7497L66.3176 41.8222L66.5448 41.9089L77.0689 14.9687L76.9077 14.9067L76.6598 14.8116H76.6391L76.5152 14.7662L76.4986 14.7497ZM81.7793 17.1049L68.3959 42.7477L68.6108 42.8634L82.3247 17.3982L82.0602 17.2578H82.0354H82.0148L81.9156 17.204L81.7793 17.1049ZM86.7376 20.0881L70.3545 43.9253L70.5528 44.0658L87.2458 20.4435L86.7376 20.0881ZM91.2827 23.6416L72.1519 45.3384L72.3378 45.5037L91.7579 24.0548L91.634 23.9432H91.6133L91.3034 23.6664L91.2827 23.6416ZM95.3816 27.7198L73.7881 46.9623L73.9492 47.1482L95.7907 28.1867L95.7494 28.1372L95.7246 28.1124L95.6998 28.0834L95.6791 28.0587L95.4601 27.8107L95.3816 27.7198ZM98.9599 32.265L75.2012 48.7556L75.3376 48.958L99.3028 32.7567C99.3036 32.7457 99.3036 32.7346 99.3028 32.7236L99.1624 32.517V32.4964L99.0095 32.2774L98.9599 32.265ZM101.968 37.2233L76.4036 50.7471L76.5152 50.9661L102.253 37.7728C102.187 37.6365 102.117 37.5001 102.042 37.3597V37.3307L101.98 37.215L101.968 37.2233ZM104.356 42.4874L77.3416 52.8173C77.3705 52.8958 77.3994 52.9701 77.4242 53.0445L104.575 43.07C104.546 42.9998 104.521 42.9295 104.497 42.8593V42.8345L104.364 42.4915L104.356 42.4874ZM106.087 48.0035L78.0151 54.9535C78.0357 55.032 78.0564 55.1105 78.0729 55.189L106.236 48.5779C106.236 48.5159 106.203 48.4539 106.191 48.3961C106.158 48.2597 106.121 48.1234 106.087 47.9829V48.0035ZM107.137 53.6891L78.4283 57.2012C78.4283 57.2798 78.4489 57.3624 78.4572 57.4409L107.207 54.3047V54.1684C107.207 54.0114 107.17 53.8461 107.149 53.6891H107.137ZM107.492 59.4738L78.5688 59.5234V59.7754L107.492 60.0936C107.492 59.9201 107.492 59.7465 107.492 59.573V59.4738ZM78.4365 61.8497C78.4365 61.9323 78.4159 62.0108 78.4035 62.0935L107.083 65.8618V65.7709L107.145 65.2461L78.4241 61.8497H78.4365ZM78.0233 64.0892C78.0233 64.1677 77.9862 64.2462 77.9655 64.3247L105.984 71.4812L106.133 70.878L78.0357 64.0313L78.0233 64.0892ZM77.3581 66.2461L77.2713 66.4733L104.195 77.0387C104.216 76.9809 104.236 76.9271 104.261 76.8693V76.8445C104.298 76.7412 104.34 76.6379 104.381 76.5346C104.379 76.5195 104.379 76.5042 104.381 76.4892L77.3209 66.275L77.3581 66.2461ZM76.4284 68.312L76.3168 68.5269L101.77 82.2243L102.059 81.6789L76.4408 68.2542L76.4284 68.312ZM75.2591 70.2417L75.1186 70.4441L98.7161 87.1661L98.931 86.8603C98.9298 86.8521 98.9298 86.8438 98.931 86.8355L99.026 86.6951L75.2591 70.2417ZM73.8418 72.0514L73.6765 72.2374L95.0965 91.6575C95.2329 91.5046 95.3734 91.3518 95.5097 91.1947L73.8418 72.0349V72.0514ZM72.2138 73.6836L72.0279 73.8488L90.9604 95.7151L91.0142 95.6655H91.0348H91.0596L91.2332 95.5126H91.2538L91.3406 95.4382L72.1271 73.8158L72.2138 73.6836ZM69.5405 73.824L69.338 73.9604L86.3575 99.2107L86.5351 99.0909H86.5599L86.812 98.9215L86.8492 98.8967L69.495 73.8406L69.5405 73.824ZM67.7183 74.7868L67.5034 74.8984L81.3909 102.169H81.4157L81.7214 102.008L81.9032 101.913L67.7183 74.7868ZM66.3837 77.2246L66.1564 77.3114L76.0731 104.475L76.2549 104.405H76.2879H76.321L76.6474 104.281L66.3589 77.2494L66.3837 77.2246ZM64.2268 77.8981L63.9913 77.956L70.5487 106.123L70.8709 106.049H71.028L71.1519 106.016L64.2268 77.9188V77.8981ZM61.9955 78.3113L61.7518 78.3361L64.8507 107.094L65.4664 107.024L61.979 78.2948L61.9955 78.3113ZM59.6858 78.4477H59.4337L59.0743 107.371H59.694V78.4477H59.6858ZM57.1198 78.2783L53.3019 106.933L53.9135 107.012L57.3554 78.2948L57.1116 78.2618L57.1198 78.2783ZM54.8886 77.8651L47.6329 105.867L47.7445 105.892H47.8023L48.2155 105.999L55.1035 77.9023L54.8679 77.8403L54.8886 77.8651ZM52.74 77.1668L42.1457 104.041L42.4969 104.177H42.5217L42.7242 104.256L52.9755 77.2081L52.7482 77.1213L52.74 77.1668ZM50.674 76.2082L36.8981 101.599L37.4435 101.888L50.9013 76.2702L50.6864 76.1545L50.674 76.2082ZM49.2402 74.3034L31.9894 98.5372L32.0803 98.5992L32.1794 98.6694L32.4604 98.8636L49.4014 74.3777L49.1989 74.2372L49.2402 74.3034ZM47.5172 72.882L27.4897 94.9135L27.6219 95.0333L27.8285 95.2151L27.9483 95.3267L47.7073 73.0514L47.5255 72.882H47.5172ZM45.3397 71.8696L23.4404 90.7691L23.523 90.8683V90.889L23.742 91.1369L45.3934 71.9564L45.2281 71.7705L45.3397 71.8696ZM43.9431 70.0392L19.9489 86.1744L20.0315 86.3025V86.3232L20.2794 86.6826L44.0918 70.2417L43.9513 70.0351L43.9431 70.0392ZM42.7861 68.0724L17.0193 81.1913C17.0896 81.3277 17.1557 81.464 17.2259 81.6045L17.2879 81.7202L42.906 68.2666L42.7944 68.0517L42.7861 68.0724ZM41.8812 66.0064L14.7137 75.89L14.9121 76.4272C14.9131 76.434 14.9131 76.441 14.9121 76.4478L41.9597 66.2006L41.873 65.9734L41.8812 66.0064ZM41.2408 63.8413L13.0609 70.3573V70.378C13.1064 70.5598 13.1477 70.7458 13.1932 70.9276C13.1932 70.9276 13.1932 70.9482 13.1932 70.9565L41.2904 64.0727C41.2904 63.9942 41.2532 63.9156 41.2325 63.8371L41.2408 63.8413ZM40.8648 61.6018L12.1023 64.6553C12.1023 64.7834 12.1313 64.9114 12.1478 65.0395V65.0891C12.1478 65.147 12.1478 65.2048 12.1478 65.2668L40.8689 61.8373C40.8689 61.7546 40.8689 61.672 40.84 61.5935L40.8648 61.6018ZM40.7615 59.2837L11.8379 58.8705C11.8379 59.0771 11.8379 59.2837 11.8379 59.4903L40.7615 59.5234C40.7615 59.4366 40.7615 59.354 40.7615 59.2713V59.2837ZM12.2511 53.1148V53.2098V53.2346L12.1891 53.7304L40.9061 57.1971C40.9061 57.1145 40.9061 57.036 40.9392 56.9533L12.2717 53.1024L12.2511 53.1148ZM13.3667 47.4416C13.3378 47.549 13.313 47.6565 13.2841 47.7639C13.2551 47.8713 13.2386 47.9498 13.2138 48.0449L41.3193 54.9535L41.3813 54.7179L13.3874 47.4292L13.3667 47.4416ZM15.1641 41.9461C15.1485 41.9812 15.1347 42.0171 15.1228 42.0535V42.0783L14.9616 42.4915L41.9928 52.7842L42.0796 52.5569L15.1848 41.9337L15.1641 41.9461ZM17.6102 36.7109L17.354 37.244L42.9349 50.7389L43.0506 50.524L17.6309 36.6985L17.6102 36.7109ZM20.6968 31.8146L20.4282 32.1989L20.3414 32.3187L44.1084 48.8051L44.2488 48.6068L20.6968 31.8146ZM24.3329 27.319L24.1304 27.538C24.1304 27.538 24.1304 27.538 24.1098 27.538L24.0395 27.6124L45.6537 46.8342C45.7074 46.7722 45.7611 46.7102 45.819 46.6524L24.3329 27.3025V27.319ZM28.4648 23.2904L28.3781 23.3648L28.0144 23.6788L47.166 45.355L47.3519 45.1938L28.4855 23.2945L28.4648 23.2904ZM33.0637 19.7865L32.9397 19.8691L32.5968 20.1005L49.0047 43.917L49.17 43.7972L33.0554 19.7658L33.0637 19.7865ZM38.0509 16.8652L37.7906 17.0016H37.7617H37.7369H37.7121H37.6873H37.6625H37.6377H37.6088H37.5758L50.9922 42.6196L51.207 42.5081L38.0675 16.8487L38.0509 16.8652ZM43.3853 14.5513L42.8068 14.7662L53.0168 41.8304L53.2441 41.7436L43.3853 14.5513ZM48.9303 12.8986H48.8973H48.8642L48.7237 12.9316H48.6907H48.6618L48.3271 13.0101L55.1737 41.1073L55.4092 41.0536L48.9179 12.9151L48.9303 12.8986ZM54.62 11.9813H54.2605L54.0044 12.0102L57.3925 40.7354L57.6363 40.7065L54.62 11.9813ZM60.4047 11.7209H59.7849L59.7106 40.6445H59.9626L60.4047 11.7209Z" fill="black"/><path d="M102.641 93.7945L102.059 93.3069C108.103 85.7005 111.999 76.6129 113.34 66.99C114.68 57.3671 113.417 47.5608 109.682 38.5917L110.38 38.3025C114.171 47.399 115.452 57.3455 114.091 67.1056C112.73 76.8657 108.776 86.0821 102.641 93.7945Z" fill="white"/><path d="M16.3659 93.7945C10.2342 86.0807 6.28213 76.8644 4.92103 67.105C3.55994 57.3455 4.83959 47.3996 8.6268 38.3025L9.32923 38.5917C5.59593 47.5617 4.33476 57.3683 5.67694 66.991C7.01911 76.6137 10.9156 85.7009 16.9609 93.3069L16.3659 93.7945Z" fill="white"/><path d="M42.0591 50.5901H46.4266V45.0823H44.3606V40.4545H42.0715V50.5901H42.0591ZM57.3762 45.1029C57.0809 45.0909 56.7861 45.1398 56.5104 45.2464C56.2347 45.3531 55.9838 45.5153 55.7734 45.723C55.563 45.9307 55.3976 46.1794 55.2873 46.4537C55.1771 46.7281 55.1244 47.0221 55.1326 47.3176V50.5943H59.0249V46.4871C59.0249 45.5698 58.4712 45.1029 57.3721 45.1029H57.3762ZM27.1552 71.9605L27.8618 72.506L27.6593 73.0101C27.3246 73.6712 27.1511 75.1339 27.6593 75.9685C27.7885 76.176 27.9729 76.3434 28.1918 76.4521C28.4107 76.5609 28.6555 76.6066 28.8989 76.5842C29.3939 76.6347 29.8891 76.4903 30.2794 76.1818C30.6698 75.8732 30.9245 75.4247 30.9897 74.9314C31.0693 74.551 31.1081 74.1631 31.1054 73.7745C31.1054 72.6299 30.812 71.7416 30.279 71.2085C29.867 70.8221 29.3189 70.6141 28.7543 70.6301C27.6256 70.6826 26.5467 71.1101 25.6884 71.8449L25.4198 71.9729L19.8334 69.7541L21.5358 57.5029H37.4562V64.5561H27.3329L27.1346 66.0477L27.6139 65.8411C28.5965 65.4256 29.6543 65.2175 30.7211 65.2296C33.3077 65.2296 35.3571 65.9196 36.8116 67.2956C37.24 67.6943 37.6113 68.1504 37.9148 68.6509L38.4024 69.4153L38.4643 68.4897C38.9602 61.2753 42.65 57.3004 48.8521 57.3004C53.9219 57.3004 57.3267 59.949 58.6985 64.9693L58.9918 66.0395L59.2728 64.9652C60.5826 59.949 63.9832 57.3004 69.1068 57.3004C74.2304 57.3004 77.5856 59.949 78.9532 64.9693L79.2466 66.0395L79.5276 64.9652C80.8209 60.0275 84.1471 57.3789 89.1468 57.3045H89.7542C96.1752 57.4822 99.8567 62.1968 99.8567 70.2375C99.8567 78.5014 96.0347 83.2201 89.3616 83.2201C84.2917 83.2201 80.8953 80.5426 79.54 75.4768L79.2549 74.4067L78.9656 75.4768C77.6062 80.5426 74.1974 83.2201 69.1068 83.2201C64.0163 83.2201 60.6405 80.5715 59.2852 75.4892L58.996 74.4191L58.7109 75.4892C57.3473 80.555 53.9385 83.2325 48.8521 83.2325C44.2077 83.2325 40.8237 80.8194 39.3197 76.4396L39.0263 75.5884L38.7536 76.4478C38.5463 77.1102 38.2693 77.7487 37.9272 78.3527C37.4279 79.2406 36.7761 80.0336 36.0017 80.6955C33.9771 82.3927 31.4037 83.2945 28.7625 83.2325C24.6554 83.2325 19.9863 81.055 19.4368 76.2784L19.3789 75.7826L27.1594 71.9729L27.1552 71.9605ZM48.8686 63.6677C47.5174 63.6677 46.877 64.6553 46.877 70.2582C46.877 75.8611 47.5174 76.8528 48.8686 76.8528C50.2197 76.8528 50.8643 75.8694 50.8643 70.2664C50.8643 64.6635 50.2197 63.676 48.8686 63.676V63.6677ZM69.1151 63.6677C67.764 63.6677 67.1194 64.6553 67.1194 70.2582C67.1194 75.8611 67.764 76.8528 69.1275 76.8528C70.491 76.8528 71.1191 75.8694 71.1191 70.2664C71.1191 64.6635 70.4786 63.676 69.1275 63.676L69.1151 63.6677ZM89.3616 63.6677C88.0105 63.6677 87.37 64.6553 87.37 70.2582C87.37 75.8611 88.0311 76.8528 89.3823 76.8528C90.7334 76.8528 91.378 75.8694 91.378 70.2664C91.378 64.6635 90.7334 63.676 89.3823 63.676L89.3616 63.6677ZM89.1426 56.7095C88.5352 56.665 87.9515 56.4551 87.4548 56.1026C86.9581 55.75 86.5672 55.2684 86.3246 54.7097L86.1511 54.2965L85.8412 54.5981C84.1884 56.2178 81.6679 57.0401 78.3706 57.0401C75.0734 57.0401 72.0446 56.0112 70.0778 54.2221L69.5779 53.7676V56.631H28.6345V50.5943H31.4029V40.4545H28.6345V34.0334H44.8234V38.9918H54.3765L54.893 41.0908L55.3723 40.7313C56.8019 39.6529 58.4753 39.1488 60.6446 39.1488C64.8137 39.1488 67.3136 40.9834 67.6689 44.3137L67.7846 45.3715L68.235 44.4046C70.0489 40.4958 74.656 39.0992 78.3624 39.0951C78.4905 39.0951 78.726 39.0951 78.7301 39.0951C82.796 39.0951 87.3452 41.0371 87.9154 46.4871L87.9898 47.2019L80.2796 48.0531L80.2465 47.2763C80.1432 44.8963 79.478 44.417 78.4368 44.417C76.784 44.417 76.284 45.3054 76.284 48.0614C76.284 50.8174 76.8046 51.7471 78.4368 51.7471C79.635 51.7471 80.354 51.0818 80.354 49.9662V49.2349H81.2878H88.0724L87.9691 50.3092L88.3823 50.1728C88.703 50.0703 89.0374 50.0173 89.374 50.0158C90.2338 50.0163 91.0605 50.3472 91.6831 50.9401C92.3057 51.533 92.6766 52.3426 92.7191 53.2013C92.7615 54.06 92.4723 54.9022 91.9112 55.5537C91.3501 56.2051 90.5601 56.616 89.7046 56.7013L89.1426 56.7095Z" fill="white"/><path d="M29.4316 51.303V55.9142H44.1661V51.2989H41.406V39.7046H44.1661V34.738H29.4316V39.7046H32.1959V51.303H29.4316Z" fill="black"/><path d="M57.6828 51.2974V55.9128H68.9423V51.3463C70.4785 54.7656 74.4438 56.313 78.4648 56.313C81.7414 56.313 86.2865 55.5238 87.3112 50.4828L87.3608 49.9498H81.1629C81.1629 51.6522 79.9233 52.4538 78.5185 52.4538C75.8327 52.4538 75.6261 50.2267 75.6261 48.0863V48.045C75.6261 45.9046 75.8451 43.6775 78.5185 43.6775C80.6423 43.6775 80.9811 45.5038 81.0555 47.231L87.2782 46.5451L87.2823 46.512C86.522 39.2605 78.4648 39.7852 78.4648 39.7852C73.3246 39.7852 68.2754 42.3181 68.2754 48.0491C68.2754 49.2765 68.5067 50.3571 68.9206 51.2974H67.0706V45.1862C67.0706 41.294 64.2154 39.8684 60.7115 39.8684C58.2158 39.8684 56.3027 40.5543 54.6499 42.455C54.5274 42.6172 54.389 42.7667 54.2368 42.9013V39.7114H45.1465V44.3351H47.2125V51.2974H45.1465V55.9128H56.6746V51.2974H54.4764V47.2977C54.4696 46.907 54.542 46.519 54.6892 46.157C54.8364 45.7951 55.0555 45.4668 55.3331 45.1918C55.6108 44.9169 55.9413 44.701 56.3046 44.5574C56.668 44.4137 57.0567 44.3451 57.4473 44.3557C58.7819 44.3557 59.8231 45.0086 59.8231 46.463V51.2974H57.6828Z" fill="black"/><path d="M91.655 54.8256C91.9433 54.3941 92.0972 53.8869 92.0972 53.3679C92.0972 52.6721 91.8207 52.0047 91.3287 51.5126C90.8366 51.0206 90.1693 50.7441 89.4734 50.7441C88.9545 50.7441 88.4472 50.898 88.0157 51.1863C87.5842 51.4746 87.2479 51.8844 87.0493 52.3638C86.8507 52.8433 86.7988 53.3708 86.9 53.8798C87.0013 54.3888 87.2512 54.8563 87.6181 55.2232C87.985 55.5902 88.4526 55.8401 88.9615 55.9413C89.4705 56.0425 89.998 55.9906 90.4775 55.792C90.9569 55.5934 91.3667 55.2571 91.655 54.8256Z" fill="black"/><path d="M48.9397 77.5612C46.7002 77.5612 46.2209 75.4043 46.2209 70.2476C46.2209 65.091 46.7002 62.9341 48.9397 62.9341C51.1792 62.9341 51.6503 65.0951 51.6503 70.2435C51.6503 75.3919 51.171 77.557 48.9273 77.557L48.9397 77.5612ZM48.9397 58.0129C42.7872 58.0129 39.209 62.1201 39.209 70.2311C39.209 78.2677 42.7872 82.4864 48.9397 82.4864C55.0137 82.4864 58.7076 78.2677 58.7076 70.2311C58.7076 62.1201 55.0137 58.0129 48.9397 58.0129Z" fill="#F5B335"/><path d="M69.1987 77.5612C66.955 77.5612 66.4757 75.4043 66.4757 70.2476C66.4757 65.091 66.955 62.9341 69.1987 62.9341C71.4423 62.9341 71.9175 65.0951 71.9175 70.2476C71.9175 75.4002 71.4382 77.5612 69.1987 77.5612ZM69.178 58.0129C63.0297 58.0129 59.4473 62.1201 59.4473 70.2311C59.4473 78.2677 63.0297 82.4864 69.178 82.4864C75.2519 82.4864 78.9459 78.2677 78.9459 70.2311C78.9459 62.1201 75.2519 58.0129 69.178 58.0129Z" fill="#4663AE"/><path d="M89.4534 77.5612C87.2139 77.5612 86.7346 75.4043 86.7346 70.2476C86.7346 65.091 87.2139 62.9341 89.4534 62.9341C91.6929 62.9341 92.1722 65.0951 92.1722 70.2476C92.1722 75.4002 91.697 77.5612 89.4534 77.5612ZM89.4534 58.0129C83.3009 58.0129 79.7227 62.1201 79.7227 70.2311C79.7227 78.2677 83.3009 82.4864 89.4534 82.4864C95.5273 82.4864 99.2172 78.2677 99.2172 70.2311C99.2172 62.1201 95.5273 58.0129 89.4534 58.0129Z" fill="#0033A1"/><path d="M36.3855 67.7885C35.1459 66.6357 33.3402 65.9333 30.7908 65.9333C29.1201 65.8825 27.4935 66.474 26.2457 67.5861L26.7498 63.8053H36.7987V58.2107H22.2418L20.7006 69.3215L24.9524 71.5279C25.6837 70.9288 27.0638 69.8752 28.8157 69.8752C29.5692 69.8584 30.2986 70.1407 30.8445 70.6602C31.4974 71.2883 31.9147 72.313 31.9147 73.7468C31.9184 74.1912 31.8727 74.6347 31.7783 75.069C31.4147 76.6598 30.3487 77.2961 28.981 77.2961C26.2333 77.2961 26.4647 73.8749 27.0845 72.6684L27.0473 72.6312L20.2461 76.1764C20.7419 80.5108 25.1259 82.4859 28.8488 82.4859C31.318 82.54 33.7234 81.699 35.6211 80.1182C36.3304 79.5108 36.9276 78.7836 37.3854 77.9696C38.1404 76.6473 38.5444 75.1537 38.5589 73.6311C38.5589 71.3131 37.9308 69.2099 36.4061 67.7885H36.3855Z" fill="#FF4713"/></svg>