<svg width="121" height="151" fill="none" xmlns="http://www.w3.org/2000/svg"><path d="M4.58789 117.293L61.6841 146.314L116.612 117.293V3.81055H4.58789V117.293Z" fill="white"/><path d="M117.768 4.24219L3.43164 119.313L62.696 148.622L117.768 120.468V4.24219Z" fill="#F2F3F2"/><path d="M0.830078 41.6371V119.747L2.85373 120.757L59.9499 149.778L61.6845 150.644L63.419 149.778L118.492 120.757L120.515 119.747V0.0556641H0.830078V41.6371ZM4.5883 117.581V3.80954H116.757V117.581L61.6845 146.601L4.5883 117.581Z" fill="#DCDEDC"/><path d="M60.6714 5.68649C61.2497 5.68649 61.8278 5.68649 62.4061 5.83087L60.6714 9.1516C58.0697 9.00722 55.7569 11.0286 55.6123 13.6274C55.4678 16.2262 57.4914 18.5363 60.0933 18.6807H60.6714C61.8278 18.6807 62.9842 18.2475 63.8515 17.5257L65.7307 20.7019C64.2852 21.7127 62.5507 22.2902 60.6714 22.2902C56.046 22.4346 52.1432 18.9695 51.9986 14.3493C51.8542 9.72913 55.3232 5.83087 59.9488 5.68649H60.6714ZM66.598 12.7611L68.7662 16.3706L66.598 19.8357L64.5743 16.3706H60.3825L62.5507 12.7611H66.598ZM63.1288 11.4617C63.1288 10.8842 63.2734 10.3066 63.5625 9.87351C63.8515 9.44036 64.4297 9.00722 64.8633 8.71846L65.1524 8.57409C65.7307 8.28533 65.8751 8.14095 65.8751 7.85219C65.8751 7.56343 65.4416 7.27467 65.1524 7.27467C64.5743 7.27467 64.1406 7.56343 63.8515 8.14095L63.1288 7.41905C63.2734 7.13028 63.5625 6.84152 63.8515 6.55276C64.2852 6.264 64.7189 6.264 65.1524 6.264C65.5861 6.264 66.1642 6.40838 66.4534 6.69714C66.7425 6.9859 67.0315 7.41905 67.0315 7.85219C67.0315 8.57409 66.598 9.1516 65.7307 9.44036L65.297 9.72913C64.8633 10.0179 64.5743 10.1623 64.4297 10.5954H67.0315V11.6061L63.1288 11.4617ZM60.6714 29.5092L74.4035 21.7127V0.0556641H46.7949V21.5683L60.6714 29.5092Z" fill="#FF492C"/><path d="M26.56 58.3839V45.6784C26.56 45.534 26.7045 45.3896 26.8491 45.3896H30.1737C30.3183 45.3896 30.4627 45.534 30.4627 45.6784V58.3839C30.4627 60.2608 31.7637 61.7046 33.7873 61.7046C35.8109 61.7046 37.1119 60.4052 37.1119 58.3839V45.6784C37.1119 45.534 37.2565 45.3896 37.401 45.3896H40.7256C40.8702 45.3896 41.0148 45.534 41.0148 45.6784V58.3839C41.0148 62.4266 38.1237 65.0254 33.7873 65.0254C29.4509 65.0254 26.56 62.2822 26.56 58.3839ZM43.472 60.8384V60.5496C43.472 60.4052 43.6165 60.2608 43.7611 60.2608H46.7966C46.9411 60.2608 47.0857 60.4052 47.0857 60.5496C47.0857 61.416 48.0975 61.9934 49.543 61.9934C50.8438 61.9934 51.7113 61.416 51.7113 60.694C51.7113 59.5389 49.543 59.5389 47.5194 58.8171C45.6402 58.2395 43.6165 57.2289 43.6165 54.7743C43.6165 52.0311 45.9293 50.2987 49.543 50.2987C53.1566 50.2987 55.4694 52.1755 55.4694 54.7743C55.4694 54.9187 55.3248 55.0631 55.1803 55.0631H52.1448C52.0002 55.0631 51.8558 54.9187 51.8558 54.7743C51.8558 53.9081 50.9884 53.3307 49.543 53.3307C48.3867 53.3307 47.5194 53.7637 47.5194 54.6301C47.5194 55.7851 49.3985 55.7851 51.5667 56.5069C53.7349 57.0845 55.9031 58.0951 55.9031 60.694C55.9031 63.4372 53.4458 65.0254 49.832 65.0254C45.9293 65.0254 43.472 63.2928 43.472 60.8384ZM70.7914 58.5283C70.7914 58.8171 70.6469 58.8171 70.3577 58.8171H61.6849C61.5405 58.8171 61.5405 58.8171 61.5405 58.9614C61.5405 59.3946 61.6849 59.6834 61.8295 60.1165C62.2632 61.1272 63.1304 61.7046 64.7205 61.7046C66.0213 61.7046 66.8887 61.1272 67.6114 60.2608C67.756 60.1165 67.9006 59.9721 68.0451 60.2608L70.0688 62.2822C70.2133 62.4266 70.2133 62.571 70.0688 62.7154C68.7678 64.3036 66.7442 65.1698 64.4314 65.1698C61.2513 65.1698 59.0831 63.5816 58.0713 60.9828C57.6376 59.9721 57.493 58.9614 57.493 57.5175C57.493 56.5069 57.6376 55.4963 57.9267 54.6301C58.794 52.0313 60.9622 50.2987 63.9977 50.2987C67.756 50.2987 70.0688 52.7531 70.5023 56.2181C70.7914 56.9401 70.7914 57.6619 70.7914 58.5283ZM61.8295 55.2075C61.6849 55.4963 61.6849 55.7851 61.6849 56.0739C61.6849 56.2181 61.6849 56.2181 61.8295 56.2181H66.5996C66.7442 56.2181 66.7442 56.2181 66.7442 56.0739C66.7442 55.7851 66.5996 55.4963 66.5996 55.3519C66.3104 54.1969 65.4432 53.6193 64.1422 53.6193C62.9858 53.6193 62.2632 54.1969 61.8295 55.2075ZM82.0662 50.7317C82.2106 50.8761 82.2106 51.0205 82.2106 51.1649L81.6325 54.3413C81.6325 54.6301 81.4879 54.6301 81.1988 54.4857C80.7652 54.3413 80.187 54.3413 79.6089 54.3413C78.3079 54.4857 77.1515 55.3519 77.1515 56.7957V64.4478C77.1515 64.5922 77.0069 64.7366 76.8624 64.7366H73.5378C73.3934 64.7366 73.2488 64.5922 73.2488 64.4478V50.8761C73.2488 50.7317 73.3934 50.5875 73.5378 50.5875H76.8624C77.0069 50.5875 77.1515 50.7317 77.1515 50.8761V51.8869C77.1515 52.0311 77.2961 52.0311 77.2961 52.0311C78.0188 51.0205 79.0306 50.2987 80.3315 50.2987C81.1988 50.2987 81.6325 50.4431 82.0662 50.7317ZM83.2224 60.8384V60.5496C83.2224 60.4052 83.367 60.2608 83.5116 60.2608H86.547C86.6916 60.2608 86.8362 60.4052 86.8362 60.5496C86.8362 61.416 87.848 61.9934 89.2935 61.9934C90.5945 61.9934 91.4617 61.416 91.4617 60.694C91.4617 59.5389 89.2935 59.5389 87.2699 58.8171C85.3906 58.2395 83.367 57.2289 83.367 54.7743C83.367 52.0311 85.6798 50.2987 89.2935 50.2987C92.9071 50.2987 95.2199 52.1755 95.2199 54.7743C95.2199 54.9187 95.0753 55.0631 94.9309 55.0631H91.8953C91.7509 55.0631 91.6063 54.9187 91.6063 54.7743C91.6063 53.9081 90.7389 53.3307 89.2935 53.3307C88.1371 53.3307 87.2699 53.7637 87.2699 54.6301C87.2699 55.7851 89.1489 55.7851 91.3172 56.5069C93.4854 57.0845 95.6536 58.0951 95.6536 60.694C95.6536 63.4372 93.1962 65.0254 89.5827 65.0254C85.6798 65.0254 83.2224 63.2928 83.2224 60.8384ZM13.9844 87.8374V69.068C13.9844 68.9236 14.1289 68.7792 14.2735 68.7792H17.598C17.7426 68.7792 17.8871 68.9236 17.8871 69.068V84.6611C17.8871 84.8055 17.8871 84.8054 18.0317 84.8054H27.1381C27.2827 84.8054 27.4272 84.9498 27.4272 85.0942V87.8374C27.4272 87.9818 27.2827 88.1262 27.1381 88.1262H14.2735C14.1289 88.1262 13.9844 87.9818 13.9844 87.8374ZM29.74 83.7947C29.4509 82.9285 29.3063 81.9179 29.3063 80.9071C29.3063 79.8965 29.4509 78.7415 29.74 78.0195C30.6073 75.2763 32.92 73.6882 36.1001 73.6882C39.1355 73.6882 41.4483 75.4207 42.3156 78.0195C42.6047 78.8859 42.7493 79.8965 42.7493 80.9071C42.7493 81.9179 42.6047 82.9285 42.3156 83.6503C41.4483 86.538 39.1355 88.2706 36.1001 88.2706C32.92 88.415 30.4627 86.6824 29.74 83.7947ZM38.5574 82.9285C38.702 82.3509 38.8466 81.6291 38.8466 81.0515C38.8466 80.3297 38.702 79.6077 38.5574 79.0303C38.1237 77.7309 37.2565 77.0089 36.1001 77.0089C34.7991 77.0089 33.9319 77.7309 33.6427 79.0303C33.3538 79.4633 33.3538 80.1853 33.3538 81.0515C33.3538 81.7735 33.3538 82.4953 33.4983 82.9285C33.9319 84.2279 34.7991 84.9498 36.1001 84.9498C37.2565 85.0942 38.1237 84.2279 38.5574 82.9285ZM48.0975 87.8374L43.6165 74.1213C43.472 73.8327 43.6165 73.6882 43.9057 73.6882H47.5194C47.6638 73.6882 47.8084 73.8327 47.9529 73.9769L50.2657 82.3509C50.2657 82.4953 50.4103 82.4953 50.4103 82.3509L52.7231 73.9769C52.7231 73.8327 52.8676 73.6882 53.1566 73.6882H56.7704C57.0595 73.6882 57.2041 73.8327 57.0595 74.1213L52.5785 87.693C52.5785 87.8374 52.4339 87.9818 52.1448 87.9818H48.5312C48.2421 88.1262 48.0975 88.1262 48.0975 87.8374ZM70.936 81.9179C70.936 82.2065 70.7914 82.2065 70.5023 82.2065H61.8295C61.6849 82.2065 61.6849 82.2065 61.6849 82.3509C61.6849 82.7841 61.8295 83.0729 61.974 83.506C62.4077 84.5167 63.275 85.0942 64.8649 85.0942C66.1659 85.0942 67.0331 84.5167 67.756 83.6503C67.9006 83.506 68.0451 83.3617 68.1895 83.6503L70.2133 85.6718C70.3577 85.8162 70.3577 85.9605 70.2133 86.1049C68.9124 87.693 66.8887 88.5594 64.576 88.5594C61.3959 88.5594 59.2277 86.9712 58.2159 84.3723C57.7822 83.3617 57.6376 82.3509 57.6376 80.9071C57.6376 79.8965 57.7822 78.8859 58.0713 78.0195C58.9386 75.4207 61.1068 73.6882 64.1422 73.6882C67.9006 73.6882 70.2132 76.1427 70.6469 79.6077C70.936 80.3297 70.936 81.0515 70.936 81.9179ZM61.974 78.5971C61.8295 78.8859 61.8295 79.1747 61.8295 79.4633C61.8295 79.6077 61.8295 79.6077 61.974 79.6077H66.7442C66.8887 79.6077 66.8887 79.6077 66.8887 79.4633C66.8887 79.1747 66.7442 78.8859 66.7442 78.7415C66.455 77.5865 65.5878 77.0089 64.2868 77.0089C62.9858 77.0089 62.2632 77.5865 61.974 78.5971ZM79.0306 81.7735V69.068C79.0306 68.9236 79.1751 68.7792 79.3197 68.7792H82.6443C82.7889 68.7792 82.9335 68.9236 82.9335 69.068V81.7735C82.9335 83.6503 84.2344 85.0942 86.2581 85.0942C88.2817 85.0942 89.5827 83.7947 89.5827 81.7735V69.068C89.5827 68.9236 89.7271 68.7792 89.8716 68.7792H93.1962C93.3408 68.7792 93.4854 68.9236 93.4854 69.068V81.7735C93.4854 85.8162 90.5945 88.415 86.2581 88.415C81.9216 88.415 79.0306 85.6717 79.0306 81.7735ZM95.9427 84.2279V83.9391C95.9427 83.7947 96.0873 83.6503 96.2317 83.6503H99.2673C99.4117 83.6503 99.5563 83.7947 99.5563 83.9391C99.5563 84.8055 100.568 85.383 102.014 85.383C103.315 85.383 104.182 84.8054 104.182 84.0835C104.182 82.9285 102.014 82.9285 99.99 82.2065C98.1109 81.6291 96.0873 80.6185 96.0873 78.1639C96.0873 75.4207 98.3999 73.6882 102.014 73.6882C105.627 73.6882 107.94 75.5651 107.94 78.1639C107.94 78.3083 107.796 78.4527 107.651 78.4527H104.616C104.471 78.4527 104.326 78.3083 104.326 78.1639C104.326 77.2977 103.459 76.7201 102.014 76.7201C100.857 76.7201 99.99 77.1533 99.99 78.0195C99.99 79.1747 101.869 79.1747 104.037 79.8965C106.205 80.4741 108.374 81.4847 108.374 84.0835C108.374 86.8268 105.916 88.415 102.303 88.415C98.3999 88.415 95.9427 86.6824 95.9427 84.2279Z" fill="#252530"/><path d="M20.7773 104.73H49.6869V105.886H20.7773V104.73ZM72.5253 104.73H101.435V105.886H72.5253V104.73Z" fill="#252530"/><path fill-rule="evenodd" clip-rule="evenodd" d="M54.168 103.43L58.649 102.708L60.9617 98.2324L63.1299 102.564L67.9001 103.43L64.5755 106.751L65.2982 111.516L60.9617 109.494L56.6253 111.516L57.2034 106.751L54.168 103.43Z" fill="#DCDEDC"/></svg>