<svg width="146" height="145" fill="none" xmlns="http://www.w3.org/2000/svg"><circle cx="72.5" cy="72.5" r="72.5" fill="white"/><path d="M86.8019 76.7022C84.5648 73.2076 80.8453 70.5966 74.9152 70.5175C69.9911 70.4516 66.2716 72.1263 63.6639 74.9088L63.2668 78.6538H61.0828C60.2753 80.2758 59.6929 82.0825 59.3223 83.9946C62.8697 86.0122 65.12 89.5199 65.12 93.9243C65.12 96.7595 64.1405 99.6343 62.4594 101.85C65.1597 105.384 69.1704 107.296 73.9489 107.296C79.8525 107.296 83.8236 104.751 86.3253 101.111C84.406 98.1705 83.3073 94.2804 83.3073 89.5463C83.3073 84.6671 84.4192 80.1176 86.8019 76.7022ZM74.3063 100.083C71.9899 100.083 70.4544 98.3947 69.7793 95.6782C69.369 93.832 69.316 91.8936 69.316 89.9946C69.316 86.5133 69.5146 81.9506 70.8515 79.6956C71.831 78.1132 73.3268 77.4934 74.5049 77.4934C76.9802 77.4934 78.2641 79.4978 78.7804 81.7C79.2966 83.9023 79.4025 87.7397 79.4025 89.3353C79.3893 94.3463 78.6215 100.083 74.3063 100.083Z" fill="#FFDD00"/><path d="M99.4041 70.6474C93.5535 70.5683 89.4236 72.942 86.8027 76.7002C89.0794 80.2607 89.8339 84.7443 89.8339 88.3971C89.8339 92.7751 88.8147 97.4829 86.3262 101.109C89 105.197 93.2755 107.426 98.4246 107.426C110.205 107.426 114.322 97.2851 114.322 88.5157C114.309 81.3025 111.383 70.7925 99.4041 70.6474ZM98.782 100.199C96.4656 100.199 94.9301 98.5115 94.255 95.7949C93.8447 93.9488 93.7917 91.9971 93.7917 90.1114C93.7917 86.63 93.9903 82.0673 95.3272 79.8124C96.3067 78.2299 97.7892 77.6101 98.9806 77.6101C101.456 77.6101 102.74 79.6146 103.243 81.8168C103.759 84.019 103.865 87.8564 103.865 89.452C103.878 94.4631 103.11 100.199 98.782 100.199Z" fill="#007DC4"/><path d="M86.8051 76.7021C84.4224 80.1176 83.3105 84.6671 83.3105 89.5462C83.3105 94.2803 84.4092 98.1705 86.3285 101.111C88.8171 97.4848 89.8363 92.7639 89.8363 88.399C89.8363 84.7462 89.095 80.2626 86.8051 76.7021Z" fill="#62A63B"/><path d="M59.3242 84.0086C57.1666 82.7822 54.5457 82.0965 51.6468 82.0965C49.7407 82.0965 47.4243 82.4525 45.8888 83.0723C45.5314 83.2306 45.174 83.4284 44.8034 83.6394L45.3196 78.6679H61.0847C61.773 77.2701 62.6334 76.0041 63.6658 74.9228L64.0365 71.3359H37.8144L35.8553 90.3911L44.6446 91.4724C45.2667 90.5493 46.0874 89.2174 48.9598 89.2174C52.6131 89.2174 54.3604 91.5252 54.3604 94.7032C54.3604 97.4725 52.8646 100.189 49.1186 100.189C47.0139 100.189 45.3196 99.2131 44.6975 97.2219C44.446 96.4043 44.446 95.534 44.446 94.6637L33.9492 95.745C34.5184 98.4087 35.0346 100.862 37.2981 103.222C41.3089 107.27 47.1728 107.27 49.0789 107.27C52.0572 107.27 57.5637 107.02 61.4156 103.064C61.7862 102.694 62.1304 102.299 62.448 101.864C60.1448 98.8439 58.8212 94.6373 58.8212 89.4284C58.8212 87.5559 58.9932 85.7361 59.3242 84.0086Z" fill="#E33126"/><path d="M63.2681 78.6679L63.6652 74.9229C62.6327 76.0174 61.7855 77.2833 61.084 78.6679H63.2681Z" fill="#F48132"/><path d="M59.3214 84.0068C58.9904 85.7343 58.8184 87.5541 58.8184 89.4267C58.8184 94.6355 60.1553 98.8422 62.4452 101.862C64.1263 99.6466 65.1058 96.7718 65.1058 93.9366C65.1191 89.5322 62.8688 86.0244 59.3214 84.0068Z" fill="#F48132"/><path d="M33.9629 68.7228V62.7886H37.5236V47.8742H33.9629V41.4785H52.9842V47.8742H49.4235V62.7886H52.9842V68.7228H33.9629Z" fill="#231F20"/><path d="M70.1691 68.7226V62.7885H72.9356V56.5642C72.9356 54.6917 71.5986 53.8477 69.8646 53.8477C67.6806 53.8477 66.026 55.4565 66.026 57.6324V62.7753H68.8719V68.7094H53.9805V62.7753H56.6675V53.8213H53.9805V47.874H65.7215V51.9752C65.9201 51.8169 66.1054 51.5927 66.2642 51.4081C68.4086 48.9554 70.8706 48.085 74.0872 48.085C78.6142 48.085 82.294 49.918 82.294 54.929V62.7885H84.7163V68.7358H70.1691V68.7226Z" fill="#231F20"/><path d="M108.379 56.6819L100.345 57.5654C100.252 55.35 99.7887 52.9895 97.0751 52.9895C93.6203 52.9895 93.3556 55.8511 93.3556 58.6072V58.6599C93.3556 61.416 93.6203 64.2776 97.0751 64.2776C98.8886 64.2776 100.49 63.249 100.49 61.0468H100.755H108.498L108.432 61.7325C107.109 68.2073 101.245 69.2227 97.0089 69.2227C90.3773 69.2227 83.8516 65.9787 83.8516 58.594V58.6204C83.8516 51.2357 90.3773 47.9917 97.0089 47.9917C96.9957 48.0181 107.4 47.3455 108.379 56.6819Z" fill="#231F20"/><path d="M114.619 65.452C114.619 67.3114 113.097 68.8279 111.23 68.8279C109.364 68.8279 107.842 67.3114 107.842 65.452C107.842 63.5927 109.364 62.0762 111.23 62.0762C113.097 62.0762 114.619 63.5927 114.619 65.452Z" fill="#231F20"/><path d="M72.7629 123.844C101.235 123.844 124.307 100.846 124.307 72.4945C124.307 44.1294 101.222 21.1445 72.7629 21.1445C44.2905 21.1445 21.2188 44.1426 21.2188 72.4945C21.2188 100.86 44.2905 123.844 72.7629 123.844Z" stroke="#231F20" stroke-width="1.0461"/><path d="M4.98871 76.0147L4.88281 73.9444L17.2725 69.9092L17.3651 71.518L13.9633 72.5993L14.175 76.595L17.6696 77.3466L17.749 78.9554L4.98871 76.0147ZM12.8778 76.3444L12.6925 72.9817L6.70949 74.8938V74.9334L12.8778 76.3444Z" fill="#231F20"/><path d="M4.91016 68.1168L5.22784 65.5322L15.4334 64.2531V64.2135L5.84997 60.5212L6.16765 57.9365L18.65 59.4662L18.4646 60.9959L7.54428 59.664V59.7036L18.1205 63.7915L17.9352 65.3212L6.68389 66.7454V66.785L17.6042 68.1168L17.4189 69.6465L4.91016 68.1168Z" fill="#231F20"/><path d="M7.37109 54.1505L9.39632 47.9922L10.7068 48.4274L9.15806 53.1087L12.9041 54.3351L14.3601 49.9175L15.6706 50.3395L14.2145 54.7571L18.5032 56.1549L20.1181 51.2626L21.4286 51.6845L19.3372 58.0406L7.37109 54.1505Z" fill="#231F20"/><path d="M10.3262 45.8967L12.047 42.2308C12.8809 40.4505 14.4693 39.8176 16.2695 40.6483C17.5138 41.2286 18.6256 42.2703 18.3212 43.7341L18.3477 43.7473C18.9169 42.811 20.0023 42.6396 21.0083 43.022L22.9938 43.8396C24.291 44.3671 24.7013 44.3011 25.072 44.0638L24.2778 45.7517C23.9204 45.8836 23.0335 45.5934 22.4511 45.3693L20.6376 44.644C19.0227 44.0242 18.5197 44.8418 18.1888 45.5539L17.302 47.4396L22.3717 49.8133L21.7098 51.2111L10.3262 45.8967ZM16.1504 46.9121L16.799 45.5275C17.1828 44.6967 17.8976 43.1934 15.7003 42.1648C14.5884 41.6374 13.5295 42.0593 12.9206 43.3649L12.1396 45.0396L16.1504 46.9121Z" fill="#231F20"/><path d="M14.8398 37.2586L15.6605 35.9531L26.3426 42.5862L25.5219 43.8917L14.8398 37.2586Z" fill="#231F20"/><path d="M28.1026 32.9315C29.9028 34.4875 31.0809 36.5447 29.3998 38.7206C27.229 41.5558 24.264 39.8942 21.749 37.9689C19.234 36.0436 16.9043 33.5513 19.0222 30.8084C20.5841 28.7776 22.3843 28.7908 24.3831 30.2282L23.4036 31.5073C22.252 30.6765 21.0077 30.2941 20.0282 31.56C18.7177 33.2612 20.4253 34.9095 22.7417 36.6766C25.0449 38.4304 27.0966 39.6436 28.4071 37.9425C29.5587 36.4524 28.3144 35.1733 27.1231 34.2106L28.1026 32.9315Z" fill="#231F20"/><path d="M24.7539 24.702L26.21 23.2119L37.5804 29.5548L36.442 30.7153L33.3446 28.9482L30.5384 31.8098L32.3651 34.8824L31.2399 36.0428L24.7539 24.702ZM29.8501 30.7021L32.2062 28.2889L26.7394 25.2031L26.713 25.2295L29.8501 30.7021Z" fill="#231F20"/><path d="M29.0957 20.7234L30.3267 19.6816L31.3195 20.8421C32.1799 21.8575 32.8814 22.8465 31.9813 24.1256L31.4519 23.4927C31.7298 22.8729 31.6239 22.5036 31.1739 21.963L30.8959 21.6465L30.3003 22.1476L29.0957 20.7234Z" fill="#231F20"/><path d="M38.6381 17.7394C37.8836 16.6581 36.9703 16.1702 35.7525 17.0141C34.6803 17.7526 34.442 18.768 35.2098 19.8625C37.2218 22.7636 40.9016 17.6735 43.5225 21.4449C45.1771 23.8318 43.8931 25.7175 42.4238 26.7197C40.0015 28.3813 38.4263 27.6296 36.9041 25.4406L38.1748 24.5571C38.9823 25.7175 39.9088 26.9043 41.7752 25.612C42.7945 24.9131 43.0724 23.6472 42.3179 22.5526C40.2927 19.6383 36.5864 24.6889 33.9523 20.9043C33.2904 19.9548 32.3903 17.779 35.0112 15.9724C36.9835 14.6141 38.5587 14.9833 39.9088 16.8559L38.6381 17.7394Z" fill="#231F20"/><path d="M47.2676 9.8038L53.3565 7.54883L53.833 8.82796L49.1869 10.5423L50.5635 14.2214L54.9449 12.5994L55.4214 13.8786L51.0401 15.5006L53.0918 20.9995L51.6357 21.5402L47.2676 9.8038Z" fill="#231F20"/><path d="M56.8669 6.76965L58.8922 6.29492L65.0605 17.728L63.4853 18.0972L61.8175 14.9456L57.8994 15.8555L57.7803 19.4159L56.2051 19.7852L56.8669 6.76965ZM57.9259 14.5631L61.2218 13.7983L58.27 8.25978H58.2303L57.9259 14.5631Z" fill="#231F20"/><path d="M69.8084 8.16813C69.7025 6.84944 69.1598 5.9791 67.6773 6.09778C66.3801 6.20328 65.6653 6.95493 65.7579 8.28681C66.0359 11.8077 71.7939 9.23627 72.1513 13.8121C72.3763 16.7001 70.3114 17.6891 68.5377 17.8342C65.5991 18.0583 64.6196 16.621 64.421 13.9704L65.9697 13.8517C66.0756 15.2495 66.2874 16.7528 68.5509 16.5682C69.7819 16.4759 70.6555 15.5265 70.5629 14.1946C70.2849 10.6605 64.5269 13.166 64.1695 8.57693C64.0769 7.41647 64.3945 5.09557 67.5714 4.84502C69.9672 4.6604 71.1453 5.76811 71.3571 8.04945L69.8084 8.16813Z" fill="#231F20"/><path d="M76.984 17.5438L75.4353 17.4647L75.9648 6.30849L72.8145 6.16343L72.8806 4.79199L80.7433 5.16123L80.6771 6.53267L77.5135 6.38761L76.984 17.5438Z" fill="#231F20"/><path d="M82.9942 5.57031L89.3743 6.83626L89.1096 8.18133L84.2517 7.21868L83.4839 11.0825L88.0639 11.9924L87.7991 13.3374L83.2192 12.4275L82.3456 16.832L87.4153 17.8342L87.1505 19.1792L80.5586 17.8737L82.9942 5.57031Z" fill="#231F20"/><path d="M95.6581 12.2293C96.0684 10.9765 95.9096 9.96111 94.5065 9.49957C93.2622 9.09077 92.3091 9.52594 91.8988 10.7919C90.7869 14.1414 97.1009 13.9963 95.6581 18.348C94.7447 21.1041 92.468 21.2228 90.7737 20.6689C87.9807 19.759 87.6366 18.0447 88.4705 15.5128L89.9398 16.0007C89.503 17.3326 89.1059 18.7964 91.2767 19.5085C92.4548 19.8909 93.6328 19.3502 94.0432 18.0843C95.1551 14.7216 88.8676 14.8139 90.3104 10.449C90.6678 9.35451 91.8591 7.32372 94.8903 8.31274C97.1671 9.0644 97.8289 10.5281 97.1406 12.7304L95.6581 12.2293Z" fill="#231F20"/><path d="M98.6555 23.8066L97.2656 23.1209L102.269 13.1252L99.4365 11.7274L100.045 10.501L107.101 13.9955L106.492 15.2219L103.646 13.8109L98.6555 23.8066Z" fill="#231F20"/><path d="M103.699 20.1289L107.352 22.3971L106.624 23.5575L102.971 21.2894L103.699 20.1289Z" fill="#231F20"/><path d="M115.596 24.5064C116.364 23.4383 116.708 22.2382 115.504 21.2756C113.823 19.9305 112.128 21.5921 110.302 23.8471C108.475 26.102 107.218 28.1196 108.899 29.4515C110.58 30.7966 112.314 28.8977 113.359 27.5921L111.427 26.0361L112.221 25.0471L115.252 27.4735L111.162 32.5504L110.249 31.8252L111.321 30.4933L111.294 30.4669C110.355 31.0999 109.031 31.1526 107.959 30.2955C105.404 28.2515 106.926 25.4427 109.044 22.8053C111.03 20.3393 113.598 18.0844 116.298 20.2602C119.117 22.5152 117.251 24.9679 116.854 25.4822L115.596 24.5064Z" fill="#231F20"/><path d="M121.341 25.166L124.041 28.199C125.351 29.676 125.312 31.3771 123.816 32.6958C122.783 33.6057 121.394 34.1991 120.163 33.3551L120.136 33.3815C120.771 34.2782 120.507 35.3332 119.752 36.098L118.217 37.6013C117.224 38.5771 117.105 38.9728 117.184 39.4079L115.94 38.0101C115.966 37.6409 116.575 36.9288 117.012 36.4936L118.402 35.1222C119.607 33.8826 119.064 33.1046 118.534 32.5243L117.145 30.9551L112.948 34.6606L111.916 33.5002L121.341 25.166ZM118.098 30.0979L119.117 31.2452C119.726 31.9309 120.838 33.1705 122.651 31.5617C123.578 30.7441 123.604 29.61 122.638 28.5419L121.407 27.1572L118.098 30.0979Z" fill="#231F20"/><path d="M126.993 42.9936C124.346 44.7211 121.209 46.0794 119.303 43.1782C117.397 40.2903 119.898 37.9562 122.546 36.2287C125.206 34.5012 128.33 33.143 130.236 36.0441C132.142 38.9452 129.641 41.2661 126.993 42.9936ZM123.433 37.587C120.997 39.1694 119.184 40.6991 120.362 42.4925C121.54 44.2859 123.671 43.231 126.106 41.6485C128.542 40.0661 130.355 38.5364 129.177 36.743C127.999 34.9496 125.868 36.0045 123.433 37.587Z" fill="#231F20"/><path d="M133.665 42.124L134.248 43.5614L125.405 49.1527L125.419 49.179L135.637 47.0032L136.339 48.7307L127.444 54.1901L127.457 54.2165L137.729 52.1725L138.311 53.6099L125.67 55.878L124.969 54.1373L133.784 48.7702L133.771 48.7439L123.645 50.8406L122.943 49.0999L133.665 42.124Z" fill="#231F20"/><path d="M138.473 55.5762L138.87 57.0663L126.692 60.2312L126.295 58.741L138.473 55.5762Z" fill="#231F20"/><path d="M139.396 59.3701L139.7 61.3482L129.958 67.0449V67.0845L140.336 65.4757L140.574 67.0054L128.144 68.9307L127.814 66.8339L137.265 61.3086V61.269L127.191 62.8251L126.953 61.2954L139.396 59.3701Z" fill="#231F20"/><path d="M137.08 76.491C138.404 76.4515 139.555 75.9899 139.595 74.4602C139.648 72.3239 137.292 71.9811 134.38 71.9151C131.468 71.8492 129.111 72.0734 129.058 74.2229C129.006 76.3591 131.573 76.5833 133.255 76.6229L133.307 74.1437L134.578 74.1701L134.486 78.0471L127.947 77.902L127.973 76.7416L129.681 76.7811V76.7416C128.608 76.3855 127.761 75.3701 127.788 73.9987C127.867 70.7283 131.031 70.2272 134.406 70.3063C137.583 70.3723 140.932 71.0316 140.852 74.4866C140.773 78.0866 137.689 78.0998 137.04 78.113L137.08 76.491Z" fill="#231F20"/><path d="M72.7645 143.994C112.396 143.994 144.534 111.989 144.534 72.4943C144.534 33.0125 112.409 1.00781 72.7645 1.00781C33.1335 1.00781 1.00781 33.0125 1.00781 72.4943C1.00781 111.976 33.1335 143.994 72.7645 143.994Z" stroke="#231F20" stroke-width="1.0461"/><path d="M16.4355 88.4254C16.8856 90.087 15.8796 91.8145 14.2118 92.2496C12.5439 92.698 10.8231 91.6958 10.3731 90.0342C9.92304 88.3727 10.929 86.6584 12.5969 86.21C14.2647 85.7748 15.9855 86.7639 16.4355 88.4254Z" fill="#231F20"/><path d="M23.0812 97.0996L24.6563 99.8821C25.1991 100.832 26.5624 103.258 23.4253 105.025C21.3869 106.172 19.5072 105.513 18.4615 103.654L17.5217 101.992L12.8888 104.59L12.1211 103.245L23.0812 97.0996ZM18.6336 101.372L19.5337 102.981C20.0896 103.957 21.228 104.405 22.6841 103.588C23.8886 102.915 24.3519 101.913 23.5974 100.581L22.737 99.0645L18.6336 101.372Z" fill="#231F20"/><path d="M26.9749 103.746L29.4767 106.951C30.6945 108.507 30.5356 110.195 28.9737 111.421C27.8883 112.265 26.4587 112.766 25.2806 111.843L25.2541 111.869C25.8233 112.806 25.4924 113.834 24.6849 114.546L23.0568 115.944C21.9979 116.854 21.8655 117.25 21.9052 117.685L20.7536 116.221C20.7933 115.852 21.4684 115.179 21.9317 114.784L23.4142 113.504C24.6982 112.357 24.1952 111.54 23.7187 110.92L22.4347 109.271L18.0136 112.7L17.0605 111.487L26.9749 103.746ZM23.4274 108.467L24.3673 109.667C24.9364 110.392 25.9557 111.698 27.875 110.221C28.8545 109.469 28.9472 108.335 28.0603 107.201L26.922 105.751L23.4274 108.467Z" fill="#231F20"/><path d="M32.1783 110.063L33.2505 111.184L24.1171 119.809L23.0449 118.688L32.1783 110.063Z" fill="#231F20"/><path d="M33.8316 111.896L35.0493 112.95L29.8208 122.682L29.8473 122.709L38.7954 116.194L40.0131 117.249L29.3575 124.634L27.875 123.342L33.8316 111.896Z" fill="#231F20"/><path d="M41.7494 118.215L43.4702 119.375L39.208 131.639L37.871 130.729L39.0624 127.38L35.7399 125.138L33.0264 127.459L31.6895 126.549L41.7494 118.215ZM36.7194 124.268L39.5256 126.167L41.6171 120.259L41.5906 120.232L36.7194 124.268Z" fill="#231F20"/><path d="M43.1891 133.498L41.8125 132.786L46.9616 122.869L44.1554 121.432L44.7908 120.219L51.7931 123.819L51.1577 125.032L48.3382 123.581L43.1891 133.498Z" fill="#231F20"/><path d="M52.2334 123.804L58.3753 125.927L57.9252 127.219L53.2394 125.61L51.9422 129.329L56.35 130.859L55.9 132.151L51.4921 130.621L50.0096 134.868L54.894 136.555L54.4439 137.848L48.1035 135.659L52.2334 123.804Z" fill="#231F20"/><path d="M72.0188 136.108C71.6615 138.455 70.5363 140.539 67.7963 140.301C64.2356 139.985 64.0635 136.596 64.3415 133.457C64.6327 130.306 65.5063 127.022 68.9611 127.339C71.5291 127.563 72.4689 129.092 72.3101 131.558L70.6952 131.413C70.7878 129.989 70.4437 128.75 68.842 128.605C66.6976 128.407 66.2079 130.728 65.9432 133.616C65.6784 136.504 65.7446 138.864 67.889 139.062C69.7686 139.233 70.1922 137.506 70.3775 135.989L72.0188 136.108Z" fill="#231F20"/><path d="M81.591 133.534C81.7764 136.686 81.3925 140.075 77.9377 140.273C74.4696 140.484 73.6887 137.161 73.5034 134.009C73.318 130.857 73.6887 127.468 77.1567 127.27C80.6115 127.059 81.3925 130.382 81.591 133.534ZM75.1182 133.917C75.2903 136.804 75.7139 139.139 77.8583 139.007C80.0026 138.875 80.1482 136.514 79.9762 133.626C79.8041 130.738 79.3805 128.404 77.2361 128.523C75.0785 128.655 74.9329 131.029 75.1182 133.917Z" fill="#231F20"/><path d="M81.7637 127.087L84.3051 126.48L89.0836 135.553L89.1233 135.539L89.2425 125.293L91.7839 124.687L94.7225 136.871L93.2135 137.227L90.6456 126.572L90.6059 126.585L90.4735 137.887L88.9645 138.243L83.683 128.234L83.6433 128.247L86.2112 138.902L84.7022 139.258L81.7637 127.087Z" fill="#231F20"/><path d="M93.041 123.896L95.9796 122.617C96.9856 122.182 99.5535 121.061 100.996 124.358C101.936 126.494 101.089 128.288 99.13 129.132L97.3695 129.897L99.5006 134.749L98.0842 135.369L93.041 123.896ZM96.8665 128.736L98.5608 127.998C99.5932 127.549 100.149 126.455 99.4873 124.938C98.9314 123.685 97.9784 123.118 96.5752 123.738L94.9736 124.437L96.8665 128.736Z" fill="#231F20"/><path d="M101.576 119.634L103.337 118.526L112.907 127.335L111.53 128.192L108.923 125.766L105.521 127.902L106.58 131.305L105.203 132.162L101.576 119.634ZM105.124 126.663L107.983 124.869L103.39 120.597L103.363 120.61L105.124 126.663Z" fill="#231F20"/><path d="M106.25 116.591L107.772 115.286L117.766 120.521L117.792 120.494L110.949 112.556L112.127 111.554L120.334 121.062L118.719 122.446L109.016 117.369L108.99 117.396L115.635 125.097L114.457 126.099L106.25 116.591Z" fill="#231F20"/><path d="M112.787 110.643L113.859 109.522L122.94 118.199L121.868 119.32L112.787 110.643Z" fill="#231F20"/><path d="M114.615 108.732L118.639 103.642L119.725 104.486L116.654 108.363L119.751 110.802L122.65 107.149L123.735 107.993L120.85 111.646L124.397 114.429L127.601 110.393L128.686 111.237L124.53 116.486L114.615 108.732Z" fill="#231F20"/><path d="M124.599 99.9103C123.461 99.2509 122.428 99.1982 121.687 100.477C121.039 101.598 121.25 102.627 122.415 103.286C125.486 105.053 126.625 98.8817 130.609 101.176C133.124 102.627 132.78 104.882 131.88 106.411C130.41 108.943 128.663 108.943 126.347 107.598L127.128 106.266C128.345 106.965 129.709 107.651 130.847 105.686C131.469 104.618 131.178 103.365 130.013 102.693C126.929 100.912 125.738 107.071 121.74 104.763C120.734 104.183 118.987 102.6 120.575 99.8575C121.78 97.7872 123.355 97.4443 125.38 98.5652L124.599 99.9103Z" fill="#231F20"/><path d="M129.071 88.4768C129.561 86.8285 131.308 85.879 132.962 86.3537C134.617 86.8416 135.57 88.5823 135.094 90.2307C134.604 91.8791 132.857 92.8285 131.202 92.3538C129.547 91.8659 128.581 90.1252 129.071 88.4768Z" fill="#231F20"/></svg>