<svg width="997" height="135" fill="none" xmlns="http://www.w3.org/2000/svg"><path d="M909.012 46.6337L925.983 12.56V106.499L889.9 125.819L896 84.1758L896.109 83.4323L895.579 82.8998L866.371 53.5782L907.889 47.4489L908.663 47.3345L909.012 46.6337ZM284.549 3.36456L304.735 43.8945L305.082 44.5916L305.852 44.7087L350.29 51.4681L317.933 83.9521L317.383 84.5037L317.518 85.2704L325.595 131.222L285.257 109.624L284.549 109.245L283.841 109.624L243.406 131.273L250.151 85.2282L250.26 84.4846L249.73 83.9521L217.383 51.4795L263.239 44.7097L264.013 44.5954L264.363 43.8945L284.549 3.36456ZM70.328 3.36456L90.5143 43.8945L90.8615 44.5916L91.6315 44.7087L136.07 51.4681L103.712 83.9521L103.162 84.5037L103.297 85.2704L111.375 131.222L71.036 109.624L70.328 109.245L69.62 109.624L29.1855 131.273L35.9305 85.2282L36.0395 84.4846L35.5091 83.9521L3.1625 51.4795L49.0181 44.7097L49.7927 44.5954L50.1417 43.8945L70.328 3.36456ZM498.77 3.36457L518.956 43.8945L519.303 44.5916L520.073 44.7087L564.511 51.4681L532.153 83.9521L531.604 84.5037L531.739 85.2704L539.816 131.222L499.478 109.624L498.77 109.245L498.062 109.624L457.627 131.273L464.372 85.2281L464.481 84.4846L463.951 83.9521L431.604 51.4795L477.46 44.7097L478.234 44.5954L478.583 43.8945L498.77 3.36457ZM712.991 3.3714L733.177 43.9014L733.524 44.5985L734.294 44.7156L778.732 51.4749L746.374 83.959L745.825 84.5105L745.96 85.2773L754.037 131.228L713.698 109.631L712.99 109.252L712.282 109.631L671.848 131.28L678.593 85.235L678.702 84.4914L678.172 83.959L645.825 51.4863L691.681 44.7166L692.455 44.6022L692.804 43.9014L712.991 3.3714Z" fill="url(#paint0_linear_8864_4535)" stroke="url(#paint1_linear_8864_4535)" stroke-width="3"/><defs><linearGradient id="paint0_linear_8864_4535" x1="-95.5441" y1="145.27" x2="-22.5619" y2="-224.683" gradientUnits="userSpaceOnUse"><stop stop-color="#EE3124"/><stop offset="0.818199" stop-color="#FAAA23"/></linearGradient><linearGradient id="paint1_linear_8864_4535" x1="-95.5441" y1="145.27" x2="-22.5619" y2="-224.683" gradientUnits="userSpaceOnUse"><stop stop-color="#EE3124"/><stop offset="0.818199" stop-color="#FAAA23"/></linearGradient></defs></svg>