<svg width="88" height="102" viewBox="0 0 88 102" fill="none" xmlns="http://www.w3.org/2000/svg">
<g clip-path="url(#clip0_1_303)">
<path d="M82.8375 0.575439C85.6573 0.575439 87.913 2.85211 87.913 5.67185C87.913 8.53336 85.6573 10.81 82.8166 10.81C79.976 10.81 77.6784 8.53336 77.6784 5.67185C77.6784 2.85211 79.976 0.575439 82.8375 0.575439ZM82.8166 1.45269C80.5608 1.45269 78.7437 3.33251 78.7437 5.71362C78.7437 8.07385 80.5608 9.97456 82.8375 9.97456C85.0933 9.99544 86.8896 8.09473 86.8896 5.71362C86.8896 3.33251 85.0933 1.45269 82.8166 1.45269ZM81.8767 8.65868H80.8533V2.97744C81.3337 2.91478 81.8141 2.81034 82.566 2.81034C83.485 2.81034 84.049 2.99832 84.404 3.26985C84.7173 3.5205 84.9053 3.89646 84.9053 4.46041C84.9053 5.19145 84.4249 5.67185 83.8192 5.81806V5.85983C84.3205 5.94338 84.6338 6.40289 84.7382 7.25926C84.8844 8.15739 84.9889 8.49159 85.0724 8.67957H84.0281C83.8819 8.49159 83.7774 7.96941 83.6521 7.21748C83.5477 6.52821 83.1508 6.25668 82.4407 6.25668H81.8767V8.65868ZM81.8767 5.44209H82.4824C83.2344 5.44209 83.861 5.19145 83.861 4.52307C83.861 4.02178 83.5059 3.56227 82.5451 3.56227C82.2527 3.56227 82.0438 3.56227 81.8767 3.58316V5.44209Z" fill="black"/>
<path d="M5.80662 95.1306L4.69961 100.749H0.605774L5.72307 77.3767H10.7568L15.4146 100.749H11.279L10.1929 95.1306H5.80662ZM9.79602 91.8305L8.93966 86.7758C8.68902 85.3137 8.37571 83.0371 8.14596 81.4497H8.04152C7.79088 83.0371 7.4358 85.3764 7.18516 86.7758L6.26613 91.8305H9.79602Z" fill="black"/>
<path d="M28.9494 76.7501V95.9035C28.9494 97.4282 29.0329 99.2871 29.0956 100.749H25.4612L25.2315 98.8067H25.1479C24.5422 100.018 23.2055 101.021 21.6181 101.021C18.1299 101.021 16.4172 97.1776 16.4172 92.3109C16.4172 86.3999 18.9863 83.5175 21.806 83.5175C23.2681 83.5175 24.2289 84.2277 24.7093 85.272H24.772V76.7292H28.9494V76.7501ZM24.7302 90.3058C24.7302 89.9924 24.7302 89.6374 24.6675 89.3032C24.5004 88.1544 23.8947 87.11 22.913 87.11C21.2212 87.11 20.5946 89.5538 20.5946 92.4153C20.5946 95.6946 21.4718 97.5535 22.8504 97.5535C23.477 97.5535 24.208 97.2402 24.584 95.8617C24.6675 95.5901 24.7302 95.2142 24.7302 94.7964V90.3058Z" fill="black"/>
<path d="M37.6383 101.021C33.7533 101.021 31.3304 97.9088 31.3304 92.332C31.3304 86.2539 34.4635 83.5386 37.7427 83.5386C41.565 83.5386 43.967 86.7969 43.967 92.2275C43.967 99.2038 40.2074 101.021 37.68 101.021H37.6383ZM37.7218 97.7835C39.3301 97.7835 39.727 94.7549 39.727 92.2484C39.727 89.8673 39.3301 86.7552 37.6592 86.7552C35.8838 86.7552 35.5078 89.8673 35.5078 92.2484C35.5078 95.1308 35.9673 97.7835 37.7009 97.7835H37.7218Z" fill="black"/>
<path d="M46.3273 76.7502H50.5464V85.5854H50.6091C51.4446 84.2904 52.5516 83.5385 54.139 83.5385C57.3138 83.5385 58.9012 87.1519 58.9012 91.8724C58.9012 97.846 56.5201 101.021 53.4497 101.021C51.9876 101.021 51.006 100.373 50.1287 98.7233H50.0452L49.8154 100.749H46.202C46.2646 99.3499 46.3482 97.4283 46.3482 95.9036V76.7502H46.3273ZM50.5464 94.6921C50.5464 95.1098 50.63 95.5067 50.7135 95.7782C51.1313 97.1985 51.8623 97.5536 52.4263 97.5536C54.0554 97.5536 54.7029 95.4858 54.7029 92.1857C54.7029 89.178 54.0137 87.1102 52.4054 87.1102C51.6117 87.1102 50.9224 87.9874 50.6927 88.9064C50.6091 89.1988 50.5464 89.6584 50.5464 89.9717V94.6921Z" fill="black"/>
<path d="M64.7704 93.6267C64.8122 96.6971 66.4205 97.6788 68.4256 97.6788C69.6997 97.6788 70.7858 97.3864 71.5795 97.094L72.1435 100.123C71.0156 100.603 69.3029 100.916 67.6528 100.916C63.1412 100.916 60.6557 97.825 60.6557 92.5615C60.6557 86.9012 63.5172 83.4966 67.2559 83.4966C70.8694 83.4966 72.8745 86.5043 72.8745 91.4127C72.8745 92.5406 72.8328 93.1672 72.7492 93.6685L64.7704 93.6267ZM69.0104 90.6608C69.0313 88.2797 68.3421 86.6087 67.0053 86.6087C65.4806 86.6087 64.8331 88.8436 64.7913 90.6608H69.0104Z" fill="black"/>
<path d="M45.9304 0.366699H72.8745V64.8655L45.9304 0.366699Z" fill="#ED1C24"/>
<path d="M26.965 0.366699H0V64.8655L26.965 0.366699Z" fill="#ED1C24"/>
<path d="M24.6675 51.8947L36.4477 24.136L53.6168 64.8655H42.3796L37.2414 51.8947H24.6675Z" fill="#ED1C24"/>
</g>
<defs>
<clipPath id="clip0_1_303">
<rect width="87.8922" height="100.654" fill="white" transform="translate(0 0.366699)"/>
</clipPath>
</defs>
</svg>
