<svg width="187" height="29" viewBox="0 0 187 29" fill="none" xmlns="http://www.w3.org/2000/svg">
<g clip-path="url(#clip0_1203_9)">
<path d="M187 0H0V29H187V0Z" fill="#ED1A3B"/>
<path fill-rule="evenodd" clip-rule="evenodd" d="M164.753 17.4183C165.519 20.5183 168.163 21.7716 171.137 21.7716C174.11 21.7716 177.455 20.3956 177.455 16.963C177.481 16.2152 177.299 15.4748 176.927 14.8269C176.555 14.1791 176.01 13.65 175.354 13.3003C174.075 12.7332 172.724 12.3476 171.34 12.1544C170.832 12.0265 169.772 11.8833 169.772 11.1313C169.772 10.3793 170.599 10.231 171.177 10.231C172.273 10.231 173.06 10.6044 173.471 11.6633L177.064 10.5635C176.196 8.08245 173.826 7.06446 171.365 7.06446C169.935 7.00877 168.521 7.38653 167.305 8.14896C166.742 8.55755 166.284 9.09545 165.968 9.71815C165.652 10.3408 165.488 11.0304 165.489 11.7298C165.489 15.1266 168.645 15.853 171.314 16.3747C171.949 16.4975 173.05 16.6663 173.05 17.5411C173.05 18.3289 171.933 18.4158 171.375 18.4158C170.117 18.4158 169.168 17.9554 168.792 16.6868L164.763 17.4183" fill="white"/>
<path fill-rule="evenodd" clip-rule="evenodd" d="M160.419 7.26904H154.695L152.751 14.8503L150.681 7.26904H145.007V21.5567H148.27V11.3512L150.975 21.5567H153.746L156.329 11.3512L156.364 21.5567H160.419V7.26904Z" fill="white"/>
<path fill-rule="evenodd" clip-rule="evenodd" d="M139.659 18.1449H133.275V15.8327H138.446V12.6508H133.275V10.5586H139.659V7.27441H129.022V21.557H139.659V18.1449Z" fill="white"/>
<path fill-rule="evenodd" clip-rule="evenodd" d="M121.334 10.7067H124.247V7.26904H114.23V10.7067H117.209V21.5567H121.334V10.7067Z" fill="white"/>
<path fill-rule="evenodd" clip-rule="evenodd" d="M97.6206 17.4182C98.3869 20.5182 101.026 21.7715 104.004 21.7715C106.983 21.7715 110.322 20.3954 110.322 16.9629C110.349 16.2144 110.166 15.4734 109.793 14.8254C109.421 14.1774 108.874 13.6487 108.216 13.3002C106.939 12.7331 105.59 12.3475 104.207 12.1543C103.7 12.0264 102.639 11.8832 102.639 11.1312C102.639 10.3792 103.467 10.2309 104.03 10.2309C105.126 10.2309 105.913 10.6043 106.324 11.6632L109.916 10.5634C109.054 8.08234 106.679 7.06435 104.218 7.06435C102.787 7.00929 101.373 7.38699 100.158 8.14884C99.5966 8.55919 99.1395 9.09746 98.8238 9.71975C98.508 10.3421 98.3427 11.0308 98.3412 11.7297C98.3412 15.1264 101.503 15.8528 104.162 16.3746C104.806 16.4974 105.902 16.6662 105.902 17.541C105.902 18.3288 104.791 18.4157 104.228 18.4157C102.974 18.4157 102.02 17.9553 101.645 16.6867L97.6206 17.4182Z" fill="white"/>
<path fill-rule="evenodd" clip-rule="evenodd" d="M95.1239 7.26904H91.318L88.9481 11.9753L86.4666 7.26904H81.6914L86.4666 15.5204V21.5567H90.6836V15.5204L95.1239 7.26904Z" fill="white"/>
<path fill-rule="evenodd" clip-rule="evenodd" d="M66.0107 17.4185C66.777 20.5185 69.4209 21.7718 72.3946 21.7718C75.3683 21.7718 78.7176 20.3957 78.7176 16.9632C78.7478 16.216 78.5675 15.4754 78.1975 14.8272C77.8275 14.179 77.2829 13.6496 76.6269 13.3005C75.3513 12.7334 74.0038 12.3478 72.623 12.1546C72.0851 12.0267 71.0498 11.8835 71.0498 11.1315C71.0498 10.3795 71.8567 10.2312 72.4403 10.2312C73.5313 10.2312 74.3179 10.6046 74.734 11.6635L78.3218 10.5637C77.4591 8.08263 75.0791 7.06463 72.623 7.06463C71.1925 7.008 69.7782 7.38582 68.5633 8.14913C68.0004 8.55834 67.5419 9.09625 67.2252 9.71871C66.9085 10.3412 66.7427 11.0305 66.7415 11.73C66.7415 15.1267 69.903 15.8531 72.5672 16.3749C73.2066 16.4977 74.3027 16.6665 74.3027 17.5413C74.3027 18.3291 73.1812 18.416 72.628 18.416C71.3695 18.416 70.4155 17.9556 70.0451 16.687L66.0158 17.4185" fill="white"/>
<path fill-rule="evenodd" clip-rule="evenodd" d="M55.1765 18.1449H48.7926V15.8327H53.9484V12.6508H48.7926V10.5586H55.1765V7.27441H44.5299V21.557H55.1765V18.1449Z" fill="white"/>
<path fill-rule="evenodd" clip-rule="evenodd" d="M35.4869 21.5567H39.9221L35.4869 7.26904H30.8944L26.4998 21.5567H30.0368L30.8944 18.7534H34.6801L35.4869 21.5567Z" fill="white"/>
<path fill-rule="evenodd" clip-rule="evenodd" d="M10.6923 21.557H17.1878C18.4666 21.557 19.9991 21.557 21.0851 20.7487C22.1711 19.9405 22.5415 18.6463 22.5415 17.4185C22.5588 16.6305 22.2881 15.8636 21.781 15.2637C21.2738 14.6638 20.5656 14.2728 19.7911 14.165C20.4843 13.9918 21.0989 13.587 21.5347 13.0167C21.9706 12.4463 22.202 11.744 22.1914 11.0241C22.1886 10.4355 22.0495 9.85564 21.7852 9.33077C21.5209 8.80589 21.1387 8.35049 20.669 8.00082C19.7758 7.35115 18.6797 7.27441 17.6242 7.27441H10.6923V21.557Z" fill="white"/>
<path fill-rule="evenodd" clip-rule="evenodd" d="M31.62 15.6282L32.7719 11.4795L33.9391 15.6282H31.62Z" fill="#ED1A3B"/>
<path fill-rule="evenodd" clip-rule="evenodd" d="M14.6809 12.7583V10.3335H16.3758C17.2081 10.3335 18.0708 10.4767 18.0708 11.5459C18.0689 11.7211 18.0315 11.8941 17.9608 12.0543C17.8901 12.2144 17.7876 12.3582 17.6597 12.4769C17.3023 12.7194 16.8683 12.8197 16.4418 12.7583H14.6809Z" fill="#ED1A3B"/>
<path fill-rule="evenodd" clip-rule="evenodd" d="M14.6809 18.3751V15.7917H16.4012C16.8294 15.7607 17.2591 15.8254 17.6597 15.981C17.8496 16.0772 18.0117 16.2212 18.1301 16.3991C18.2485 16.5769 18.3193 16.7827 18.3357 16.9963C18.352 17.2099 18.3133 17.4241 18.2233 17.6182C18.1334 17.8122 17.9951 17.9796 17.8221 18.104C17.4467 18.3393 17.0016 18.4352 16.5636 18.3751H14.6809Z" fill="#ED1A3B"/>
</g>
<defs>
<clipPath id="clip0_1203_9">
<rect width="187" height="29" fill="white"/>
</clipPath>
</defs>
</svg>
