<svg width="118" height="63" viewBox="0 0 118 63" fill="none" xmlns="http://www.w3.org/2000/svg">
<g clip-path="url(#clip0_1_362)">
<path d="M38.2188 41.7048H33.096V62.0598H38.2188V41.7048Z" fill="#129FDA"/>
<path d="M79.5636 47.5811C78.2325 46.8541 76.7401 46.4705 75.2073 46.4705C72.1215 46.4705 69.6409 48.9542 69.6409 52.0438C69.6409 55.1132 72.1417 57.6172 75.2073 57.6172C76.7199 57.597 78.2123 57.2335 79.5636 56.5066V62.08C78.051 62.5444 76.4577 62.7867 74.8846 62.8069C69.0761 63.231 64.0341 58.8692 63.6106 53.0535C63.187 47.2378 67.5434 42.1895 73.3518 41.7654C73.856 41.725 74.3804 41.725 74.8846 41.7654C76.4779 41.7654 78.051 42.0077 79.5636 42.4924V47.5811Z" fill="#129FDA"/>
<path d="M26.017 47.5811C24.7061 46.8339 23.2338 46.4503 21.7212 46.4705C18.6355 46.4705 16.1548 48.9542 16.1548 52.0438C16.1548 55.1132 18.6556 57.6172 21.7212 57.6172C23.2136 57.6172 24.7061 57.2335 26.017 56.5066V62.08C24.5044 62.5444 22.9313 62.7867 21.338 62.8069C15.5296 63.231 10.4875 58.8692 10.064 53.0535C9.64045 47.2378 13.9968 42.1895 19.8052 41.7654C20.3094 41.725 20.8338 41.725 21.338 41.7654C22.9313 41.7654 24.5044 42.0077 26.017 42.4924V47.5811Z" fill="#129FDA"/>
<path d="M106.428 51.8621C106.589 57.799 101.89 62.7464 95.9603 62.9079C90.0309 63.0493 85.0897 58.3644 84.9283 52.4275C84.767 46.4907 89.4662 41.5433 95.3956 41.3818C95.4763 41.3818 95.5771 41.3818 95.678 41.3818C101.426 41.2 106.246 45.7233 106.428 51.4785C106.428 51.5996 106.428 51.741 106.428 51.8621ZM95.678 46.2888C92.6124 46.1474 89.9905 48.51 89.8292 51.5794C89.6678 54.6488 92.0477 57.274 95.1132 57.4355C98.1788 57.5971 100.801 55.2142 100.962 52.1448C100.962 52.0439 100.962 51.9631 100.962 51.8621C101.144 48.9745 98.9452 46.4705 96.0612 46.2888C95.9401 46.2888 95.799 46.2888 95.678 46.2888Z" fill="#129FDA"/>
<path d="M57.681 46.3493C56.3701 45.9858 55.0188 45.7839 53.6676 45.7435C51.6104 45.7435 50.5012 46.4098 50.5012 47.4195C50.5012 48.4292 52.0138 49.0956 52.8407 49.3177L54.2323 49.7619C57.0155 50.3476 59.0122 52.791 59.0727 55.618C59.0727 60.6866 54.6155 62.4232 50.6625 62.4232C48.7869 62.403 46.9314 62.2213 45.0961 61.8578V57.1729C46.6692 57.6374 48.3028 57.8999 49.9365 57.9605C52.4978 57.9605 53.6676 57.1729 53.6676 56.0623C53.6676 54.9517 52.6188 54.4468 51.3886 54.0026L50.1583 53.6795C47.2138 53.1948 45.0154 50.6908 44.9146 47.7022C44.9146 43.9059 47.7583 41.3413 52.4978 41.3413C54.192 41.3615 55.8659 41.5836 57.5197 42.0077L57.681 46.3493Z" fill="#129FDA"/>
<path d="M5.08238 19.8353C5.00171 18.5025 3.91263 17.4524 2.56136 17.4524C1.21009 17.4322 0.0806728 18.4823 0 19.8353V25.4086C0.0403364 26.802 1.16975 27.9126 2.56136 27.9126C3.95297 27.9126 5.06222 26.7818 5.06222 25.4086V19.8353H5.08238Z" fill="#129FDA"/>
<path d="M19.059 12.8079C18.8573 11.4146 17.5464 10.4453 16.1547 10.6472C15.0253 10.829 14.1581 11.6973 13.9766 12.8079V25.1865C14.1783 26.5798 15.4892 27.5491 16.8808 27.3472C17.9901 27.1856 18.8775 26.2971 19.0388 25.1865V12.8079H19.059Z" fill="#129FDA"/>
<path d="M33.0556 3.27665C33.0556 1.84292 31.8859 0.691895 30.4539 0.691895C29.022 0.691895 27.8724 1.84292 27.8724 3.27665V30.2752C28.0741 31.6887 29.385 32.6378 30.7766 32.4359C31.8859 32.2744 32.7733 31.3858 32.9346 30.2752L33.0556 3.27665Z" fill="#129FDA"/>
<path d="M47.0322 12.8079C46.8306 11.4146 45.5196 10.4453 44.128 10.6472C43.0188 10.8088 42.1314 11.6973 41.97 12.8079V25.1865C42.1717 26.5798 43.4826 27.5491 44.8742 27.3472C45.9835 27.1856 46.8709 26.2971 47.0322 25.1865V12.8079Z" fill="#129FDA"/>
<path d="M61.2911 19.8353C61.2104 18.4217 60.0003 17.3313 58.5886 17.4323C58.5482 17.4323 58.5079 17.4323 58.4474 17.4525C57.0558 17.4525 55.9465 18.5833 55.9465 19.9564V25.5298C55.9465 26.9232 57.0759 28.0338 58.4474 28.0338C59.8592 28.1953 61.1297 27.1857 61.2911 25.7721C61.3113 25.5702 61.3113 25.3683 61.2911 25.1865V19.8353Z" fill="#129FDA"/>
<path d="M75.0056 12.8082C74.8039 11.4148 73.4929 10.4455 72.1013 10.6475C70.9921 10.809 70.1047 11.6975 69.9433 12.8082V25.1867C70.145 26.58 71.4559 27.5493 72.8476 27.3474C73.9568 27.1858 74.8442 26.2973 75.0056 25.1867V12.8082Z" fill="#129FDA"/>
<path d="M89.1636 3.27675C89.3653 1.8834 88.3972 0.570831 87.0056 0.368897C85.614 0.166963 84.3031 1.13625 84.1014 2.52959C84.0611 2.77191 84.0611 3.03442 84.1014 3.27675V30.2753C84.3031 31.6888 85.614 32.6379 87.0056 32.436C88.1149 32.2745 89.0023 31.3859 89.1636 30.2753V3.27675Z" fill="#129FDA"/>
<path d="M102.979 12.8079C102.979 11.4146 101.849 10.304 100.478 10.304C100.417 10.304 100.357 10.304 100.296 10.304C98.9049 10.304 97.7755 11.4146 97.7351 12.8079V25.1865C97.7755 26.5798 98.9049 27.6905 100.296 27.6905C101.688 27.7308 102.818 26.6202 102.858 25.2269V25.1663L102.979 12.8079Z" fill="#129FDA"/>
<path d="M117.016 19.8354C116.935 18.4623 115.766 17.4122 114.394 17.4324C113.002 17.4324 111.893 18.5632 111.893 19.9364V25.5098C111.893 26.9031 113.023 28.0138 114.394 28.0138C115.806 28.0541 116.976 26.9435 117.036 25.53C117.036 25.4088 117.036 25.2876 117.016 25.1867V19.8354Z" fill="#129FDA"/>
<path d="M114.011 59.394V59.6767H113.103V62.0798H112.72V59.6767H111.833V59.394H114.011Z" fill="#129FDA"/>
<path d="M114.172 59.394H114.777L115.564 61.5749H115.624L116.35 59.394H116.955V62.0798H116.572V59.8383H116.512L115.725 62.0798H115.342L114.555 59.8383V62.0798H114.172V59.394Z" fill="#129FDA"/>
</g>
<defs>
<clipPath id="clip0_1_362">
<rect width="117.036" height="62.5793" fill="white" transform="translate(0 0.328613)"/>
</clipPath>
</defs>
</svg>
