<svg width="168" height="60" viewBox="0 0 168 60" fill="none" xmlns="http://www.w3.org/2000/svg">
<path d="M83.5211 2.96992C84.1371 1.96282 85.1592 0.909065 86.2597 0.463381C88.154 -0.399557 90.6929 -0.0284601 92.2384 1.33702C93.734 2.69364 94.4926 4.55297 94.1347 6.63172C94.5015 6.56399 94.8718 6.32885 95.2601 6.19506C97.5816 5.539 100.037 6.25042 101.525 8.24337C102.644 9.66605 102.936 11.8764 102.265 13.5951C101.932 14.4595 101.363 15.2368 100.625 15.9001L100.699 15.975C102.859 16.0801 104.982 17.7594 105.637 19.8184C106.347 21.8954 105.722 24.1147 104.205 25.6337C102.966 26.8603 101.372 27.2847 99.601 27.2489H67.4399C64.7992 27.3059 62.7588 26.1346 61.6603 23.7834C60.7984 21.7652 61.224 19.184 62.8335 17.6455C63.8483 16.5829 65.1197 16.1478 66.4907 15.9287C64.9382 14.4865 64.1902 12.5131 64.6265 10.3969C64.9382 8.68203 66.3982 6.94562 68.0753 6.34658C69.553 5.75824 71.5545 5.86159 72.9077 6.66015L72.9558 6.60128C72.5481 4.26767 73.5808 2.16233 75.5142 0.871604C77.2379 -0.295871 79.994 -0.265768 81.6818 0.975291C82.4405 1.44037 83.0653 2.23909 83.5211 2.96992Z" fill="white"/>
<path d="M92.6263 3.84171C93.3173 5.23763 92.9114 7.06669 92.1902 8.31996L86.6101 20.8899L86.5619 20.9488L84.5449 8.19704C84.383 6.97253 85.6897 6.45009 86.4588 5.86175C86.4197 5.68181 86.222 5.69067 86.0975 5.60688L84.2121 5.58715L84.1548 5.53012C84.1655 3.94707 85.0167 2.48525 86.4588 1.71697C87.9654 0.845336 90.0875 1.08231 91.3943 2.20012C91.9249 2.67406 92.3719 3.22477 92.6263 3.84171Z" fill="#645FAA"/>
<path d="M82.3457 3.40508C82.8017 4.25012 83.0652 5.20939 82.9049 6.27167L80.6295 20.8722C80.6418 20.89 80.6206 20.9097 80.6026 20.9184L80.0133 19.7437L74.3103 6.99196C73.7797 5.35003 74.2712 3.63335 75.4658 2.45651C76.6694 1.23368 78.6494 0.902051 80.2234 1.56531C81.0567 1.92554 81.8526 2.5888 82.3457 3.40508Z" fill="#C9234A"/>
<path d="M100.881 9.55169C101.648 10.8618 101.476 12.8444 100.623 14.0602C100.094 14.9141 99.2214 15.3402 98.4824 15.9L86.6656 24.0218H86.6385L86.7705 23.6333L93.0344 9.47693C93.9727 7.80825 95.7639 6.9632 97.6583 7.21807C98.9563 7.45538 100.254 8.30026 100.881 9.55169Z" fill="#0089CF"/>
<path d="M74.0364 9.47682L80.5548 24.0202H80.4499L67.3082 14.9515C65.9709 13.8231 65.4227 12.133 65.8767 10.4252C66.2167 9.14519 67.2778 7.94911 68.5402 7.47466C70.6072 6.71708 72.9359 7.52283 74.0364 9.47682Z" fill="#F36F21"/>
<path d="M104.31 19.8185C104.965 21.2037 104.707 23.1005 103.771 24.2787C102.841 25.4073 101.598 26.0241 100.14 25.9848L86.1276 25.9938L97.8662 17.8166C99.0131 17.0768 100.756 16.9428 102.008 17.5419C102.975 17.9217 103.884 18.8701 104.31 19.8185Z" fill="#0DB14B"/>
<path d="M62.8158 19.8185C62.1625 21.2037 62.4188 23.1005 63.3571 24.2787C64.2865 25.4073 65.5256 26.0241 66.9858 25.9848L80.9982 25.9938L69.2595 17.8166C68.1129 17.0768 66.37 16.9428 65.1199 17.5419C64.1528 17.9217 63.2432 18.8701 62.8158 19.8185Z" fill="#FDB913"/>
<path d="M37.6539 34.3921C30.8454 34.3921 25.3118 39.9363 25.3118 46.7535C25.3118 53.5689 30.8454 59.1164 37.6539 59.1164C44.4626 59.1164 49.9999 53.5689 49.9999 46.7535C49.9999 39.9365 44.4626 34.3921 37.6539 34.3921ZM37.6539 56.6813C32.1861 56.6813 27.7367 52.2266 27.7367 46.7537C27.7367 41.2822 32.1861 36.8274 37.6539 36.8274C43.1219 36.8274 47.5713 41.2824 47.5713 46.7537C47.5713 52.2266 43.1219 56.6813 37.6539 56.6813Z" fill="black"/>
<path d="M144.099 46.9102C143.436 46.5623 139.407 44.4856 138.828 44.1844C136.715 43.1022 135.965 42.1466 135.965 40.528C135.965 38.2783 137.81 36.8253 140.671 36.8253C142.35 36.8253 143.974 37.5652 144.926 38.1017C145.099 38.1962 145.304 38.2497 145.518 38.2497C146.184 38.2497 146.73 37.7025 146.73 37.0357C146.73 36.5865 146.484 36.1923 146.123 35.982C144.923 35.3115 142.877 34.3936 140.671 34.3936C136.467 34.3936 133.535 36.9141 133.535 40.528C133.535 43.7708 135.664 45.3004 137.748 46.3665C138.331 46.6642 142.407 48.7677 143.018 49.0903C144.627 49.9335 145.518 51.1993 145.518 52.6559C145.518 54.6079 143.865 56.683 140.808 56.683C137.835 56.683 135.526 54.6863 134.888 54.0713L134.698 53.8893L132.901 55.5294L133.111 55.7398C133.909 56.5316 136.825 59.1163 140.808 59.1163C145.274 59.1163 147.943 55.8307 147.943 52.6559C147.943 50.285 146.543 48.1899 144.099 46.9102Z" fill="black"/>
<path d="M12.3425 36.8272C14.9936 36.8272 17.4845 37.8614 19.354 39.7313C19.7991 40.1751 20.6359 40.1751 21.0739 39.7313C21.3054 39.5048 21.4282 39.2001 21.4282 38.8738C21.4282 38.5511 21.3054 38.2427 21.0739 38.0163L20.9244 37.8629C18.6132 35.6238 15.5633 34.3921 12.3425 34.3921C5.5373 34.3921 0 39.9381 0 46.7517C0 53.569 5.5373 59.1166 12.3425 59.1166C15.9353 59.1166 19.1723 57.5732 21.4282 55.1126L19.7099 53.3906C17.8939 55.4086 15.2658 56.6815 12.3424 56.6815C6.8762 56.6815 2.42675 52.225 2.42675 46.7518C2.42691 41.284 6.87637 36.8272 12.3425 36.8272Z" fill="black"/>
<path d="M96.0307 36.8272C98.6784 36.8272 101.173 37.8614 103.042 39.7313C103.485 40.1751 104.322 40.1751 104.76 39.7313C104.992 39.5048 105.12 39.2001 105.12 38.8738C105.12 38.5511 104.992 38.2427 104.76 38.0163L104.613 37.8629C102.296 35.6238 99.2498 34.3921 96.0307 34.3921C89.224 34.3921 83.6847 39.938 83.6847 46.7515C83.6847 53.5688 89.224 59.1164 96.0307 59.1164C99.6217 59.1164 102.859 57.573 105.118 55.1124L103.398 53.3904C101.582 55.4084 98.9503 56.6813 96.0307 56.6813C90.5627 56.6813 86.1114 52.2248 86.1114 46.7516C86.1114 41.284 90.5627 36.8272 96.0307 36.8272Z" fill="black"/>
<path d="M75.119 34.3921C74.6632 34.3921 74.3034 34.6863 74.1075 35.0659C73.9081 35.4455 66.8432 52.9429 66.8415 52.9429C66.8415 52.9429 59.7766 35.4453 59.5788 35.0659C59.3812 34.6861 59.0218 34.3921 58.566 34.3921C58.0335 34.3921 57.633 34.7843 57.4923 35.2783C57.3517 35.7755 53.3652 57.7971 53.3652 57.7971C53.3509 57.8686 53.3439 57.9436 53.3439 58.02C53.3439 58.6259 53.8371 59.1164 54.4389 59.1164C54.9731 59.1164 55.4182 58.7351 55.5142 58.2305L58.9665 39.3891C58.9665 39.3891 65.6274 55.8648 65.8214 56.2568C66.0174 56.6473 66.3805 56.9522 66.8435 56.9522C67.3063 56.9522 67.6679 56.6473 67.8618 56.2568C68.0578 55.8647 74.7185 39.3891 74.7185 39.3891L78.306 58.9809H80.5355C80.5355 58.9809 76.3353 35.7753 76.1947 35.2783C76.0518 34.7843 75.6511 34.3921 75.119 34.3921Z" fill="black"/>
<path d="M119.011 34.3936C118.55 34.3919 118.193 34.6931 117.991 35.0853C117.792 35.4757 108.849 57.5922 108.849 57.5922C108.795 57.7222 108.765 57.8668 108.765 58.02C108.765 58.6259 109.255 59.1181 109.86 59.1181C110.321 59.1181 110.716 58.8293 110.879 58.4211L114.35 49.8696H123.674L127.378 58.9808H129.744C129.744 58.9808 120.226 35.4756 120.03 35.0851C119.836 34.6931 119.474 34.3919 119.011 34.3936ZM115.34 47.4358L119.011 38.3974L122.686 47.4358H115.34Z" fill="black"/>
<path d="M165.853 34.5239H152.107C151.438 34.5239 150.895 35.0696 150.895 35.7416C150.895 36.41 151.438 36.9555 152.107 36.9555H157.869V58.9791H160.095V36.9557H165.853C166.522 36.9557 167.071 36.4102 167.071 35.7417C167.071 35.0696 166.522 34.5239 165.853 34.5239Z" fill="black"/>
</svg>
