<svg width="143" height="76" viewBox="0 0 143 76" fill="none" xmlns="http://www.w3.org/2000/svg">
<g clip-path="url(#clip0_1210_140)">
<path d="M125.969 30.9832C125.783 29.8214 122.221 30.0538 121.848 29.1244C121.476 28.5552 122.418 27.9627 121.848 27.4399C121.103 26.6848 118.856 27.0682 117.925 27.0682C117.168 27.0682 110.242 27.6258 110.056 28.3693C109.311 27.8117 109.497 27.6258 110.056 27.0682C110.614 26.5105 113.804 24.826 114.363 24.0709C114.922 23.3158 115.108 23.5133 116.237 22.7698C117.168 22.0147 120.544 19.2149 120.358 18.1229C120.358 16.9612 118.856 16.6243 118.856 15.8808C118.856 14.9398 121.662 12.5118 121.848 11.9541C122.034 9.52612 123.722 8.78262 122.791 8.03912C121.86 7.29562 116.97 8.9685 116.423 8.59675C115.81 8.36782 115.184 8.17388 114.549 8.01588C112.861 8.20176 110.998 11.745 109.683 11.5011C108.752 11.3152 108.938 9.25893 107.809 9.07305C107.501 9.08619 107.202 9.17871 106.941 9.3416C106.68 9.50449 106.465 9.73218 106.319 10.0024C105.935 11.0916 105.363 12.1058 104.631 12.9997C104.258 13.3714 103.886 17.1006 100.696 19.3427C100.137 18.7851 102.943 16.9147 102.757 15.4277C102.757 14.6726 103.129 14.8584 103.129 14.266C103.129 13.8942 103.513 12.3956 103.327 12.0238C102.757 10.6298 102.012 10.8156 101.639 10.4555C101.514 9.77726 101.451 9.08893 101.453 8.39925C101.836 7.31995 101.963 6.16689 101.825 5.03025C101.639 4.64688 100.324 4.64688 100.114 4.27513C100.206 2.98666 99.9569 1.69673 99.3923 0.53438C99.0197 -0.209123 98.2281 -0.209123 97.518 0.720256C96.7536 1.51643 95.9411 2.2652 95.085 2.96238C94.8216 3.12028 94.5997 3.33861 94.4377 3.59925C94.2757 3.85988 94.1784 4.15531 94.1537 4.46101C94.0655 5.57242 93.7443 6.65294 93.2108 7.63251C92.8383 7.81839 90.5915 6.14551 89.8465 7.26076C89.4625 7.86445 89.3289 8.59354 89.474 9.29378C89.3806 10.1004 89.3806 10.9151 89.474 11.7218C89.8076 12.7981 90.1962 13.8566 90.6381 14.8933C91.0106 15.4625 92.1398 16.5778 91.9536 17.1354C91.581 17.8905 93.1177 19.1917 93.1177 19.5634C92.9314 19.9468 93.1177 20.1327 93.1177 20.3185C92.5589 20.8762 91.9536 20.6903 91.4297 20.5044C88.0654 19.1917 85.0736 18.634 83.7582 19.9468C84.1307 23.432 86.75 22.5607 87.5066 24.2336C88.0654 24.9887 87.8792 26.2898 88.0654 26.6616C88.4379 28.1602 92.0001 28.7178 91.6276 29.8447C91.2434 30.7741 92.5589 31.3317 93.4902 31.0064H94.6543L88.8337 24.4775L96.5053 31.0064L97.2619 6.91225L98.1932 31.0064L117.855 12.5118L99.206 32.11L116.423 32.8535L98.9615 33.7829L107.099 42.7514L99.2409 35.8392C99.0547 37.7096 98.8684 40.3234 101.301 42.3797C102.605 44.4359 102.791 45.1794 104.107 45.7487C104.666 45.9229 105.597 47.9792 106.912 47.7933C107.285 47.7933 109.718 42.7514 106.54 36.5943C110.277 37.8954 112.361 40.3234 113.094 40.6952C114.072 41.0175 115.072 41.2699 116.086 41.4503C117.576 42.0079 119.264 42.3797 119.45 41.8221C120.614 40.1376 119.636 39.2082 120.02 38.6389C120.405 38.0697 124.13 38.8364 124.316 38.4531C126.041 36.5001 127.921 34.6896 129.939 33.0394C128.775 32.2959 126.19 31.169 126.004 30.9832" fill="#803208"/>
<path d="M96.4005 36.2227L97.1455 44.436L97.8905 36.2227H96.4005Z" fill="#803208"/>
<path d="M93.9675 32.1099L37.438 32.8534L93.9675 33.7944V32.1099Z" fill="#803208"/>
<path d="M94.5262 34.5381L82.3612 47.805L95.6438 35.6533L94.5262 34.5381Z" fill="#803208"/>
<path d="M11.7925 69.2738C10.458 69.9414 8.97721 70.2649 7.48526 70.2148C2.99177 70.2148 -5.58887e-06 67.2292 -5.58887e-06 62.5591C-0.0568963 61.4894 0.112121 60.4197 0.496088 59.4195C0.880055 58.4192 1.4704 57.5106 2.22884 56.7526C2.98728 55.9946 3.89689 55.4042 4.89868 55.0195C5.90048 54.6349 6.97209 54.4647 8.04404 54.5199C9.3931 54.4925 10.7331 54.7457 11.9787 55.2634L11.2337 57.5056C10.2579 56.9733 9.15519 56.7162 8.04404 56.7621C4.67974 56.7621 2.80551 59.3759 2.80551 62.3732C2.80551 65.9164 5.05226 67.9727 8.04404 67.9727C9.21181 67.9886 10.3674 67.7341 11.42 67.2292L11.7925 69.2738Z" fill="black"/>
<path d="M21.152 70.2144C17.031 70.2144 14.0392 67.2288 14.0392 62.5587C14.0392 57.5052 17.2173 54.5195 21.3383 54.5195C25.8317 54.5195 28.6373 57.7027 28.6373 62.1753C28.6373 67.7864 24.7025 70.2144 21.152 70.2144ZM21.3383 68.1582C23.9575 68.1582 25.8317 65.7302 25.8317 62.3495C25.8317 59.7241 24.5163 56.5409 21.3383 56.5409C18.1602 56.5409 16.8448 59.5266 16.8448 62.3495C16.8448 65.7069 18.5327 68.1582 21.3383 68.1582Z" fill="black"/>
<path d="M32.5952 59.7473C32.6334 58.1263 32.5712 56.5046 32.409 54.8913H35.0282V57.5052H35.2145C35.731 56.5774 36.4924 55.8086 37.4159 55.2822C38.3394 54.7559 39.3898 54.4921 40.453 54.5195C44.2015 54.5195 46.8207 57.7026 46.8207 62.1753C46.8207 67.6005 43.631 70.2144 40.0805 70.2144C39.1759 70.278 38.2703 70.1046 37.4535 69.7113C36.6367 69.318 35.9371 68.7185 35.424 67.9723V75.9998H32.5952V59.7473ZM35.3775 63.8946V65.0564C35.6355 65.9545 36.1747 66.7468 36.9161 67.3174C37.6575 67.888 38.5624 68.2071 39.4984 68.2279C42.4902 68.2279 44.1549 65.7999 44.1549 62.4192C44.1549 59.422 42.4669 56.8081 39.6614 56.8081C38.6896 56.8058 37.7472 57.1405 36.9955 57.7551C36.2438 58.3697 35.7294 59.2258 35.5404 60.1771C35.3795 60.542 35.3154 60.9421 35.3542 61.3388L35.3775 63.8946Z" fill="black"/>
<path d="M50.7205 59.7476V54.8916H53.1535L53.3398 57.5055C53.8572 56.5759 54.6204 55.8059 55.5462 55.2795C56.472 54.753 57.5248 54.4902 58.5899 54.5198C62.3267 54.5198 65.1323 57.703 65.1323 62.1756C65.1323 67.6008 61.768 70.2147 58.1476 70.2147C57.2434 70.2748 56.339 70.0999 55.5228 69.7069C54.7067 69.3139 54.0066 68.7163 53.4911 67.9726V76.0001H50.7205V59.7476ZM53.5493 63.8949C53.5141 64.2927 53.5823 64.6928 53.7472 65.0567C53.9369 65.9544 54.4304 66.7596 55.1448 67.3371C55.8592 67.9146 56.7509 68.2293 57.6703 68.2282C60.662 68.2282 62.3267 65.8002 62.3267 62.4196C62.3267 59.4223 60.8367 56.8084 57.8332 56.8084C56.8704 56.834 55.9435 57.1791 55.1993 57.7893C54.4551 58.3994 53.9359 59.2398 53.7239 60.1774C53.5548 60.54 53.4864 60.9412 53.526 61.3391L53.5493 63.8949Z" fill="black"/>
<path d="M70.7549 62.9304C70.7047 63.6298 70.8058 64.3318 71.0513 64.9888C71.2968 65.6457 71.681 66.2424 72.1779 66.7382C72.6747 67.234 73.2725 67.6174 73.9309 67.8624C74.5892 68.1074 75.2926 68.2083 75.9935 68.1582C77.4261 68.2261 78.8503 67.9049 80.1144 67.2288L80.6732 69.2734C79.0569 69.8784 77.3471 70.1968 75.6209 70.2144C70.9645 70.2144 68.1357 67.2288 68.1357 62.7445C68.1357 58.0976 70.7549 54.5195 75.2484 54.5195C80.1144 54.5195 81.4182 58.8179 81.4182 61.6177V62.9304H70.7549ZM78.799 60.8742C78.799 59.1897 78.054 56.5758 75.0622 56.5758C73.9327 56.6162 72.8605 57.082 72.0614 57.8795C71.2622 58.677 70.7954 59.747 70.7549 60.8742H78.799Z" fill="black"/>
<path d="M85.1667 59.5614V54.9145H87.5997V57.9118H87.786C87.9982 56.9594 88.5263 56.1063 89.2847 55.4907C90.0432 54.8751 90.9876 54.5329 91.9652 54.5195H92.7102V57.1334H91.7789C89.9047 57.1334 88.5892 58.632 88.2167 60.6883C88.0558 61.0532 87.9917 61.4532 88.0305 61.85V69.8891H85.1667V59.5614Z" fill="black"/>
<path d="M98.6355 47.7935H95.83V70.0172H98.6355V47.7935Z" fill="black"/>
<path d="M105.189 62.9304C105.376 66.4156 107.622 68.1582 110.428 68.1582C111.861 68.2278 113.285 67.9065 114.549 67.2288L115.108 69.2734C113.497 69.8978 111.784 70.2169 110.055 70.2144C105.399 70.2144 102.57 67.2288 102.57 62.7445C102.57 58.0976 105.376 54.5195 109.683 54.5195C114.549 54.5195 115.864 58.8179 115.864 61.6177V62.9304H105.189ZM113.245 60.8742C113.245 59.1897 112.488 56.5758 109.497 56.5758C106.691 56.5758 105.562 59.0038 105.189 60.8742H113.245Z" fill="black"/>
<path d="M130.276 66.2881C130.235 67.4762 130.297 68.6656 130.462 69.843H128.053L127.866 67.9726H127.68C127.166 68.7172 126.466 69.3154 125.649 69.7085C124.833 70.1015 123.928 70.276 123.024 70.2147C122.438 70.2591 121.85 70.1799 121.297 69.9821C120.744 69.7843 120.239 69.4725 119.815 69.0669C119.391 68.6614 119.058 68.1712 118.836 67.6283C118.615 67.0855 118.511 66.5021 118.53 65.9164C118.53 62.3731 121.708 60.3168 127.517 60.3168V60.131C127.517 58.8182 127.133 56.5761 124.141 56.5761C122.739 56.5297 121.358 56.9372 120.207 57.7378L119.462 55.8674C121.011 55.0207 122.747 54.5697 124.514 54.5547C129.17 54.5547 130.334 57.7378 130.334 60.7234L130.276 66.2881ZM127.657 62.1756C124.654 62.1756 121.103 62.7448 121.103 65.5446C121.077 65.8945 121.127 66.2459 121.249 66.5749C121.372 66.9038 121.564 67.2025 121.812 67.4507C122.061 67.6988 122.36 67.8904 122.69 68.0126C123.019 68.1348 123.372 68.1845 123.722 68.1585C124.528 68.2266 125.335 68.0249 126.013 67.5853C126.692 67.1457 127.205 66.4931 127.471 65.7305C127.471 65.3587 127.657 65.1728 127.657 64.8011V62.1756Z" fill="black"/>
<path d="M135.142 69.8429V56.9245H133.082V54.8915H135.142V54.148C135.091 53.196 135.23 52.2433 135.551 51.3457C135.873 50.448 136.371 49.6234 137.016 48.9202C137.978 48.0678 139.222 47.6002 140.509 47.6075C141.335 47.5935 142.158 47.7192 142.942 47.9792L142.569 50.0355C141.983 49.7633 141.341 49.6358 140.695 49.6637C138.448 49.6637 137.889 51.72 137.889 54.148V54.8915H141.452V56.9245H137.948V69.8197L135.142 69.8429Z" fill="black"/>
</g>
<defs>
<clipPath id="clip0_1210_140">
<rect width="143" height="76" fill="white"/>
</clipPath>
</defs>
</svg>
