<svg width="177" height="36" viewBox="0 0 177 36" fill="none" xmlns="http://www.w3.org/2000/svg">
<path d="M28.2189 18.5V27H9.81087V8.9H28.2189V17.4H37.3217V5.4C37.3217 4.7 37.2206 4 36.9172 3.3C36.3103 1.9 35.2989 0.9 33.8829 0.3C33.1749 0.1 32.4669 0 31.7589 0H6.16972C5.46172 0 4.75372 0.1 4.14686 0.4C3.43886 0.7 2.83201 1.1 2.32629 1.6C1.82058 2.1 1.41601 2.7 1.11258 3.3C0.809151 4 0.708008 4.7 0.708008 5.4V30.6C0.708008 33.6 3.13544 36 6.16972 36H31.6577C34.692 36 37.1194 33.6 37.1194 30.6V18.6H28.2189V18.5Z" fill="#646569"/>
<path d="M27.1063 10H10.9234V26H27.1063V10Z" fill="#0072CF"/>
<path d="M49.0543 24.8C48.144 23.9 47.436 22.9 47.0314 21.7C46.5257 20.5 46.3234 19.3 46.4246 18C46.4246 16.7 46.6269 15.5 47.0314 14.3C47.5371 13.1 48.2451 12.1 49.1554 11.2C50.976 9.4 53.808 8.5 57.6514 8.5C59.8766 8.5 62.1017 8.7 64.3269 9.2H64.428V12.7L64.0234 12.6C63.012 12.3 62.1017 12 61.4949 11.9C60.888 11.8 60.18 11.7 59.5732 11.6C58.9663 11.5 58.4606 11.5 57.8537 11.5C56.0332 11.4 54.3137 12 53.1 13.3C52.0886 14.6 51.4817 16.2 51.5829 17.9C51.5829 18.8 51.684 19.6 51.9874 20.4C52.2909 21.2 52.6954 21.9 53.3023 22.5C54.0103 23.1 54.7183 23.6 55.6286 23.9C56.5389 24.2 57.4492 24.3 58.3594 24.3C60.3823 24.3 62.5063 23.9 64.3269 23L64.8326 22.8V26.2L64.428 26.3C63.6189 26.6 62.9109 26.8 62.1017 27L59.8766 27.3C59.0674 27.4 58.1572 27.4 57.348 27.4C53.7069 27.5 50.976 26.6 49.0543 24.8Z" fill="#646569"/>
<path d="M75.1491 24.7C75.8571 24.8 76.5651 24.6 77.172 24.3C77.7789 24 78.2846 23.6 78.6891 23C79.4983 21.8 79.9029 20.5 79.9029 19.1C79.9029 17.7 79.4983 16.3 78.6891 15.2C78.2846 14.7 77.6777 14.3 77.0708 14C76.464 13.7 75.8571 13.6 75.1491 13.6C74.4411 13.6 73.8343 13.7 73.2274 14C72.6206 14.3 72.1149 14.7 71.6091 15.2C70.8 16.3 70.3954 17.7 70.3954 19.1C70.3954 20.5 70.8 21.9 71.6091 23C72.0137 23.6 72.6206 24 73.2274 24.3C73.8343 24.6 74.5423 24.7 75.1491 24.7ZM75.1491 27.4C73.4297 27.4 71.7103 27.1 70.1931 26.4C68.7771 25.8 67.6646 24.7 66.9566 23.4C66.1474 22.1 65.7429 20.6 65.7429 19C65.7429 17.5 66.1474 15.9 66.9566 14.6C67.7657 13.3 68.8783 12.3 70.1931 11.6C73.3286 10.3 76.9697 10.3 80.1051 11.6C81.5211 12.2 82.6337 13.3 83.4428 14.6C84.252 15.9 84.6566 17.5 84.5554 19C84.5554 20.5 84.1508 22 83.4428 23.4C82.6337 24.7 81.5211 25.7 80.2063 26.4C78.588 27.1 76.8686 27.5 75.1491 27.4Z" fill="#646569"/>
<path d="M92.1411 18.1001C93.1525 18.2001 94.2651 17.9001 95.0743 17.3001C95.2765 17.1001 95.4788 16.8001 95.6811 16.5001C95.7822 16.2001 95.8834 15.9001 95.8834 15.6001C95.8834 15.4001 95.8834 15.1001 95.7822 14.9001C95.6811 14.7001 95.58 14.5001 95.3777 14.3001C94.5685 13.9001 93.6582 13.7001 92.748 13.8001H91.7365V18.0001H92.1411V18.1001ZM87.2863 27.1001V11.1001H94.4674C95.6811 11.1001 96.7937 11.2001 97.9063 11.6001C98.6143 11.9001 99.2211 12.4001 99.7268 13.0001C100.131 13.7001 100.435 14.4001 100.435 15.2001C100.435 16.2001 100.131 17.2001 99.4234 17.9001C98.8165 18.7001 98.0074 19.3001 97.0971 19.7001L103.065 27.0001H97.5017L93.1525 20.7001H91.6354V27.0001L87.2863 27.1001Z" fill="#646569"/>
<path d="M104.683 27.1001V11.1001H117.326V13.9001H109.133V17.5001H116.314V20.3001H109.133V24.3001H117.427V27.1001H104.683Z" fill="#646569"/>
<path d="M160.008 27.1001V11.1001H172.651V13.9001H164.357V17.5001H171.639V20.3001H164.357V24.3001H172.651V27.1001H160.008Z" fill="#646569"/>
<path d="M119.753 26.8998V23.0998L120.158 23.2998C121.27 23.6998 122.383 24.0998 123.597 24.2998C124.305 24.3998 125.013 24.4998 125.721 24.4998C126.53 24.5998 127.44 24.3998 128.148 23.8998C128.35 23.6998 128.553 23.4998 128.654 23.2998C128.755 23.0998 128.856 22.7998 128.856 22.4998C128.856 22.0998 128.654 21.6998 128.451 21.3998C127.743 20.7998 127.035 20.2998 126.125 19.9998L124.709 19.2998C123.192 18.6998 121.776 17.7998 120.663 16.5998C119.854 15.7998 119.45 14.6998 119.45 13.5998C119.45 12.8998 119.652 12.1998 119.955 11.5998C120.259 10.9998 120.765 10.3998 121.371 9.9998C122.889 8.8998 124.709 8.3998 126.631 8.4998C128.553 8.4998 130.474 8.69981 132.295 9.09981H132.598V12.5998L132.194 12.4998C130.575 11.9998 128.957 11.5998 127.238 11.4998C126.53 11.3998 125.721 11.5998 125.114 11.9998C124.911 12.0998 124.81 12.1998 124.709 12.3998C124.608 12.5998 124.507 12.7998 124.507 12.9998C124.507 13.1998 124.507 13.3998 124.608 13.5998C124.709 13.7998 124.81 13.8998 124.911 14.0998C125.619 14.6998 126.429 15.1998 127.238 15.4998L128.755 16.1998C130.373 16.8998 131.89 17.8998 133.205 19.0998C133.812 19.8998 134.217 20.9998 134.217 21.9998C134.217 22.7998 134.014 23.4998 133.711 24.1998C133.407 24.8998 132.801 25.4998 132.194 25.8998C130.778 26.9998 128.755 27.4998 125.923 27.4998C123.9 27.3998 121.776 27.1998 119.753 26.8998Z" fill="#646569"/>
<path d="M140.993 11.1001H136.644V27.0001H140.993V11.1001Z" fill="#646569"/>
<path d="M148.377 27.1001V13.9001H142.51V11.1001H158.592V13.9001H152.726V27.1001H148.377Z" fill="#646569"/>
</svg>
