<svg width="129" height="46" viewBox="0 0 129 46" fill="none" xmlns="http://www.w3.org/2000/svg">
<g clip-path="url(#clip0_1209_6)">
<path d="M10.6347 25.2728C6.96942 25.2728 5.53838 27.5722 5.53838 33.4925C5.53838 39.4129 6.80946 42.0457 10.0603 42.0457C12.01 42.0014 13.87 41.2181 15.2633 39.8545V26.4895C13.8411 25.7205 12.2517 25.3122 10.6347 25.3003V25.2728ZM17.8037 45.8007C17.3221 45.8007 17.0555 45.4123 16.7476 44.852C16.4786 44.3236 16.2808 43.7619 16.1594 43.1816C13.9904 44.9374 11.2996 45.9244 8.50882 45.988C3.19918 45.988 0.00170135 41.4974 0.00170135 33.9582C0.00170135 29.2804 1.05778 26.1269 3.18542 23.934C4.0329 23.0642 5.05058 22.378 6.17506 21.9182C7.29954 21.4584 8.50673 21.235 9.72142 21.2617C11.6589 21.2807 13.5599 21.791 15.2461 22.7448V12.2274C15.2461 11.7462 15.3527 11.5589 15.8343 11.4661L19.6596 10.7443C19.835 10.7048 20.0147 10.6869 20.1945 10.691C20.5161 10.691 20.6228 10.8388 20.6228 11.3595V38.5381C20.409 40.1492 20.7486 41.785 21.586 43.1782C21.7459 43.4583 22.0143 43.6937 22.0143 43.9395C22.0143 44.1852 21.9609 44.1801 21.6926 44.2729L18.2956 45.7027C18.1475 45.7797 17.9802 45.8119 17.814 45.7955L17.8037 45.8007Z" fill="#1E191A"/>
<path d="M38.4196 26.1681H38.313C37.6813 25.9392 37.0183 25.8082 36.347 25.7797C35.1293 25.7797 33.7928 26.5015 31.6652 28.7012V44.6046C31.6652 45.2198 31.6119 45.273 30.9153 45.273H27.09C26.4484 45.273 26.2867 45.1803 26.2867 44.6046V30.1448C26.4585 28.0958 26.0946 26.0374 25.2307 24.1712C25.0707 23.8911 24.7491 23.5027 24.7491 23.2226C24.7491 22.9424 24.8024 22.8892 25.124 22.7414L28.361 21.4043C28.5162 21.3503 28.6785 21.319 28.8426 21.3115C29.5306 21.3115 29.7526 22.1261 30.1138 22.8359C30.4921 23.5543 30.7628 24.3244 30.917 25.1215C32.8296 23.171 34.4757 21.26 37.5648 21.26C38.4276 21.2306 39.285 21.4073 40.0657 21.7756C40.334 21.9233 40.4406 22.0557 40.4406 22.2567C40.4245 22.3908 40.3886 22.5217 40.334 22.6451L38.958 25.7058C38.7447 26.0942 38.6363 26.187 38.4231 26.187L38.4196 26.1681Z" fill="#1E191A"/>
<path d="M63.5506 44.2763C63.5506 44.4241 63.4439 44.5564 63.1756 44.6647L59.7786 45.8144C59.6402 45.8627 59.4964 45.8939 59.3503 45.9072C58.8687 45.9072 58.6021 45.5738 58.3476 45.1459C58.0019 44.5257 57.7321 43.8662 57.5443 43.1816C55.463 45.0528 52.7463 46.0612 49.9471 46.0017C44.0991 46.0017 42.3499 42.9943 42.3499 38.1704V22.9355C42.3499 22.4544 42.5098 22.3203 43.0378 22.2138L46.7565 21.3992C46.9134 21.3576 47.0758 21.3396 47.2381 21.3459C47.5597 21.3459 47.773 21.4937 47.773 21.9611V37.0636C47.773 40.7396 48.633 41.9821 51.2783 41.9821C53.3 41.9052 55.2407 41.1681 56.803 39.8837V22.9373C56.803 22.4561 56.963 22.322 57.491 22.2155L61.2096 21.4009C61.3852 21.3557 61.5641 21.3246 61.7446 21.3081C62.0129 21.3081 62.1728 21.4559 62.1728 21.9766V39.0691C62.023 40.7442 62.4324 42.4217 63.3373 43.8398C63.4496 43.9579 63.5239 44.107 63.5506 44.2677V44.2763Z" fill="#1E191A"/>
<path d="M77.5788 45.8958H74.3952C73.8602 45.8958 73.8069 45.8957 73.5919 45.3802L64.7631 23.1819C64.6726 23.0029 64.6182 22.8079 64.6032 22.6079C64.6032 22.4206 64.7631 22.2745 65.2447 22.2195L69.285 21.6455H69.5533C69.9283 21.6455 70.0883 21.7933 70.2413 22.1611L74.8165 35.3938C75.3617 37.0393 75.821 38.7119 76.1926 40.405C76.5681 38.7203 77.046 37.06 77.6236 35.4333L82.6116 22.1628C82.7716 21.7744 82.9332 21.6472 83.2531 21.6472C83.5731 21.6472 83.5215 21.7005 83.7348 21.7005L87.1318 22.2745C87.56 22.3673 87.72 22.4618 87.72 22.6629C87.6994 22.8618 87.6454 23.0559 87.5601 23.2369L78.4234 45.3819C78.2755 45.8012 78.1688 45.8958 77.5788 45.8958Z" fill="#1E191A"/>
<path d="M93.2343 38.6361C93.2229 39.1119 93.3086 39.585 93.4864 40.0266C93.6642 40.4681 93.9304 40.8687 94.2685 41.2039C94.6066 41.5392 95.0095 41.802 95.4528 41.9763C95.896 42.1506 96.3702 42.2327 96.8463 42.2176C98.7529 42.1073 100.55 41.2927 101.889 39.9319V34.2384C98.5457 34.2917 93.2223 34.479 93.2223 38.6361H93.2343ZM108.542 43.9825C108.539 44.0594 108.511 44.1332 108.463 44.1932C108.415 44.2532 108.348 44.2962 108.274 44.3159L105.037 45.7457C104.872 45.8334 104.689 45.8838 104.502 45.8935C104.127 45.8935 103.86 45.6134 103.592 45.1322C103.198 44.4568 102.892 43.7337 102.682 42.9806C101.743 43.9164 100.623 44.6523 99.3908 45.1438C98.1587 45.6353 96.8396 45.8722 95.5133 45.8402C90.9381 45.8402 87.9694 43.1679 87.9694 38.9575C87.9694 31.7946 95.62 30.791 101.901 30.7378V29.2271C101.901 26.3056 100.845 25.2573 97.7012 25.2573C95.5938 25.33 93.5194 25.8018 91.5882 26.6476C91.4331 26.7017 91.2709 26.733 91.1067 26.7404C91.0014 26.7433 90.8979 26.7125 90.8113 26.6525C90.7247 26.5926 90.6594 26.5066 90.6251 26.407L89.7823 24.0681C89.7223 23.9327 89.6862 23.7879 89.6756 23.6402C89.6756 23.025 90.3172 22.8256 90.7317 22.6916C93.1639 21.7729 95.7425 21.3018 98.3427 21.3013C104.191 21.3013 107.115 23.4529 107.115 28.5191V37.8748C106.959 39.84 107.402 41.8063 108.386 43.5151C108.463 43.6666 108.517 43.8288 108.546 43.9962L108.542 43.9825Z" fill="#1E191A"/>
<path d="M119.315 9.16867L119.863 10.0279C120.49 11.0257 120.976 12.1047 121.308 13.2347C121.523 14.0164 121.657 14.818 121.709 15.6269C121.73 16.0454 121.73 16.4647 121.709 16.8832C121.587 18.5444 121.357 20.1959 121.021 21.8274C121.449 21.6005 121.85 21.4132 122.239 21.1726C123.077 20.6771 123.866 20.1016 124.593 19.4541C125.275 18.8068 125.893 18.0955 126.439 17.33C127.052 16.4419 127.571 15.4921 127.987 14.4961C128.341 13.7039 128.65 12.892 128.911 12.0644C128.938 11.9716 128.964 11.8633 128.991 11.7705C126.105 9.93666 122.726 9.02766 119.308 9.16523L119.315 9.16867ZM107.457 17.3575C107.456 17.398 107.46 17.4386 107.471 17.4778C107.631 17.8524 107.779 18.2391 107.952 18.6C108.373 19.4526 108.889 20.2551 109.49 20.9922C109.991 21.6068 110.545 22.175 111.148 22.6901L111.563 23.0115C112.436 23.6236 113.368 24.1474 114.346 24.5753C115.006 24.8698 115.675 25.1413 116.353 25.3899C116.887 25.5962 117.432 25.7746 117.985 25.9244C118.052 25.8178 118.119 25.7113 118.173 25.603L118.761 24.4275C119.165 23.613 119.504 22.7684 119.777 21.9013C120.031 21.0715 120.215 20.2218 120.326 19.3613C120.407 18.8457 120.474 18.0655 120.486 17.7304C120.526 17.1427 120.5 16.5549 120.5 15.9655V15.7043C115.042 17.7493 111.069 18.1893 107.428 17.3884L107.457 17.3575ZM103.176 14.5116L103.898 14.9C104.487 15.1938 105.089 15.5015 105.691 15.7678C106.061 15.937 106.44 16.0844 106.828 16.2095C107.985 16.5843 109.195 16.7739 110.412 16.7715C110.773 16.7715 111.134 16.744 111.509 16.7182C112.097 16.6768 112.683 16.601 113.262 16.4913L113.007 16.0102C112.861 15.7025 112.713 15.3812 112.565 15.0615C112.295 14.4811 112.065 13.8828 111.877 13.2708C111.668 12.631 111.496 11.9798 111.361 11.3203C111.241 10.7463 111.201 10.1568 111.134 9.58284C111.102 9.16483 111.098 8.74519 111.121 8.32659C111.134 7.91242 111.148 7.49826 111.188 7.08409C111.227 6.66992 111.215 6.6304 111.241 6.39668C111.308 5.88111 111.401 5.38102 111.482 4.87234C111.563 4.36365 111.628 4.18492 111.695 3.85668C111.709 3.77591 111.723 3.69686 111.735 3.60234C111.11 3.93911 110.507 4.31389 109.929 4.72454C109.221 5.21849 108.554 5.76847 107.935 6.36918C107.454 6.83662 106.986 7.31781 106.559 7.8265C105.92 8.60847 105.373 9.46063 104.927 10.3665C104.619 10.968 104.339 11.5832 104.058 12.1967C103.715 12.9554 103.411 13.7315 103.148 14.5219L103.176 14.5116ZM115.027 0.0759074C115.923 0.369777 116.805 0.677394 117.662 1.05203C118.758 1.50782 119.81 2.06233 120.806 2.7087C121.353 3.08859 121.864 3.51834 122.332 3.99245C123.119 4.78798 123.807 5.67675 124.378 6.63899C124.804 7.35442 125.166 8.10536 125.462 8.88339C121.123 7.67376 116.484 8.20082 112.528 10.3527C112.429 9.64456 112.384 8.92987 112.393 8.21488C112.407 7.69932 112.421 7.19923 112.46 6.69054C112.5 6.18186 112.553 5.64739 112.648 5.12668C112.791 4.36188 113.01 3.6134 113.303 2.89258C113.543 2.29459 113.815 1.71001 114.119 1.1414C114.32 0.75301 114.561 0.380088 114.774 -0.00830078L115.028 0.058722L115.027 0.0759074Z" fill="#F99D2A"/>
</g>
<defs>
<clipPath id="clip0_1209_6">
<rect width="129" height="46" fill="white"/>
</clipPath>
</defs>
</svg>
