<svg width="176" height="56" viewBox="0 0 176 56" fill="none" xmlns="http://www.w3.org/2000/svg">
<path d="M42.35 9.0498H57.15V12.5398H46.65V16.1798H55.89V19.6698H46.65V23.4298H57.31V26.9198H42.35C42.35 26.9098 42.35 9.0498 42.35 9.0498Z" fill="#54565A"/>
<path d="M60.8 13.23H65.06V15.19C66.06 14.04 67.32 13 69.47 13C72.69 13 74.57 14.96 74.57 18.1V27H70.31V19.29C70.31 17.45 69.35 16.49 67.74 16.49C66.13 16.49 65.09 17.45 65.09 19.29V26.92H60.83V13.23H60.8Z" fill="#54565A"/>
<path d="M78.86 23.0397V16.5597H77.06V13.2197H78.86V9.73975H83.12V13.2297H86.65V16.5697H83.12V22.4397C83.12 23.3197 83.54 23.7797 84.5 23.7797C85.27 23.7797 86 23.5897 86.61 23.2797V26.3897C85.73 26.8897 84.69 27.1997 83.24 27.1997C80.62 27.1797 78.86 26.2197 78.86 23.0397Z" fill="#54565A"/>
<path d="M89.98 13.2297H94.24V15.9897C95.12 14.1097 96.5 12.8797 99.03 12.9597V17.0597H98.8C95.96 17.0597 94.24 18.6297 94.24 21.8897V26.9497H89.98V13.2297Z" fill="#54565A"/>
<path d="M101.25 22.1197V13.2197H105.51V20.8897C105.51 22.7297 106.47 23.6897 108.08 23.6897C109.69 23.6897 110.76 22.7297 110.76 20.8897V13.2197H115.02V26.9497H110.76V24.9997C109.76 26.1497 108.5 27.1897 106.35 27.1897C103.13 27.2197 101.25 25.2697 101.25 22.1197Z" fill="#54565A"/>
<path d="M117.74 25.1098L119.58 22.5398C121.19 23.6098 122.92 24.1898 124.33 24.1898C125.56 24.1898 126.13 23.7698 126.13 23.1498V23.1098C126.13 22.2698 124.67 21.9998 123.02 21.5398C120.91 20.9598 118.53 20.0798 118.53 17.4398V17.3598C118.53 14.5598 120.98 13.0298 124.01 13.0298C125.93 13.0298 128 13.6098 129.61 14.5998L128 17.2798C126.5 16.4698 125.01 16.0098 123.94 16.0098C122.9 16.0098 122.37 16.4298 122.37 16.9698V17.0098C122.37 17.7798 123.79 18.1198 125.44 18.6598C127.55 19.3098 130 20.2298 130 22.7198V22.7598C130 25.7898 127.51 27.1698 124.25 27.1698C122.07 27.2198 119.73 26.5698 117.74 25.1098Z" fill="#54565A"/>
<path d="M133.53 23.0397V16.5597H131.73V13.2197H133.53V9.73975H137.79V13.2297H141.32V16.5697H137.79V22.4397C137.79 23.3197 138.21 23.7797 139.17 23.7797C139.94 23.7797 140.67 23.5897 141.28 23.2797V26.3897C140.4 26.8897 139.36 27.1997 137.91 27.1997C135.3 27.1797 133.53 26.2197 133.53 23.0397Z" fill="#54565A"/>
<path d="M15.59 24.5698L19.42 26.7898V31.2398L15.59 33.4598L11.76 31.2398V26.7498L15.59 24.5698ZM15.59 20.0898L7.88 24.5398V33.4698L15.59 37.9198L23.3 33.4698V24.5398L15.59 20.0898Z" fill="#B31983"/>
<path d="M15.59 15.5598L27.21 22.2698V35.6898L15.59 42.3998L3.97001 35.6898V22.2698L15.59 15.5598ZM15.59 11.0698L0.100006 20.0498V37.9598L15.63 46.9298L31.16 37.9598V20.0498L15.59 11.0698Z" fill="#6F2277"/>
<path d="M42 34.77H49.67C55.84 34.77 60.1 38.64 60.1 43.67V43.71C60.1 48.73 55.84 52.68 49.67 52.68H42V34.77ZM46.33 38.33V49.14H49.67C53.2 49.14 55.57 46.95 55.57 43.81V43.69C55.57 40.51 53.19 38.28 49.67 38.28H46.33V38.33Z" fill="#54565A"/>
<path d="M62.36 48.7198V48.6798C62.36 45.6898 64.85 44.3098 68.42 44.3098C69.92 44.3098 71.03 44.5398 72.1 44.8898V44.6198C72.1 43.0098 70.99 42.1298 68.88 42.1298C67.27 42.1298 66.12 42.3998 64.74 42.8598L63.67 39.9098C65.32 39.2598 66.97 38.7998 69.5 38.7998C71.84 38.7998 73.53 39.3798 74.56 40.3298C75.67 41.3698 76.17 42.8598 76.17 44.6998V52.6798H72.03V51.1798C70.99 52.2198 69.58 52.9098 67.47 52.9098C64.7 52.9398 62.36 51.4498 62.36 48.7198ZM72.17 47.8398V47.1498C71.44 46.8398 70.48 46.6498 69.45 46.6498C67.61 46.6498 66.5 47.2998 66.5 48.5298V48.5698C66.5 49.6098 67.46 50.2198 68.84 50.2198C70.83 50.2198 72.17 49.2198 72.17 47.8398Z" fill="#54565A"/>
<path d="M80.42 48.76V42.28H78.62V38.94H80.42V35.46H84.68V38.95H88.21V42.29H84.68V48.16C84.68 49.04 85.1 49.5 86.06 49.5C86.83 49.5 87.56 49.31 88.17 49V52.11C87.29 52.61 86.25 52.92 84.8 52.92C82.18 52.9 80.42 51.94 80.42 48.76Z" fill="#54565A"/>
<path d="M90.39 48.7198V48.6798C90.39 45.6898 92.88 44.3098 96.45 44.3098C97.98 44.3098 99.06 44.5398 100.13 44.8898V44.6198C100.13 43.0098 99.02 42.1298 96.91 42.1298C95.3 42.1298 94.15 42.3998 92.77 42.8598L91.7 39.9098C93.35 39.2598 95 38.7998 97.53 38.7998C99.87 38.7998 101.56 39.3798 102.59 40.3298C103.7 41.3698 104.2 42.8598 104.2 44.6998V52.6798H100.06V51.1798C99.02 52.2198 97.61 52.9098 95.5 52.9098C92.73 52.9398 90.39 51.4498 90.39 48.7198ZM100.17 47.8398V47.1498C99.44 46.8398 98.48 46.6498 97.45 46.6498C95.61 46.6498 94.5 47.2998 94.5 48.5298V48.5698C94.5 49.6098 95.46 50.2198 96.84 50.2198C98.82 50.2198 100.17 49.2198 100.17 47.8398Z" fill="#54565A"/>
<path d="M107.07 45.8902V45.8502C107.07 41.9402 110.37 38.7202 114.97 38.7202C117.81 38.7202 119.57 39.6002 120.99 41.0202L118.34 43.5502C117.38 42.6302 116.42 42.0502 114.93 42.0502C112.78 42.0502 111.29 43.7802 111.29 45.7702V45.8502C111.29 47.9602 112.79 49.6502 115.12 49.6502C116.54 49.6502 117.54 49.0702 118.57 48.1902L121.06 50.4902C119.6 51.9502 117.92 52.9802 114.93 52.9802C110.37 52.9802 107.07 49.8002 107.07 45.8902Z" fill="#54565A"/>
<path d="M122.87 48.7198V48.6798C122.87 45.6898 125.36 44.3098 128.93 44.3098C130.46 44.3098 131.54 44.5398 132.61 44.8898V44.6198C132.61 43.0098 131.5 42.1298 129.39 42.1298C127.78 42.1298 126.63 42.3998 125.25 42.8598L124.18 39.9098C125.83 39.2598 127.48 38.7998 130.01 38.7998C132.35 38.7998 134.04 39.3798 135.07 40.3298C136.18 41.3698 136.68 42.8598 136.68 44.6998V52.6798H132.54V51.1798C131.5 52.2198 130.09 52.9098 127.98 52.9098C125.17 52.9398 122.87 51.4498 122.87 48.7198ZM132.64 47.8398V47.1498C131.91 46.8398 130.95 46.6498 129.92 46.6498C128.08 46.6498 126.97 47.2998 126.97 48.5298V48.5698C126.97 49.6098 127.93 50.2198 129.31 50.2198C131.3 50.2198 132.64 49.2198 132.64 47.8398Z" fill="#54565A"/>
<path d="M140.43 38.95H144.69V41.71C145.57 39.83 146.95 38.6 149.48 38.68V42.78H149.25C146.41 42.78 144.69 44.35 144.69 47.61V52.67H140.43V38.95Z" fill="#54565A"/>
<path d="M151.24 45.85V45.77C151.24 41.21 154.54 38.68 158.1 38.68C160.36 38.68 161.78 39.64 162.78 40.71V34H167.04V52.67H162.78V50.72C161.74 51.99 160.33 52.94 158.1 52.94C154.58 52.94 151.24 50.41 151.24 45.85ZM162.86 45.85V45.77C162.86 43.51 161.21 41.97 159.22 41.97C157.23 41.97 155.54 43.47 155.54 45.77V45.85C155.54 48.11 157.23 49.65 159.22 49.65C161.17 49.61 162.86 48.11 162.86 45.85Z" fill="#54565A"/>
<path d="M175.74 35.99C175.74 37.68 174.4 39.02 172.67 39.02C170.94 39.02 169.6 37.68 169.6 35.99C169.6 34.34 170.98 33 172.67 33C174.4 33.04 175.74 34.34 175.74 35.99ZM170.37 35.99C170.37 37.33 171.37 38.37 172.71 38.37C174.01 38.37 174.97 37.33 174.97 35.99C174.97 34.65 174.01 33.57 172.67 33.57C171.37 33.62 170.37 34.69 170.37 35.99ZM172.21 37.57H171.52V34.58C171.79 34.54 172.17 34.5 172.67 34.5C173.25 34.5 173.48 34.58 173.71 34.73C173.86 34.85 174.02 35.08 174.02 35.38C174.02 35.73 173.75 35.96 173.41 36.07V36.11C173.72 36.23 173.87 36.46 173.95 36.84C174.03 37.3 174.1 37.49 174.18 37.57H173.45C173.37 37.45 173.3 37.19 173.22 36.84C173.18 36.49 172.99 36.38 172.61 36.38H172.26V37.57H172.21ZM172.21 35.88H172.56C172.94 35.88 173.25 35.76 173.25 35.46C173.25 35.19 173.06 35 172.6 35C172.41 35 172.29 35 172.22 35.04V35.88H172.21Z" fill="#54565A"/>
</svg>
