<svg width="83" height="84" viewBox="0 0 83 84" fill="none" xmlns="http://www.w3.org/2000/svg">
<path d="M41.2049 83.3903C40.8029 83.3903 40.4009 83.3903 39.9989 83.3903L48.4409 60.2465H60.0989C62.1089 60.2465 64.3199 58.6365 65.1239 56.8252L74.3699 31.6688C75.7769 27.6438 73.5659 24.2226 69.1439 24.2226H53.0639L39.396 61.2527L31.758 82.3841C13.467 77.9566 0 61.6552 0 42.1339C0 23.2163 12.663 7.31747 30.15 2.48745L22.311 24.2226L9.04499 60.2465H17.889L29.145 29.6563H35.778L24.522 60.2465H33.366L43.8179 31.6688C45.2249 27.6438 43.0139 24.2226 38.5919 24.2226H31.155L39.396 0.877441C39.9989 0.877441 40.6019 0.877441 41.2049 0.877441C64.1189 0.877441 82.6109 19.3925 82.6109 42.1339C82.6109 64.8752 64.1189 83.3903 41.2049 83.3903ZM66.3299 29.4551H59.6969L50.4509 54.6114H57.0839L66.3299 29.4551Z" fill="#1D9DD8"/>
</svg>
