<svg width="113" height="74" viewBox="0 0 113 74" fill="none" xmlns="http://www.w3.org/2000/svg">
<g clip-path="url(#clip0_1_210)">
<path d="M33.0299 31.3553V49.4573H27.2667V26.7057L39.1654 26.717C44.2176 26.717 45.9405 30.2794 45.9405 33.5184V49.4611H40.1886V33.5485C40.1886 32.1942 39.4852 31.3591 37.7923 31.3591L33.0299 31.3553ZM72.2132 31.0845C70.242 31.0845 68.7184 32.0964 68.0827 33.4732C67.7065 34.2971 67.5748 34.9328 67.5297 35.941H76.3964C76.2835 33.4732 75.1662 31.0845 72.2132 31.0845ZM67.5335 39.8608C67.5335 42.8101 69.3655 44.9769 72.6383 44.9769C75.185 44.9769 76.449 44.2735 77.9199 42.8064L81.4786 46.2033C79.1989 48.4529 76.8102 49.8184 72.5969 49.8184C67.082 49.8184 61.8004 46.809 61.8004 38.0439C61.8004 30.554 66.4087 26.3144 72.4652 26.3144C78.6046 26.3144 82.152 31.2801 82.152 37.7805V39.8571L67.5335 39.8608ZM56.9326 49.431C52.2378 49.431 50.2478 46.1619 50.2478 42.9343V20.5062H55.9997V26.7057H60.3371V31.3591H55.9997V42.5769C55.9997 43.8973 56.6241 44.6309 57.9972 44.6309H60.3371V49.431H56.9326ZM22.1393 23.5608H16.3386V18.0497H22.1393V23.5608ZM22.1544 49.6981C17.8094 49.2805 16.331 46.6472 16.331 43.6039L16.3386 26.7057H22.1544V49.6981ZM91.3083 49.2128C86.9709 48.7952 85.5 46.1619 85.5 43.1261V17.2635H91.3083V49.2128ZM111.607 21.0027C106.344 -4.65679 56.5414 -6.27815 24.4378 13.2646V15.4239C56.5075 -1.06047 101.992 -0.962665 106.134 22.6692C107.522 30.4826 103.117 38.6307 95.2545 43.3142V49.4422C104.719 45.9776 114.429 34.7485 111.607 21.0027ZM53.2535 65.8928C31.0963 67.9392 8.00985 64.7266 4.77843 47.4109C3.19846 38.8752 7.08444 29.828 12.2419 24.2078V21.2021C2.9577 29.3465 -2.07941 39.6539 0.820973 51.8348C4.52262 67.4539 24.34 76.3056 54.5852 73.3638C66.5516 72.1976 82.2122 68.3493 93.1027 62.3717V53.8812C83.2203 59.7685 66.8714 64.6326 53.2535 65.8928Z" fill="#0071C5"/>
<path d="M98.0186 18.9822C98.0186 18.7001 97.853 18.6098 97.4769 18.6098H97.1157V19.4073C97.1684 19.4073 97.4317 19.4186 97.4769 19.4186C97.853 19.4186 98.0186 19.2945 98.0186 19.0311V18.9822ZM98.5866 20.9572H98.1578C98.1201 20.9572 98.0863 20.9346 98.0675 20.9008L97.4806 19.9077C97.4693 19.8888 97.4204 19.8625 97.3979 19.8625H97.1345V20.8481C97.1345 20.9008 97.0969 20.9572 97.0292 20.9572H96.6417C96.5928 20.9572 96.5439 20.9008 96.5439 20.8481V18.354C96.5439 18.2111 96.6004 18.1509 96.7207 18.1321C96.8599 18.1133 97.2323 18.102 97.4317 18.102C98.1465 18.102 98.5791 18.3126 98.5791 18.986V19.0311C98.5791 19.445 98.3722 19.6669 98.0524 19.7722L98.6618 20.7992C98.6656 20.8218 98.6807 20.8481 98.6807 20.8745C98.6769 20.9121 98.6543 20.9572 98.5866 20.9572ZM97.5634 17.6506C96.5063 17.6506 95.6486 18.5233 95.6486 19.5766C95.6486 20.6299 96.5063 21.4914 97.5634 21.4914C98.6167 21.4914 99.4819 20.6299 99.4819 19.5766C99.4819 18.5233 98.6167 17.6506 97.5634 17.6506ZM97.5634 21.8864C96.2768 21.8864 95.2536 20.8481 95.2536 19.5766C95.2536 18.3051 96.2806 17.2668 97.5634 17.2668C98.8349 17.2668 99.8807 18.3089 99.8807 19.5766C99.8807 20.8481 98.8349 21.8864 97.5634 21.8864Z" fill="#0071C5"/>
</g>
<defs>
<clipPath id="clip0_1_210">
<rect width="112.103" height="73.9239" fill="white"/>
</clipPath>
</defs>
</svg>
