<svg width="137" height="48" viewBox="0 0 137 48" fill="none" xmlns="http://www.w3.org/2000/svg">
<path d="M28.4499 5.92707C23.793 5.92707 20.9988 7.87454 19.7287 12.1082L16.5111 22.1842C15.3257 25.4864 13.3782 26.8412 9.90667 26.8412H1.86279C0.846724 26.8412 0 27.6879 0 28.704V33.869C0 34.8004 0.762052 35.5624 1.77812 35.5624H34.4617C35.4777 35.5624 36.3245 34.7157 36.3245 33.6996V7.70519C36.3245 6.68912 35.5624 5.92707 34.5464 5.92707H28.4499ZM1.94747 0C0.931397 0 0 0.931397 0 1.94747V15.6644C0 16.7651 0.846724 17.6119 1.94747 17.6119H8.89061C12.0235 17.6119 16.4265 16.9345 17.6119 11.3461C17.6119 11.3461 18.7973 5.67305 19.4747 2.37083C19.7287 1.10074 18.7973 0 17.5272 0H1.94747Z" fill="#778EB1"/>
<path d="M129.464 11.2612C129.464 6.60423 132.597 4.40274 137 4.2334V8.04366H136.238C134.291 8.04366 133.274 9.65243 133.274 11.5999V14.6481H136.831V18.035H133.274V36.8323H129.464V17.9503H126.162V14.5634H129.464V11.2612ZM116.255 23.454C116.255 19.6438 114.054 17.9503 111.429 17.9503C108.296 17.9503 105.925 19.9825 105.925 23.6234V37.0016H102.115V23.454C102.115 19.6438 99.9135 17.9503 97.2887 17.9503C94.1558 17.9503 91.785 19.9825 91.785 23.6234V37.0016H88.0594V14.9021H91.8696V17.527H91.9543C92.9704 15.2408 95.6799 14.3941 97.966 14.3941C100.168 14.3941 102.623 14.9868 104.401 18.2043C105.756 15.4102 108.635 14.3941 111.514 14.3941C116.255 14.3941 119.896 17.273 119.896 23.0307V37.0016H116.086V23.454H116.255ZM70.3628 25.3168C65.7058 25.3168 64.1817 27.603 64.1817 29.7198C64.1817 31.8366 65.7058 34.1228 70.3628 34.1228C75.0198 34.1228 76.5439 31.8366 76.5439 29.7198C76.5439 27.603 74.9351 25.3168 70.3628 25.3168ZM76.3746 22.184C76.3746 18.543 72.7337 17.6963 69.8548 17.6963C67.8226 17.6963 65.8752 18.2043 63.843 19.2204L62.1496 16.0875C65.4518 14.6481 68.0767 14.3941 70.0241 14.3941C75.2738 14.3941 80.1848 16.6802 80.1848 21.9299V37.0016H76.6286V34.6308C74.6811 36.6629 72.5643 37.5097 69.6854 37.5097C64.3511 37.5097 60.1175 34.5461 60.1175 29.5505C60.1175 25.4862 63.5044 21.9299 69.6008 21.9299C71.8869 21.9299 74.3424 22.6073 76.3746 24.4701V22.184ZM52.9203 5.08012C54.3597 5.08012 55.5451 6.26554 55.5451 7.70497C55.5451 9.22907 54.3597 10.4145 52.9203 10.4145C51.4809 10.4145 50.2955 9.22907 50.2955 7.78964C50.2955 6.26554 51.4809 5.08012 52.9203 5.08012ZM51.1422 14.7328H54.9524L55.0371 39.7111C55.0371 45.4689 51.3115 47.4163 47.1626 47.4163H45.7231V43.8601H47.1626C50.8882 43.8601 51.2269 41.828 51.2269 39.8805L51.1422 14.7328Z" fill="#434A54"/>
</svg>
