<svg width="155" height="34" viewBox="0 0 155 34" fill="none" xmlns="http://www.w3.org/2000/svg">
<path d="M64.8383 7.24243C61.9609 7.24243 58.8916 8.65072 56.9733 11.4673V7.6448H50.2593V33.3963H56.9733V18.9111C56.9733 16.2957 58.8916 13.4791 62.5364 13.4791C65.222 13.4791 68.0994 15.491 68.0994 18.9111V33.5975H74.8135V17.5028C74.8135 11.6685 70.785 7.24243 64.8383 7.24243Z" fill="#DE1318"/>
<path d="M122.195 7.64478L116.249 25.3489L110.11 7.64478H102.437L112.412 33.5974H119.893L129.869 7.64478H122.195Z" fill="#DE1318"/>
<path d="M43.1618 25.5501C40.2843 27.7631 38.7497 28.3667 36.2559 28.3667C33.9539 28.3667 32.2275 27.562 30.8847 26.3549L47.9575 18.7099C47.5738 15.8933 46.6147 13.4791 45.08 11.4673C42.7781 8.65072 39.517 7.24243 35.4886 7.24243C28.199 7.24243 22.636 13.0768 22.636 20.5205C22.636 28.3667 28.199 33.7986 36.2559 33.7986C40.8598 33.7986 45.4637 31.5856 47.5738 28.7691L43.1618 25.5501ZM30.501 15.491C31.652 13.8815 33.3784 12.8756 35.6804 12.8756C38.1742 12.8756 39.9006 14.2839 40.8598 16.4969L29.1582 21.7276C28.7745 19.1123 29.35 16.8992 30.501 15.491Z" fill="#DE1318"/>
<path d="M21.8686 26.9584H6.71404V-0.000244141H0V33.5974H21.8686V26.9584Z" fill="#DE1318"/>
<path d="M141.762 33.9998C134.473 33.9998 128.718 28.1655 128.718 20.7217C128.718 13.2779 134.473 7.4436 141.762 7.4436C149.052 7.4436 154.807 13.2779 154.807 20.7217C154.807 28.1655 149.052 33.9998 141.762 33.9998ZM141.762 13.2779C138.117 13.2779 135.24 16.2957 135.24 20.5205C135.24 24.5442 138.117 27.7631 141.762 27.7631C145.407 27.7631 148.284 24.7454 148.284 20.5205C148.284 16.4969 145.407 13.2779 141.762 13.2779Z" fill="#DE1318"/>
<path d="M90.3518 33.9998C83.0623 33.9998 77.3074 28.1655 77.3074 20.7217C77.3074 13.2779 83.0623 7.4436 90.3518 7.4436C97.6413 7.4436 103.396 13.2779 103.396 20.7217C103.588 28.1655 97.8331 33.9998 90.3518 33.9998ZM90.3518 13.2779C86.707 13.2779 83.8296 16.2957 83.8296 20.5205C83.8296 24.5442 86.707 27.7631 90.3518 27.7631C93.9965 27.7631 96.874 24.7454 96.874 20.5205C96.874 16.4969 93.9965 13.2779 90.3518 13.2779Z" fill="#DE1318"/>
</svg>
