<svg width="150" height="44" viewBox="0 0 150 44" fill="none" xmlns="http://www.w3.org/2000/svg">
<path d="M147.95 3.72431C147.925 3.72431 147.9 3.7493 147.875 3.7493L147.8 3.7743C147.775 3.7743 147.75 3.7993 147.725 3.82429C147.7 3.84929 147.7 3.87428 147.675 3.89928V3.92427V3.94927C147.7 3.97427 147.7 3.99926 147.725 4.02426C147.75 4.04925 147.75 4.07425 147.775 4.09924L148.1 4.59916L148.15 4.67415C148.175 4.69914 148.175 4.72414 148.2 4.74914C148.225 4.79913 148.2 4.82412 148.175 4.84912C148.15 4.84912 148.15 4.84912 148.125 4.84912C148.125 4.84912 148.1 4.84912 148.075 4.84912C148.05 4.84912 148 4.84912 147.975 4.84912C147.95 4.84912 147.95 4.84912 147.925 4.84912C147.9 4.84912 147.9 4.84912 147.875 4.82413C147.85 4.79913 147.825 4.77413 147.8 4.74914C147.775 4.69915 147.75 4.67415 147.725 4.64915L147.375 4.09924C147.35 4.04925 147.325 3.99926 147.3 3.97426C147.275 3.92427 147.25 3.89928 147.2 3.87428C147.176 3.84929 147.151 3.84929 147.126 3.84929H147.026H146.976C146.951 3.84929 146.926 3.87428 146.901 3.87428C146.876 3.87428 146.851 3.89928 146.851 3.89928C146.826 3.92427 146.826 3.97427 146.826 3.99926C146.826 4.04925 146.826 4.09925 146.826 4.12424V4.57417C146.826 4.62416 146.826 4.64915 146.826 4.69915C146.826 4.74914 146.826 4.77413 146.801 4.79913C146.801 4.82412 146.776 4.82412 146.751 4.84912C146.726 4.84912 146.701 4.87412 146.676 4.87412C146.651 4.87412 146.626 4.87412 146.576 4.87412C146.551 4.87412 146.526 4.87411 146.501 4.84912C146.476 4.84912 146.476 4.82412 146.476 4.79913C146.476 4.77413 146.476 4.77413 146.451 4.74914V4.72414C146.451 4.69914 146.451 4.67415 146.451 4.64915V4.57417V2.62449C146.451 2.5995 146.451 2.5745 146.476 2.5495C146.501 2.52451 146.526 2.49951 146.551 2.49951H146.576H146.601H147.176C147.35 2.49951 147.5 2.49951 147.625 2.52451C147.75 2.52451 147.875 2.5745 147.975 2.64948C148.025 2.67448 148.05 2.69948 148.075 2.72447C148.125 2.79946 148.175 2.89945 148.2 2.99943L148.225 3.09941V3.1494C148.225 3.1744 148.225 3.22439 148.225 3.27438C148.225 3.32437 148.2 3.37436 148.2 3.39936C148.175 3.47435 148.15 3.54934 148.1 3.59933C148.075 3.62432 148 3.67431 147.95 3.72431ZM147.176 3.54934H147.375C147.45 3.54934 147.5 3.54933 147.55 3.52434C147.6 3.52434 147.65 3.49934 147.7 3.47435C147.75 3.44935 147.775 3.42436 147.8 3.39936C147.825 3.34937 147.85 3.29938 147.875 3.24939C147.9 3.1994 147.9 3.1494 147.9 3.09941C147.9 3.04942 147.875 2.99943 147.875 2.97443C147.85 2.92444 147.8 2.87445 147.75 2.84945C147.7 2.82446 147.625 2.79946 147.55 2.79946C147.475 2.79946 147.4 2.77446 147.3 2.77446H147.026H147.001H146.976C146.951 2.77446 146.901 2.79946 146.901 2.82446C146.901 2.84945 146.876 2.84945 146.876 2.87445C146.876 2.89945 146.876 2.89944 146.876 2.92444V2.97443C146.876 2.99943 146.876 3.02442 146.876 3.04942V3.12441C146.876 3.1744 146.876 3.24939 146.876 3.32438C146.876 3.39936 146.876 3.44935 146.901 3.49935C146.926 3.52434 146.976 3.54934 147.026 3.54934H147.176Z" fill="black"/>
<path d="M147.25 6.07399C145.926 6.07399 144.876 4.99917 144.876 3.69938C144.876 2.3746 145.951 1.32478 147.25 1.32478C148.575 1.32478 149.625 2.3996 149.625 3.69938C149.625 4.99917 148.575 6.07399 147.25 6.07399ZM147.25 1.67472C146.151 1.67472 145.251 2.57457 145.251 3.67439C145.251 4.7742 146.151 5.67405 147.25 5.67405C148.35 5.67405 149.25 4.7742 149.25 3.67439C149.25 2.57457 148.35 1.67472 147.25 1.67472ZM16.1223 32.6196V30.27C16.1223 30.045 16.0723 29.87 15.9473 29.7201C15.8724 29.6201 15.7224 29.5451 15.4974 29.4951C15.2725 29.4451 15.0225 29.4201 14.7475 29.3951C14.4726 29.3951 14.1976 29.3951 13.9227 29.3951C13.6227 29.3951 13.3978 29.4201 13.1978 29.4201H6.79887C6.29895 29.4201 5.94901 29.2701 5.77404 28.9452C5.72405 28.8202 5.69905 28.6952 5.67405 28.5202C5.64906 28.3703 5.64906 28.1953 5.64906 28.0203V27.6454C5.64906 27.4204 5.62406 27.3704 5.62406 27.1705C5.62406 26.9955 5.59907 26.7455 5.59907 26.5456V9.22347C5.59907 8.94851 5.54908 8.72355 5.4241 8.54857C5.29912 8.3736 5.12415 8.29861 4.87419 8.27362C4.62423 8.24862 4.34928 8.24862 4.09932 8.24862H1.02483C0.974838 8.27362 0.924846 8.27362 0.874854 8.27362C0.824863 8.24862 0.774871 8.27362 0.724879 8.29862C0.424929 8.3736 0.249958 8.49858 0.149975 8.64856C0.0749876 8.77354 0.0249959 8.94851 0.0249959 9.14847C0.0249959 9.37344 0 9.5734 0 9.79837V33.1195C0 33.3444 0.0499918 33.5444 0.149975 33.6694C0.274954 33.8694 0.449925 33.9693 0.699884 34.0193C0.949842 34.0443 1.24979 34.0693 1.59973 34.0693H15.1725C15.4224 34.0693 15.5974 34.0193 15.7224 33.9193C15.8724 33.8444 15.9973 33.7194 16.0973 33.5194C16.1473 33.3944 16.1723 33.2445 16.1473 33.0945C16.1223 32.9945 16.1223 32.7945 16.1223 32.6196ZM35.794 24.6709C35.794 24.5959 35.794 24.5209 35.794 24.4709C35.769 23.5461 35.6441 22.6962 35.4441 22.0963L35.4191 22.0213C35.3691 21.7964 35.3191 21.5964 35.2441 21.3964C35.1191 21.0465 35.0192 20.7465 34.9192 20.4466C34.8192 20.1466 34.6942 19.8717 34.5192 19.5967C34.3443 19.3218 34.1943 19.0718 34.0193 18.8219C33.8694 18.5719 33.6944 18.3469 33.4944 18.097C33.2945 17.822 33.0695 17.5721 32.7945 17.3471C32.5196 17.1221 32.2446 16.8972 31.9697 16.7222C31.5197 16.3973 31.0198 16.1223 30.4699 15.8724C29.6701 15.3474 27.9953 14.9725 26.0707 14.9725H25.9457C25.8207 14.9725 25.7207 14.9725 25.5957 14.9725H25.5457C25.3458 14.9725 25.1708 14.9975 24.9708 14.9975C24.8459 14.9975 24.6959 15.0225 24.5459 15.0225H24.5209C23.2961 15.1475 22.2963 15.4474 21.7214 15.8224C21.4464 15.9223 21.1965 16.0223 20.9715 16.1473C20.0967 16.6972 19.3718 17.3221 18.7469 17.972C18.147 18.6469 17.6221 19.4718 17.1971 20.4466C17.0722 20.7465 16.9722 21.0215 16.8972 21.3464C16.8222 21.6464 16.7472 21.9463 16.6472 22.2713C16.5972 22.3963 16.5722 22.5212 16.5722 22.6212C16.5722 22.6712 16.5722 22.7212 16.5722 22.7712C16.5472 22.8462 16.5472 22.9212 16.5222 23.0212C16.4973 23.0961 16.4723 23.1961 16.4723 23.2711C16.4223 23.6711 16.3723 24.121 16.3723 24.5959C16.3723 24.6709 16.3723 24.7459 16.3723 24.7959V24.9208C16.3723 26.1956 16.5472 27.2955 16.8222 27.9703L16.9472 28.4703C16.9972 28.7202 17.0972 28.9452 17.2221 29.1701C17.6221 30.12 18.147 30.9198 18.7469 31.5947C19.3468 32.2696 20.0717 32.8695 20.9215 33.3694C21.1965 33.5194 21.4464 33.6444 21.6964 33.7194C21.9463 33.8194 22.2213 33.9193 22.5212 34.0193C22.7212 34.1193 22.9212 34.1693 23.1461 34.2193C23.821 34.4693 24.8959 34.6192 26.0707 34.6192C27.2705 34.6192 28.3203 34.4693 29.0202 34.2193H29.0452C29.3451 34.1443 29.6451 34.0693 29.945 33.9443C31.0948 33.4694 32.0947 32.8445 32.9195 32.1196C33.7444 31.3948 34.4193 30.4449 34.9192 29.2951C35.0442 29.0452 35.1441 28.7952 35.2191 28.5202C35.2941 28.2453 35.3691 27.9703 35.4691 27.6954L35.4941 27.4954C35.6941 26.8205 35.819 25.8457 35.819 24.7709V24.6459L35.794 24.6709ZM30.3449 27.3454C30.295 27.5954 30.22 27.8204 30.12 28.0703C29.845 28.6702 29.5201 29.1951 29.1451 29.5951C28.7452 29.995 28.2453 30.3199 27.6204 30.5699C27.4454 30.6449 27.2705 30.6449 27.0705 30.7199C26.8455 30.7949 26.7705 30.7949 26.5706 30.8199H26.3956C26.1206 30.8449 26.0207 30.8449 25.9207 30.8449C25.8207 30.8449 25.6957 30.8699 25.6207 30.8449C25.5207 30.8199 25.4958 30.8449 25.3958 30.8199C25.3208 30.8199 25.2208 30.7699 25.1208 30.7449C24.8959 30.6949 24.6959 30.6449 24.4959 30.5699C24.296 30.4949 24.096 30.3949 23.921 30.27C23.3211 29.895 22.8712 29.4951 22.5962 29.0452C22.3713 28.6702 22.1463 28.1953 21.9463 27.6204C21.6714 27.0205 21.4714 25.9957 21.4714 24.8209C21.4714 23.821 21.5964 22.9212 21.8214 22.3213C21.8464 22.2213 21.8714 22.1213 21.8964 22.0213C22.1213 21.3714 22.4213 20.7965 22.7962 20.2966C23.1711 19.7967 23.6711 19.4218 24.271 19.1468C24.3959 19.0718 24.5209 19.0218 24.6959 18.9968C24.8459 18.9468 25.0208 18.9218 25.1958 18.8719C25.2708 18.8469 25.3708 18.8469 25.4708 18.8219C25.5707 18.7969 25.5457 18.8219 25.7207 18.7969C25.9457 18.7719 26.1456 18.7969 26.3706 18.7719C26.5956 18.7469 26.7955 18.7719 26.9955 18.8219C27.1705 18.8719 27.3204 18.9218 27.4704 18.9468C27.6204 18.9718 27.7704 19.0218 27.8954 19.0718C28.4953 19.3468 28.9952 19.6967 29.3451 20.1466C29.72 20.5966 30.02 21.1215 30.295 21.7714C30.3699 21.9713 30.4199 22.1713 30.4699 22.3713L30.4949 22.4713C30.6699 23.0712 30.7949 23.921 30.7949 24.8209C30.7949 25.7707 30.6699 26.6206 30.4699 27.2455L30.3449 27.3454ZM85.2608 8.44859C85.1358 8.34861 84.9608 8.29862 84.7359 8.29862H78.4869C78.262 8.29862 78.062 8.34861 77.912 8.47359C77.7121 8.59857 77.5871 8.74854 77.5121 8.94851L77.2871 9.52341C77.1621 9.92334 77.0372 10.2983 76.9122 10.6732C76.7872 11.0482 76.6622 11.4231 76.5372 11.823C76.0623 13.3228 75.5624 14.8225 75.0875 16.2973C74.6126 17.772 74.1127 19.2718 73.6377 20.7465C73.4378 21.2964 73.2628 21.8464 73.1128 22.3963C72.9628 22.9462 72.7879 23.4961 72.5879 24.046C72.5129 24.246 72.4379 24.4459 72.3629 24.6959C72.3379 24.7959 72.288 24.8959 72.238 24.9458C72.113 25.1958 71.988 25.3208 71.838 25.3208C71.5631 25.3208 71.3381 24.8709 71.1631 24.121C71.0132 23.746 70.8882 23.3461 70.7882 22.9712C70.6382 22.4713 70.4633 21.9713 70.2883 21.4714C69.7134 19.9217 69.1635 18.3719 68.6636 16.7972C68.1636 15.2225 67.6387 13.6727 67.0888 12.148C66.9388 11.748 66.8139 11.3231 66.6639 10.9232C66.5389 10.5232 66.3889 10.1233 66.239 9.74837C66.164 9.52341 66.089 9.29845 66.014 9.07349C65.939 8.84853 65.814 8.67355 65.6391 8.54857C65.4141 8.3736 65.1142 8.29862 64.7142 8.29862H58.7902C58.7402 8.32361 58.6902 8.32361 58.6402 8.32361C58.5902 8.29862 58.5402 8.32362 58.4903 8.34861C58.1903 8.4236 58.0153 8.54858 57.9154 8.69855C57.8654 8.79853 57.8404 8.94851 57.8154 9.12348C57.7904 9.29845 57.7654 9.49842 57.7654 9.67339V32.5696C57.7654 32.8445 57.7654 33.0945 57.7904 33.3444C57.8154 33.5944 57.8904 33.7944 58.0403 33.9193C58.1903 34.0443 58.3653 34.0943 58.5902 34.1193C58.8152 34.1443 59.0402 34.1443 59.3151 34.1443H61.1898C61.3898 34.1443 61.5647 34.1443 61.7647 34.1693C61.9647 34.1943 62.1397 34.1693 62.3146 34.1193C62.5896 34.0693 62.7645 33.9693 62.8645 33.7944C62.9645 33.6694 63.0145 33.5194 63.0145 33.3195V21.3214C63.0395 21.0465 63.0395 20.7965 63.0395 20.5216V19.7217C63.0395 19.5217 63.0395 19.2468 63.0395 19.0468C63.0145 18.8719 63.0395 18.7969 63.0395 18.6219C63.0395 18.3719 63.0395 18.272 63.0395 18.097C63.0395 17.922 63.1145 17.6471 63.3394 17.6721C63.4144 17.6721 63.4644 17.697 63.5144 17.747C63.5644 17.772 63.6144 17.822 63.6644 17.872C63.8144 18.097 63.9394 18.3719 64.0643 18.6969L64.1393 18.8469L68.9135 32.4946C68.9635 32.6696 69.0385 32.8445 69.1135 33.0445C69.2135 33.2695 69.2885 33.4444 69.3634 33.5944C69.4384 33.7444 69.5634 33.8944 69.7634 34.0193C69.8634 34.0943 70.0133 34.1443 70.1883 34.1693C70.3883 34.1943 70.5882 34.1943 70.8132 34.1943C71.0382 34.1943 71.2631 34.1943 71.5131 34.1693C71.738 34.1443 71.938 34.1443 72.113 34.1443H72.9379C73.1628 34.1443 73.2628 34.1443 73.3878 34.1443C73.5128 34.1443 73.6627 34.0943 73.7877 33.9943C73.9127 33.8943 73.9377 33.7944 74.0127 33.6694C74.0627 33.5444 74.1127 33.4694 74.1876 33.3195L74.3376 32.9445L79.3368 18.4469L79.3618 18.4219C79.4118 18.297 79.4618 18.172 79.5117 18.047C79.5867 17.922 79.6367 17.847 79.7367 17.6971C79.7617 17.6721 79.7867 17.6221 79.8117 17.5721C79.8367 17.5221 80.0367 17.4221 80.1116 17.4471C80.2616 17.4971 80.2866 17.5221 80.3116 17.6971C80.3366 17.897 80.3366 18.272 80.3366 18.4469C80.3366 18.6719 80.3866 18.8469 80.3616 19.0718C80.3616 19.2718 80.3366 19.4718 80.3366 19.6717V20.5966C80.3366 20.8965 80.3366 21.2215 80.3616 21.5464V33.2945C80.3616 33.4944 80.4116 33.6444 80.5116 33.7694C80.6116 33.9193 80.7365 33.9943 80.8615 34.0193C80.9865 34.0443 81.1615 34.0693 81.3614 34.1193H84.136C84.4109 34.1193 84.6359 34.1193 84.8609 34.0943C85.0858 34.0943 85.2608 34.0193 85.4108 33.8944C85.5607 33.7694 85.6357 33.5944 85.6357 33.3195C85.6607 33.0695 85.6607 32.7945 85.6607 32.5446V9.22347C85.6607 8.87352 85.5107 8.59857 85.2608 8.44859ZM55.7407 16.2723C55.7157 15.9973 55.6407 15.7974 55.4658 15.6724C55.3158 15.5474 55.1408 15.4974 54.9408 15.4724C54.7409 15.4724 54.4909 15.4474 54.241 15.4474H52.3913C52.1663 15.4474 51.9663 15.4474 51.7664 15.4724C51.5664 15.4974 51.3914 15.5474 51.2415 15.6474C51.1415 15.7474 51.0665 15.8474 51.0415 15.9973C51.0165 16.0723 51.0165 16.1223 51.0165 16.2223C50.9415 16.6472 50.7915 16.9972 50.4916 17.0472C50.3166 17.0722 50.1416 16.9722 50.0167 16.8472C49.9167 16.7722 49.8417 16.7222 49.7667 16.6472C49.6417 16.5222 49.5168 16.3973 49.3668 16.2723C49.2668 16.1973 49.1918 16.1223 49.1168 16.0723C49.0418 16.0223 48.9668 15.9473 48.8919 15.9223C48.5669 15.7224 48.242 15.5474 47.867 15.3974C47.5921 15.2475 47.0672 15.0975 46.4423 15.0225C46.1173 14.9725 45.7674 14.9475 45.3924 14.9725H45.2925C45.0425 14.9725 44.7925 14.9725 44.5676 14.9975C44.5426 14.9975 44.5426 14.9975 44.5176 14.9975C43.7177 15.0475 43.0678 15.1975 42.7429 15.3974C42.5179 15.4724 42.3179 15.5474 42.118 15.6474C41.768 15.7974 41.4431 15.9723 41.1431 16.1473C41.0182 16.2223 40.8932 16.2973 40.7682 16.3973C40.6432 16.4723 40.5182 16.5722 40.3933 16.6722L40.1683 16.8972C40.0433 16.9972 39.9184 17.0972 39.7934 17.2221C39.6684 17.3471 39.5684 17.4721 39.4934 17.5971C39.3184 17.822 39.1685 18.022 38.9935 18.222C38.8435 18.4219 38.6936 18.6469 38.5686 18.8968C38.3186 19.2968 38.1187 19.6967 37.9687 20.1216C37.9187 20.2716 37.8687 20.4216 37.8187 20.5716C37.5687 21.1715 37.3688 22.0213 37.2688 22.9962C37.2438 23.0712 37.2438 23.1211 37.2438 23.1961C37.2188 23.4961 37.1938 23.796 37.1938 24.121C37.1938 24.171 37.1938 24.246 37.1938 24.3209V24.5459C37.1938 26.2456 37.4438 27.7204 37.8437 28.5952C37.8687 28.6452 37.8937 28.6952 37.9187 28.7452C38.3436 29.795 38.8935 30.6699 39.5434 31.4198C40.1933 32.1696 41.0182 32.7195 42.068 33.1445C42.3429 33.2695 42.6179 33.3444 42.9428 33.4194C43.2678 33.4694 43.5927 33.5444 43.9177 33.6194C44.0177 33.6444 44.0927 33.6444 44.1926 33.6444C44.2676 33.6444 44.3676 33.6694 44.4426 33.6694H44.7425C44.8675 33.6944 45.0675 33.6944 45.3175 33.6944C45.5924 33.6944 45.7674 33.6944 45.8924 33.6694C46.0173 33.6444 46.1423 33.6194 46.2673 33.6194C46.3923 33.5944 46.5422 33.5944 46.6922 33.5694C46.9922 33.4944 47.2671 33.4194 47.5171 33.3444C47.792 33.2695 48.042 33.1695 48.317 33.0445C48.5919 32.9195 48.8169 32.7945 49.0418 32.6446C49.2668 32.4946 49.4668 32.3446 49.6917 32.1696C49.7667 32.1196 49.8167 32.0697 49.8917 31.9947C49.9417 31.9447 50.0167 31.8947 50.0667 31.8447C50.1416 31.7947 50.2166 31.7447 50.3166 31.7197C50.4666 31.6697 50.6166 31.6697 50.7665 31.7447C51.0165 31.8947 51.0665 32.1946 51.0165 32.6446C51.0165 32.6945 51.0165 32.7945 51.0165 32.8445C50.9915 32.9445 50.9915 33.0445 50.9915 33.1195C50.9915 33.3944 50.9165 33.6194 50.9165 33.8694C50.8915 34.1193 50.8665 34.3693 50.8165 34.5692C50.7665 34.7442 50.7415 34.8942 50.7166 35.0442C50.6916 35.1941 50.6666 35.3441 50.6166 35.4691C50.3916 35.944 50.1167 36.3689 49.7917 36.7439C49.5917 36.9688 49.3418 37.1688 49.0668 37.3438C48.9418 37.4188 48.8169 37.4938 48.6419 37.5687L48.5169 37.6187C48.4419 37.6687 48.3669 37.6937 48.292 37.6937C47.992 37.7937 47.6671 37.8687 47.2921 37.8937C46.5922 37.9687 46.2423 37.9437 45.5174 37.8187C45.2425 37.7937 44.9425 37.6437 44.6676 37.4937C44.5426 37.4438 44.4426 37.3688 44.3426 37.3188C44.1926 37.2188 44.0427 37.1188 43.9177 36.9938C43.8927 36.9938 43.8927 36.9688 43.8677 36.9688L43.8427 36.9438C43.6927 36.7939 43.5677 36.6439 43.4678 36.4689C43.4428 36.4439 43.4178 36.3939 43.3928 36.3689C43.1928 36.094 43.0428 35.894 42.9678 35.744C42.8679 35.5941 42.6179 35.4691 42.243 35.3691C42.118 35.3691 42.018 35.3691 41.943 35.3441C41.868 35.3191 41.743 35.3191 41.6431 35.3191H40.4183C40.1433 35.3191 39.8684 35.3191 39.5684 35.2941C39.2685 35.2691 38.9935 35.2941 38.7435 35.3441C38.4936 35.3941 38.3186 35.4941 38.1686 35.6441C38.0437 35.794 38.0187 36.044 38.0687 36.3439C38.0937 36.3939 38.0937 36.4439 38.0937 36.5189C38.0937 36.5939 38.1187 36.6689 38.1686 36.7439C38.5186 37.7437 39.0435 38.5186 39.7684 39.1185C40.4933 39.7184 41.3181 40.1933 42.243 40.5932C42.4679 40.6932 42.6929 40.7682 42.9179 40.8182C43.1428 40.8682 43.3928 40.9432 43.6177 40.9682C43.6427 40.9932 43.6927 40.9932 43.7427 40.9932C44.3176 41.1431 45.1425 41.2431 46.0923 41.2431H46.2423H46.3673C47.3421 41.2431 48.217 41.1681 48.8419 41.0182C49.0918 40.9932 49.3668 40.9432 49.6167 40.8682C49.9167 40.7932 50.1916 40.7182 50.4416 40.6432C50.6916 40.5682 50.9665 40.4683 51.2415 40.3433C52.1663 39.9433 52.9412 39.4684 53.5911 38.8435C54.241 38.2436 54.7659 37.4688 55.1658 36.5689C55.2908 36.294 55.3658 36.019 55.4408 35.7191C55.4908 35.4191 55.5907 35.0942 55.6657 34.7692C55.6907 34.5692 55.7157 34.3943 55.7157 34.2443C55.7407 34.0943 55.7407 33.9193 55.7657 33.7194C55.7657 33.5194 55.7657 33.3444 55.7907 33.1445C55.7907 32.9695 55.8157 32.7695 55.8157 32.5696V17.0722C55.7657 16.8222 55.7657 16.5472 55.7407 16.2723ZM50.9165 24.9708C50.8915 25.3458 50.8415 25.6957 50.7665 26.0457C50.6916 26.3956 50.6166 26.6706 50.5166 26.8705C50.2666 27.4704 49.9667 27.9953 49.5917 28.4203C49.2168 28.8452 48.7169 29.1951 48.117 29.4451C47.917 29.5451 47.7171 29.5951 47.5421 29.6201H47.5171C47.3421 29.6701 47.1671 29.6951 46.9672 29.7201H46.9172H46.8672C46.7422 29.7201 46.6422 29.745 46.5173 29.745C46.4673 29.745 46.4173 29.745 46.3423 29.745H46.2673C46.0923 29.745 45.9423 29.72 45.7924 29.6951C45.7674 29.6951 45.7424 29.6951 45.7174 29.6951C45.6674 29.6951 45.6174 29.6701 45.5924 29.6701C45.3424 29.6201 45.1425 29.5451 44.9675 29.4701C44.8675 29.4201 44.7925 29.3951 44.7176 29.3451C44.1676 29.0452 43.7177 28.6702 43.4178 28.1953C43.0928 27.7204 42.8429 27.1705 42.6179 26.5456C42.5929 26.4206 42.5679 26.3206 42.5429 26.1956C42.4929 25.9707 42.4429 25.7207 42.4179 25.4458V25.3958V25.3708C42.3929 25.1458 42.3679 24.9208 42.3679 24.6959C42.3429 24.4459 42.3429 24.146 42.3429 23.821C42.3679 23.4711 42.3929 23.1711 42.4179 22.9212C42.4429 22.7212 42.4679 22.5462 42.5179 22.3713V22.3463C42.5179 22.2713 42.5429 22.1713 42.5929 22.0463C42.6929 21.7214 42.7929 21.4464 42.9179 21.2215C43.0678 20.8715 43.2428 20.5716 43.4428 20.2716C43.7677 19.7467 44.2676 19.3468 44.8925 19.0718C44.9425 19.0718 44.9675 19.0468 44.9925 19.0468C45.3424 18.8469 45.8924 18.7219 46.5173 18.7219C46.9422 18.7219 47.3171 18.7719 47.6421 18.8719C48.192 18.9968 48.6419 19.1718 48.9918 19.4218C49.6167 19.8717 50.1166 20.5466 50.4416 21.3714C50.5166 21.5214 50.5666 21.6714 50.6166 21.8464L50.7665 22.3463C50.7915 22.4213 50.7915 22.4713 50.7915 22.5212C50.8165 22.6462 50.8415 22.7712 50.8665 22.8962C50.9165 23.1711 50.9665 23.4711 50.9665 23.796C50.9415 24.221 50.9415 24.5959 50.9165 24.9708ZM105.607 23.2711C105.532 22.7462 105.432 22.2963 105.332 21.9213C105.207 21.3714 104.983 20.7715 104.708 20.1466C104.633 19.9467 104.533 19.7467 104.433 19.5467C104.408 19.5217 104.383 19.4718 104.358 19.4468C104.058 18.8719 103.708 18.3719 103.383 17.947L103.333 17.872C103.333 17.872 103.333 17.872 103.308 17.872C103.058 17.5471 102.783 17.2971 102.558 17.1221C102.533 17.0971 102.483 17.0722 102.458 17.0472C102.233 16.8722 102.033 16.6972 101.808 16.5472C101.108 16.0723 100.308 15.6724 99.4334 15.3724H99.4084C98.8085 15.1225 97.7587 14.9475 96.5839 14.9475H96.5089C96.4339 14.9475 96.334 14.9475 96.259 14.9475H96.234C96.009 14.9475 95.784 14.9725 95.5841 14.9725C95.4591 14.9725 95.3091 14.9975 95.1591 14.9975C95.1342 14.9975 95.1092 15.0225 95.0842 15.0225C94.6842 15.0725 94.3343 15.1475 94.0343 15.2475C93.6844 15.2974 93.3594 15.3974 93.0345 15.5474C90.5349 16.5972 88.7852 18.3719 87.7354 20.8715C87.6354 21.0965 87.5604 21.3214 87.4854 21.5714C87.2605 22.2213 87.1105 23.0462 87.0355 23.971V24.046V24.096C87.0355 24.271 87.0105 24.4709 87.0105 24.6459C87.0105 24.6959 87.0105 24.7209 87.0105 24.7709C87.0105 24.8209 87.0105 24.8709 87.0105 24.8958C87.0105 26.4456 87.2605 27.8204 87.6854 28.7202C87.7604 28.9702 87.8354 29.1951 87.9354 29.4451C88.3103 30.295 88.8102 31.0448 89.4351 31.6697C90.035 32.3196 90.7349 32.8695 91.5098 33.3444C91.7097 33.4694 91.9097 33.5694 92.1347 33.6444C92.3346 33.7194 93.1595 34.0443 93.5094 34.1693C93.7844 34.2693 94.1343 34.3443 94.5093 34.4193L94.5842 34.4443C95.0092 34.5442 95.4341 34.5692 95.734 34.5692C95.959 34.5942 96.159 34.5942 96.3839 34.5942C96.4339 34.5942 96.4839 34.5942 96.5589 34.5942C96.5839 34.5942 96.6089 34.5942 96.6339 34.5942C99.0835 34.4443 99.4584 34.2193 100.708 33.7944C101.508 33.4944 101.658 33.3694 102.208 32.9695C102.883 32.4946 103.483 31.8447 104.033 31.0448C104.233 30.7699 104.383 30.5199 104.533 30.245C104.683 29.97 104.808 29.6701 104.933 29.3451C104.983 29.2201 105.007 29.0702 104.983 28.9202C104.983 28.8452 104.958 28.7952 104.958 28.7452C104.908 28.5202 104.758 28.3703 104.583 28.3703H103.783C103.708 28.3703 103.633 28.3703 103.558 28.3703H103.483H102.283C102.208 28.3703 102.158 28.3703 102.083 28.3703C101.983 28.3703 101.883 28.3703 101.783 28.3703H101.558C101.408 28.3703 101.008 28.4953 100.758 28.7952C100.683 28.8952 100.583 29.0202 100.508 29.1201C100.383 29.2701 100.308 29.3701 100.158 29.5201C99.9584 29.72 99.9333 29.745 99.6334 29.945C99.3335 30.145 99.0585 30.295 98.8085 30.4199H98.7835C98.5086 30.5699 98.1586 30.6699 97.7087 30.7449C97.6587 30.7699 97.5837 30.7699 97.5338 30.7949H97.3838C97.2338 30.8199 97.0588 30.8199 96.8839 30.8199C96.7089 30.8449 96.5089 30.8449 96.284 30.8199C96.284 30.8199 96.284 30.8199 96.259 30.8199C95.5091 30.7949 94.8842 30.6449 94.4593 30.4449C94.3843 30.4199 94.3093 30.3699 94.2343 30.3199C93.7594 30.02 93.3594 29.6951 93.0845 29.3201C92.8095 28.9452 92.5346 28.4953 92.3346 27.8953C92.3346 27.8704 92.2846 27.7704 92.2846 27.7454C92.2346 27.6204 92.2346 27.4954 92.2096 27.2705C92.1846 27.1705 92.1846 27.0955 92.1846 26.9955C92.1846 26.9205 92.1846 26.8205 92.2096 26.7206C92.2346 26.5956 92.2596 26.4956 92.3096 26.4456C92.3346 26.4206 92.3596 26.3956 92.3596 26.3706C92.4096 26.2706 92.5346 26.1706 92.7095 26.0707C92.8345 26.0207 92.9595 25.9957 93.1345 25.9957H102.483C102.708 25.9957 102.958 25.9957 103.233 26.0207C103.508 26.0457 103.783 26.0457 104.058 26.0207C104.333 26.0207 104.583 25.9957 104.833 25.9457C105.057 25.9207 105.232 25.8457 105.357 25.7457C105.482 25.6707 105.557 25.5207 105.607 25.2708C105.632 25.0958 105.682 24.5209 105.657 24.3459C105.732 23.971 105.682 23.846 105.607 23.2711ZM100.208 22.4962C100.083 22.6962 99.8334 22.7962 99.4584 22.7962C99.0835 22.7962 98.7336 22.8212 98.3836 22.8212H93.3844C93.0345 22.8212 92.7845 22.7712 92.5846 22.6462C92.4596 22.5462 92.3846 22.4213 92.3346 22.2713C92.3096 22.1213 92.2846 21.9713 92.3096 21.8214C92.3346 21.6714 92.3846 21.4964 92.4346 21.3464C92.4846 21.1965 92.5596 21.0715 92.5846 20.9715C93.0845 19.9717 93.8844 19.3218 94.9342 18.9718C95.0592 18.9219 95.2091 18.8719 95.3341 18.8469C95.5091 18.7969 95.859 18.7469 95.959 18.7469C96.059 18.7219 97.5837 18.5469 98.5586 19.3218C99.0835 19.7217 99.5584 20.1716 99.9084 20.8215C99.9833 20.9965 100.083 21.2465 100.208 21.5964C100.408 21.9463 100.383 22.2463 100.208 22.4962ZM128.454 0C116.556 0 106.907 9.64839 106.907 21.5464C106.907 33.4444 116.556 43.0928 128.454 43.0928C140.352 43.0928 150 33.4444 150 21.5464C150 9.64839 140.352 0 128.454 0ZM121.08 34.0193C120.98 34.1943 120.755 34.3193 120.43 34.4193C120.255 34.4693 120.08 34.4693 119.88 34.4443C119.68 34.4193 119.505 34.4193 119.305 34.4193H117.155C116.881 34.4193 116.631 34.4193 116.406 34.3943C116.181 34.3693 115.981 34.2943 115.856 34.1693C115.731 34.0443 115.656 33.8694 115.631 33.6194C115.606 33.3694 115.581 33.1195 115.581 32.8695V11.1731C115.581 10.8482 115.581 10.4483 115.556 9.97334C115.531 9.52342 115.606 9.19846 115.706 8.9985C115.806 8.84852 115.956 8.72354 116.181 8.62356C116.256 8.62356 116.331 8.62357 116.381 8.59857C116.431 8.59857 116.506 8.57357 116.556 8.57357H119.68C119.955 8.57357 120.205 8.57357 120.43 8.59857C120.68 8.62357 120.855 8.69855 120.98 8.87352C121.105 9.04849 121.155 9.27345 121.18 9.52341C121.18 9.79836 121.205 10.0733 121.205 10.3983V32.0947C121.205 32.4196 121.205 32.7695 121.23 33.1445C121.255 33.5194 121.205 33.8194 121.08 34.0193ZM142.351 23.0712V32.1696C142.351 32.6196 142.351 33.0695 142.326 33.4944C142.301 33.9193 142.126 34.1943 141.801 34.3193C141.651 34.3693 141.476 34.3943 141.301 34.3943H138.752C138.452 34.3943 138.202 34.3693 137.977 34.3443C137.752 34.3193 137.577 34.1943 137.452 34.0443C137.352 33.8944 137.302 33.7194 137.277 33.4944C137.277 33.2695 137.252 33.0195 137.252 32.7445V24.7959C137.252 23.896 137.227 23.0712 137.152 22.3213C137.077 21.5714 136.852 20.9215 136.502 20.3716C136.227 19.9717 135.827 19.6467 135.302 19.4468C134.978 19.2718 134.428 19.1718 133.828 19.1718C133.103 19.1718 132.503 19.3218 132.203 19.5467C131.953 19.6467 131.728 19.7717 131.553 19.8967C130.778 20.4466 130.328 21.2715 130.178 22.3213C130.028 23.3961 129.953 24.5959 129.953 25.9207V33.3195C129.953 33.5444 129.928 33.7194 129.853 33.8694C129.728 34.1443 129.528 34.2943 129.278 34.3443C129.003 34.3943 128.679 34.4193 128.304 34.4193H126.479C126.204 34.4193 125.954 34.4193 125.679 34.3943C125.404 34.3693 125.229 34.2943 125.104 34.1443C124.929 33.9193 124.854 33.6194 124.879 33.1945C124.879 32.7945 124.904 32.3946 124.904 32.0447V17.2721C124.904 16.9972 124.904 16.7722 124.929 16.5472C124.954 16.3223 125.004 16.1473 125.129 15.9973C125.179 15.9223 125.254 15.8724 125.354 15.8474C125.454 15.8224 125.579 15.7724 125.704 15.7474H125.879C126.004 15.7224 126.129 15.7224 126.254 15.7224H128.154C128.354 15.7224 128.529 15.7224 128.729 15.7474C128.904 15.7474 129.078 15.7974 129.228 15.8474C129.403 15.9223 129.503 16.0223 129.578 16.1723C129.628 16.2973 129.628 16.4473 129.678 16.5972C129.778 17.0222 129.878 17.4721 130.203 17.4971C130.353 17.5221 130.478 17.4471 130.603 17.3471C130.653 17.2971 130.803 17.1471 130.853 17.0972C131.028 16.8972 131.353 16.5972 131.553 16.4723C131.703 16.3723 131.803 16.2973 131.928 16.2223C132.278 15.9723 132.803 15.7474 133.428 15.5724C133.453 15.5724 133.478 15.5474 133.503 15.5474C133.703 15.4724 133.903 15.4474 134.128 15.4224C134.228 15.3974 134.303 15.3974 134.403 15.3724C135.202 15.2475 135.952 15.2225 136.527 15.2725C137.552 15.3224 138.427 15.5224 139.152 15.8724C140.127 16.3223 140.877 16.9972 141.426 17.897C141.601 18.172 141.726 18.4469 141.826 18.7469C141.926 19.0468 142.026 19.3468 142.126 19.6717C142.176 19.8717 142.201 20.0467 142.226 20.2216C142.226 20.3966 142.276 20.5716 142.326 20.7215C142.326 20.8715 142.351 20.9715 142.376 21.0215C142.426 21.3714 142.451 21.7214 142.451 22.0713V23.0712H142.351Z" fill="black"/>
</svg>
