<svg width="179" height="40" viewBox="0 0 179 40" fill="none" xmlns="http://www.w3.org/2000/svg">
<g clip-path="url(#clip0_1_214)">
<path d="M0 0H18.049C18.049 6.17886 18.049 12.3577 18.049 18.5366H0V0Z" fill="#E74315"/>
<path d="M19.9829 0H38.0319C38.0319 6.17886 38.0319 12.3577 38.0319 18.5366C32.0156 18.5366 25.9993 18.5366 19.9829 18.5366C19.9829 12.3577 19.9829 6.17886 19.9829 0Z" fill="#87B826"/>
<path d="M79.5015 7.28226C80.361 7.06158 81.2205 7.50293 81.6502 8.16495C82.2948 8.82697 82.2948 9.93034 81.8651 10.813C81.4353 11.6957 80.1461 12.1371 79.2866 11.9164C78.2123 11.6957 77.3528 10.813 77.5677 9.70967C77.5677 8.38562 78.4272 7.50293 79.5015 7.28226Z" fill="#817C7A"/>
<path d="M49.4199 7.72363H55.2214C56.9404 12.3578 58.8742 16.9919 60.5931 21.6261C61.0229 22.7294 61.4526 24.0535 61.8823 25.1568C64.2459 19.4193 66.6095 13.6818 68.7582 7.94431C70.692 7.94431 72.4109 7.94431 74.3448 7.94431C74.3448 15.6679 74.3448 23.6121 74.3448 31.3357C73.0556 31.3357 71.7663 31.3357 70.4771 31.3357C70.4771 25.5982 70.4771 19.8607 70.4771 13.9025C70.4771 13.6818 70.4771 13.4611 70.4771 13.0198C70.4771 13.2405 70.2623 13.2405 70.2623 13.4611C67.8987 19.4193 65.75 25.3775 63.3864 31.115C62.527 31.115 61.4526 31.115 60.5931 31.115C58.0147 25.3775 55.866 19.4193 53.5024 13.4611C53.5024 13.2405 53.2876 13.2405 53.2876 13.0198C53.2876 15.4472 53.2876 18.0953 53.2876 20.5227C53.2876 24.0535 53.2876 27.5842 53.2876 31.115C51.9984 31.115 50.7091 31.115 49.6348 31.115C49.4199 23.3915 49.4199 15.6679 49.4199 7.72363Z" fill="#817C7A"/>
<path d="M90.46 14.5645C92.3938 13.9025 94.3276 14.1232 96.2614 14.5645C96.6912 14.7852 97.1209 14.7852 97.3358 15.0059C97.3358 16.3299 97.3358 17.654 97.3358 18.7573C96.0466 17.8747 94.5425 17.2126 92.8235 17.4333C91.5343 17.654 90.2451 18.316 89.6005 19.1987C88.5261 20.5227 88.3113 22.2881 88.5261 23.8328C88.741 25.1569 89.1708 26.2602 90.0302 27.1429C91.1046 28.0256 92.3938 28.467 93.683 28.2463C94.9722 28.0256 96.2614 27.5843 97.1209 26.7016C97.1209 28.0256 97.1209 29.129 97.1209 30.453C95.6168 31.3357 93.683 31.7771 91.7492 31.5564C89.8154 31.5564 88.0964 30.6737 86.5923 29.3497C85.0882 27.805 84.2288 25.8189 84.2288 23.6122C84.2288 21.4054 84.6585 19.1987 85.7328 17.4333C87.0221 16.1093 88.741 15.0059 90.46 14.5645Z" fill="#817C7A"/>
<path d="M133.219 14.123C134.938 13.9024 136.872 14.123 138.591 14.7851C138.591 16.1091 138.591 17.2125 138.591 18.5365C137.516 17.6538 136.012 17.2125 134.508 17.2125C133.864 17.2125 133.004 17.6538 132.574 18.3158C132.36 18.9779 132.574 19.8605 133.219 20.3019C134.293 20.9639 135.583 21.4053 136.872 22.0673C137.731 22.5086 138.591 23.1706 139.021 24.274C139.88 26.0394 139.45 28.4668 137.946 30.0115C136.442 31.3356 134.508 31.7769 132.574 31.7769C131.285 31.7769 129.781 31.3356 128.492 30.8942C128.492 29.5702 128.492 28.2461 128.492 26.9221C129.566 27.8048 130.856 28.2461 132.145 28.4668C133.004 28.6875 134.079 28.6875 134.938 28.2461C135.798 27.8048 135.798 26.7014 135.368 26.0394C134.938 25.5981 134.293 25.1567 133.649 24.936C132.574 24.4947 131.285 24.0533 130.211 23.1706C129.566 22.5086 128.922 21.8466 128.707 20.9639C128.492 19.6399 128.492 18.0952 129.351 16.9918C130.211 15.2264 131.715 14.5644 133.219 14.123Z" fill="#817C7A"/>
<path d="M106.145 14.7853C107.22 14.1233 108.509 14.1233 109.798 14.5647C109.798 15.8887 109.798 17.2128 109.798 18.5368C108.939 18.0954 108.079 17.8748 107.22 17.8748C106.145 18.0954 105.286 18.9781 104.856 19.8608C104.426 20.9642 104.212 22.0676 104.212 23.3916V31.3359H100.344C100.344 25.819 100.344 20.0815 100.344 14.5647C101.633 14.5647 102.922 14.5647 104.212 14.5647C104.212 15.4474 104.212 16.5507 104.212 17.4334C104.426 16.3301 105.071 15.2267 106.145 14.7853Z" fill="#817C7A"/>
<path d="M77.9977 14.5645C79.2869 14.5645 80.5761 14.5645 81.8653 14.5645C81.8653 20.0813 81.8653 25.8188 81.8653 31.3356H77.9977C77.9977 25.8188 77.9977 20.0813 77.9977 14.5645Z" fill="#817C7A"/>
<path d="M122.261 26.2601C121.831 27.1428 121.186 27.8048 120.327 28.2462C119.253 28.6875 118.178 28.6875 117.104 28.4669C116.03 28.2462 115.17 27.3635 114.74 26.4808C114.096 25.1568 114.096 23.612 114.096 22.288C114.311 20.964 114.74 19.6399 115.6 18.7572C116.244 17.6539 117.104 17.4332 118.178 17.4332C119.253 17.4332 120.542 17.6539 121.401 18.5366C122.261 19.4192 122.69 20.7433 122.69 22.0673C122.905 23.3914 122.691 24.9361 122.261 26.2601ZM125.914 18.3159C125.269 16.7712 123.98 15.4471 122.476 14.7851C120.757 13.9024 118.823 13.9024 116.889 14.1231C114.955 14.3438 113.021 15.4471 111.732 16.9918C110.658 18.5366 110.013 20.3019 110.013 22.0673C109.798 24.2741 110.228 26.4808 111.517 28.4669C112.592 30.0116 114.311 31.115 116.03 31.5563C117.534 31.777 119.038 31.777 120.542 31.5563C122.261 31.115 123.98 30.2323 125.054 28.6875C126.128 27.3635 126.558 25.5981 126.773 23.8327C126.988 21.8467 126.773 20.0813 125.914 18.3159Z" fill="#817C7A"/>
<path d="M153.846 24.7156C153.632 25.5983 153.417 26.481 152.772 27.143C152.128 27.8051 151.268 28.2464 150.409 28.4671C149.549 28.6877 148.475 28.4671 147.615 28.2464C146.756 27.8051 145.896 26.9224 145.467 26.0397C145.037 24.9363 144.822 23.6123 145.037 22.2882C145.037 21.1848 145.467 19.8608 146.326 18.9781C146.971 18.0954 148.045 17.6541 149.119 17.6541C150.194 17.6541 151.483 17.8747 152.342 18.5368C153.202 19.1988 153.632 20.3022 153.846 21.1848C154.061 22.2882 154.061 23.3916 153.846 24.7156ZM157.499 18.9781C156.855 17.2127 155.78 15.8887 154.061 15.006C152.342 14.1233 150.194 13.9026 148.26 14.1233C146.756 14.344 145.037 15.006 143.962 16.1094C142.458 17.4334 141.599 19.4195 141.384 21.1848C141.169 23.1709 141.169 25.157 142.029 27.143C142.673 28.9084 144.177 30.4531 146.111 31.1152C147.83 31.7772 149.764 31.9979 151.698 31.5565C153.632 31.3358 155.351 30.2325 156.425 28.6877C157.714 27.143 158.144 24.9363 158.144 22.9502C158.144 21.6262 157.929 20.0815 157.499 18.9781Z" fill="#817C7A"/>
<path d="M178.556 17.6538V14.5644C177.267 14.5644 175.978 14.5644 174.689 14.5644C174.689 12.799 174.689 11.2543 174.689 9.48888C173.4 9.93023 172.11 10.3716 170.821 10.5923C170.821 11.9163 170.821 13.2403 170.821 14.3437C168.887 14.3437 166.953 14.3437 165.02 14.3437C165.02 13.2403 165.02 12.3576 165.02 11.2543C165.234 10.3716 165.664 9.70956 166.309 9.26821C167.168 8.82686 168.243 9.04754 169.102 9.48888C169.102 8.38552 169.102 7.28215 169.102 5.95811C167.168 5.51676 165.02 5.51676 163.301 6.62013C162.226 7.28215 161.367 8.38552 161.152 9.70956C160.937 11.6956 161.152 13.0197 161.152 14.5644C160.292 14.5644 159.433 14.5644 158.359 14.5644C158.359 15.6677 158.359 16.7711 158.359 17.8745C159.218 17.8745 160.078 17.8745 161.152 17.8745C161.152 22.5086 161.152 26.9221 161.152 31.5562H165.02C165.02 26.9221 165.02 22.5086 165.02 17.8745C166.953 17.8745 168.887 17.8745 170.821 17.8745C170.821 20.7432 170.821 23.612 170.821 26.4807C170.821 27.8048 171.036 29.3495 171.895 30.2322C172.54 31.1149 173.829 31.5562 174.904 31.7769C176.193 31.7769 177.267 31.7769 178.556 31.1149V27.8048C177.697 28.4668 176.408 28.6875 175.548 28.0255C174.904 27.8048 174.689 26.9221 174.689 26.4807C174.474 25.3774 174.689 24.4947 174.689 23.3913C174.689 21.4053 174.689 19.6399 174.689 17.6538C175.978 17.6538 177.267 17.6538 178.556 17.6538Z" fill="#817C7A"/>
<path d="M0 20.5227C6.01634 20.5227 12.0327 20.5227 18.049 20.5227C18.049 26.7016 18.049 32.8804 18.049 39.0593H0V20.5227Z" fill="#41A1DA"/>
<path d="M19.9829 20.5227C25.9993 20.5227 32.0156 20.5227 38.0319 20.5227V39.0593H19.9829C19.9829 32.8804 19.9829 26.7016 19.9829 20.5227Z" fill="#FBBA00"/>
</g>
<defs>
<clipPath id="clip0_1_214">
<rect width="178.556" height="39.0592" fill="white"/>
</clipPath>
</defs>
</svg>
