<svg width="154" height="37" viewBox="0 0 154 37" fill="none" xmlns="http://www.w3.org/2000/svg">
<path d="M24.8636 25.5849L20.8161 23.2232L19.4669 22.436C18.8886 22.0424 18.6959 21.452 18.6959 20.6647C18.6959 19.8775 19.0814 19.2871 19.4669 18.8934L20.8161 18.1062L16.5757 15.9413C15.2265 17.1222 14.4556 18.8934 14.4556 20.8615C14.4556 22.8296 15.2265 24.6009 16.5757 25.7817C16.7685 25.9785 16.9612 26.1754 17.3467 26.3722L20.8161 28.3402L32.1878 35.0317C33.1516 35.6222 34.1153 35.819 35.2717 35.819C38.7411 35.819 41.6322 32.8668 41.6322 29.3243V12.202C41.6322 8.6594 38.7411 5.70728 35.2717 5.70728C34.1153 5.70728 32.9588 6.10089 32.1878 6.49451L20.8161 13.186L24.2854 15.1541C24.4782 15.3509 24.8636 15.5477 25.0564 15.7445L34.308 10.2339C34.6935 10.0371 35.079 9.84025 35.2717 9.84025C36.4282 9.84025 37.3919 10.8243 37.3919 12.0051V29.1275C37.3919 30.3083 36.4282 31.2924 35.2717 31.2924C34.8862 31.2924 34.5007 31.0956 34.308 30.8988L24.8636 25.5849Z" fill="#149ED9"/>
<path d="M106.008 26.766V14.1702H111.79V10.0372H106.008V4.52661H101.768V26.766C101.768 33.4575 106.008 37 111.983 36.4096V32.4734C108.706 32.6702 106.008 31.4894 106.008 26.766Z" fill="#00457D"/>
<path d="M94.4434 1.96802C93.0942 1.96802 91.9377 3.14886 91.9377 4.52652C91.9377 5.90418 93.0942 7.08502 94.4434 7.08502C95.7926 7.08502 96.9491 5.90418 96.9491 4.52652C96.9491 3.14886 95.7926 1.96802 94.4434 1.96802Z" fill="#149ED9"/>
<path d="M147.254 27.7499V0.196777H143.014V27.7499C143.014 32.6702 146.869 36.6063 151.688 36.6063V32.2765C149.182 32.0797 147.254 30.1116 147.254 27.7499Z" fill="#00457D"/>
<path d="M81.3369 2.36182L70.9289 27.7501L60.7136 2.36182H54.7386V36.0161H58.979V8.26607L70.1579 36.0161H71.8926L83.0716 8.26607V36.0161H87.3119V2.36182H81.3369Z" fill="#00457D"/>
<path d="M20.8161 18.3032L22.1653 19.0905C22.7436 19.4841 22.9363 20.0745 22.9363 20.8618C22.9363 21.4522 22.5508 22.2394 22.1653 22.633L20.8161 23.4203L24.8637 25.782C26.2129 24.6011 26.9839 22.8298 26.9839 20.8618C26.9839 18.8937 26.2129 17.1224 24.8637 15.9415C24.671 15.7447 24.4782 15.5479 24.0928 15.3511L20.6234 13.383L9.44436 6.69153C8.48065 6.10111 7.51694 5.9043 6.36049 5.9043C2.89113 5.9043 0 8.65962 0 12.2022V29.3245C0 32.8671 2.89113 35.8192 6.36049 35.8192C7.51694 35.8192 8.67339 35.4256 9.44436 35.032L20.8161 28.3405L17.3468 26.3724C17.154 26.1756 16.7686 25.9788 16.5758 25.782L7.3242 31.2926C6.93871 31.2926 6.74597 31.4894 6.36049 31.4894C5.20404 31.4894 4.24032 30.5054 4.24032 29.3245V12.2022C4.24032 11.0213 5.20404 10.0373 6.36049 10.0373C6.74597 10.0373 7.13146 10.2341 7.3242 10.4309L16.5758 15.9415L20.8161 18.3032Z" fill="#00457D"/>
<path d="M150.917 2.36169H151.302C151.688 2.36169 152.073 2.36169 152.073 1.96808C152.073 1.57446 151.688 1.57446 151.495 1.57446H150.917V2.36169ZM150.531 0.984039H151.688C152.266 0.984039 152.651 1.18085 152.651 1.77127C152.651 2.36169 152.266 2.5585 151.88 2.5585L152.651 3.93616H152.266L151.495 2.75531H151.109V3.93616H150.338L150.531 0.984039ZM151.302 4.52658C152.459 4.52658 153.23 3.54254 153.23 2.36169C153.23 1.18085 152.459 0.393616 151.302 0.393616C150.146 0.393616 149.375 1.37766 149.375 2.36169C149.375 3.54254 150.338 4.52658 151.302 4.52658ZM151.302 0C152.651 0 153.615 0.984039 153.615 2.36169C153.615 3.73935 152.459 4.72339 151.302 4.72339C149.953 4.72339 148.797 3.73935 148.797 2.36169C148.989 0.984039 150.146 0 151.302 0Z" fill="#00457D"/>
<path d="M96.5635 9.64355H92.3232V36.0159H96.5635V9.64355Z" fill="#00457D"/>
<path d="M126.439 13.383C130.101 13.383 133.763 16.3351 134.726 20.4681H117.958C119.114 15.9415 122.776 13.383 126.439 13.383ZM126.631 33.0638C122.391 33.0638 118.343 29.9149 117.765 24.4042H139.352C139.352 14.9574 132.992 9.44678 126.246 9.44678C119.114 9.44678 113.332 15.7447 113.332 23.2234C113.332 30.8989 119.114 37 126.631 37C132.606 37 137.039 33.8511 138.774 28.1436H134.341C132.992 31.2925 130.293 33.0638 126.631 33.0638Z" fill="#00457D"/>
</svg>
