<svg width="178" height="24" viewBox="0 0 178 24" fill="none" xmlns="http://www.w3.org/2000/svg">
<path d="M128.132 0.625488H124.531V23.2791H141.686L144.016 19.4322H128.132V0.625488Z" fill="#DF2515"/>
<path d="M78.3618 1.69315L65.0192 23.0645H69.4667L73.4907 16.6531H82.174L84.5037 13.0199H75.8204L80.4797 5.53999L91.4927 23.0645H95.9402L82.3858 1.69315C81.3268 0.410876 79.209 0.410876 78.3618 1.69315Z" fill="#DF2515"/>
<path d="M104.2 4.25861H119.449L121.778 0.625488H104.2C98.0579 0.625488 94.0339 5.7546 94.0339 11.9523C94.0339 18.1499 98.0579 23.2791 104.2 23.2791H119.237L121.566 19.6459H104.412C100.176 19.6459 97.8461 16.2265 97.8461 12.166C97.6343 7.67801 99.964 4.25861 104.2 4.25861Z" fill="#DF2515"/>
<path d="M26.0499 19.432H10.1658C5.93007 19.432 3.6004 16.0126 3.6004 11.952C3.6004 7.67777 5.93007 4.47208 10.1658 4.47208H26.0499C30.2857 4.47208 32.6154 7.89148 32.6154 11.952C32.6154 16.2263 30.0739 19.432 26.0499 19.432ZM26.0499 0.625244H10.1658C4.02397 0.625244 0 5.75435 0 11.952C0 18.1497 4.02397 23.2788 10.1658 23.2788H26.0499C32.1918 23.2788 36.2158 18.1497 36.2158 11.952C36.2158 5.75435 32.1918 0.625244 26.0499 0.625244Z" fill="#DF2515"/>
<path d="M154.394 4.25861H169.642L171.972 0.625488H154.182C148.04 0.625488 144.016 5.7546 144.016 11.9523C144.016 18.1499 148.04 23.2791 154.182 23.2791H169.219L171.548 19.4322H154.394C150.793 19.4322 148.675 16.8677 148.04 13.662H167.313L169.642 10.0289H148.04C148.675 6.82316 151.005 4.25861 154.394 4.25861Z" fill="#DF2515"/>
<path d="M56.9713 14.0881C60.5717 14.0881 63.5368 11.0961 63.5368 7.463C63.5368 3.82987 60.5717 0.837891 56.9713 0.837891H38.334V23.2778H42.358V4.2573H56.7595C58.4538 4.2573 59.7246 5.53958 59.7246 7.24928C59.7246 8.95899 58.4538 10.2413 56.7595 10.2413H45.1112L58.2421 23.0641H63.5368L54.2181 13.8744L56.9713 14.0881Z" fill="#DF2515"/>
<path d="M175.784 4.04428C174.937 4.04428 174.09 3.40314 174.09 2.33456C174.09 1.47971 174.725 0.624847 175.784 0.624847C176.631 0.624847 177.478 1.26599 177.478 2.33456C177.478 3.40314 176.843 4.04428 175.784 4.04428ZM175.784 0.411133C174.725 0.411133 173.666 1.26599 173.666 2.33456C173.666 3.40314 174.513 4.258 175.784 4.258C176.843 4.258 177.69 3.40314 177.69 2.33456C177.902 1.26599 177.055 0.411133 175.784 0.411133Z" fill="#DF2515"/>
</svg>
