<svg width="230" height="17" viewBox="0 0 230 17" fill="none" xmlns="http://www.w3.org/2000/svg">
<g clip-path="url(#clip0_1210_287)">
<path d="M133.315 16.0788V1.06494H136.296L142.792 10.8612V1.06494H145.986V16.0788H143.005L136.509 6.28253V16.0788H133.315Z" fill="black"/>
<path d="M148.968 16.0788V1.06494H158.764V3.83346H152.269V7.13439H158.231V9.9029H152.269V13.4168H158.977V15.9723L148.968 16.0788Z" fill="black"/>
<path d="M165.153 16.0788V3.72698H160.681V1.06494H172.713V3.83346H168.241V16.0788H165.153Z" fill="black"/>
<path d="M174.736 15.3332V13.6295C176.12 14.2683 177.611 14.5878 179.102 14.5878C180.06 14.6943 181.019 14.3748 181.764 13.9489C182.403 13.523 182.722 12.7776 182.722 12.0322C182.722 11.4998 182.509 10.9674 182.083 10.5415C181.444 10.0091 180.699 9.58316 179.954 9.3702L178.356 8.73131C177.292 8.41186 176.333 7.77297 175.481 7.0276C174.949 6.38871 174.63 5.64334 174.63 4.79149C174.63 3.6202 175.162 2.55538 176.014 1.81001C177.185 1.06464 178.463 0.638714 179.847 0.745196C180.593 0.745196 181.231 0.851677 181.977 0.958159C182.616 1.06464 183.255 1.2776 183.787 1.59705V3.30075C182.616 2.76834 181.231 2.4489 179.954 2.34242C177.718 2.34242 176.546 3.08779 176.546 4.57853C176.546 5.11094 176.759 5.53686 177.185 5.85631C177.824 6.38871 178.569 6.70816 179.315 7.0276L180.912 7.66649C181.977 7.98594 183.042 8.62483 183.894 9.47668C184.426 10.1156 184.745 10.9674 184.745 11.9258C184.852 13.097 184.319 14.2683 183.361 15.0137C182.19 15.8656 180.806 16.185 179.421 16.185C178.889 16.185 178.356 16.185 177.824 16.0785C177.292 15.972 176.759 15.8656 176.227 15.7591C175.481 15.7591 175.056 15.5461 174.736 15.3332Z" fill="black"/>
<path d="M187.088 9.26402V1.06494H189.005V9.26402C189.005 11.0742 189.324 12.4585 189.963 13.3103C191.454 14.9075 194.009 15.1205 195.606 13.6298C195.713 13.5233 195.819 13.4168 195.926 13.3103C196.565 12.4585 196.884 11.0742 196.884 9.26402V1.06494H198.801V9.3705C198.801 11.8196 198.269 13.5233 197.31 14.6946C196.352 15.8659 194.861 16.3983 192.944 16.3983C191.028 16.3983 189.537 15.8659 188.579 14.6946C187.62 13.5233 187.088 11.7131 187.088 9.26402Z" fill="black"/>
<path d="M201.995 16.0788V1.06494H203.912V16.0788H201.995Z" fill="black"/>
<path d="M211.259 16.0788V2.66216H206.574V1.06494H217.968V2.66216H213.176V15.9723H211.259V16.0788Z" fill="black"/>
<path d="M220.523 16.0788V1.06494H229.787V2.66216H222.44V7.56031H229.148V9.15753H222.44V14.2686H230V15.8659H220.523V16.0788Z" fill="black"/>
<path d="M52.9213 10.7547H61.0139L56.7546 3.8334L48.875 16.2917H45.2546L54.838 1.38433C55.5833 0.319511 56.9676 0.106548 58.0324 0.851919C58.2454 0.9584 58.4583 1.06488 58.5648 1.27784L68.1481 16.2917H64.5278L62.8241 13.5232H54.625L52.9213 10.7547ZM90.0833 13.5232V0.532474H86.9954V14.801C86.9954 15.2269 87.2083 15.5464 87.4213 15.8658C87.7407 16.1853 88.0602 16.2917 88.4861 16.2917H102.329L104.139 13.5232H90.0833ZM39.9306 11.1806C42.912 11.1806 45.2546 8.83803 45.2546 5.85655C45.2546 2.87507 42.912 0.532474 39.9306 0.532474H26.6204V16.2917H29.7083V3.30099H39.7176C41.1019 3.40747 42.1667 4.57877 42.1667 5.96303C42.0602 7.24081 41.1019 8.30562 39.7176 8.4121H31.1991L40.25 16.2917H44.6157L38.5463 11.1806H39.9306ZM7.98611 16.2917H17.1435C21.5093 16.2917 25.0231 12.7778 25.0231 8.4121C25.0231 4.04636 21.5093 0.532474 17.1435 0.532474H7.98611C3.62037 0.532474 0 4.04636 0 8.4121C0 12.7778 3.62037 16.2917 7.98611 16.2917ZM16.9306 13.5232H8.09259C5.32407 13.4167 3.08796 11.0741 3.19444 8.19914C3.30093 5.5371 5.43056 3.40747 8.09259 3.30099H16.9306C19.6991 3.19451 22.1481 5.43062 22.2546 8.19914C22.3611 10.9677 20.125 13.4167 17.3565 13.5232C17.1435 13.5232 17.037 13.5232 16.9306 13.5232ZM74.537 16.2917H83.9074L85.7176 13.5232H74.75C71.9815 13.6297 69.5324 11.3936 69.4259 8.62507C69.3194 5.85655 71.5556 3.40747 74.3241 3.30099C74.4306 3.30099 74.537 3.30099 74.6435 3.30099H83.588L85.3981 0.532474H74.537C70.1713 0.532474 66.6574 4.04636 66.6574 8.4121C66.6574 12.7778 70.1713 16.2917 74.537 16.2917ZM111.699 13.5232C109.463 13.5232 107.44 12.0325 106.801 9.79636H119.792L121.602 7.02784H106.801C107.44 4.79173 109.463 3.30099 111.699 3.30099H120.644L122.454 0.532474H111.593C107.227 0.532474 103.713 4.04636 103.713 8.4121C103.713 12.7778 107.227 16.2917 111.593 16.2917H120.963L122.773 13.5232H111.699Z" fill="#F80000"/>
</g>
<defs>
<clipPath id="clip0_1210_287">
<rect width="230" height="16.7176" fill="white"/>
</clipPath>
</defs>
</svg>
