<svg width="155" height="42" viewBox="0 0 155 42" fill="none" xmlns="http://www.w3.org/2000/svg">
<g clip-path="url(#clip0_1210_0)">
<path d="M53.1324 41.5523C53.0444 41.6875 52.9256 41.8001 52.7856 41.8809C52.6456 41.9617 52.4885 42.0085 52.327 42.0173H42.0835C41.7917 42.0173 41.6749 41.8081 41.8092 41.5523L52.5896 22.584C52.6588 22.4376 52.6947 22.2778 52.6947 22.116C52.6947 21.9542 52.6588 21.7945 52.5896 21.6481L41.815 1.88337C41.7766 1.83724 41.7535 1.78042 41.7487 1.72069C41.744 1.66095 41.7579 1.60123 41.7886 1.54968C41.8193 1.49813 41.8652 1.45728 41.9201 1.43273C41.975 1.40817 42.0361 1.40111 42.0952 1.4125H52.3561C52.5167 1.42146 52.6728 1.46896 52.811 1.55095C52.9492 1.63293 53.0655 1.74698 53.1499 1.88337L63.9245 21.6481C63.9949 21.7941 64.0315 21.954 64.0315 22.116C64.0315 22.278 63.9949 22.438 63.9245 22.584L53.1324 41.5523ZM35.6631 36.0879C39.4803 32.0536 42.1419 27.2519 42.1419 20.9737C42.1419 9.38466 32.7191 -0.0117188 21.0888 -0.0117188C9.45855 -0.0117188 0.0299072 9.38465 0.0299072 20.9679C0.0299072 32.1873 8.84336 41.8255 20.0499 41.9941H38.9492C38.9981 41.9894 39.0451 41.9728 39.0859 41.9456C39.1268 41.9185 39.1603 41.8817 39.1834 41.8385C39.2065 41.7953 39.2185 41.7471 39.2184 41.6982C39.2183 41.6493 39.206 41.6012 39.1826 41.5581L35.6631 36.0879ZM21.0713 32.0536C14.9468 32.0536 9.98152 27.1084 9.98152 21.0086C9.98152 14.9089 14.9468 9.96364 21.0713 9.96364C27.1958 9.96364 32.1611 14.9089 32.1611 21.0086C32.1611 27.1084 27.1958 32.0536 21.0713 32.0536ZM60.1773 40.0176C60.1755 39.7537 60.2292 39.4923 60.3349 39.2503C60.436 39.0213 60.5807 38.814 60.761 38.6399C60.9425 38.4603 61.1564 38.3163 61.3914 38.2155C61.8851 38.014 62.4386 38.014 62.9323 38.2155C63.1673 38.3163 63.3811 38.4603 63.5626 38.6399C63.7442 38.8175 63.8889 39.0288 63.9887 39.2619C64.0945 39.5039 64.1482 39.7653 64.1463 40.0292C64.1482 40.2913 64.0945 40.5508 63.9887 40.7908C63.7876 41.2611 63.4078 41.6331 62.9323 41.8255C62.4386 42.0271 61.8851 42.0271 61.3914 41.8255C60.9159 41.6331 60.5361 41.2611 60.3349 40.7908C60.2275 40.5472 60.1738 40.2836 60.1773 40.0176ZM60.4925 40.0176C60.4906 40.2373 60.5343 40.455 60.6209 40.6571C60.7041 40.8564 60.825 41.038 60.977 41.1919C61.1302 41.3436 61.3103 41.4658 61.5081 41.5523C61.9276 41.7204 62.3961 41.7204 62.8155 41.5523C63.2172 41.3806 63.5356 41.0593 63.7027 40.6571C63.7893 40.455 63.8331 40.2373 63.8311 40.0176C63.8337 39.7941 63.79 39.5725 63.7027 39.3666C63.5352 38.9673 63.2164 38.6498 62.8155 38.4829C62.3961 38.3148 61.9276 38.3148 61.5081 38.4829C61.3107 38.5677 61.1307 38.6879 60.977 38.8376C60.8251 38.9893 60.7041 39.1689 60.6209 39.3666C60.5337 39.5725 60.49 39.7941 60.4925 40.0176ZM62.6404 41.0989L62.1618 40.2443H61.8466V41.0989H61.3447V38.8899H62.3019C62.4041 38.89 62.5059 38.9017 62.6054 38.9247C62.7007 38.9458 62.7915 38.9831 62.8739 39.0352C62.9545 39.088 63.0207 39.1599 63.0665 39.2445C63.1208 39.3484 63.1469 39.4646 63.1424 39.5816C63.1486 39.7174 63.1027 39.8504 63.014 39.9537C62.9306 40.0526 62.8216 40.127 62.6988 40.1688L63.2825 41.0989H62.6404ZM62.2611 39.8607C62.349 39.8726 62.4384 39.8519 62.512 39.8025C62.5436 39.7776 62.5689 39.7457 62.5861 39.7094C62.6033 39.6731 62.6119 39.6334 62.6113 39.5933C62.6132 39.5526 62.6032 39.5122 62.5825 39.4771C62.5617 39.442 62.5312 39.4137 62.4945 39.3956C62.4325 39.3584 62.3625 39.3365 62.2902 39.3317H61.8817V39.8781L62.2611 39.8607ZM108.33 14.5444C108.005 15.3447 107.512 16.0663 106.883 16.6604C106.223 17.2668 105.447 17.7336 104.601 18.0323C102.679 18.6909 100.592 18.6909 98.6705 18.0323C97.8364 17.734 97.0732 17.2669 96.4292 16.6604C95.8108 16.0647 95.329 15.3428 95.0167 14.5444C94.6753 13.6722 94.5068 12.7424 94.5206 11.8064V1.44157H98.5304V11.4751C98.5278 11.9113 98.5867 12.3457 98.7056 12.7656C98.8159 13.1606 99.0001 13.5314 99.2484 13.8585C99.5035 14.1878 99.8363 14.4494 100.217 14.62C101.152 15.0043 102.201 15.0043 103.136 14.62C103.519 14.4482 103.855 14.187 104.116 13.8585C104.369 13.5342 104.554 13.1625 104.659 12.7656C104.768 12.344 104.823 11.9104 104.822 11.4751V1.44157H108.85V11.8006C108.859 12.7427 108.68 13.6772 108.324 14.5502L108.33 14.5444ZM113.292 18.0788V1.44157H117.348V18.0672L113.292 18.0788ZM133.919 17.7881C132.736 18.3012 131.455 18.553 130.165 18.5264C128.945 18.5399 127.734 18.3249 126.593 17.8928C125.531 17.4949 124.563 16.8827 123.749 16.0944C122.935 15.3061 122.294 14.3588 121.866 13.312C120.94 11.0038 120.94 8.4294 121.866 6.12115C122.303 5.07618 122.958 4.13517 123.786 3.35991C124.619 2.59407 125.598 2.00123 126.663 1.61596C128.937 0.794304 131.429 0.794304 133.703 1.61596C134.767 1.98059 135.721 2.60869 136.475 3.44129L133.732 6.17347C133.36 5.65247 132.845 5.24892 132.249 5.01084C131.651 4.76505 131.011 4.63864 130.364 4.6388C129.694 4.63047 129.03 4.76114 128.414 5.02247C127.84 5.27342 127.322 5.63721 126.891 6.09209C126.461 6.56033 126.126 7.10716 125.905 7.70233C125.66 8.3527 125.54 9.04262 125.549 9.73693C125.54 10.4407 125.66 11.1401 125.905 11.8006C126.12 12.3974 126.453 12.945 126.885 13.4108C127.303 13.8615 127.812 14.2182 128.379 14.4572C128.983 14.7122 129.633 14.8408 130.288 14.8351C131.017 14.8526 131.738 14.6909 132.389 14.3642C132.959 14.0752 133.453 13.6571 133.831 13.1434L136.633 15.771C135.884 16.6318 134.959 17.3218 133.919 17.794V17.7881ZM149.736 18.0788L143.537 10.4229H143.479V18.0788H139.551V1.44157H143.485V8.20807H143.561L149.514 1.44157H154.563L147.366 9.11493L154.989 18.0904L149.736 18.0788ZM90.9252 9.47534C90.955 7.17899 90.0741 4.96362 88.4737 3.31033C86.8732 1.65704 84.6825 0.699326 82.3773 0.645167C77.5795 0.532973 73.5843 4.29292 73.4267 9.06958C73.2691 13.8462 76.9906 17.8649 81.7849 18.0788V18.1137H89.8863L88.3337 15.4978C89.5127 14.7711 90.9194 12.068 90.9194 9.48697L90.9252 9.47534ZM82.1701 14.3003C81.1925 14.3338 80.2271 14.0758 79.3978 13.5592C78.5685 13.0425 77.9131 12.2909 77.5156 11.4007C77.1182 10.5105 76.9968 9.52238 77.1672 8.56303C77.3375 7.60369 77.7917 6.7169 78.4716 6.01644C79.1514 5.31598 80.0259 4.83379 80.9828 4.63174C81.9397 4.42969 82.9354 4.51699 83.8422 4.88244C84.7489 5.24789 85.5254 5.87482 86.0719 6.68281C86.6184 7.49079 86.9101 8.44298 86.9095 9.41721C86.9212 12.1145 85.5963 14.3003 82.1818 14.3003H82.1701ZM75.703 24.9383H80.6817C81.3252 24.9408 81.9667 25.0089 82.5962 25.1418C83.2173 25.258 83.8111 25.4887 84.3472 25.8219C84.8648 26.1488 85.2954 26.5956 85.6021 27.1241C85.9448 27.759 86.112 28.4732 86.0866 29.1935C86.1004 30.0292 85.8125 30.8419 85.2753 31.4839C84.723 32.1403 83.9639 32.5911 83.1215 32.7628V32.8209C84.1369 32.918 85.0875 33.3616 85.8122 34.0766C86.1805 34.4628 86.4656 34.9197 86.6503 35.4195C86.835 35.9193 86.9152 36.4514 86.8862 36.9832C86.8988 37.6355 86.7537 38.2812 86.4632 38.866C86.1727 39.4508 85.7452 39.9574 85.2169 40.3432C84.6276 40.7695 83.9649 41.0847 83.2616 41.2733C82.4172 41.5018 81.5449 41.6113 80.6701 41.5988H75.7264L75.703 24.9383ZM77.3957 32.2454H80.816C81.2343 32.2444 81.6512 32.1976 82.0592 32.1059C82.4745 32.0169 82.87 31.8534 83.2266 31.6234C83.5749 31.3935 83.8614 31.0821 84.0612 30.7166C84.286 30.2906 84.3966 29.8141 84.3822 29.3331C84.3961 28.8632 84.2854 28.398 84.0612 27.9844C83.8542 27.6147 83.5571 27.3029 83.1974 27.0776C82.809 26.8307 82.3773 26.6591 81.925 26.5718C81.4143 26.4666 80.8938 26.416 80.3724 26.4207H77.3957V32.2454ZM77.3957 40.1397H80.5592C81.1473 40.1415 81.7341 40.083 82.3102 39.9653C82.8287 39.8575 83.3244 39.6608 83.7752 39.384C84.1839 39.1331 84.5262 38.7882 84.7733 38.3783C85.1179 37.7343 85.2323 36.9926 85.0976 36.2753C84.9629 35.558 84.5871 34.9076 84.032 34.4312C83.0858 33.8343 81.9748 33.5496 80.8568 33.6173H77.3957V40.1397ZM90.2365 41.5523H88.3687L95.5829 24.9267H97.2347L104.414 41.5523H102.523L100.684 37.1924H92.0458L90.2365 41.5523ZM92.6879 35.6345H100.042L96.365 26.7985L92.6879 35.6345ZM115.545 27.6007C115.181 27.0966 114.706 26.6829 114.155 26.3916C113.52 26.0688 112.814 25.9108 112.101 25.9324C111.678 25.9356 111.257 25.9982 110.852 26.1184C110.431 26.2419 110.036 26.4387 109.684 26.6997C109.339 26.963 109.052 27.2957 108.844 27.6763C108.626 28.1045 108.517 28.5798 108.529 29.0598C108.51 29.5188 108.615 29.9744 108.832 30.3794C109.037 30.726 109.314 31.0252 109.644 31.2572C110.004 31.5041 110.397 31.6997 110.811 31.8385C111.239 31.9935 111.686 32.1486 112.153 32.3036L113.904 32.8849C114.472 33.0957 115.006 33.3853 115.492 33.7452C115.974 34.1016 116.372 34.5578 116.659 35.0823C116.98 35.7198 117.135 36.4275 117.109 37.1401C117.127 37.8833 116.963 38.6196 116.63 39.2852C116.333 39.8678 115.911 40.3779 115.393 40.7791C114.868 41.1755 114.275 41.4712 113.642 41.6511C113 41.8352 112.336 41.9291 111.669 41.9301C111.163 41.9288 110.659 41.8782 110.163 41.779C109.667 41.6788 109.184 41.5248 108.721 41.3198C108.266 41.1176 107.838 40.8577 107.449 40.5466C107.056 40.2332 106.707 39.8697 106.41 39.4654L107.869 38.3841C108.247 38.9961 108.768 39.5085 109.387 39.8781C110.084 40.2807 110.881 40.482 111.686 40.4594C112.128 40.4559 112.567 40.3873 112.988 40.256C113.41 40.1233 113.806 39.9166 114.155 39.6456C114.509 39.3689 114.805 39.0251 115.025 38.6341C115.262 38.2076 115.381 37.7261 115.369 37.2389C115.387 36.7344 115.268 36.2343 115.025 35.7915C114.798 35.4093 114.489 35.0818 114.12 34.8323C113.718 34.5589 113.28 34.3418 112.819 34.187L111.29 33.6639L109.655 33.0825C109.133 32.871 108.647 32.5809 108.214 32.2222C107.785 31.8644 107.437 31.4207 107.192 30.92C106.919 30.2907 106.786 29.61 106.802 28.9247C106.818 28.2393 106.983 27.5655 107.286 26.9497C107.594 26.3839 108.024 25.8935 108.546 25.5138C109.067 25.1408 109.65 24.8633 110.268 24.6942C110.874 24.523 111.5 24.435 112.13 24.4326C113.135 24.398 114.134 24.597 115.048 25.0139C115.757 25.3405 116.379 25.8283 116.864 26.4381L115.545 27.6007ZM123.039 40.0758H131.969V41.5523H121.346V24.9383H131.701V26.4323H123.039V32.1408H131.129V33.6406H123.039V40.0758Z" fill="#74489D"/>
</g>
<defs>
<clipPath id="clip0_1210_0">
<rect width="155" height="42" fill="white"/>
</clipPath>
</defs>
</svg>
