<svg width="217" height="41" viewBox="0 0 217 41" fill="none" xmlns="http://www.w3.org/2000/svg">
<path d="M67.4723 18.1707C67.4723 14.2615 70.4279 12.3793 73.5996 12.3793C76.7714 12.3793 79.6549 14.2977 79.6549 18.1707H67.4723ZM73.059 8.25293C66.5713 8.25293 62.3542 12.7051 62.3542 20.0891C62.3542 29.2106 68.842 31.8529 73.4555 31.8529C79.3305 31.8529 82.6825 27.9075 82.6825 27.9075L79.6909 24.9032C78.105 26.3149 76.2668 27.1836 73.5276 27.1836C69.9233 27.1836 67.4723 25.048 67.4723 22.1523H83.5475C83.5475 22.1161 86.3588 8.25293 73.059 8.25293Z" fill="#00DB00"/>
<path d="M13.8045 17.7726C11.75 17.5192 5.76687 17.7364 5.76687 15.0217C5.76687 13.3929 8.25384 12.5242 10.5606 12.5242C14.237 12.5242 16.6879 14.0082 17.3727 14.4788L20.4724 11.3659C19.5713 10.6057 16.1472 8.2168 10.5606 8.2168C5.47853 8.2168 0.901074 10.8953 0.901074 15.1665C0.901074 21.7542 8.79448 21.718 12.1104 22.0438C14.0928 22.2248 15.931 22.3696 15.931 24.3604C15.931 26.1702 13.1557 27.2199 10.9931 27.2199C7.46089 27.2199 5.3704 26.0616 3.31595 24.1794L0 27.5094C3.06365 30.4775 6.92025 31.7806 10.7408 31.7806C16.6518 31.7806 20.941 29.1745 20.941 23.8898C20.9049 20.4511 18.5621 18.388 13.8045 17.7726Z" fill="#00DB00"/>
<path d="M35.9707 23.1296C35.9707 27.5094 32.8711 27.256 30.0957 27.256C27.2844 27.256 25.5183 26.4959 25.5183 24.5413C25.5183 22.7315 26.96 22.1161 29.9876 22.1161H35.9707V23.1296ZM30.8166 8.25293C25.6985 8.25293 22.3465 10.8953 21.7338 11.402L24.8335 14.5149C25.4462 14.0081 27.5727 12.5603 30.8526 12.5603C34.7813 12.5603 35.9707 14.1167 35.9707 15.9265V18.1345H28.9784C26.3833 18.1345 21.3013 18.7861 21.3013 24.5051C21.3013 28.7039 23.7161 31.8167 29.447 31.8167C32.3304 31.8167 34.493 30.8756 36.0068 29.0658V31.3462H41.0888V16.2523C41.0168 10.9676 37.8089 8.25293 30.8166 8.25293Z" fill="#00DB00"/>
<path d="M56.7316 20.0167C56.7316 21.7904 56.6956 23.0934 56.5514 23.745C56.227 25.229 54.569 27.1474 51.5775 27.1474C50.8206 27.1474 46.964 26.7131 46.5315 23.3468C46.4594 22.6591 46.3873 21.7904 46.3873 20.0167C46.3873 17.4106 46.4954 16.5781 46.6396 15.8903C46.8919 14.5873 48.6219 12.6327 51.6135 12.6327C55.2538 12.6327 56.4433 15.1302 56.6235 16.1075C56.6956 16.7953 56.7316 18.2793 56.7316 20.0167ZM56.7316 8.72348V11.2572C55.0015 9.23023 52.9471 8.25293 50.0997 8.25293C45.27 8.25293 42.783 10.9677 41.954 13.8634C41.6296 14.9493 41.5215 16.9762 41.5215 20.0167C41.5215 22.8763 41.5575 25.4824 42.5307 27.4732C43.9003 30.2603 47.2884 31.8167 50.0637 31.8167C52.7669 31.8167 55.0736 30.767 56.6956 28.921V30.3327C56.6956 31.9977 56.1189 33.0836 55.0736 33.9523C53.9923 34.821 52.6588 35.364 50.8206 35.364C49.1265 35.364 47.5407 34.4591 46.6035 33.8075L43.1795 37.2462C45.3781 39.056 48.0453 40.2867 50.8926 40.2867C53.9203 40.3229 56.3712 39.3818 58.4977 37.7167C60.5522 36.0879 61.8497 33.0474 61.8497 29.8259V8.72348H56.7316Z" fill="#00DB00"/>
<path d="M99.8751 0H97.7845V31.8528H99.8751V0Z" fill="#8F8A87"/>
<path d="M124.06 31.8168H121.897V16.8677C121.897 13.1757 120.708 11.0039 116.959 11.0039C113.752 11.0039 110.255 13.1033 108.814 14.4788V31.8168H106.651V9.48368H108.525L108.67 12.3794C111.265 10.5334 114.22 9.04932 117.356 9.04932C122.041 9.04932 124.06 11.764 124.06 16.7953V31.8168Z" fill="#8F8A87"/>
<path d="M140.568 31.0203C139.522 31.7804 137.36 32.3233 135.81 32.3233C131.701 32.3233 130.151 30.6221 130.151 26.6767V11.3295H126.619V9.44729H130.151V3.11294L132.314 2.75098V9.48349H138.621V11.3657H132.314V26.2786C132.314 28.9571 132.926 30.5497 135.954 30.5497C137.324 30.5497 138.982 29.9706 139.991 29.3552L140.568 31.0203Z" fill="#8F8A87"/>
<path d="M155.381 20.7404C154.372 20.668 153.327 20.5956 151.957 20.5956C147.488 20.5956 143.667 21.5367 143.667 26.0612C143.667 28.4864 144.604 30.5134 148.281 30.5134C151.092 30.5134 153.831 29.2103 155.381 27.3281V20.7404ZM157.544 28.6674C157.544 29.898 157.76 30.5134 158.913 30.5134C159.31 30.5134 159.706 30.441 160.283 30.26L160.463 31.6716C159.598 32.106 159.021 32.2146 158.084 32.2146C156.174 32.2146 155.453 30.7667 155.561 29.3913C153.867 31.0925 151.164 32.3956 148.028 32.3956C142.334 32.3956 141.469 28.4502 141.469 26.3146C141.469 19.944 147.199 18.822 152.39 18.822C153.435 18.822 154.444 18.8582 155.417 18.8943V16.9036C155.417 12.4876 154.336 10.8226 150.119 10.8226C146.406 10.8226 144.965 12.2342 144.46 14.9851L142.406 14.6232C143.09 10.4968 145.83 8.97656 150.299 8.97656C155.525 8.97656 157.616 10.895 157.616 16.4692V28.6674H157.544Z" fill="#8F8A87"/>
<path d="M161.725 20.7407C161.725 12.8499 165.581 9.04932 172.069 9.04932C176.286 9.04932 179.746 11.4745 179.962 16.3248L177.656 16.5782C177.259 12.7413 175.421 10.9315 171.817 10.9315C168.104 10.9315 163.959 13.0309 163.959 20.415C163.959 28.3782 167.816 30.2966 171.528 30.2966C174.952 30.2966 177.295 28.7039 177.908 25.1929L180.107 25.6272C179.278 30.4052 175.457 32.3236 171.564 32.3236C164.284 32.3598 161.725 27.5094 161.725 20.7407Z" fill="#8F8A87"/>
<path d="M182.774 20.7407C182.774 12.8499 186.63 9.04932 193.118 9.04932C197.335 9.04932 200.795 11.4745 201.012 16.3248L198.705 16.5782C198.308 12.7413 196.47 10.9315 192.866 10.9315C189.153 10.9315 185.045 13.0309 185.045 20.415C185.045 28.3782 188.901 30.2966 192.614 30.2966C196.038 30.2966 198.38 28.7039 198.993 25.1929L201.192 25.6272C200.363 30.4052 196.542 32.3236 192.65 32.3236C185.297 32.3598 182.774 27.5094 182.774 20.7407Z" fill="#8F8A87"/>
<path d="M216.222 31.0203C215.176 31.7804 213.014 32.3233 211.464 32.3233C207.355 32.3233 205.805 30.6221 205.805 26.6767V11.3295H202.273V9.44729H205.805V3.11294L207.968 2.75098V9.48349H214.275V11.3657H207.932V26.2786C207.932 28.9571 208.545 30.5497 211.572 30.5497C212.942 30.5497 214.6 29.9706 215.609 29.3552L216.222 31.0203Z" fill="#8F8A87"/>
</svg>
