<svg width="158" height="53" viewBox="0 0 158 53" fill="none" xmlns="http://www.w3.org/2000/svg">
<g clip-path="url(#clip0_1_283)">
<path d="M121.012 34.5449H115.024L110.983 21.308H110.919L111.132 34.5235H106.963V18.0148H113.207L116.928 30.7171H117.013L116.799 18.0148H121.012V34.5449ZM102.429 29.9687C102.429 30.2894 102.408 30.9096 102.386 31.0593C102.13 33.8178 100.162 35.2078 96.5484 35.2078C92.9345 35.2078 90.9671 33.8178 90.7105 31.0593C90.6891 30.8882 90.6677 30.268 90.6677 29.9687V18.0148H94.9873V30.3322C94.9873 30.6102 94.9874 30.824 95.0301 30.9523C95.0729 31.2303 95.3509 32.1071 96.5698 32.1071C97.7887 32.1071 98.0453 31.209 98.1095 30.9523C98.1308 30.8026 98.1522 30.5888 98.1522 30.3322V18.0148H102.45V29.9687H102.429ZM86.8399 31.4869C86.3909 34.716 83.2046 35.2934 80.9806 35.2934C77.2598 35.2934 74.9717 33.7109 74.9717 30.4605V29.1347H79.4837V30.7813C79.4837 31.6794 80.1039 32.214 81.0876 32.214C81.9643 32.214 82.4562 31.8719 82.6272 31.1448C82.7128 30.8027 82.7342 30.3322 82.6059 29.9473C81.7719 27.873 75.9339 26.8466 75.2069 23.4892C75.0358 22.7194 75.0358 22.0779 75.1641 21.2653C75.656 18.2073 78.5856 17.5658 80.9379 17.5658C83.0549 17.5658 84.5946 18.0362 85.5141 18.9558C86.1984 19.6401 86.5406 20.581 86.5406 21.7571V22.9546H82.3279V21.9068C82.3279 21.0086 81.7719 20.474 80.8523 20.474C80.0397 20.474 79.5693 20.8376 79.3982 21.5433C79.3554 21.6929 79.3341 22.0351 79.4196 22.3772C79.8687 24.2163 86.1343 25.3497 86.8186 28.7711C86.9041 29.1988 87.0324 30.1397 86.8399 31.4869ZM66.7601 34.716L66.6532 20.2174H66.589L63.8946 34.716H59.5964L56.8805 20.2174H56.795L56.7095 34.716H52.454L52.8175 18.0148H59.6819L61.6706 30.4177H61.7775L63.7877 18.0148H70.652L71.0156 34.716H66.7601ZM44.6915 34.716L42.5103 19.9394H42.4248L40.2008 34.716H35.6032L38.6825 18.0148H46.167L49.225 34.716H44.6915ZM157.151 12.9468C155.013 0.672187 118.125 -3.1556 74.7364 4.39305C56.517 7.55793 40.0725 12.2411 27.2633 17.523C29.2307 17.5658 30.6848 18.0148 31.5829 18.8916C32.2672 19.5973 32.6308 20.5382 32.6308 21.7357V22.9546H28.3753V21.8854C28.3753 20.9873 27.8407 20.4313 26.8784 20.4313C26.0872 20.4313 25.574 20.7948 25.4243 21.5005C25.3815 21.6929 25.3601 22.0351 25.4456 22.3559C25.8947 24.2163 32.2245 25.371 32.9088 28.8139C32.9943 29.263 33.1226 30.2039 32.9301 31.5511C32.5452 34.3097 30.1074 35.3789 27.0067 35.3789C22.6871 35.3789 20.9336 33.326 20.9336 30.5033V29.1774H25.4884V30.8454C25.4884 31.7863 26.1727 32.2995 27.0922 32.2995C27.969 32.2995 28.4822 31.936 28.6533 31.2303C28.7388 30.9096 28.7816 30.4177 28.6319 30.0328C27.7765 27.9158 21.8959 26.9321 21.1688 23.5106C20.9977 22.7408 20.9977 22.0779 21.126 21.2653C21.1902 20.8162 21.3399 20.4313 21.5109 20.0891C7.31177 26.6755 -1.00672 33.9889 0.105266 40.2973C2.24369 52.5719 39.1316 56.3996 82.4989 48.851C101.574 45.5364 118.703 40.5539 131.747 34.994C131.554 34.994 131.383 35.0154 131.17 35.0154C128.197 35.0154 125.546 33.9034 125.268 30.8668C125.225 30.3108 125.203 30.0756 125.203 29.7762V22.8049C125.203 22.5055 125.246 21.9709 125.268 21.7143C125.631 18.7847 127.941 17.5658 131.148 17.5658C133.629 17.5658 136.687 18.2715 137.007 21.7143C137.05 22.142 137.05 22.6125 137.05 22.7622V23.4251H132.795V22.4414C132.795 22.42 132.795 22.0565 132.731 21.8212C132.666 21.4791 132.367 20.6665 131.148 20.6665C129.929 20.6665 129.63 21.4791 129.544 21.8212C129.502 22.0137 129.48 22.2917 129.48 22.5911V30.1611C129.48 30.4177 129.48 30.6316 129.523 30.7813C129.544 30.9096 129.758 31.9574 131.17 31.9574C132.56 31.9574 132.773 30.9096 132.795 30.7813C132.838 30.5674 132.838 30.3322 132.838 30.1611V27.8089H131.148V25.2855H137.114V29.7762C137.114 30.0756 137.114 30.3108 137.05 30.8668C136.986 31.658 136.729 32.3423 136.323 32.9197C150.18 26.3547 158.242 19.1696 157.151 12.9468Z" fill="#1F4390"/>
</g>
<defs>
<clipPath id="clip0_1_283">
<rect width="157.26" height="52.1991" fill="white" transform="translate(0 0.522461)"/>
</clipPath>
</defs>
</svg>
