<svg width="114" height="56" viewBox="0 0 114 56" fill="none" xmlns="http://www.w3.org/2000/svg">
<g clip-path="url(#clip0_1203_5)">
<path fill-rule="evenodd" clip-rule="evenodd" d="M0 55.487H56.6879L112.165 0H0V55.487Z" fill="url(#paint0_linear_1203_5)"/>
<path fill-rule="evenodd" clip-rule="evenodd" d="M66.5646 11.0974H55.487L55.5239 37.1516L45.8778 11.0887H36.3131L28.0789 32.8557C27.2034 27.3168 21.4772 25.4056 16.9716 23.9741C13.9963 23.0184 10.8385 21.6128 10.8705 20.0591C10.8952 18.7842 12.5598 17.6017 15.868 17.778C18.0875 17.8976 20.0481 18.0764 23.9482 19.9605L27.7829 13.2774C24.2268 11.4673 19.3095 10.3243 15.2774 10.3206H15.2528C10.5512 10.3206 6.63624 11.8434 4.20961 14.3526C2.51788 16.1035 1.60543 18.3304 1.56844 20.7928C1.50678 24.1812 2.74846 26.5832 5.35758 28.503C7.56226 30.1183 10.3822 31.1664 12.8668 31.9358C15.9309 32.8853 18.434 33.7114 18.4032 35.4697C18.3826 36.1146 18.1233 36.7289 17.6757 37.1935C16.9112 37.9827 15.7398 38.2786 14.1184 38.3106C10.9901 38.3772 8.672 37.8852 4.9778 35.7015L1.56597 42.4709C5.25647 44.5696 9.17385 45.6226 13.6251 45.6226L14.6264 45.6152C18.5006 45.5449 21.6448 44.6164 24.143 42.6066C24.286 42.4919 24.4143 42.376 24.5474 42.2589L24.1282 44.4191L33.4747 44.3896L35.1516 40.0961C36.9149 40.6978 38.9198 41.0307 41.048 41.0307C43.122 41.0307 45.0727 40.7151 46.8026 40.1479L47.9716 44.3896L64.7409 44.4056L64.7816 34.6177H68.3501C76.9752 34.6177 82.0738 30.228 82.0738 22.8668C82.0714 14.6683 77.1145 11.0974 66.5646 11.0974ZM41.048 33.3686C39.8416 33.3768 38.6436 33.1671 37.5116 32.7496L41.0086 21.7077H41.0764L44.5166 32.7804C43.4808 33.1504 42.3008 33.3686 41.0468 33.3686H41.048ZM67.2132 27.0246H64.7792V18.1257H67.2144C70.4573 18.1257 73.0467 19.2059 73.0467 22.5178C73.0443 25.9457 70.4573 27.0246 67.2144 27.0246" fill="white"/>
</g>
<defs>
<linearGradient id="paint0_linear_1203_5" x1="56.0825" y1="0" x2="56.0825" y2="55.4882" gradientUnits="userSpaceOnUse">
<stop stop-color="#00AEEF"/>
<stop offset="0.212" stop-color="#0097DC"/>
<stop offset="0.519" stop-color="#007CC5"/>
<stop offset="0.792" stop-color="#006CB8"/>
<stop offset="1" stop-color="#0066B3"/>
</linearGradient>
<clipPath id="clip0_1203_5">
<rect width="113.44" height="55.487" fill="white"/>
</clipPath>
</defs>
</svg>
