<svg width="150" height="36" viewBox="0 0 150 36" fill="none" xmlns="http://www.w3.org/2000/svg">
<g clip-path="url(#clip0_1210_259)">
<path d="M129.608 1.66553C124.328 11.8015 116.279 20.2408 106.392 26.0082C106.987 27.3619 107.787 28.6168 108.763 29.7295C118.426 22.7013 126.133 13.3326 131.155 2.50847C130.804 2.36456 130.309 2.01504 129.608 1.66553Z" fill="#318DDE"/>
<path d="M129.299 1.50083C126.969 0.474385 124.444 -0.0375961 121.897 -2.52858e-05C111.979 -2.52858e-05 104.887 7.73041 104.887 17.7635C104.871 19.3942 105.037 21.0215 105.382 22.6156C115.347 18.205 123.701 10.83 129.299 1.50083Z" fill="#318DDE"/>
<path d="M111.629 32.3816C114.621 34.3833 118.15 35.4368 121.753 35.4038C131.67 35.4038 138.763 27.6734 138.763 17.6197C138.905 14.7477 138.314 11.8867 137.045 9.30471C135.775 6.72276 133.869 4.50452 131.505 2.85791C127.134 14.0349 120.348 24.1148 111.629 32.3816Z" fill="#318DDE"/>
<path d="M145.113 11.1022C146.076 11.098 147.017 10.8103 147.816 10.2751C148.616 9.73992 149.239 8.98112 149.607 8.09399C149.976 7.20686 150.073 6.23096 149.887 5.28883C149.701 4.3467 149.24 3.48034 148.562 2.79854C147.884 2.11675 147.019 1.64991 146.076 1.45665C145.133 1.26339 144.153 1.35233 143.26 1.71229C142.368 2.07225 141.602 2.6872 141.058 3.4799C140.515 4.27261 140.218 5.20773 140.206 6.16785C140.198 6.81464 140.319 7.45659 140.562 8.05625C140.805 8.65592 141.166 9.20131 141.623 9.6606C142.079 10.1199 142.623 10.4839 143.223 10.7314C143.822 10.9789 144.465 11.1049 145.113 11.1022ZM145.113 10.5882C144.246 10.5922 143.396 10.3398 142.672 9.8629C141.948 9.38598 141.382 8.70589 141.045 7.90846C140.709 7.11103 140.616 6.232 140.78 5.38232C140.944 4.53264 141.357 3.75038 141.966 3.13428C142.575 2.51818 143.354 2.09585 144.203 1.92059C145.053 1.74533 145.936 1.82499 146.74 2.14953C147.545 2.47407 148.235 3.02893 148.723 3.74409C149.211 4.45925 149.476 5.30265 149.485 6.16785C149.496 6.74615 149.39 7.32081 149.175 7.85802C148.96 8.39523 148.64 8.88415 148.233 9.29601C147.825 9.70786 147.34 10.0344 146.804 10.2563C146.268 10.4782 145.693 10.591 145.113 10.5882ZM143.237 8.53221H144.33V6.92856H145.34L146.495 8.59389H147.65L146.289 6.72296C146.634 6.65848 146.944 6.4704 147.161 6.19405C147.377 5.9177 147.485 5.57209 147.464 5.22211C147.464 4.21468 146.598 3.72125 145.588 3.72125H143.526V8.59389L143.237 8.53221ZM144.103 5.96225V4.3586H145.258C145.918 4.3586 146.268 4.72867 146.268 5.22211C146.268 5.71554 145.918 6.06505 145.258 6.06505H144.103V5.96225Z" fill="#318DDE"/>
<path d="M11.134 34.9515H14.8454V5.36613H25.9794V2.05603H0V5.36613H11.134V34.9515ZM30.8041 34.9515H34.5361V2.05603H30.8041V34.9515ZM41.9381 34.9515H56.5979C63.835 34.9515 68.5155 31.6003 68.5155 26.0697V25.9258C68.5155 21.4027 65.299 19.1822 61.4845 18.0309C63.0203 17.4549 64.3438 16.4265 65.2793 15.0824C66.2148 13.7383 66.7178 12.1421 66.7216 10.506V10.2799C66.771 9.30391 66.6024 8.32918 66.228 7.42608C65.8536 6.52298 65.2828 5.71406 64.5567 5.05774C62.1746 3.0066 59.0786 1.97264 55.9381 2.17939H41.9381V34.9515ZM62.9278 10.7528C62.9278 14.618 59.9175 16.6123 55.3814 16.6123H45.6082V5.36613H55.6701C60.268 5.36613 62.9278 7.38098 62.9278 10.7528ZM64.8041 25.5146C64.8041 29.2153 61.7732 31.5386 56.7423 31.5386H45.6082V19.984H56.0412C61.8557 19.984 64.8041 21.9989 64.8041 25.5146ZM88.6598 35.4038C91.134 35.4463 93.5883 34.9558 95.855 33.9659C98.1217 32.9759 100.147 31.5098 101.794 29.6676L99.2784 27.3033C97.9439 28.7948 96.3077 29.9875 94.4774 30.8025C92.6471 31.6176 90.6643 32.0366 88.6598 32.032C86.9295 31.987 85.2253 31.6002 83.6459 30.8942C82.0664 30.1882 80.643 29.1769 79.458 27.9188C78.273 26.6608 77.35 25.1809 76.7423 23.5648C76.1346 21.9487 75.8542 20.2285 75.9175 18.5038V18.2776C75.837 16.5547 76.1062 14.8333 76.7091 13.2166C77.312 11.6 78.2361 10.1214 79.4261 8.86959C80.616 7.61777 82.0472 6.61849 83.6339 5.93168C85.2206 5.24487 86.9301 4.88467 88.6598 4.8727C90.5945 4.89908 92.5041 5.31309 94.2752 6.09012C96.0462 6.86715 97.6425 7.99133 98.9691 9.39583L101.485 6.72307C99.8383 5.05545 97.8733 3.73404 95.7059 2.83706C93.5385 1.94007 91.2126 1.48573 88.866 1.50092C86.6349 1.47183 84.4211 1.89441 82.3585 2.74307C80.296 3.59174 78.4275 4.84885 76.8662 6.43834C75.305 8.02783 74.0833 9.91665 73.2752 11.9905C72.4672 14.0644 72.0894 16.2801 72.1649 18.5038V18.6477C72.0922 20.8416 72.4667 23.0275 73.2659 25.0729C74.0651 27.1183 75.2724 28.9807 76.8145 30.5473C78.3567 32.1138 80.2016 33.352 82.2377 34.1868C84.2738 35.0216 86.4586 35.4356 88.6598 35.4038Z" fill="#318DDE"/>
</g>
<defs>
<clipPath id="clip0_1210_259">
<rect width="150" height="35.4037" fill="white"/>
</clipPath>
</defs>
</svg>
