<svg width="132" height="38" viewBox="0 0 132 38" fill="none" xmlns="http://www.w3.org/2000/svg">
<path d="M80.6592 8.59937C75.1823 8.59937 70.7013 13.086 70.7013 18.6944C70.7013 24.3027 75.1823 28.7894 80.6592 28.7894C86.136 28.7894 90.6171 24.3027 90.6171 18.6944C90.6171 13.086 86.136 8.59937 80.6592 8.59937ZM80.6592 24.6766C77.4229 24.6766 74.8089 22.0594 74.8089 18.819C74.8089 15.5786 77.4229 12.9614 80.6592 12.9614C83.8955 12.9614 86.5095 15.5786 86.5095 18.819C86.5095 21.9347 83.771 24.6766 80.6592 24.6766ZM102.816 13.4599C99.9526 13.4599 97.7121 15.8279 97.7121 18.6944V28.2908H93.3555V9.22251H97.7121V12.2136C97.7121 12.2136 99.5792 9.22251 103.313 9.22251H104.558V13.4599H102.816ZM59.3742 9.22251L62.6105 22.3086L66.0957 9.22251H70.4523L64.9755 28.2908H60.7434L57.3826 14.9555L54.0218 28.2908H49.7897L44.1884 9.22251H48.4205L52.1547 22.3086L55.2665 9.22251H59.3742Z" fill="#4B4B4B"/>
<path d="M117.254 17.9466C120.242 16.2018 122.358 12.9615 122.358 9.22258H118.001C118.001 12.4629 115.387 15.0802 112.275 15.0802H111.653V0H107.296V28.2909H111.653V19.3176H112.151C112.649 19.3176 113.147 19.5668 113.271 19.9407L119.37 28.2909H124.474L117.254 17.9466Z" fill="#4B4B4B"/>
<path d="M34.1058 8.59951C29.3758 8.59951 25.7661 11.7153 24.3969 16.7004C22.1563 13.2108 20.4137 9.22266 19.4179 5.85767H14.439V19.0684C14.439 21.6856 12.3229 23.8043 9.70896 23.8043C7.09501 23.8043 4.97895 21.6856 4.97895 19.0684V5.85767H0V19.0684C0 24.5521 4.35658 28.9141 9.70896 28.9141C15.0613 28.9141 19.4179 24.5521 19.4179 19.0684V16.8251C20.4137 18.8191 21.6584 20.9378 23.0277 22.8073L19.9158 37.3889H25.0192L27.2598 26.7954C29.2513 28.0417 31.4919 28.7895 34.1058 28.7895C39.5827 28.7895 44.0637 24.3028 44.0637 18.5699C44.0637 13.0862 39.5827 8.59951 34.1058 8.59951ZM34.1058 23.6797C32.1142 23.6797 30.1227 22.8073 28.5045 21.4363L29.0024 19.4423V19.3176C29.3758 17.1989 30.4961 13.5847 34.2303 13.5847C36.9687 13.5847 39.2092 15.828 39.2092 18.5699C39.0848 21.4363 36.7198 23.6797 34.1058 23.6797Z" fill="#6FDA44"/>
<path d="M125.096 9.84568H123.727V9.34717H127.088V9.84568H125.718V13.7092H125.221V9.84568H125.096ZM127.959 9.34717H128.457L129.951 11.7151L131.444 9.34717H131.942V13.5845H131.444V10.0949L129.951 12.3383L128.457 10.0949V13.5845H127.959V9.34717Z" fill="#4B4B4B"/>
</svg>
