<svg width="160" height="40" viewBox="0 0 160 40" fill="none" xmlns="http://www.w3.org/2000/svg">
<g clip-path="url(#clip0_1203_24)">
<mask id="mask0_1203_24" style="mask-type:alpha" maskUnits="userSpaceOnUse" x="0" y="0" width="170" height="40">
<path d="M84.5714 0H0V40H169.143V0H84.5714Z" fill="white"/>
</mask>
<g mask="url(#mask0_1203_24)">
<path fill-rule="evenodd" clip-rule="evenodd" d="M22.48 28.2283H17.9394L7.11656 7.54255H14.6091L22.0834 22.4911L36.928 7.54255H39.9337C40.3566 5.0477 40.2491 3.88541 40.2491 3.88541C40.2491 3.88541 31.6834 0.203125 20.1291 0.203125C8.57599 0.201982 0.0114218 3.88541 0.0114218 3.88541C0.0114218 3.88541 -0.41715 8.57113 3.86742 19.3483C8.14856 30.1277 20.1291 39.9997 20.1291 39.9997C20.1291 39.9997 32.1143 30.1277 36.3977 19.3483C37.5291 16.506 38.3268 14.0911 38.896 12.0706L22.48 28.2283Z" fill="#1B3764"/>
<path d="M52.4063 26.6379L57.3299 8.05615H79.8366C81.815 8.05615 83.0914 8.37462 83.7886 8.90362C84.1228 9.15716 84.3252 9.45958 84.4193 9.81805C84.5157 10.1852 84.5074 10.6467 84.3545 11.222L84.3543 11.2226L83.2001 15.588L52.4063 26.6379ZM52.4063 26.6379H57.486L59.4069 19.3825L59.5054 19.0104H59.8903H76.6697C78.6276 19.0104 80.1206 18.6998 81.1888 18.122C82.2386 17.554 82.9005 16.7171 83.2 15.5883L52.4063 26.6379ZM79.0171 12.6016L79.183 11.9739H79.107C79.1076 11.8065 79.0863 11.6434 79.0374 11.4875C78.923 11.1223 78.6749 10.852 78.3394 10.6817L78.3301 10.677L78.3206 10.6727C78.0816 10.5636 77.7737 10.4981 77.4289 10.4572C77.0764 10.4154 76.6504 10.3956 76.1554 10.3956H62.1714H61.7866L61.6881 10.7676L60.2915 16.0419L60.1252 16.6699H60.7749H74.7577C75.7314 16.6699 76.5001 16.5953 77.0114 16.4087L77.0184 16.4062L77.0254 16.4034C77.7682 16.1068 78.2429 15.5209 78.4567 14.722L78.4571 14.7205L79.0171 12.6016ZM50.9114 8.05615L45.9878 26.6379H40.8096L45.7289 8.05615H50.9114Z" fill="#1B3764" stroke="#1B3764"/>
<mask id="path-4-inside-1_1203_24" fill="white">
<path fill-rule="evenodd" clip-rule="evenodd" d="M157.629 6.9655H157.615C156.337 6.9655 155.318 7.96893 155.318 9.21922C155.318 10.4992 156.337 11.4889 157.615 11.4889C158.906 11.4889 159.898 10.4981 159.898 9.21922C159.9 8.92153 159.842 8.62648 159.729 8.35131C159.615 8.07614 159.448 7.82636 159.237 7.61655C159.026 7.40674 158.775 7.24111 158.499 7.12933C158.223 7.01755 157.927 6.96185 157.63 6.9655H157.629ZM157.63 11.0204C156.624 11.0204 155.889 10.2238 155.889 9.21922C155.889 8.2295 156.624 7.41693 157.603 7.41693H157.615C158.609 7.41693 159.329 8.22836 159.329 9.21922C159.329 10.2249 158.609 11.0364 157.63 11.0204ZM113.138 7.55636H90.2469L85.0583 27.1381H91.1703L93.1303 19.7381H99.0343L107.846 27.1392H116.753L106.387 19.7392H109.907C113.914 19.7392 116.253 18.4764 116.922 15.9449L118.138 11.3541C118.808 8.82493 117.142 7.55979 113.137 7.55979L113.138 7.55636ZM111.837 12.4649L111.208 14.8341C111.033 15.4969 110.657 15.9426 110.077 16.1712C109.657 16.3244 108.962 16.3998 107.997 16.3998H94.0137L95.4731 10.8981H109.454C110.421 10.8981 111.074 10.9746 111.414 11.1266C111.871 11.3575 112.013 11.8009 111.837 12.4638V12.4649ZM121.415 27.1381H149.018L149.994 23.4581H128.606L129.89 18.6009H142.217L143.103 15.2604H130.777L131.931 10.8946H153.063L153.947 7.5575H126.602L121.414 27.1381"/>
</mask>
<path fill-rule="evenodd" clip-rule="evenodd" d="M157.629 6.9655H157.615C156.337 6.9655 155.318 7.96893 155.318 9.21922C155.318 10.4992 156.337 11.4889 157.615 11.4889C158.906 11.4889 159.898 10.4981 159.898 9.21922C159.9 8.92153 159.842 8.62648 159.729 8.35131C159.615 8.07614 159.448 7.82636 159.237 7.61655C159.026 7.40674 158.775 7.24111 158.499 7.12933C158.223 7.01755 157.927 6.96185 157.63 6.9655H157.629ZM157.63 11.0204C156.624 11.0204 155.889 10.2238 155.889 9.21922C155.889 8.2295 156.624 7.41693 157.603 7.41693H157.615C158.609 7.41693 159.329 8.22836 159.329 9.21922C159.329 10.2249 158.609 11.0364 157.63 11.0204ZM113.138 7.55636H90.2469L85.0583 27.1381H91.1703L93.1303 19.7381H99.0343L107.846 27.1392H116.753L106.387 19.7392H109.907C113.914 19.7392 116.253 18.4764 116.922 15.9449L118.138 11.3541C118.808 8.82493 117.142 7.55979 113.137 7.55979L113.138 7.55636ZM111.837 12.4649L111.208 14.8341C111.033 15.4969 110.657 15.9426 110.077 16.1712C109.657 16.3244 108.962 16.3998 107.997 16.3998H94.0137L95.4731 10.8981H109.454C110.421 10.8981 111.074 10.9746 111.414 11.1266C111.871 11.3575 112.013 11.8009 111.837 12.4638V12.4649ZM121.415 27.1381H149.018L149.994 23.4581H128.606L129.89 18.6009H142.217L143.103 15.2604H130.777L131.931 10.8946H153.063L153.947 7.5575H126.602L121.414 27.1381" fill="#1B3764"/>
<path d="M159.898 9.21922L158.898 9.21353V9.21922H159.898ZM157.63 6.9655V7.96558L157.642 7.96543L157.63 6.9655ZM157.63 11.0204L157.646 10.0205L157.638 10.0204H157.63V11.0204ZM113.138 7.55636L114.087 7.87245L114.526 6.55636H113.138V7.55636ZM90.2469 7.55636V6.55636H89.4773L89.2802 7.30023L90.2469 7.55636ZM85.0583 27.1381L84.0916 26.8819L83.7588 28.1381H85.0583V27.1381ZM91.1703 27.1381V28.1381H91.9399L92.137 27.3941L91.1703 27.1381ZM93.1303 19.7381V18.7381H92.3607L92.1636 19.482L93.1303 19.7381ZM99.0343 19.7381L99.6775 18.9723L99.3985 18.7381H99.0343V19.7381ZM107.846 27.1392L107.203 27.9049L107.481 28.1392H107.846V27.1392ZM116.753 27.1392V28.1392H119.875L117.334 26.3253L116.753 27.1392ZM106.387 19.7392V18.7392H103.266L105.806 20.5531L106.387 19.7392ZM116.922 15.9449L115.956 15.6889L115.956 15.6892L116.922 15.9449ZM118.138 11.3541L119.105 11.6101L119.105 11.61L118.138 11.3541ZM113.137 7.55979L112.188 7.24369L111.75 8.55979H113.137V7.55979ZM111.837 12.4649L112.803 12.7214L112.837 12.5953V12.4649H111.837ZM111.208 14.8341L110.241 14.5776L110.241 14.579L111.208 14.8341ZM110.077 16.1712L110.42 17.1106L110.431 17.1063L110.443 17.1017L110.077 16.1712ZM94.0137 16.3998L93.0471 16.1434L92.7139 17.3998H94.0137V16.3998ZM95.4731 10.8981V9.89807H94.7038L94.5066 10.6417L95.4731 10.8981ZM111.414 11.1266L111.864 10.234L111.844 10.2235L111.822 10.214L111.414 11.1266ZM111.837 12.4638L110.87 12.2072L110.837 12.3333V12.4638H111.837ZM149.018 27.1381V28.1381H149.788L149.985 27.3944L149.018 27.1381ZM149.994 23.4581L150.961 23.7144L151.294 22.4581H149.994V23.4581ZM128.606 23.4581L127.639 23.2024L127.307 24.4581H128.606V23.4581ZM129.89 18.6009V17.6009H129.12L128.924 18.3452L129.89 18.6009ZM142.217 18.6009V19.6009H142.987L143.184 18.8572L142.217 18.6009ZM143.103 15.2604L144.069 15.5166L144.403 14.2604H143.103V15.2604ZM130.777 15.2604L129.81 15.0047L129.478 16.2604H130.777V15.2604ZM131.931 10.8946V9.89464H131.161L130.965 10.639L131.931 10.8946ZM153.063 10.8946V11.8946H153.832L154.029 11.1509L153.063 10.8946ZM153.947 7.5575L154.914 7.81372L155.247 6.5575H153.947V7.5575ZM126.602 7.5575V6.5575H125.833L125.636 7.30136L126.602 7.5575ZM157.629 5.9655H157.615V7.9655H157.629V5.9655ZM157.615 5.9655C155.802 5.9655 154.318 7.39968 154.318 9.21922H156.318C156.318 8.53818 156.872 7.9655 157.615 7.9655V5.9655ZM154.318 9.21922C154.318 11.0678 155.801 12.4889 157.615 12.4889V10.4889C156.873 10.4889 156.318 9.93062 156.318 9.21922H154.318ZM157.615 12.4889C159.454 12.4889 160.898 11.0546 160.898 9.21922H158.898C158.898 9.94151 158.358 10.4889 157.615 10.4889V12.4889ZM160.898 9.2249C160.901 8.79441 160.817 8.36771 160.653 7.96974L158.804 8.73289C158.867 8.88525 158.899 9.04864 158.898 9.21353L160.898 9.2249ZM160.653 7.96974C160.489 7.57178 160.247 7.21054 159.941 6.90712L158.532 8.32598C158.649 8.44217 158.742 8.5805 158.804 8.73289L160.653 7.96974ZM159.941 6.90712C159.636 6.60369 159.273 6.36416 158.874 6.2025L158.123 8.05615C158.276 8.11806 158.415 8.20979 158.532 8.32598L159.941 6.90712ZM158.874 6.2025C158.475 6.04084 158.048 5.9603 157.617 5.96558L157.642 7.96543C157.807 7.9634 157.97 7.99425 158.123 8.05615L158.874 6.2025ZM157.63 5.9655H157.629V7.9655H157.63V5.9655ZM157.63 10.0204C157.221 10.0204 156.889 9.71749 156.889 9.21922H154.889C154.889 10.7301 156.027 12.0204 157.63 12.0204V10.0204ZM156.889 9.21922C156.889 8.7191 157.237 8.41693 157.603 8.41693V6.41693C156.011 6.41693 154.889 7.7399 154.889 9.21922H156.889ZM157.603 8.41693H157.615V6.41693H157.603V8.41693ZM157.615 8.41693C157.991 8.41693 158.329 8.71247 158.329 9.21922H160.329C160.329 7.74424 159.227 6.41693 157.615 6.41693V8.41693ZM158.329 9.21922C158.329 9.75671 157.98 10.026 157.646 10.0205L157.613 12.0202C159.238 12.0468 160.329 10.6931 160.329 9.21922H158.329ZM113.138 6.55636H90.2469V8.55636H113.138V6.55636ZM89.2802 7.30023L84.0916 26.8819L86.0249 27.3942L91.2135 7.81249L89.2802 7.30023ZM85.0583 28.1381H91.1703V26.1381H85.0583V28.1381ZM92.137 27.3941L94.097 19.9941L92.1636 19.482L90.2036 26.882L92.137 27.3941ZM93.1303 20.7381H99.0343V18.7381H93.1303V20.7381ZM98.3911 20.5038L107.203 27.9049L108.489 26.3735L99.6775 18.9723L98.3911 20.5038ZM107.846 28.1392H116.753V26.1392H107.846V28.1392ZM117.334 26.3253L106.968 18.9253L105.806 20.5531L116.172 27.9531L117.334 26.3253ZM106.387 20.7392H109.907V18.7392H106.387V20.7392ZM109.907 20.7392C111.999 20.7392 113.771 20.4123 115.142 19.671C116.55 18.9099 117.482 17.7379 117.889 16.2007L115.956 15.6892C115.693 16.6834 115.121 17.4085 114.191 17.9117C113.223 18.4347 111.822 18.7392 109.907 18.7392V20.7392ZM117.889 16.201L119.105 11.6101L117.172 11.098L115.956 15.6889L117.889 16.201ZM119.105 11.61C119.302 10.8645 119.351 10.1283 119.17 9.44012C118.984 8.73461 118.577 8.15365 117.995 7.71189C116.889 6.87224 115.187 6.55979 113.137 6.55979V8.55979C115.092 8.55979 116.226 8.8799 116.786 9.30511C117.037 9.49578 117.172 9.70532 117.235 9.94834C117.304 10.2087 117.309 10.5791 117.172 11.0981L119.105 11.61ZM114.086 7.87588L114.087 7.87245L112.19 7.24027L112.188 7.24369L114.086 7.87588ZM110.87 12.2085L110.241 14.5776L112.175 15.0905L112.803 12.7214L110.87 12.2085ZM110.241 14.579C110.138 14.9709 109.961 15.1421 109.71 15.2407L110.443 17.1017C111.354 16.7431 111.929 16.023 112.175 15.0891L110.241 14.579ZM109.734 15.2319C109.492 15.32 108.951 15.3998 107.997 15.3998V17.3998C108.973 17.3998 109.822 17.3287 110.42 17.1106L109.734 15.2319ZM107.997 15.3998H94.0137V17.3998H107.997V15.3998ZM94.9803 16.6562L96.4397 11.1545L94.5066 10.6417L93.0471 16.1434L94.9803 16.6562ZM95.4731 11.8981H109.454V9.89807H95.4731V11.8981ZM109.454 11.8981C109.914 11.8981 110.278 11.9165 110.553 11.9486C110.843 11.9825 110.973 12.0251 111.005 12.0393L111.822 10.214C111.515 10.0762 111.148 10.0045 110.785 9.9621C110.407 9.91793 109.96 9.89807 109.454 9.89807V11.8981ZM110.963 12.0193C110.98 12.0278 110.969 12.0254 110.949 12.0032C110.928 11.9793 110.915 11.953 110.909 11.9355C110.905 11.9212 110.911 11.9307 110.91 11.9765C110.908 12.0232 110.899 12.0985 110.87 12.2072L112.803 12.7204C112.918 12.2859 112.965 11.8006 112.816 11.331C112.655 10.8248 112.306 10.4571 111.864 10.234L110.963 12.0193ZM110.837 12.4638V12.4649H112.837V12.4638H110.837ZM121.415 28.1381H149.018V26.1381H121.415V28.1381ZM149.985 27.3944L150.961 23.7144L149.028 23.2017L148.052 26.8817L149.985 27.3944ZM149.994 22.4581H128.606V24.4581H149.994V22.4581ZM129.572 23.7138L130.857 18.8566L128.924 18.3452L127.639 23.2024L129.572 23.7138ZM129.89 19.6009H142.217V17.6009H129.89V19.6009ZM143.184 18.8572L144.069 15.5166L142.136 15.0041L141.251 18.3446L143.184 18.8572ZM143.103 14.2604H130.777V16.2604H143.103V14.2604ZM131.744 15.516L132.898 11.1503L130.965 10.639L129.81 15.0047L131.744 15.516ZM131.931 11.8946H153.063V9.89464H131.931V11.8946ZM154.029 11.1509L154.914 7.81372L152.981 7.30128L152.096 10.6384L154.029 11.1509ZM153.947 6.5575H126.602V8.5575H153.947V6.5575ZM125.636 7.30136L120.447 26.8819L122.38 27.3942L127.569 7.81365L125.636 7.30136Z" fill="#1B3764" mask="url(#path-4-inside-1_1203_24)"/>
</g>
</g>
<defs>
<clipPath id="clip0_1203_24">
<rect width="160" height="40" fill="white"/>
</clipPath>
</defs>
</svg>
