<svg width="290" height="19" viewBox="0 0 290 19" fill="none" xmlns="http://www.w3.org/2000/svg">
<g clip-path="url(#clip0_1203_49)">
<path d="M135.378 17.4198C134.029 16.6188 132.903 15.4854 132.105 14.1254C131.308 12.777 130.888 11.2358 130.888 9.66532C130.888 8.09481 131.308 6.5536 132.105 5.20525C132.906 3.85122 134.031 2.72338 135.378 1.92612C136.705 1.12291 138.223 0.70013 139.769 0.703141C140.96 0.70148 142.138 0.945989 143.231 1.42164C144.311 1.89232 145.288 2.57569 146.104 3.43192L144.327 5.1441C143.742 4.4997 143.035 3.97997 142.249 3.61537C141.473 3.24586 140.626 3.05527 139.769 3.05738C138.66 3.05651 137.573 3.37175 136.632 3.96698C135.67 4.56434 134.871 5.39775 134.312 6.39002C133.752 7.3916 133.458 8.52251 133.458 9.67296C133.458 10.8234 133.752 11.9543 134.312 12.9559C134.867 13.9558 135.666 14.7953 136.632 15.3942C137.573 15.9895 138.66 16.3047 139.769 16.3038C140.626 16.3059 141.473 16.1153 142.249 15.7458C143.035 15.3812 143.742 14.8615 144.327 14.2171L146.104 15.9293C145.277 16.7828 144.293 17.4656 143.209 17.9396C142.123 18.4136 140.952 18.6581 139.769 18.6581C138.221 18.6565 136.703 18.2284 135.378 17.4198ZM157.85 6.48174C158.333 7.01432 158.708 7.63835 158.952 8.31788C159.196 8.99741 159.304 9.71902 159.271 10.4411V18.3447H156.852V16.5714C156.371 17.2386 155.724 17.7659 154.978 18.1001C154.22 18.4558 153.394 18.641 152.559 18.6428C151.322 18.689 150.11 18.2848 149.142 17.5039C148.698 17.135 148.346 16.6667 148.112 16.1359C147.879 15.6052 147.771 15.0267 147.797 14.4464C147.777 13.6273 148.018 12.8234 148.485 12.1533C148.956 11.4796 149.602 10.9505 150.352 10.6246C151.172 10.2546 152.062 10.0694 152.959 10.0819C154.287 10.0959 155.602 10.3336 156.852 10.7851V10.38C156.885 9.51294 156.618 8.6615 156.096 7.97225C155.773 7.6246 155.376 7.35636 154.934 7.1881C154.492 7.01984 154.019 6.95601 153.549 7.00151C152.277 7.07335 151.04 7.44506 149.936 8.08691L149.006 6.24479C150.514 5.42968 152.188 4.97963 153.897 4.93008C154.626 4.89624 155.355 5.01677 156.035 5.28396C156.716 5.55115 157.334 5.95911 157.85 6.48174ZM155.454 16.0516C155.794 15.8681 156.094 15.6161 156.334 15.3112C156.575 15.0062 156.751 14.6547 156.852 14.2783V12.5126C155.712 12.1697 154.527 11.9997 153.337 12.0081C152.528 11.9747 151.73 12.214 151.07 12.6884C150.786 12.8728 150.554 13.1262 150.392 13.4254C150.231 13.7246 150.147 14.0599 150.148 14.4006C150.139 14.724 150.211 15.0445 150.356 15.3328C150.501 15.6212 150.715 15.8683 150.979 16.0516C151.585 16.4858 152.316 16.7036 153.058 16.6707C153.897 16.6846 154.724 16.4708 155.454 16.0516ZM167.366 5.76324C168.255 5.23908 169.271 4.97449 170.299 4.99887V7.16202C169.438 7.14407 168.585 7.32717 167.805 7.69708C167.101 8.02594 166.51 8.55781 166.104 9.22581C165.701 9.88944 165.493 10.6559 165.507 11.4348V18.3447H163.035V5.29697H165.537V7.84231C165.925 6.97848 166.563 6.25369 167.366 5.76324ZM183.315 5.8626C184.229 6.45909 184.963 7.29705 185.439 8.28564C185.962 9.3811 186.221 10.5858 186.195 11.8017C186.221 13.0225 185.962 14.2321 185.439 15.3331C184.968 16.3288 184.233 17.1729 183.315 17.7714C182.413 18.3538 181.362 18.6567 180.292 18.6428C179.362 18.6513 178.445 18.417 177.631 17.9625C176.818 17.5132 176.137 16.8538 175.658 16.0516V18.3447H173.187V0.703141H175.658V7.64357C176.131 6.82049 176.812 6.13974 177.631 5.67151C178.454 5.21189 179.382 4.97741 180.322 4.99123C181.382 4.98323 182.422 5.28588 183.315 5.8626ZM181.804 15.8758C182.426 15.4717 182.922 14.8963 183.232 14.2171C183.582 13.4616 183.758 12.6358 183.746 11.8017C183.759 10.9749 183.583 10.1563 183.232 9.40926C182.921 8.73244 182.426 8.15958 181.804 7.75823C181.185 7.36061 180.466 7.15346 179.733 7.16202C179.004 7.15152 178.289 7.35894 177.677 7.75823C177.054 8.15958 176.559 8.73244 176.248 9.40926C175.9 10.1569 175.727 10.9755 175.742 11.8017C175.728 12.6352 175.901 13.4611 176.248 14.2171C176.546 14.8903 177.025 15.4652 177.631 15.8758C178.243 16.2751 178.959 16.4825 179.687 16.472C180.425 16.4835 181.151 16.2763 181.773 15.8758H181.804ZM191.683 17.7179C190.658 17.1179 189.803 16.2594 189.204 15.2261C188.595 14.1903 188.276 13.0066 188.282 11.8017C188.277 10.6065 188.596 9.43279 189.204 8.40794C189.806 7.37852 190.66 6.52304 191.683 5.92375C192.714 5.31085 193.888 4.98767 195.084 4.98767C196.28 4.98767 197.455 5.31085 198.486 5.92375C199.496 6.52822 200.336 7.38326 200.927 8.40794C201.525 9.43588 201.833 10.6094 201.819 11.8017C201.825 13.0066 201.506 14.1903 200.897 15.2261C200.298 16.2594 199.443 17.1179 198.418 17.7179C197.387 18.3308 196.212 18.654 195.016 18.654C193.82 18.654 192.646 18.3308 191.615 17.7179H191.683ZM197.224 15.8376C197.881 15.4158 198.422 14.8319 198.796 14.1407C199.178 13.4229 199.377 12.6206 199.377 11.8055C199.377 10.9905 199.178 10.1882 198.796 9.47041C198.424 8.78038 197.882 8.19869 197.224 7.78116C196.575 7.37668 195.828 7.16249 195.066 7.16249C194.303 7.16249 193.556 7.37668 192.908 7.78116C192.249 8.19869 191.708 8.78038 191.335 9.47041C190.954 10.1882 190.754 10.9905 190.754 11.8055C190.754 12.6206 190.954 13.4229 191.335 14.1407C191.709 14.8319 192.25 15.4158 192.908 15.8376C193.553 16.2515 194.301 16.4713 195.066 16.4713C195.83 16.4713 196.578 16.2515 197.224 15.8376ZM213.913 5.62565C214.641 6.03934 215.235 6.65809 215.622 7.40662C216.041 8.21725 216.251 9.12149 216.234 10.036V18.3447H213.838V10.4641C213.875 9.59415 213.58 8.74307 213.014 8.08691C212.748 7.78488 212.421 7.54549 212.054 7.38568C211.687 7.22586 211.289 7.14951 210.89 7.16202C210.266 7.15513 209.649 7.29927 209.091 7.58242C208.569 7.83413 208.121 8.2187 207.791 8.6984C207.488 9.14956 207.325 9.68178 207.322 10.2271V18.3447H204.843V5.29697H207.315V7.21553C207.72 6.53397 208.303 5.97858 209 5.61036C209.756 5.19891 210.602 4.98354 211.461 4.98354C212.319 4.98354 213.165 5.19891 213.921 5.61036L213.913 5.62565ZM227.368 1.00889H235.501C236.372 0.990806 237.235 1.18204 238.018 1.56687C238.721 1.90578 239.318 2.4349 239.742 3.0956C240.167 3.76779 240.385 4.5526 240.369 5.35048C240.394 6.14006 240.18 6.91855 239.757 7.58242C239.288 8.25421 238.669 8.80428 237.95 9.18759C238.849 9.6248 239.627 10.2783 240.218 11.0909C240.755 11.8337 241.041 12.7315 241.034 13.6515C241.047 14.4997 240.816 15.3334 240.369 16.0516C239.915 16.7779 239.268 17.3606 238.502 17.7332C237.671 18.142 236.758 18.3513 235.834 18.3447H227.368V1.00889ZM234.851 8.22449C235.617 8.25916 236.369 8.01204 236.968 7.52892C237.232 7.31694 237.444 7.04571 237.587 6.73662C237.73 6.42754 237.8 6.08907 237.792 5.74795C237.798 5.40608 237.727 5.06726 237.584 4.75731C237.441 4.44736 237.23 4.17444 236.968 3.95934C236.369 3.4741 235.618 3.2243 234.851 3.25612H229.885V8.22449H234.851ZM235.252 16.0898C236.095 16.1352 236.924 15.8629 237.58 15.3254C237.877 15.076 238.114 14.761 238.273 14.4046C238.432 14.0482 238.507 13.6599 238.494 13.2693C238.506 12.8801 238.429 12.4934 238.271 12.1385C238.112 11.7836 237.876 11.4698 237.58 11.2208C236.924 10.6834 236.095 10.411 235.252 10.4564H229.885V16.151L235.252 16.0898ZM244.526 0.703141H246.998V18.3447H244.526V0.703141ZM259.893 6.48174C260.377 7.01432 260.751 7.63835 260.995 8.31788C261.239 8.99741 261.348 9.71902 261.314 10.4411V18.3447H258.896V16.5714C258.415 17.2366 257.772 17.7635 257.029 18.1001C256.268 18.4551 255.44 18.6401 254.602 18.6428C253.365 18.689 252.153 18.2848 251.186 17.5039C250.743 17.1339 250.392 16.6653 250.158 16.1348C249.925 15.6044 249.816 15.0265 249.84 14.4464C249.82 13.6273 250.062 12.8234 250.528 12.1533C250.999 11.4796 251.645 10.9505 252.395 10.6246C253.215 10.2546 254.105 10.0694 255.003 10.0819C256.33 10.0959 257.646 10.3336 258.896 10.7851V10.38C258.928 9.51294 258.661 8.6615 258.14 7.97225C257.817 7.62413 257.419 7.35558 256.978 7.18729C256.536 7.01899 256.062 6.95543 255.592 7.00151C254.321 7.07335 253.083 7.44506 251.979 8.08691L251.057 6.24479C252.562 5.42899 254.234 4.97886 255.94 4.93008C256.67 4.89624 257.398 5.01677 258.079 5.28396C258.759 5.55115 259.378 5.95911 259.893 6.48174ZM257.497 16.0516C257.838 15.8681 258.137 15.6161 258.378 15.3112C258.618 15.0062 258.795 14.6547 258.896 14.2783V12.5126C257.755 12.1697 256.571 11.9997 255.381 12.0081C254.571 11.9747 253.774 12.214 253.113 12.6884C252.83 12.8728 252.597 13.1262 252.436 13.4254C252.275 13.7246 252.191 14.0599 252.191 14.4006C252.183 14.724 252.254 15.0445 252.399 15.3328C252.545 15.6212 252.759 15.8683 253.022 16.0516C253.628 16.4858 254.359 16.7036 255.101 16.6707C255.94 16.6846 256.768 16.4708 257.497 16.0516ZM267.437 17.7103C266.411 17.0957 265.554 16.2312 264.943 15.1955C264.329 14.1749 264.005 13.0036 264.005 11.8094C264.005 10.6151 264.329 9.44379 264.943 8.42323C265.558 7.39184 266.421 6.53463 267.452 5.9314C268.468 5.3142 269.631 4.98912 270.816 4.99123C271.705 4.98478 272.586 5.16705 273.401 5.52628C274.212 5.88184 274.953 6.38439 275.585 7.00915L273.915 8.5761C273.516 8.14084 273.036 7.79009 272.501 7.54421C271.895 7.2548 271.226 7.12612 270.557 7.17024C269.888 7.21437 269.241 7.42986 268.677 7.79645C268.013 8.2154 267.466 8.79967 267.089 9.49334C266.702 10.1943 266.499 10.9837 266.5 11.7864C266.494 12.6044 266.697 13.41 267.089 14.1254C267.466 14.8191 268.013 15.4033 268.677 15.8223C269.247 16.1903 269.901 16.4058 270.577 16.4486C271.252 16.4914 271.928 16.36 272.539 16.0669C273.088 15.8104 273.579 15.4437 273.983 14.9891L275.661 16.5178C275.025 17.1607 274.276 17.679 273.454 18.0466C272.623 18.4178 271.724 18.6079 270.816 18.6046C269.63 18.6206 268.463 18.3116 267.437 17.7103ZM278.223 0.703141H280.695V11.9775L287.007 5.29697H290.03L284.467 11.1979L289.758 18.337H286.818L282.774 12.8642L280.703 14.9815V18.3447H278.231L278.223 0.703141Z" fill="#717074"/>
<path d="M51.2935 17.045L46.0629 2.29272C45.9721 2.06567 45.916 1.82597 45.8966 1.58187C45.9142 1.248 46.0599 0.934247 46.3026 0.707295C46.5454 0.480343 46.8662 0.35809 47.1967 0.366525C47.5018 0.371568 47.7963 0.480786 48.0323 0.67644C48.2684 0.872093 48.432 1.14269 48.4968 1.44428L52.828 14.1327L57.1894 1.4137C57.2524 1.12087 57.4113 0.858127 57.6404 0.668058C57.8695 0.477989 58.1554 0.371737 58.4517 0.366525H58.5878C58.8936 0.364445 59.1913 0.466651 59.4326 0.656647C59.674 0.846644 59.845 1.11334 59.9181 1.4137L64.2493 14.1327L68.6485 1.37549C68.7076 1.0896 68.8625 0.833114 69.087 0.649302C69.3114 0.465489 69.5917 0.365612 69.8806 0.366525C70.0424 0.36246 70.2034 0.390677 70.3544 0.449562C70.5054 0.508448 70.6435 0.596849 70.7607 0.709713C70.878 0.822577 70.9721 0.957693 71.0376 1.10734C71.1032 1.25699 71.139 1.41823 71.1429 1.58187C71.1254 1.82628 71.0692 2.06628 70.9766 2.29272L65.6854 17.0526C65.6089 17.3743 65.4312 17.6622 65.1791 17.8731C64.9269 18.084 64.6139 18.2065 64.2871 18.2221H64.2493C63.9112 18.2283 63.5817 18.1136 63.319 17.8983C63.0563 17.6829 62.8771 17.3808 62.8131 17.045L58.5197 4.53231L54.1885 17.045C54.1255 17.3735 53.9516 17.6698 53.6966 17.8831C53.4415 18.0964 53.1211 18.2135 52.7902 18.2144H52.7221C52.39 18.2053 52.0701 18.0859 51.8119 17.8745C51.5537 17.6631 51.3715 17.3716 51.2935 17.045ZM89.4049 1.65066V16.8768C89.3913 17.0553 89.4144 17.2347 89.4726 17.4038C89.5308 17.5729 89.623 17.728 89.7433 17.8593C89.8636 17.9907 90.0094 18.0955 90.1717 18.1671C90.3339 18.2388 90.5091 18.2758 90.6861 18.2758C90.8631 18.2758 91.0383 18.2388 91.2005 18.1671C91.3628 18.0955 91.5086 17.9907 91.6289 17.8593C91.7492 17.728 91.8414 17.5729 91.8996 17.4038C91.9578 17.2347 91.9809 17.0553 91.9673 16.8768V10.9683C91.9673 5.93875 94.7036 3.4087 98.0143 2.99594C98.3323 2.96143 98.6257 2.80688 98.8359 2.56315C99.0461 2.31943 99.1576 2.00448 99.1482 1.68123C99.1563 1.51154 99.1303 1.34194 99.0717 1.18272C99.0131 1.0235 98.9231 0.877992 98.8072 0.755033C98.6912 0.632074 98.5518 0.53423 98.3973 0.467444C98.2428 0.400657 98.0765 0.366323 97.9085 0.366525C96.6263 0.46055 95.3942 0.90871 94.3466 1.66215C93.299 2.4156 92.476 3.44541 91.9673 4.63933V1.65066C91.9703 1.48038 91.94 1.31118 91.8781 1.1528C91.8162 0.994414 91.7239 0.849973 91.6066 0.727785C91.4893 0.605597 91.3492 0.508075 91.1945 0.440828C91.0398 0.373582 90.8734 0.337939 90.705 0.33595C90.3661 0.343961 90.044 0.486246 89.8079 0.732154C89.5718 0.978063 89.4406 1.30792 89.4427 1.65066H89.4049ZM107.425 18.3444C108.608 18.3785 109.784 18.1646 110.881 17.716C111.978 17.2674 112.971 16.5939 113.797 15.7379C113.903 15.642 113.99 15.526 114.052 15.3963C114.113 15.2666 114.149 15.1259 114.158 14.9822C114.166 14.8385 114.146 14.6945 114.099 14.5586C114.052 14.4227 113.979 14.2975 113.884 14.1901C113.789 14.0827 113.674 13.9952 113.546 13.9326C113.418 13.8701 113.279 13.8337 113.137 13.8255C112.995 13.8174 112.852 13.8376 112.718 13.8851C112.583 13.9325 112.46 14.0063 112.353 14.1022C111.712 14.7433 110.952 15.2502 110.117 15.5939C109.281 15.9375 108.387 16.1111 107.485 16.1048C104.462 16.1048 101.892 14.0028 101.537 10.2651H113.759C113.915 10.2641 114.069 10.232 114.213 10.1708C114.356 10.1095 114.487 10.0203 114.596 9.90817C114.706 9.79602 114.792 9.66316 114.851 9.51718C114.91 9.3712 114.939 9.21495 114.938 9.05735C114.938 4.47117 112.096 0.305376 107.092 0.305376C102.421 0.320663 99.0197 4.33358 99.0197 9.3096V9.37839C99.0197 14.7289 102.799 18.3597 107.455 18.3597L107.425 18.3444ZM101.537 8.40764C101.862 5.0368 104.084 2.53732 107.024 2.53732C110.396 2.53732 112.157 5.27375 112.421 8.40764H101.537ZM71.1882 12.9938C71.1882 16.5634 74.4234 18.4132 77.6132 18.4132C78.8107 18.448 79.9993 18.1945 81.0809 17.6735C82.1625 17.1526 83.1062 16.3791 83.8341 15.4169V17.0755C83.8309 17.238 83.8605 17.3994 83.9212 17.5498C83.9819 17.7003 84.0724 17.8366 84.187 17.9504C84.3017 18.0642 84.4382 18.1531 84.588 18.2116C84.7379 18.2702 84.898 18.2972 85.0586 18.2909C85.2242 18.2931 85.3886 18.2611 85.5415 18.1969C85.6945 18.1327 85.8329 18.0375 85.9483 17.9173C86.0636 17.7971 86.1535 17.6543 86.2124 17.4977C86.2712 17.3412 86.2979 17.1741 86.2907 17.0068V7.36811C86.3493 6.44587 86.2235 5.52115 85.9209 4.64914C85.6183 3.77713 85.1451 2.97571 84.5295 2.29272C83.2672 1.01624 81.4001 0.381812 78.9738 0.381812C77.2006 0.301173 75.4331 0.638745 73.8111 1.36784C73.5946 1.44666 73.4091 1.59423 73.2824 1.7885C73.1557 1.98277 73.0946 2.21329 73.1082 2.4456C73.1179 2.74372 73.2414 3.02644 73.4528 3.23449C73.6642 3.44254 73.947 3.55976 74.242 3.56157C74.4009 3.55489 74.5572 3.51861 74.7031 3.45456C75.9609 2.88611 77.3331 2.6243 78.7092 2.69019C81.9293 2.69019 83.8341 4.303 83.8341 7.42926V8.04075C82.1174 7.52318 80.3343 7.2656 78.5429 7.27638C74.1891 7.27638 71.1882 9.22552 71.1882 12.8945V12.9556V12.9938ZM83.9021 11.6103C83.9021 14.362 81.3019 16.3112 78.1499 16.3112C75.8218 16.3112 73.8262 15.0347 73.8262 12.8486V12.7798C73.8262 10.6014 75.6252 9.17965 78.8453 9.17965C80.5578 9.18803 82.2605 9.44283 83.9021 9.93637V11.6256V11.6103ZM4.69368 1.45957C4.56313 1.16044 4.37477 0.890723 4.13967 0.666253C3.90458 0.441783 3.62749 0.267092 3.32469 0.152445C3.02189 0.0377969 2.69948 -0.0144951 2.37641 -0.00135882C2.05334 0.0117775 1.73613 0.0900771 1.4434 0.228939C1.14437 0.357885 0.874619 0.547386 0.650768 0.785767C0.426917 1.02415 0.253709 1.30636 0.141819 1.61501C0.0299277 1.92365 -0.0182762 2.2522 0.000177331 2.58041C0.0186309 2.90861 0.103351 3.22952 0.249117 3.52335L5.70655 15.5239C6.56825 17.4042 7.46775 18.3903 9.16847 18.3903C10.8692 18.3903 11.7687 17.3125 12.6304 15.5239L17.4378 4.92978C17.4914 4.78868 17.589 4.66909 17.7159 4.58909C17.8427 4.5091 17.9918 4.47307 18.1407 4.48645C18.3412 4.48645 18.5335 4.56698 18.6752 4.71033C18.817 4.85368 18.8966 5.0481 18.8966 5.25082V15.5086C18.8966 17.0908 19.7583 18.3903 21.4288 18.3903C23.0993 18.3903 23.9912 17.0908 23.9912 15.5086V7.10058C23.9789 6.74036 24.0413 6.38152 24.1743 6.04712C24.3074 5.71273 24.5081 5.41019 24.7637 5.15895C25.0193 4.9077 25.324 4.71332 25.6583 4.58828C25.9926 4.46325 26.3491 4.41034 26.7048 4.43295C27.0539 4.41616 27.4026 4.47397 27.7282 4.60261C28.0537 4.73125 28.3487 4.92783 28.5941 5.17954C28.8394 5.43125 29.0296 5.73242 29.1521 6.06343C29.2746 6.39443 29.3267 6.74783 29.3051 7.10058V15.5086C29.3051 17.0908 30.1743 18.3903 31.8372 18.3903C33.5002 18.3903 34.4072 17.0908 34.4072 15.5086V7.10058C34.3938 6.74073 34.4552 6.38204 34.5874 6.04765C34.7196 5.71327 34.9196 5.41063 35.1746 5.15926C35.4296 4.90788 35.7339 4.71337 36.0678 4.58827C36.4017 4.46316 36.7579 4.41025 37.1133 4.43295C37.463 4.41504 37.8125 4.47203 38.139 4.60017C38.4654 4.72832 38.7614 4.92474 39.0076 5.17657C39.2537 5.42839 39.4446 5.72996 39.5675 6.06152C39.6905 6.39308 39.7428 6.74716 39.721 7.10058V15.5086C39.721 17.0908 40.5903 18.3903 42.2532 18.3903C43.9162 18.3903 44.8232 17.0908 44.8232 15.5086V5.96932C44.8219 5.16364 44.6596 4.36653 44.3463 3.62577C44.0329 2.88501 43.5749 2.21586 42.9997 1.65841C42.4244 1.10097 41.7438 0.666718 40.9986 0.381684C40.2533 0.0966491 39.4589 -0.0332985 38.6628 -0.000370234C36.6113 0.0353819 34.6541 0.876957 33.2054 2.34623C32.0867 0.878649 30.5523 -0.000370234 27.9672 -0.000370234C25.2233 -0.000370234 22.8196 2.34623 22.8196 2.34623C22.2635 1.64054 21.5626 1.06527 20.7652 0.660141C19.9679 0.255007 19.0931 0.0296527 18.2012 -0.000370234C15.7673 -0.000370234 13.8322 1.08503 12.6531 3.82146L9.16847 12.1225L4.69368 1.45957ZM115.15 2.4991C115.148 2.78209 115.202 3.06267 115.308 3.3246C115.413 3.58653 115.57 3.82462 115.767 4.02508C115.965 4.22554 116.2 4.3844 116.458 4.49246C116.717 4.60052 116.994 4.65563 117.274 4.65461C117.557 4.65562 117.837 4.60021 118.098 4.49157C118.359 4.38293 118.597 4.22319 118.797 4.02151C118.997 3.81983 119.156 3.58019 119.264 3.31631C119.373 3.05244 119.428 2.76953 119.428 2.48382C119.446 2.19047 119.403 1.89664 119.304 1.62038C119.205 1.34413 119.051 1.09129 118.852 0.877396C118.653 0.663503 118.412 0.493075 118.146 0.376586C117.879 0.260096 117.591 0.200005 117.301 0.200005C117.01 0.200005 116.722 0.260096 116.456 0.376586C116.189 0.493075 115.948 0.663503 115.749 0.877396C115.55 1.09129 115.396 1.34413 115.297 1.62038C115.198 1.89664 115.155 2.19047 115.173 2.48382L115.15 2.4991ZM119.013 2.48382C119.028 2.72187 118.995 2.96063 118.916 3.18531C118.837 3.40999 118.713 3.61581 118.551 3.79C118.39 3.96419 118.195 4.10306 117.979 4.198C117.762 4.29294 117.529 4.34192 117.293 4.34192C117.057 4.34192 116.824 4.29294 116.607 4.198C116.391 4.10306 116.196 3.96419 116.035 3.79C115.873 3.61581 115.749 3.40999 115.67 3.18531C115.591 2.96063 115.558 2.72187 115.573 2.48382C115.579 2.02954 115.76 1.59554 116.078 1.27429C116.396 0.953035 116.825 0.769934 117.274 0.763995C117.501 0.761916 117.727 0.805886 117.937 0.893308C118.147 0.98073 118.337 1.10983 118.497 1.27299C118.657 1.43615 118.783 1.63007 118.868 1.84328C118.952 2.05649 118.994 2.28469 118.99 2.51439L119.013 2.48382ZM116.458 3.27876C116.458 3.33957 116.482 3.3979 116.524 3.4409C116.567 3.48391 116.624 3.50807 116.685 3.50807C116.715 3.50913 116.745 3.50393 116.773 3.49279C116.801 3.48164 116.826 3.46479 116.847 3.44328C116.868 3.42177 116.885 3.39606 116.896 3.36776C116.907 3.33945 116.912 3.30916 116.911 3.27876V2.82778H117.274L117.713 3.39341C117.74 3.42725 117.775 3.4549 117.814 3.47462C117.853 3.49435 117.896 3.50573 117.939 3.50807C117.967 3.50807 117.995 3.50253 118.02 3.49177C118.046 3.48102 118.069 3.46525 118.089 3.44538C118.109 3.42551 118.124 3.40191 118.135 3.37595C118.145 3.34998 118.151 3.32215 118.151 3.29404C118.15 3.22903 118.126 3.16653 118.083 3.11824L117.773 2.73606C117.899 2.68767 118.006 2.60015 118.079 2.48613C118.153 2.37211 118.188 2.23747 118.181 2.10163C118.185 1.92561 118.12 1.75518 118 1.62773C117.919 1.55191 117.824 1.49376 117.719 1.45694C117.615 1.42011 117.505 1.40539 117.395 1.4137H116.685C116.655 1.4137 116.625 1.41964 116.598 1.43116C116.57 1.44268 116.545 1.45957 116.524 1.48087C116.503 1.50216 116.486 1.52744 116.475 1.55526C116.464 1.58308 116.458 1.6129 116.458 1.64301V3.27876ZM116.911 2.41502V1.81882H117.365C117.584 1.81882 117.713 1.91819 117.713 2.11692C117.713 2.29272 117.592 2.40738 117.372 2.40738L116.911 2.41502Z" fill="#717074"/>
</g>
<defs>
<clipPath id="clip0_1203_49">
<rect width="290" height="18.6429" fill="white"/>
</clipPath>
</defs>
</svg>
