<svg width="177" height="70" viewBox="0 0 177 70" fill="none" xmlns="http://www.w3.org/2000/svg">
<g clip-path="url(#clip0_1210_200)">
<path d="M51.3301 32.1364C58.0883 16.3864 73.8574 5.40909 92.201 5.40909C110.545 5.40909 126.314 16.3864 133.072 32.1364C133.555 33.5682 135.164 34.3636 136.612 33.7273C137.738 33.4091 138.543 32.2955 138.543 31.1818C138.543 30.8636 138.543 30.3864 138.382 30.0682C130.819 12.4091 112.958 0 92.3619 0C71.6046 0 53.7437 12.4091 46.181 30.0682C46.0201 30.3864 46.0201 30.7045 46.0201 31.1818C46.0201 32.7727 47.3074 33.8864 48.7555 33.8864C50.0428 34.0455 51.0083 33.25 51.3301 32.1364Z" fill="#F38B00"/>
<path d="M26.2281 60.7726C26.0672 61.2499 25.7454 61.5681 25.1018 61.5681H21.4009C20.7572 61.5681 20.4354 61.409 20.2745 60.7726L16.7345 47.7272C16.4127 46.4545 16.2518 44.8635 16.0909 43.2726C15.9299 44.8635 15.769 46.4545 15.4472 47.7272L11.9072 60.7726C11.7463 61.2499 11.4245 61.5681 10.7809 61.5681H6.75813C6.11449 61.5681 5.79267 61.409 5.63176 60.7726L0.482674 41.9999C0.321764 41.3635 0.804492 41.0454 1.28722 41.0454H3.70086C4.34449 41.0454 4.66631 41.2045 4.82722 41.8408L8.0454 55.2045C8.36722 56.7954 8.52813 58.3863 8.68904 59.8181C9.01086 58.3863 9.17177 56.7954 9.49358 55.3635L13.1945 41.8408C13.3554 41.3635 13.8381 41.0454 14.4818 41.0454H17.3781C18.0218 41.0454 18.5045 41.3635 18.6654 41.8408L22.3663 55.2045C22.849 56.6363 23.0099 58.2272 23.1709 59.659C23.3318 58.2272 23.6536 56.6363 23.8145 55.2045L26.8718 41.6817C27.0327 41.2045 27.5154 40.8863 28.159 40.8863H30.4118C31.0554 40.8863 31.3772 41.2045 31.2163 41.8408C31.3772 41.9999 26.2281 60.7726 26.2281 60.7726ZM46.1809 61.7272C40.2272 61.7272 36.3654 57.7499 36.3654 51.0681C36.3654 44.5454 40.2272 40.5681 46.1809 40.5681C52.1345 40.5681 55.8354 44.5454 55.8354 51.0681C55.8354 57.7499 52.1345 61.7272 46.1809 61.7272ZM46.0199 43.4317C42.4799 43.4317 40.549 45.9772 40.549 51.0681C40.549 56.3181 42.4799 58.8635 46.0199 58.8635C49.5599 58.8635 51.4909 56.3181 51.4909 51.0681C51.4909 45.9772 49.5599 43.4317 46.0199 43.4317ZM74.9836 43.909C74.8227 44.5454 74.34 44.8635 73.5354 44.7045C72.8918 44.5454 71.6045 44.2272 70.639 44.2272C69.1909 44.2272 67.099 45.8181 67.099 49.6363V60.7726C67.099 61.2499 66.6163 61.5681 65.9727 61.5681H64.0418C63.559 61.5681 62.9154 61.2499 62.9154 60.7726V41.8408C62.9154 41.3635 63.3981 41.0454 64.0418 41.0454H65.1681C65.6509 41.0454 66.1336 41.2045 66.2945 41.6817L66.9381 43.909C68.3863 41.8408 70.3172 40.5681 72.7309 40.5681C74.34 40.5681 75.6272 41.2045 75.4663 41.9999C75.4663 42.159 74.9836 43.909 74.9836 43.909ZM121.647 61.409H120.682C119.877 61.409 119.555 61.0908 119.394 60.6135L118.912 58.8635C117.464 60.9317 115.533 61.7272 112.958 61.7272C107.648 61.7272 104.913 58.2272 104.913 51.2272C104.913 46.9317 105.556 44.8635 107.326 42.9545C108.614 41.5226 110.866 40.7272 113.119 40.7272C115.694 40.7272 117.464 41.6817 118.912 43.7499V32.1363C118.912 31.659 119.394 31.3408 120.038 31.3408H121.808C122.291 31.3408 122.934 31.659 122.934 32.1363V60.4545C122.774 60.9317 122.291 61.409 121.647 61.409ZM113.924 43.4317C112.314 43.4317 111.188 43.909 110.544 45.0226C109.901 46.1363 109.257 47.8863 109.257 51.0681C109.257 56.4772 110.705 58.7045 113.924 58.7045C117.303 58.7045 118.912 56.159 118.912 51.0681C118.912 46.1363 116.981 43.4317 113.924 43.4317ZM98.4763 61.5681H95.419C94.9363 61.5681 94.4536 61.2499 94.1318 60.7726L86.2472 50.909V60.6135C86.2472 61.0908 85.7645 61.409 85.1209 61.409H83.3509C82.8681 61.409 82.2245 61.0908 82.2245 60.6135V32.2954C82.2245 31.8181 82.7072 31.4999 83.3509 31.4999H85.1209C85.6036 31.4999 86.2472 31.8181 86.2472 32.2954V50.5908L94.2927 41.6817C94.6145 41.3635 94.9363 41.0454 95.5799 41.0454H98.3154C98.959 41.0454 99.2809 41.6817 98.7981 41.9999L90.109 50.5908L98.7981 60.4545C99.4418 60.9317 99.1199 61.5681 98.4763 61.5681ZM152.864 41.8408C152.703 41.3635 153.185 41.0454 153.829 41.0454H156.243C156.886 41.0454 157.369 41.3635 157.53 41.8408L162.357 54.2499C162.518 54.8863 162.84 55.6817 162.84 56.3181C163.001 55.6817 163.323 54.409 163.644 53.4545L167.506 41.6817C167.667 41.2045 168.15 40.8863 168.794 40.8863H171.046C171.69 40.8863 172.173 41.2045 172.012 41.6817L164.127 64.4317C163.323 66.8181 161.714 68.5681 158.978 69.5226L157.852 69.9999C157.369 70.159 156.725 69.9999 156.404 69.6817L155.76 68.409C155.599 68.0908 155.76 67.4545 156.243 67.2954L157.047 66.9772C159.139 66.1817 160.587 64.1135 161.231 61.2499L152.864 41.8408ZM139.186 40.7272C133.233 40.7272 129.854 44.7045 129.854 51.2272C129.854 57.7499 133.394 61.7272 139.025 61.7272C141.439 61.7272 142.887 60.9317 144.496 58.8635L144.979 60.6135C145.14 61.2499 145.623 61.409 146.266 61.409H147.393C148.036 61.409 148.519 61.0908 148.519 60.6135V51.2272C148.197 44.5454 145.14 40.7272 139.186 40.7272ZM139.025 58.8635C135.485 58.8635 134.037 56.4772 134.037 51.2272C134.037 46.1363 135.485 43.5908 139.025 43.5908C142.565 43.5908 144.174 46.1363 144.174 51.2272C144.335 56.4772 142.565 58.8635 139.025 58.8635ZM174.747 56.159C175.069 56.3181 175.391 56.4772 175.713 56.7954C176.034 57.1136 176.195 57.2726 176.356 57.7499C176.517 58.0681 176.517 58.3863 176.517 58.8635C176.517 59.1817 176.517 59.659 176.356 59.9772C176.195 60.2954 176.034 60.6135 175.713 60.9317C175.391 61.2499 175.069 61.409 174.747 61.5681C174.425 61.7272 174.104 61.7272 173.621 61.7272C173.299 61.7272 172.816 61.7272 172.494 61.5681C172.173 61.409 171.851 61.2499 171.529 60.9317C170.564 59.9772 170.403 58.7045 171.207 57.5908C171.529 57.1136 171.851 56.7954 172.173 56.6363C172.655 56.4772 172.977 56.3181 173.621 56.3181C174.104 55.8408 174.425 55.9999 174.747 56.159ZM172.816 56.4772C172.494 56.6363 172.334 56.7954 172.012 56.9545C171.851 57.1135 171.69 57.4317 171.529 57.7499C171.368 58.0681 171.368 58.3863 171.368 58.7045C171.368 59.0226 171.368 59.3408 171.529 59.4999C171.69 59.8181 171.851 59.9772 172.012 60.2954C172.173 60.4545 172.494 60.6136 172.816 60.7726C173.138 60.9317 173.46 60.9317 173.782 60.9317C174.425 60.9317 175.069 60.6136 175.391 60.2954C175.874 59.8181 176.034 59.3408 176.034 58.7045C176.034 57.7499 175.552 56.9545 174.586 56.4772C174.104 56.3181 173.46 56.3181 172.816 56.4772ZM173.782 57.1136C174.264 57.1136 174.586 57.1135 174.747 57.2726C174.908 57.4317 175.069 57.5908 175.069 57.909C175.069 58.0681 175.069 58.2272 174.908 58.3863C174.747 58.5454 174.586 58.7045 174.425 58.7045L175.069 60.1363H174.264L173.621 58.8635H173.299V60.1363H172.494V57.1136H173.782ZM173.299 58.3863H173.621C173.782 58.3863 173.943 58.3863 174.104 58.2272C174.264 58.2272 174.264 58.0681 174.264 57.909C174.264 57.7499 174.264 57.5908 174.104 57.5908C173.943 57.4317 173.782 57.4317 173.621 57.4317H173.299V58.3863Z" fill="#03619C"/>
</g>
<defs>
<clipPath id="clip0_1210_200">
<rect width="177" height="70" fill="white"/>
</clipPath>
</defs>
</svg>
