<svg width="80" height="71" fill="none" xmlns="http://www.w3.org/2000/svg"><path d="M63.936 31.205c-3.425 0-6.76 1.201-9.405 3.364a14.847 14.847 0 0 0-5.468 11.533c0 3.424 1.141 6.638 3.275 9.31C55.192 58.958 59.429 61 63.936 61c3.456 0 6.851-1.232 9.526-3.454a14.862 14.862 0 0 0 5.378-11.443 14.88 14.88 0 0 0-3.365-9.4 14.86 14.86 0 0 0-11.539-5.467v-.03ZM54.351 53.1c-1.532-2.072-2.344-4.505-2.344-7.028 0-2.163.601-4.265 1.713-6.127 1.082-1.772 2.644-3.244 4.477-4.265l.24-.12 1.623 4.926-4.928 8.83 1.923 2.552-2.584 1.412-.12-.15v-.03Zm20.283-1.802a12.139 12.139 0 0 1-3.636 4.355 11.665 11.665 0 0 1-7.062 2.343c-2.584 0-4.958-.812-7.03-2.343l-.271-.21 4.837-2.643-2.824-3.755 4.627-8.29-2.073-6.306.24-.06c.842-.18 1.683-.27 2.464-.27 2.014 0 3.997.51 5.77 1.531a12.057 12.057 0 0 1 3.245 2.673l.12.15-5.589 5.947 4.477 6.547h2.825l-.15.33h.03Zm1.262-5.226c0 .57-.09 1.111-.15 1.652v.3h-2.194l-2.254-3.304 3.486-3.694.15.3c.3.721.54 1.442.721 2.193.18.811.27 1.682.27 2.523l-.03.03Z" fill="#005EAB"/><path fill-rule="evenodd" clip-rule="evenodd" d="M3.505 51.418V3.003H68.98v3.965H28.595L26.582 9.88H68.95v18.892c1.052.39 2.073.84 3.005 1.441V0H.5v54.452h47.987a15.33 15.33 0 0 1-1.593-3.034H3.505Zm4.33-22.916v-3.394c.031-1.442.782-2.763 2.044-3.484.24-.12.481-.24.782-.36h.15l-.09-.15c-.361-.661-.601-1.352-.662-2.073a3.89 3.89 0 0 1 1.653-3.664 3.982 3.982 0 0 1 4.117-.24 3.94 3.94 0 0 1 2.103 3.484c0 .84-.24 1.712-.691 2.492l-.09.18h.15c.27.09.511.21.751.331a4.014 4.014 0 0 1 2.044 3.484v3.394H7.836Zm7.122-11.143c-.36-.3-.78-.42-1.202-.33l.03.03c-.63.09-1.322.6-1.382 1.351-.06.751.27 1.682.842 2.253.27.27.54.42.66.42.241 0 .451-.09.662-.27.63-.54 1.021-1.411 1.021-2.192 0-.48-.24-.961-.63-1.262Zm-3.906 6.277c-.51.3-.841.871-.841 1.472l-.03-.03v1.051h7.542v-1.051c0-.6-.33-1.141-.841-1.442-.271-.15-.602-.21-.992-.21h-3.816c-.42 0-.721.06-1.022.21Zm50.36-3.033 1.772-2.613H24.39v2.613h37.02Zm-3.456 5.258-1.773 2.673H24.39v-2.673h33.564Zm-27.076 10.57 1.773-2.644H7.532v2.643h23.347ZM7.71 9.82l1.983-2.883h3.786L11.497 9.82H7.711Zm7.423-2.883L13.211 9.82h3.756l1.983-2.883h-3.816Zm3.514 2.883 1.984-2.883h3.756L22.465 9.82h-3.817Z" fill="#1C3C70"/></svg>